<svg width="2560" height="1231" viewBox="0 0 2560 1231" fill="none" xmlns="http://www.w3.org/2000/svg">
<path d="M-116.001 191V55.2733H-37.7489V191H-62.2133V72.8675H-91.5369V191H-116.001ZM-10.6258 191V55.2733H46.3459V72.6999H14.1736V111.742H39.4757V129.001H14.1736V173.908H46.681V191H-10.6258ZM67.7495 191V55.2733H107.63C115.785 55.2733 122.375 56.7813 127.402 59.7975C132.541 62.8136 136.283 67.2262 138.629 73.035C141.087 78.7322 142.315 85.6582 142.315 93.813C142.315 102.638 140.807 109.787 137.791 115.261C134.775 120.623 130.53 124.533 125.056 126.991C119.694 129.448 113.327 130.677 105.954 130.677H92.549V191H67.7495ZM92.549 113.25H101.933C106.401 113.25 109.864 112.636 112.322 111.407C114.891 110.067 116.622 108 117.516 105.207C118.521 102.303 119.024 98.4489 119.024 93.6454C119.024 88.7302 118.633 84.7645 117.851 81.7484C117.181 78.6205 115.617 76.3305 113.159 74.8782C110.813 73.426 107.071 72.6999 101.933 72.6999H92.549V113.25ZM162.816 191V55.2733H196.161C202.193 55.2733 207.611 55.8318 212.415 56.9489C217.33 58.066 221.519 59.9651 224.982 62.6461C228.557 65.2154 231.294 68.7342 233.193 73.2026C235.092 77.671 236.041 83.3123 236.041 90.1265C236.041 95.6003 235.259 100.292 233.695 104.202C232.243 108.112 230.065 111.24 227.16 113.585C224.256 115.82 220.625 117.328 216.269 118.11C221.631 119.003 226.043 120.902 229.506 123.807C233.081 126.6 235.706 130.286 237.382 134.866C239.169 139.446 240.063 144.976 240.063 151.455C240.063 157.934 239.225 163.687 237.549 168.714C235.985 173.629 233.584 177.762 230.344 181.114C227.216 184.353 223.251 186.811 218.447 188.487C213.755 190.162 208.226 191 201.858 191H162.816ZM187.615 173.573H196.999C204.483 173.573 209.566 171.786 212.247 168.211C214.928 164.525 216.269 158.884 216.269 151.287C216.269 145.814 215.598 141.401 214.258 138.05C213.029 134.587 210.907 132.018 207.891 130.342C204.986 128.666 201.076 127.828 196.161 127.828H187.615V173.573ZM187.615 110.737H195.993C200.909 110.737 204.707 110.011 207.388 108.559C210.069 107.106 211.912 104.872 212.917 101.856C214.035 98.8399 214.593 95.0418 214.593 90.4617C214.593 85.6582 213.755 81.9718 212.08 79.4025C210.516 76.7214 208.114 74.9341 204.874 74.0404C201.635 73.035 197.502 72.5323 192.475 72.5323H187.615V110.737ZM299.655 192.843C290.048 192.843 282.396 191.056 276.699 187.481C271.002 183.906 266.924 178.768 264.467 172.065C262.009 165.363 260.78 157.431 260.78 148.271V97.4994C260.78 88.3392 262.009 80.5196 264.467 74.0404C266.924 67.4496 271.002 62.4227 276.699 58.9597C282.396 55.4967 290.048 53.7652 299.655 53.7652C309.486 53.7652 317.194 55.4967 322.779 58.9597C328.476 62.4227 332.554 67.4496 335.011 74.0404C337.581 80.5196 338.865 88.3392 338.865 97.4994V148.439C338.865 157.487 337.581 165.363 335.011 172.065C332.554 178.656 328.476 183.795 322.779 187.481C317.194 191.056 309.486 192.843 299.655 192.843ZM299.655 174.579C303.789 174.579 306.805 173.685 308.704 171.898C310.715 170.11 312.055 167.653 312.725 164.525C313.396 161.397 313.731 157.99 313.731 154.304V91.8022C313.731 88.0041 313.396 84.5969 312.725 81.5808C312.055 78.5646 310.715 76.2188 308.704 74.5431C306.805 72.7558 303.789 71.8621 299.655 71.8621C295.745 71.8621 292.785 72.7558 290.774 74.5431C288.764 76.2188 287.423 78.5646 286.753 81.5808C286.083 84.5969 285.748 88.0041 285.748 91.8022V154.304C285.748 157.99 286.027 161.397 286.585 164.525C287.256 167.653 288.596 170.11 290.607 171.898C292.618 173.685 295.634 174.579 299.655 174.579ZM400.776 192.843C391.169 192.843 383.517 191.056 377.82 187.481C372.123 183.906 368.045 178.768 365.588 172.065C363.13 165.363 361.901 157.431 361.901 148.271V97.4994C361.901 88.3392 363.13 80.5196 365.588 74.0404C368.045 67.4496 372.123 62.4227 377.82 58.9597C383.517 55.4967 391.169 53.7652 400.776 53.7652C410.607 53.7652 418.315 55.4967 423.9 58.9597C429.597 62.4227 433.675 67.4496 436.132 74.0404C438.701 80.5196 439.986 88.3392 439.986 97.4994V148.439C439.986 157.487 438.701 165.363 436.132 172.065C433.675 178.656 429.597 183.795 423.9 187.481C418.315 191.056 410.607 192.843 400.776 192.843ZM400.776 174.579C404.909 174.579 407.926 173.685 409.825 171.898C411.835 170.11 413.176 167.653 413.846 164.525C414.516 161.397 414.852 157.99 414.852 154.304V91.8022C414.852 88.0041 414.516 84.5969 413.846 81.5808C413.176 78.5646 411.835 76.2188 409.825 74.5431C407.926 72.7558 404.909 71.8621 400.776 71.8621C396.866 71.8621 393.906 72.7558 391.895 74.5431C389.884 76.2188 388.544 78.5646 387.874 81.5808C387.203 84.5969 386.868 88.0041 386.868 91.8022V154.304C386.868 157.99 387.148 161.397 387.706 164.525C388.376 167.653 389.717 170.11 391.728 171.898C393.738 173.685 396.755 174.579 400.776 174.579ZM478.606 191V73.5377H456.99V55.2733H524.686V73.5377H503.405V191H478.606ZM544.071 191V55.2733H568.703V112.245H573.73L595.68 55.2733H620.312L594.507 119.283L622.323 191H597.188L573.73 128.499H568.703V191H544.071ZM641.093 191V55.2733H680.973C689.128 55.2733 695.719 56.7813 700.746 59.7975C705.884 62.8136 709.626 67.2262 711.972 73.035C714.43 78.7322 715.659 85.6582 715.659 93.813C715.659 102.638 714.151 109.787 711.134 115.261C708.118 120.623 703.873 124.533 698.4 126.991C693.038 129.448 686.67 130.677 679.297 130.677H665.892V191H641.093ZM665.892 113.25H675.276C679.744 113.25 683.207 112.636 685.665 111.407C688.234 110.067 689.966 108 690.859 105.207C691.865 102.303 692.367 98.4489 692.367 93.6454C692.367 88.7302 691.976 84.7645 691.194 81.7484C690.524 78.6205 688.96 76.3305 686.503 74.8782C684.157 73.426 680.414 72.6999 675.276 72.6999H665.892V113.25ZM736.494 191V55.2733H761.126V112.245H767.158C776.43 112.245 784.138 113.53 790.282 116.099C796.426 118.557 801.062 122.69 804.19 128.499C807.318 134.196 808.882 141.904 808.882 151.622C808.882 159.219 807.876 165.586 805.866 170.725C803.967 175.752 801.174 179.773 797.488 182.789C793.801 185.806 789.333 187.928 784.082 189.157C778.832 190.386 772.856 191 766.153 191H736.494ZM761.126 174.244H766.321C771.012 174.244 774.811 173.573 777.715 172.233C780.619 170.892 782.742 168.546 784.082 165.195C785.423 161.732 786.037 157.04 785.926 151.12C785.926 144.082 784.529 138.72 781.737 135.034C778.944 131.347 773.693 129.504 765.986 129.504H761.126V174.244ZM821.617 191V55.2733H846.249V191H821.617ZM873.771 191V55.2733H907.116C913.148 55.2733 918.566 55.8318 923.37 56.9489C928.285 58.066 932.474 59.9651 935.937 62.6461C939.512 65.2154 942.249 68.7342 944.148 73.2026C946.047 77.671 946.996 83.3123 946.996 90.1265C946.996 95.6003 946.214 100.292 944.65 104.202C943.198 108.112 941.02 111.24 938.115 113.585C935.211 115.82 931.58 117.328 927.224 118.11C932.586 119.003 936.998 120.902 940.461 123.807C944.036 126.6 946.661 130.286 948.337 134.866C950.124 139.446 951.018 144.976 951.018 151.455C951.018 157.934 950.18 163.687 948.504 168.714C946.941 173.629 944.539 177.762 941.299 181.114C938.171 184.353 934.206 186.811 929.402 188.487C924.71 190.162 919.181 191 912.813 191H873.771ZM898.57 173.573H907.954C915.439 173.573 920.521 171.786 923.202 168.211C925.883 164.525 927.224 158.884 927.224 151.287C927.224 145.814 926.554 141.401 925.213 138.05C923.984 134.587 921.862 132.018 918.846 130.342C915.941 128.666 912.031 127.828 907.116 127.828H898.57V173.573ZM898.57 110.737H906.949C911.864 110.737 915.662 110.011 918.343 108.559C921.024 107.106 922.867 104.872 923.873 101.856C924.99 98.8399 925.548 95.0418 925.548 90.4617C925.548 85.6582 924.71 81.9718 923.035 79.4025C921.471 76.7214 919.069 74.9341 915.829 74.0404C912.59 73.035 908.457 72.5323 903.43 72.5323H898.57V110.737ZM966.876 191L994.022 55.2733H1020.5L1047.64 191H1024.69L1019.32 159.666H995.697L990.168 191H966.876ZM998.211 143.915H1016.64L1007.43 86.9428L998.211 143.915ZM1078.29 191V73.5377H1056.68V55.2733H1124.37V73.5377H1103.09V191H1078.29ZM1143.42 191V55.2733H1200.4V72.6999H1168.22V111.742H1193.53V129.001H1168.22V173.908H1200.73V191H1143.42ZM1212.42 191V173.238C1215.54 173.35 1218.17 173.182 1220.29 172.736C1222.53 172.177 1224.37 171.004 1225.82 169.217C1227.39 167.429 1228.67 164.692 1229.68 161.006C1230.68 157.208 1231.52 152.125 1232.19 145.758C1232.86 139.39 1233.59 131.291 1234.37 121.461L1238.72 55.2733H1304.74V191H1280.11V73.8729H1260.67L1257.66 124.477C1256.99 134.419 1256.21 143.188 1255.31 150.785C1254.53 158.381 1253.25 164.86 1251.46 170.222C1249.78 175.472 1247.38 179.717 1244.25 182.957C1241.13 186.197 1236.99 188.487 1231.85 189.827C1226.71 191.056 1220.24 191.447 1212.42 191ZM1332.75 191V55.2733H1357.38V112.245H1363.41C1372.57 112.245 1380.22 113.53 1386.37 116.099C1392.51 118.557 1397.15 122.69 1400.27 128.499C1403.4 134.196 1404.97 141.904 1404.97 151.622C1404.97 159.219 1404.02 165.586 1402.12 170.725C1400.22 175.752 1397.37 179.773 1393.57 182.789C1389.89 185.806 1385.42 187.928 1380.17 189.157C1374.92 190.386 1369 191 1362.41 191H1332.75ZM1357.38 174.244H1362.41C1367.21 174.244 1371.01 173.573 1373.8 172.233C1376.7 170.892 1378.83 168.546 1380.17 165.195C1381.51 161.732 1382.18 157.04 1382.18 151.12C1382.07 144.082 1380.61 138.72 1377.82 135.034C1375.14 131.347 1369.89 129.504 1362.07 129.504H1357.38V174.244Z" fill="#187A85"/>
<path d="M1465.98 191V55.2733H1544.23V191H1519.76V72.8675H1490.44V191H1465.98ZM1571.35 191V55.2733H1628.32V72.6999H1596.15V111.742H1621.45V129.001H1596.15V173.908H1628.66V191H1571.35ZM1649.73 191V55.2733H1689.61C1697.76 55.2733 1704.35 56.7813 1709.38 59.7975C1714.52 62.8136 1718.26 67.2262 1720.61 73.035C1723.06 78.7322 1724.29 85.6582 1724.29 93.813C1724.29 102.638 1722.78 109.787 1719.77 115.261C1716.75 120.623 1712.51 124.533 1707.03 126.991C1701.67 129.448 1695.3 130.677 1687.93 130.677H1674.53V191H1649.73ZM1674.53 113.25H1683.91C1688.38 113.25 1691.84 112.636 1694.3 111.407C1696.87 110.067 1698.6 108 1699.49 105.207C1700.5 102.303 1701 98.4489 1701 93.6454C1701 88.7302 1700.61 84.7645 1699.83 81.7484C1699.16 78.6205 1697.59 76.3305 1695.14 74.8782C1692.79 73.426 1689.05 72.6999 1683.91 72.6999H1674.53V113.25ZM1744.79 191V55.2733H1778.14C1784.17 55.2733 1789.59 55.8318 1794.39 56.9489C1799.31 58.066 1803.5 59.9651 1806.96 62.6461C1810.53 65.2154 1813.27 68.7342 1815.17 73.2026C1817.07 77.671 1818.02 83.3123 1818.02 90.1265C1818.02 95.6003 1817.24 100.292 1815.67 104.202C1814.22 108.112 1812.04 111.24 1809.14 113.585C1806.23 115.82 1802.6 117.328 1798.25 118.11C1803.61 119.003 1808.02 120.902 1811.48 123.807C1815.06 126.6 1817.68 130.286 1819.36 134.866C1821.15 139.446 1822.04 144.976 1822.04 151.455C1822.04 157.934 1821.2 163.687 1819.53 168.714C1817.96 173.629 1815.56 177.762 1812.32 181.114C1809.19 184.353 1805.23 186.811 1800.42 188.487C1795.73 190.162 1790.2 191 1783.83 191H1744.79ZM1769.59 173.573H1778.98C1786.46 173.573 1791.54 171.786 1794.22 168.211C1796.9 164.525 1798.25 158.884 1798.25 151.287C1798.25 145.814 1797.58 141.401 1796.23 138.05C1795.01 134.587 1792.88 132.018 1789.87 130.342C1786.96 128.666 1783.05 127.828 1778.14 127.828H1769.59V173.573ZM1769.59 110.737H1777.97C1782.89 110.737 1786.68 110.011 1789.36 108.559C1792.05 107.106 1793.89 104.872 1794.89 101.856C1796.01 98.8399 1796.57 95.0418 1796.57 90.4617C1796.57 85.6582 1795.73 81.9718 1794.06 79.4025C1792.49 76.7214 1790.09 74.9341 1786.85 74.0404C1783.61 73.035 1779.48 72.5323 1774.45 72.5323H1769.59V110.737ZM1881.63 192.843C1872.02 192.843 1864.37 191.056 1858.68 187.481C1852.98 183.906 1848.9 178.768 1846.44 172.065C1843.99 165.363 1842.76 157.431 1842.76 148.271V97.4994C1842.76 88.3392 1843.99 80.5196 1846.44 74.0404C1848.9 67.4496 1852.98 62.4227 1858.68 58.9597C1864.37 55.4967 1872.02 53.7652 1881.63 53.7652C1891.46 53.7652 1899.17 55.4967 1904.76 58.9597C1910.45 62.4227 1914.53 67.4496 1916.99 74.0404C1919.56 80.5196 1920.84 88.3392 1920.84 97.4994V148.439C1920.84 157.487 1919.56 165.363 1916.99 172.065C1914.53 178.656 1910.45 183.795 1904.76 187.481C1899.17 191.056 1891.46 192.843 1881.63 192.843ZM1881.63 174.579C1885.77 174.579 1888.78 173.685 1890.68 171.898C1892.69 170.11 1894.03 167.653 1894.7 164.525C1895.37 161.397 1895.71 157.99 1895.71 154.304V91.8022C1895.71 88.0041 1895.37 84.5969 1894.7 81.5808C1894.03 78.5646 1892.69 76.2188 1890.68 74.5431C1888.78 72.7558 1885.77 71.8621 1881.63 71.8621C1877.72 71.8621 1874.76 72.7558 1872.75 74.5431C1870.74 76.2188 1869.4 78.5646 1868.73 81.5808C1868.06 84.5969 1867.72 88.0041 1867.72 91.8022V154.304C1867.72 157.99 1868 161.397 1868.56 164.525C1869.23 167.653 1870.57 170.11 1872.58 171.898C1874.59 173.685 1877.61 174.579 1881.63 174.579ZM1982.75 192.843C1973.15 192.843 1965.49 191.056 1959.8 187.481C1954.1 183.906 1950.02 178.768 1947.56 172.065C1945.11 165.363 1943.88 157.431 1943.88 148.271V97.4994C1943.88 88.3392 1945.11 80.5196 1947.56 74.0404C1950.02 67.4496 1954.1 62.4227 1959.8 58.9597C1965.49 55.4967 1973.15 53.7652 1982.75 53.7652C1992.58 53.7652 2000.29 55.4967 2005.88 58.9597C2011.57 62.4227 2015.65 67.4496 2018.11 74.0404C2020.68 80.5196 2021.96 88.3392 2021.96 97.4994V148.439C2021.96 157.487 2020.68 165.363 2018.11 172.065C2015.65 178.656 2011.57 183.795 2005.88 187.481C2000.29 191.056 1992.58 192.843 1982.75 192.843ZM1982.75 174.579C1986.89 174.579 1989.9 173.685 1991.8 171.898C1993.81 170.11 1995.15 167.653 1995.82 164.525C1996.49 161.397 1996.83 157.99 1996.83 154.304V91.8022C1996.83 88.0041 1996.49 84.5969 1995.82 81.5808C1995.15 78.5646 1993.81 76.2188 1991.8 74.5431C1989.9 72.7558 1986.89 71.8621 1982.75 71.8621C1978.84 71.8621 1975.88 72.7558 1973.87 74.5431C1971.86 76.2188 1970.52 78.5646 1969.85 81.5808C1969.18 84.5969 1968.84 88.0041 1968.84 91.8022V154.304C1968.84 157.99 1969.12 161.397 1969.68 164.525C1970.35 167.653 1971.69 170.11 1973.7 171.898C1975.72 173.685 1978.73 174.579 1982.75 174.579ZM2060.58 191V73.5377H2038.97V55.2733H2106.66V73.5377H2085.38V191H2060.58ZM2126.05 191V55.2733H2150.68V112.245H2155.71L2177.66 55.2733H2202.29L2176.48 119.283L2204.3 191H2179.17L2155.71 128.499H2150.68V191H2126.05ZM2223.07 191V55.2733H2262.95C2271.1 55.2733 2277.7 56.7813 2282.72 59.7975C2287.86 62.8136 2291.6 67.2262 2293.95 73.035C2296.41 78.7322 2297.64 85.6582 2297.64 93.813C2297.64 102.638 2296.13 109.787 2293.11 115.261C2290.09 120.623 2285.85 124.533 2280.38 126.991C2275.01 129.448 2268.65 130.677 2261.27 130.677H2247.87V191H2223.07ZM2247.87 113.25H2257.25C2261.72 113.25 2265.18 112.636 2267.64 111.407C2270.21 110.067 2271.94 108 2272.84 105.207C2273.84 102.303 2274.34 98.4489 2274.34 93.6454C2274.34 88.7302 2273.95 84.7645 2273.17 81.7484C2272.5 78.6205 2270.94 76.3305 2268.48 74.8782C2266.13 73.426 2262.39 72.6999 2257.25 72.6999H2247.87V113.25ZM2318.47 191V55.2733H2343.1V112.245H2349.14C2358.41 112.245 2366.11 113.53 2372.26 116.099C2378.4 118.557 2383.04 122.69 2386.17 128.499C2389.29 134.196 2390.86 141.904 2390.86 151.622C2390.86 159.219 2389.85 165.586 2387.84 170.725C2385.94 175.752 2383.15 179.773 2379.46 182.789C2375.78 185.806 2371.31 187.928 2366.06 189.157C2360.81 190.386 2354.83 191 2348.13 191H2318.47ZM2343.1 174.244H2348.3C2352.99 174.244 2356.79 173.573 2359.69 172.233C2362.6 170.892 2364.72 168.546 2366.06 165.195C2367.4 161.732 2368.01 157.04 2367.9 151.12C2367.9 144.082 2366.51 138.72 2363.71 135.034C2360.92 131.347 2355.67 129.504 2347.96 129.504H2343.1V174.244ZM2403.59 191V55.2733H2428.23V191H2403.59ZM2455.75 191V55.2733H2489.09C2495.13 55.2733 2500.54 55.8318 2505.35 56.9489C2510.26 58.066 2514.45 59.9651 2517.91 62.6461C2521.49 65.2154 2524.23 68.7342 2526.12 73.2026C2528.02 77.671 2528.97 83.3123 2528.97 90.1265C2528.97 95.6003 2528.19 100.292 2526.63 104.202C2525.17 108.112 2523 111.24 2520.09 113.585C2517.19 115.82 2513.56 117.328 2509.2 118.11C2514.56 119.003 2518.97 120.902 2522.44 123.807C2526.01 126.6 2528.64 130.286 2530.31 134.866C2532.1 139.446 2532.99 144.976 2532.99 151.455C2532.99 157.934 2532.16 163.687 2530.48 168.714C2528.92 173.629 2526.52 177.762 2523.28 181.114C2520.15 184.353 2516.18 186.811 2511.38 188.487C2506.69 190.162 2501.16 191 2494.79 191H2455.75ZM2480.55 173.573H2489.93C2497.42 173.573 2502.5 171.786 2505.18 168.211C2507.86 164.525 2509.2 158.884 2509.2 151.287C2509.2 145.814 2508.53 141.401 2507.19 138.05C2505.96 134.587 2503.84 132.018 2500.82 130.342C2497.92 128.666 2494.01 127.828 2489.09 127.828H2480.55V173.573ZM2480.55 110.737H2488.93C2493.84 110.737 2497.64 110.011 2500.32 108.559C2503 107.106 2504.84 104.872 2505.85 101.856C2506.97 98.8399 2507.52 95.0418 2507.52 90.4617C2507.52 85.6582 2506.69 81.9718 2505.01 79.4025C2503.45 76.7214 2501.05 74.9341 2497.81 74.0404C2494.57 73.035 2490.43 72.5323 2485.41 72.5323H2480.55V110.737ZM2548.85 191L2576 55.2733H2602.47L2629.62 191H2606.66L2601.3 159.666H2577.67L2572.14 191H2548.85ZM2580.19 143.915H2598.62L2589.4 86.9428L2580.19 143.915ZM2660.27 191V73.5377H2638.66V55.2733H2706.35V73.5377H2685.07V191H2660.27ZM2725.4 191V55.2733H2782.37V72.6999H2750.2V111.742H2775.5V129.001H2750.2V173.908H2782.71V191H2725.4ZM2794.39 191V173.238C2797.52 173.35 2800.15 173.182 2802.27 172.736C2804.5 172.177 2806.35 171.004 2807.8 169.217C2809.36 167.429 2810.65 164.692 2811.65 161.006C2812.66 157.208 2813.5 152.125 2814.17 145.758C2814.84 139.39 2815.56 131.291 2816.34 121.461L2820.7 55.2733H2886.72V191H2862.09V73.8729H2842.65L2839.63 124.477C2838.96 134.419 2838.18 143.188 2837.29 150.785C2836.51 158.381 2835.22 164.86 2833.44 170.222C2831.76 175.472 2829.36 179.717 2826.23 182.957C2823.1 186.197 2818.97 188.487 2813.83 189.827C2808.69 191.056 2802.21 191.447 2794.39 191ZM2914.72 191V55.2733H2939.36V112.245H2945.39C2954.55 112.245 2962.2 113.53 2968.34 116.099C2974.49 118.557 2979.12 122.69 2982.25 128.499C2985.38 134.196 2986.94 141.904 2986.94 151.622C2986.94 159.219 2985.99 165.586 2984.09 170.725C2982.2 175.752 2979.35 179.773 2975.55 182.789C2971.86 185.806 2967.39 187.928 2962.14 189.157C2956.89 190.386 2950.97 191 2944.38 191H2914.72ZM2939.36 174.244H2944.38C2949.19 174.244 2952.98 173.573 2955.78 172.233C2958.68 170.892 2960.8 168.546 2962.14 165.195C2963.48 161.732 2964.15 157.04 2964.15 151.12C2964.04 144.082 2962.59 138.72 2959.8 135.034C2957.12 131.347 2951.87 129.504 2944.05 129.504H2939.36V174.244Z" fill="#187A85"/>
<path d="M-535.779 439.051V303.324H-457.526V439.051H-481.991V320.918H-511.314V439.051H-535.779ZM-430.403 439.051V303.324H-373.431V320.751H-405.604V359.793H-380.302V377.052H-405.604V421.959H-373.096V439.051H-430.403ZM-352.028 439.051V303.324H-312.148C-303.993 303.324 -297.402 304.832 -292.375 307.848C-287.236 310.864 -283.494 315.277 -281.148 321.086C-278.691 326.783 -277.462 333.709 -277.462 341.864C-277.462 350.689 -278.97 357.838 -281.986 363.312C-285.002 368.674 -289.247 372.584 -294.721 375.041C-300.083 377.499 -306.45 378.728 -313.823 378.728H-327.228V439.051H-352.028ZM-327.228 361.301H-317.845C-313.376 361.301 -309.913 360.687 -307.456 359.458C-304.887 358.117 -303.155 356.051 -302.261 353.258C-301.256 350.354 -300.753 346.5 -300.753 341.696C-300.753 336.781 -301.144 332.815 -301.926 329.799C-302.596 326.671 -304.16 324.381 -306.618 322.929C-308.964 321.477 -312.706 320.751 -317.845 320.751H-327.228V361.301ZM-256.961 439.051V303.324H-223.616C-217.584 303.324 -212.166 303.883 -207.363 305C-202.447 306.117 -198.258 308.016 -194.795 310.697C-191.221 313.266 -188.484 316.785 -186.585 321.253C-184.686 325.722 -183.736 331.363 -183.736 338.177C-183.736 343.651 -184.518 348.343 -186.082 352.253C-187.534 356.163 -189.713 359.29 -192.617 361.636C-195.521 363.87 -199.152 365.379 -203.509 366.16C-198.147 367.054 -193.734 368.953 -190.271 371.858C-186.696 374.65 -184.071 378.337 -182.396 382.917C-180.608 387.497 -179.715 393.027 -179.715 399.506C-179.715 405.985 -180.552 411.738 -182.228 416.765C-183.792 421.68 -186.194 425.813 -189.433 429.165C-192.561 432.404 -196.527 434.862 -201.33 436.537C-206.022 438.213 -211.552 439.051 -217.919 439.051H-256.961ZM-232.162 421.624H-222.778C-215.294 421.624 -210.211 419.837 -207.53 416.262C-204.849 412.576 -203.509 406.934 -203.509 399.338C-203.509 393.864 -204.179 389.452 -205.519 386.101C-206.748 382.638 -208.871 380.068 -211.887 378.393C-214.791 376.717 -218.701 375.879 -223.616 375.879H-232.162V421.624ZM-232.162 358.788H-223.784C-218.869 358.788 -215.071 358.062 -212.39 356.609C-209.708 355.157 -207.865 352.923 -206.86 349.907C-205.743 346.891 -205.184 343.093 -205.184 338.512C-205.184 333.709 -206.022 330.023 -207.698 327.453C-209.262 324.772 -211.663 322.985 -214.903 322.091C-218.143 321.086 -222.276 320.583 -227.303 320.583H-232.162V358.788ZM-120.122 440.894C-129.729 440.894 -137.381 439.107 -143.078 435.532C-148.775 431.957 -152.853 426.819 -155.31 420.116C-157.768 413.414 -158.997 405.482 -158.997 396.322V345.55C-158.997 336.39 -157.768 328.57 -155.31 322.091C-152.853 315.5 -148.775 310.473 -143.078 307.01C-137.381 303.547 -129.729 301.816 -120.122 301.816C-110.292 301.816 -102.584 303.547 -96.9982 307.01C-91.3011 310.473 -87.2237 315.5 -84.7661 322.091C-82.1968 328.57 -80.9121 336.39 -80.9121 345.55V396.49C-80.9121 405.538 -82.1968 413.414 -84.7661 420.116C-87.2237 426.707 -91.3011 431.846 -96.9982 435.532C-102.584 439.107 -110.292 440.894 -120.122 440.894ZM-120.122 422.63C-115.989 422.63 -112.973 421.736 -111.074 419.949C-109.063 418.161 -107.722 415.704 -107.052 412.576C-106.382 409.448 -106.047 406.041 -106.047 402.354V339.853C-106.047 336.055 -106.382 332.648 -107.052 329.632C-107.722 326.615 -109.063 324.27 -111.074 322.594C-112.973 320.807 -115.989 319.913 -120.122 319.913C-124.032 319.913 -126.992 320.807 -129.003 322.594C-131.014 324.27 -132.354 326.615 -133.024 329.632C-133.695 332.648 -134.03 336.055 -134.03 339.853V402.354C-134.03 406.041 -133.751 409.448 -133.192 412.576C-132.522 415.704 -131.181 418.161 -129.17 419.949C-127.16 421.736 -124.144 422.63 -120.122 422.63ZM-19.0012 440.894C-28.6082 440.894 -36.2603 439.107 -41.9574 435.532C-47.6546 431.957 -51.732 426.819 -54.1896 420.116C-56.6472 413.414 -57.876 405.482 -57.876 396.322V345.55C-57.876 336.39 -56.6472 328.57 -54.1896 322.091C-51.732 315.5 -47.6546 310.473 -41.9574 307.01C-36.2603 303.547 -28.6082 301.816 -19.0012 301.816C-9.17078 301.816 -1.46284 303.547 4.12262 307.01C9.81979 310.473 13.8972 315.5 16.3548 322.091C18.9241 328.57 20.2088 336.39 20.2088 345.55V396.49C20.2088 405.538 18.9241 413.414 16.3548 420.116C13.8972 426.707 9.81979 431.846 4.12262 435.532C-1.46284 439.107 -9.17078 440.894 -19.0012 440.894ZM-19.0012 422.63C-14.868 422.63 -11.8518 421.736 -9.95275 419.949C-7.94198 418.161 -6.60147 415.704 -5.93121 412.576C-5.26096 409.448 -4.92583 406.041 -4.92583 402.354V339.853C-4.92583 336.055 -5.26096 332.648 -5.93121 329.632C-6.60147 326.615 -7.94198 324.27 -9.95275 322.594C-11.8518 320.807 -14.868 319.913 -19.0012 319.913C-22.911 319.913 -25.8713 320.807 -27.8821 322.594C-29.8928 324.27 -31.2334 326.615 -31.9036 329.632C-32.5739 332.648 -32.909 336.055 -32.909 339.853V402.354C-32.909 406.041 -32.6297 409.448 -32.0712 412.576C-31.4009 415.704 -30.0604 418.161 -28.0496 419.949C-26.0389 421.736 -23.0227 422.63 -19.0012 422.63ZM58.8283 439.051V321.589H37.2126V303.324H104.908V321.589H83.6278V439.051H58.8283ZM124.293 439.051V303.324H148.925V360.296H153.952L175.903 303.324H200.535L174.73 367.333L202.546 439.051H177.411L153.952 376.549H148.925V439.051H124.293ZM221.315 439.051V303.324H261.196C269.35 303.324 275.941 304.832 280.968 307.848C286.107 310.864 289.849 315.277 292.195 321.086C294.653 326.783 295.881 333.709 295.881 341.864C295.881 350.689 294.373 357.838 291.357 363.312C288.341 368.674 284.096 372.584 278.622 375.041C273.26 377.499 266.893 378.728 259.52 378.728H246.115V439.051H221.315ZM246.115 361.301H255.498C259.967 361.301 263.43 360.687 265.887 359.458C268.457 358.117 270.188 356.051 271.082 353.258C272.087 350.354 272.59 346.5 272.59 341.696C272.59 336.781 272.199 332.815 271.417 329.799C270.747 326.671 269.183 324.381 266.725 322.929C264.379 321.477 260.637 320.751 255.498 320.751H246.115V361.301ZM316.717 439.051V303.324H341.349V360.296H347.381C356.653 360.296 364.361 361.58 370.505 364.15C376.649 366.607 381.285 370.741 384.413 376.549C387.541 382.247 389.105 389.955 389.105 399.673C389.105 407.27 388.099 413.637 386.088 418.776C384.189 423.802 381.397 427.824 377.71 430.84C374.024 433.856 369.555 435.979 364.305 437.208C359.055 438.436 353.078 439.051 346.376 439.051H316.717ZM341.349 422.294H346.543C351.235 422.294 355.033 421.624 357.938 420.284C360.842 418.943 362.965 416.597 364.305 413.246C365.646 409.783 366.26 405.091 366.148 399.171C366.148 392.133 364.752 386.771 361.959 383.084C359.166 379.398 353.916 377.555 346.208 377.555H341.349V422.294ZM401.839 439.051V303.324H426.471V439.051H401.839ZM453.994 439.051V303.324H487.339C493.371 303.324 498.789 303.883 503.593 305C508.508 306.117 512.697 308.016 516.16 310.697C519.735 313.266 522.471 316.785 524.37 321.253C526.269 325.722 527.219 331.363 527.219 338.177C527.219 343.651 526.437 348.343 524.873 352.253C523.421 356.163 521.243 359.29 518.338 361.636C515.434 363.87 511.803 365.379 507.446 366.16C512.809 367.054 517.221 368.953 520.684 371.858C524.259 374.65 526.884 378.337 528.56 382.917C530.347 387.497 531.241 393.027 531.241 399.506C531.241 405.985 530.403 411.738 528.727 416.765C527.163 421.68 524.761 425.813 521.522 429.165C518.394 432.404 514.428 434.862 509.625 436.537C504.933 438.213 499.403 439.051 493.036 439.051H453.994ZM478.793 421.624H488.177C495.661 421.624 500.744 419.837 503.425 416.262C506.106 412.576 507.446 406.934 507.446 399.338C507.446 393.864 506.776 389.452 505.436 386.101C504.207 382.638 502.084 380.068 499.068 378.393C496.164 376.717 492.254 375.879 487.339 375.879H478.793V421.624ZM478.793 358.788H487.171C492.086 358.788 495.885 358.062 498.566 356.609C501.247 355.157 503.09 352.923 504.095 349.907C505.212 346.891 505.771 343.093 505.771 338.512C505.771 333.709 504.933 330.023 503.257 327.453C501.693 324.772 499.292 322.985 496.052 322.091C492.813 321.086 488.679 320.583 483.652 320.583H478.793V358.788ZM547.099 439.051L574.244 303.324H600.719L627.865 439.051H604.908L599.546 407.716H575.92L570.39 439.051H547.099ZM578.433 391.965H596.865L587.649 334.994L578.433 391.965ZM658.517 439.051V321.589H636.901V303.324H704.597V321.589H683.317V439.051H658.517ZM723.647 439.051V303.324H780.619V320.751H748.447V359.793H773.749V377.052H748.447V421.959H780.954V439.051H723.647ZM792.639 439.051V421.289C795.767 421.401 798.392 421.233 800.514 420.786C802.749 420.228 804.592 419.055 806.044 417.267C807.608 415.48 808.893 412.743 809.898 409.057C810.903 405.259 811.741 400.176 812.411 393.809C813.082 387.441 813.808 379.342 814.59 369.512L818.946 303.324H884.967V439.051H860.335V321.924H840.897L837.881 372.528C837.211 382.47 836.429 391.239 835.535 398.835C834.753 406.432 833.469 412.911 831.681 418.273C830.006 423.523 827.604 427.768 824.476 431.008C821.348 434.247 817.215 436.537 812.076 437.878C806.938 439.107 800.458 439.498 792.639 439.051ZM912.969 439.051V303.324H937.601V360.296H943.634C952.794 360.296 960.446 361.58 966.59 364.15C972.734 366.607 977.37 370.741 980.498 376.549C983.625 382.247 985.189 389.955 985.189 399.673C985.189 407.27 984.24 413.637 982.341 418.776C980.442 423.802 977.593 427.824 973.795 430.84C970.109 433.856 965.64 435.979 960.39 437.208C955.14 438.436 949.219 439.051 942.628 439.051H912.969ZM937.601 422.294H942.628C947.432 422.294 951.23 421.624 954.023 420.284C956.927 418.943 959.049 416.597 960.39 413.246C961.73 409.783 962.401 405.091 962.401 399.171C962.289 392.133 960.837 386.771 958.044 383.084C955.363 379.398 950.113 377.555 942.293 377.555H937.601V422.294Z" fill="#187A85"/>
<path d="M1046.2 439.051V303.324H1124.45V439.051H1099.98V320.918H1070.66V439.051H1046.2ZM1151.57 439.051V303.324H1208.54V320.751H1176.37V359.793H1201.67V377.052H1176.37V421.959H1208.88V439.051H1151.57ZM1229.95 439.051V303.324H1269.83C1277.98 303.324 1284.57 304.832 1289.6 307.848C1294.74 310.864 1298.48 315.277 1300.83 321.086C1303.28 326.783 1304.51 333.709 1304.51 341.864C1304.51 350.689 1303 357.838 1299.99 363.312C1296.97 368.674 1292.73 372.584 1287.25 375.041C1281.89 377.499 1275.52 378.728 1268.15 378.728H1254.75V439.051H1229.95ZM1254.75 361.301H1264.13C1268.6 361.301 1272.06 360.687 1274.52 359.458C1277.09 358.117 1278.82 356.051 1279.71 353.258C1280.72 350.354 1281.22 346.5 1281.22 341.696C1281.22 336.781 1280.83 332.815 1280.05 329.799C1279.38 326.671 1277.81 324.381 1275.36 322.929C1273.01 321.477 1269.27 320.751 1264.13 320.751H1254.75V361.301ZM1325.01 439.051V303.324H1358.36C1364.39 303.324 1369.81 303.883 1374.61 305C1379.53 306.117 1383.72 308.016 1387.18 310.697C1390.75 313.266 1393.49 316.785 1395.39 321.253C1397.29 325.722 1398.24 331.363 1398.24 338.177C1398.24 343.651 1397.46 348.343 1395.89 352.253C1394.44 356.163 1392.26 359.29 1389.36 361.636C1386.45 363.87 1382.82 365.379 1378.47 366.16C1383.83 367.054 1388.24 368.953 1391.7 371.858C1395.28 374.65 1397.9 378.337 1399.58 382.917C1401.37 387.497 1402.26 393.027 1402.26 399.506C1402.26 405.985 1401.42 411.738 1399.75 416.765C1398.18 421.68 1395.78 425.813 1392.54 429.165C1389.41 432.404 1385.45 434.862 1380.64 436.537C1375.95 438.213 1370.42 439.051 1364.06 439.051H1325.01ZM1349.81 421.624H1359.2C1366.68 421.624 1371.76 419.837 1374.44 416.262C1377.13 412.576 1378.47 406.934 1378.47 399.338C1378.47 393.864 1377.8 389.452 1376.46 386.101C1375.23 382.638 1373.1 380.068 1370.09 378.393C1367.18 376.717 1363.27 375.879 1358.36 375.879H1349.81V421.624ZM1349.81 358.788H1358.19C1363.11 358.788 1366.9 358.062 1369.59 356.609C1372.27 355.157 1374.11 352.923 1375.11 349.907C1376.23 346.891 1376.79 343.093 1376.79 338.512C1376.79 333.709 1375.95 330.023 1374.28 327.453C1372.71 324.772 1370.31 322.985 1367.07 322.091C1363.83 321.086 1359.7 320.583 1354.67 320.583H1349.81V358.788ZM1461.85 440.894C1452.25 440.894 1444.59 439.107 1438.9 435.532C1433.2 431.957 1429.12 426.819 1426.66 420.116C1424.21 413.414 1422.98 405.482 1422.98 396.322V345.55C1422.98 336.39 1424.21 328.57 1426.66 322.091C1429.12 315.5 1433.2 310.473 1438.9 307.01C1444.59 303.547 1452.25 301.816 1461.85 301.816C1471.68 301.816 1479.39 303.547 1484.98 307.01C1490.67 310.473 1494.75 315.5 1497.21 322.091C1499.78 328.57 1501.06 336.39 1501.06 345.55V396.49C1501.06 405.538 1499.78 413.414 1497.21 420.116C1494.75 426.707 1490.67 431.846 1484.98 435.532C1479.39 439.107 1471.68 440.894 1461.85 440.894ZM1461.85 422.63C1465.99 422.63 1469 421.736 1470.9 419.949C1472.91 418.161 1474.25 415.704 1474.92 412.576C1475.59 409.448 1475.93 406.041 1475.93 402.354V339.853C1475.93 336.055 1475.59 332.648 1474.92 329.632C1474.25 326.615 1472.91 324.27 1470.9 322.594C1469 320.807 1465.99 319.913 1461.85 319.913C1457.94 319.913 1454.98 320.807 1452.97 322.594C1450.96 324.27 1449.62 326.615 1448.95 329.632C1448.28 332.648 1447.94 336.055 1447.94 339.853V402.354C1447.94 406.041 1448.22 409.448 1448.78 412.576C1449.45 415.704 1450.79 418.161 1452.8 419.949C1454.81 421.736 1457.83 422.63 1461.85 422.63ZM1562.97 440.894C1553.37 440.894 1545.71 439.107 1540.02 435.532C1534.32 431.957 1530.24 426.819 1527.79 420.116C1525.33 413.414 1524.1 405.482 1524.1 396.322V345.55C1524.1 336.39 1525.33 328.57 1527.79 322.091C1530.24 315.5 1534.32 310.473 1540.02 307.01C1545.71 303.547 1553.37 301.816 1562.97 301.816C1572.8 301.816 1580.51 303.547 1586.1 307.01C1591.79 310.473 1595.87 315.5 1598.33 322.091C1600.9 328.57 1602.18 336.39 1602.18 345.55V396.49C1602.18 405.538 1600.9 413.414 1598.33 420.116C1595.87 426.707 1591.79 431.846 1586.1 435.532C1580.51 439.107 1572.8 440.894 1562.97 440.894ZM1562.97 422.63C1567.11 422.63 1570.12 421.736 1572.02 419.949C1574.03 418.161 1575.37 415.704 1576.04 412.576C1576.71 409.448 1577.05 406.041 1577.05 402.354V339.853C1577.05 336.055 1576.71 332.648 1576.04 329.632C1575.37 326.615 1574.03 324.27 1572.02 322.594C1570.12 320.807 1567.11 319.913 1562.97 319.913C1559.06 319.913 1556.1 320.807 1554.09 322.594C1552.08 324.27 1550.74 326.615 1550.07 329.632C1549.4 332.648 1549.07 336.055 1549.07 339.853V402.354C1549.07 406.041 1549.34 409.448 1549.9 412.576C1550.57 415.704 1551.91 418.161 1553.92 419.949C1555.94 421.736 1558.95 422.63 1562.97 422.63ZM1640.8 439.051V321.589H1619.19V303.324H1686.88V321.589H1665.6V439.051H1640.8ZM1706.27 439.051V303.324H1730.9V360.296H1735.93L1757.88 303.324H1782.51L1756.7 367.333L1784.52 439.051H1759.39L1735.93 376.549H1730.9V439.051H1706.27ZM1803.29 439.051V303.324H1843.17C1851.33 303.324 1857.92 304.832 1862.94 307.848C1868.08 310.864 1871.82 315.277 1874.17 321.086C1876.63 326.783 1877.86 333.709 1877.86 341.864C1877.86 350.689 1876.35 357.838 1873.33 363.312C1870.32 368.674 1866.07 372.584 1860.6 375.041C1855.23 377.499 1848.87 378.728 1841.49 378.728H1828.09V439.051H1803.29ZM1828.09 361.301H1837.47C1841.94 361.301 1845.4 360.687 1847.86 359.458C1850.43 358.117 1852.16 356.051 1853.06 353.258C1854.06 350.354 1854.56 346.5 1854.56 341.696C1854.56 336.781 1854.17 332.815 1853.39 329.799C1852.72 326.671 1851.16 324.381 1848.7 322.929C1846.35 321.477 1842.61 320.751 1837.47 320.751H1828.09V361.301ZM1898.69 439.051V303.324H1923.32V360.296H1929.36C1938.63 360.296 1946.34 361.58 1952.48 364.15C1958.62 366.607 1963.26 370.741 1966.39 376.549C1969.52 382.247 1971.08 389.955 1971.08 399.673C1971.08 407.27 1970.07 413.637 1968.06 418.776C1966.16 423.802 1963.37 427.824 1959.68 430.84C1956 433.856 1951.53 435.979 1946.28 437.208C1941.03 438.436 1935.05 439.051 1928.35 439.051H1898.69ZM1923.32 422.294H1928.52C1933.21 422.294 1937.01 421.624 1939.91 420.284C1942.82 418.943 1944.94 416.597 1946.28 413.246C1947.62 409.783 1948.23 405.091 1948.12 399.171C1948.12 392.133 1946.73 386.771 1943.93 383.084C1941.14 379.398 1935.89 377.555 1928.18 377.555H1923.32V422.294ZM1983.81 439.051V303.324H2008.45V439.051H1983.81ZM2035.97 439.051V303.324H2069.31C2075.35 303.324 2080.76 303.883 2085.57 305C2090.48 306.117 2094.67 308.016 2098.13 310.697C2101.71 313.266 2104.45 316.785 2106.35 321.253C2108.24 325.722 2109.19 331.363 2109.19 338.177C2109.19 343.651 2108.41 348.343 2106.85 352.253C2105.4 356.163 2103.22 359.29 2100.31 361.636C2097.41 363.87 2093.78 365.379 2089.42 366.16C2094.78 367.054 2099.2 368.953 2102.66 371.858C2106.23 374.65 2108.86 378.337 2110.53 382.917C2112.32 387.497 2113.22 393.027 2113.22 399.506C2113.22 405.985 2112.38 411.738 2110.7 416.765C2109.14 421.68 2106.74 425.813 2103.5 429.165C2100.37 432.404 2096.4 434.862 2091.6 436.537C2086.91 438.213 2081.38 439.051 2075.01 439.051H2035.97ZM2060.77 421.624H2070.15C2077.64 421.624 2082.72 419.837 2085.4 416.262C2088.08 412.576 2089.42 406.934 2089.42 399.338C2089.42 393.864 2088.75 389.452 2087.41 386.101C2086.18 382.638 2084.06 380.068 2081.04 378.393C2078.14 376.717 2074.23 375.879 2069.31 375.879H2060.77V421.624ZM2060.77 358.788H2069.15C2074.06 358.788 2077.86 358.062 2080.54 356.609C2083.22 355.157 2085.06 352.923 2086.07 349.907C2087.19 346.891 2087.75 343.093 2087.75 338.512C2087.75 333.709 2086.91 330.023 2085.23 327.453C2083.67 324.772 2081.27 322.985 2078.03 322.091C2074.79 321.086 2070.65 320.583 2065.63 320.583H2060.77V358.788ZM2129.07 439.051L2156.22 303.324H2182.69L2209.84 439.051H2186.88L2181.52 407.716H2157.89L2152.36 439.051H2129.07ZM2160.41 391.965H2178.84L2169.62 334.994L2160.41 391.965ZM2240.49 439.051V321.589H2218.88V303.324H2286.57V321.589H2265.29V439.051H2240.49ZM2305.62 439.051V303.324H2362.59V320.751H2330.42V359.793H2355.72V377.052H2330.42V421.959H2362.93V439.051H2305.62ZM2374.61 439.051V421.289C2377.74 421.401 2380.37 421.233 2382.49 420.786C2384.72 420.228 2386.57 419.055 2388.02 417.267C2389.58 415.48 2390.87 412.743 2391.87 409.057C2392.88 405.259 2393.72 400.176 2394.39 393.809C2395.06 387.441 2395.78 379.342 2396.56 369.512L2400.92 303.324H2466.94V439.051H2442.31V321.924H2422.87L2419.86 372.528C2419.19 382.47 2418.4 391.239 2417.51 398.835C2416.73 406.432 2415.44 412.911 2413.66 418.273C2411.98 423.523 2409.58 427.768 2406.45 431.008C2403.32 434.247 2399.19 436.537 2394.05 437.878C2388.91 439.107 2382.43 439.498 2374.61 439.051ZM2494.94 439.051V303.324H2519.58V360.296H2525.61C2534.77 360.296 2542.42 361.58 2548.56 364.15C2554.71 366.607 2559.34 370.741 2562.47 376.549C2565.6 382.247 2567.16 389.955 2567.16 399.673C2567.16 407.27 2566.21 413.637 2564.32 418.776C2562.42 423.802 2559.57 427.824 2555.77 430.84C2552.08 433.856 2547.61 435.979 2542.36 437.208C2537.11 438.436 2531.19 439.051 2524.6 439.051H2494.94ZM2519.58 422.294H2524.6C2529.41 422.294 2533.2 421.624 2536 420.284C2538.9 418.943 2541.02 416.597 2542.36 413.246C2543.71 409.783 2544.38 405.091 2544.38 399.171C2544.26 392.133 2542.81 386.771 2540.02 383.084C2537.34 379.398 2532.09 377.555 2524.27 377.555H2519.58V422.294Z" fill="#187A85"/>
<path d="M0.219443 687.102V551.375H78.4718V687.102H54.0074V568.969H24.6838V687.102H0.219443ZM105.595 687.102V551.375H162.567V568.801H130.394V607.844H155.696V625.103H130.394V670.01H162.902V687.102H105.595ZM183.97 687.102V551.375H223.85C232.005 551.375 238.596 552.883 243.623 555.899C248.762 558.915 252.504 563.328 254.85 569.137C257.307 574.834 258.536 581.76 258.536 589.915C258.536 598.74 257.028 605.889 254.012 611.363C250.996 616.725 246.751 620.635 241.277 623.092C235.915 625.55 229.548 626.779 222.175 626.779H208.77V687.102H183.97ZM208.77 609.352H218.153C222.622 609.352 226.085 608.738 228.542 607.509C231.112 606.168 232.843 604.102 233.737 601.309C234.742 598.404 235.245 594.55 235.245 589.747C235.245 584.832 234.854 580.866 234.072 577.85C233.402 574.722 231.838 572.432 229.38 570.98C227.034 569.528 223.292 568.801 218.153 568.801H208.77V609.352ZM279.037 687.102V551.375H312.382C318.414 551.375 323.832 551.933 328.635 553.05C333.551 554.168 337.74 556.067 341.203 558.748C344.777 561.317 347.514 564.836 349.413 569.304C351.312 573.773 352.262 579.414 352.262 586.228C352.262 591.702 351.48 596.394 349.916 600.303C348.464 604.213 346.286 607.341 343.381 609.687C340.477 611.921 336.846 613.429 332.489 614.211C337.851 615.105 342.264 617.004 345.727 619.908C349.302 622.701 351.927 626.388 353.602 630.968C355.39 635.548 356.283 641.077 356.283 647.556C356.283 654.036 355.446 659.789 353.77 664.816C352.206 669.731 349.804 673.864 346.565 677.215C343.437 680.455 339.471 682.912 334.668 684.588C329.976 686.264 324.446 687.102 318.079 687.102H279.037ZM303.836 669.675H313.22C320.704 669.675 325.787 667.888 328.468 664.313C331.149 660.626 332.489 654.985 332.489 647.389C332.489 641.915 331.819 637.503 330.479 634.151C329.25 630.688 327.127 628.119 324.111 626.443C321.207 624.768 317.297 623.93 312.382 623.93H303.836V669.675ZM303.836 606.838H312.214C317.129 606.838 320.928 606.112 323.609 604.66C326.29 603.208 328.133 600.974 329.138 597.958C330.255 594.941 330.814 591.143 330.814 586.563C330.814 581.76 329.976 578.073 328.3 575.504C326.736 572.823 324.335 571.036 321.095 570.142C317.856 569.137 313.722 568.634 308.695 568.634H303.836V606.838ZM415.876 688.945C406.269 688.945 398.617 687.157 392.92 683.583C387.223 680.008 383.145 674.869 380.688 668.167C378.23 661.464 377.001 653.533 377.001 644.373V593.601C377.001 584.441 378.23 576.621 380.688 570.142C383.145 563.551 387.223 558.524 392.92 555.061C398.617 551.598 406.269 549.867 415.876 549.867C425.706 549.867 433.414 551.598 439 555.061C444.697 558.524 448.774 563.551 451.232 570.142C453.801 576.621 455.086 584.441 455.086 593.601V644.54C455.086 653.589 453.801 661.464 451.232 668.167C448.774 674.758 444.697 679.896 439 683.583C433.414 687.157 425.706 688.945 415.876 688.945ZM415.876 670.68C420.009 670.68 423.025 669.787 424.924 667.999C426.935 666.212 428.276 663.754 428.946 660.626C429.616 657.499 429.951 654.091 429.951 650.405V587.904C429.951 584.106 429.616 580.699 428.946 577.682C428.276 574.666 426.935 572.32 424.924 570.645C423.025 568.857 420.009 567.964 415.876 567.964C411.966 567.964 409.006 568.857 406.995 570.645C404.984 572.32 403.644 574.666 402.974 577.682C402.303 580.699 401.968 584.106 401.968 587.904V650.405C401.968 654.091 402.247 657.499 402.806 660.626C403.476 663.754 404.817 666.212 406.828 667.999C408.838 669.787 411.854 670.68 415.876 670.68ZM516.997 688.945C507.39 688.945 499.738 687.157 494.041 683.583C488.343 680.008 484.266 674.869 481.808 668.167C479.351 661.464 478.122 653.533 478.122 644.373V593.601C478.122 584.441 479.351 576.621 481.808 570.142C484.266 563.551 488.343 558.524 494.041 555.061C499.738 551.598 507.39 549.867 516.997 549.867C526.827 549.867 534.535 551.598 540.121 555.061C545.818 558.524 549.895 563.551 552.353 570.142C554.922 576.621 556.207 584.441 556.207 593.601V644.54C556.207 653.589 554.922 661.464 552.353 668.167C549.895 674.758 545.818 679.896 540.121 683.583C534.535 687.157 526.827 688.945 516.997 688.945ZM516.997 670.68C521.13 670.68 524.146 669.787 526.045 667.999C528.056 666.212 529.397 663.754 530.067 660.626C530.737 657.499 531.072 654.091 531.072 650.405V587.904C531.072 584.106 530.737 580.699 530.067 577.682C529.397 574.666 528.056 572.32 526.045 570.645C524.146 568.857 521.13 567.964 516.997 567.964C513.087 567.964 510.127 568.857 508.116 570.645C506.105 572.32 504.765 574.666 504.094 577.682C503.424 580.699 503.089 584.106 503.089 587.904V650.405C503.089 654.091 503.368 657.499 503.927 660.626C504.597 663.754 505.938 666.212 507.948 667.999C509.959 669.787 512.975 670.68 516.997 670.68ZM594.826 687.102V569.639H573.211V551.375H640.906V569.639H619.626V687.102H594.826ZM660.291 687.102V551.375H684.923V608.347H689.95L711.901 551.375H736.533L710.728 615.384L738.544 687.102H713.409L689.95 624.6H684.923V687.102H660.291ZM757.313 687.102V551.375H797.194C805.348 551.375 811.939 552.883 816.966 555.899C822.105 558.915 825.847 563.328 828.193 569.137C830.651 574.834 831.879 581.76 831.879 589.915C831.879 598.74 830.371 605.889 827.355 611.363C824.339 616.725 820.094 620.635 814.62 623.092C809.258 625.55 802.891 626.779 795.518 626.779H782.113V687.102H757.313ZM782.113 609.352H791.497C795.965 609.352 799.428 608.738 801.885 607.509C804.455 606.168 806.186 604.102 807.08 601.309C808.085 598.404 808.588 594.55 808.588 589.747C808.588 584.832 808.197 580.866 807.415 577.85C806.745 574.722 805.181 572.432 802.723 570.98C800.377 569.528 796.635 568.801 791.497 568.801H782.113V609.352ZM852.715 687.102V551.375H877.347V608.347H883.379C892.651 608.347 900.359 609.631 906.503 612.201C912.647 614.658 917.283 618.791 920.411 624.6C923.539 630.297 925.103 638.005 925.103 647.724C925.103 655.32 924.097 661.688 922.086 666.826C920.187 671.853 917.395 675.875 913.708 678.891C910.022 681.907 905.553 684.03 900.303 685.258C895.053 686.487 889.076 687.102 882.374 687.102H852.715ZM877.347 670.345H882.541C887.233 670.345 891.031 669.675 893.936 668.334C896.84 666.994 898.963 664.648 900.303 661.297C901.644 657.834 902.258 653.142 902.146 647.221C902.146 640.184 900.75 634.822 897.957 631.135C895.164 627.449 889.914 625.606 882.206 625.606H877.347V670.345ZM937.837 687.102V551.375H962.469V687.102H937.837ZM989.992 687.102V551.375H1023.34C1029.37 551.375 1034.79 551.933 1039.59 553.05C1044.51 554.168 1048.69 556.067 1052.16 558.748C1055.73 561.317 1058.47 564.836 1060.37 569.304C1062.27 573.773 1063.22 579.414 1063.22 586.228C1063.22 591.702 1062.44 596.394 1060.87 600.303C1059.42 604.213 1057.24 607.341 1054.34 609.687C1051.43 611.921 1047.8 613.429 1043.44 614.211C1048.81 615.105 1053.22 617.004 1056.68 619.908C1060.26 622.701 1062.88 626.388 1064.56 630.968C1066.34 635.548 1067.24 641.077 1067.24 647.556C1067.24 654.036 1066.4 659.789 1064.73 664.816C1063.16 669.731 1060.76 673.864 1057.52 677.215C1054.39 680.455 1050.43 682.912 1045.62 684.588C1040.93 686.264 1035.4 687.102 1029.03 687.102H989.992ZM1014.79 669.675H1024.17C1031.66 669.675 1036.74 667.888 1039.42 664.313C1042.1 660.626 1043.44 654.985 1043.44 647.389C1043.44 641.915 1042.77 637.503 1041.43 634.151C1040.2 630.688 1038.08 628.119 1035.07 626.443C1032.16 624.768 1028.25 623.93 1023.34 623.93H1014.79V669.675ZM1014.79 606.838H1023.17C1028.08 606.838 1031.88 606.112 1034.56 604.66C1037.24 603.208 1039.09 600.974 1040.09 597.958C1041.21 594.941 1041.77 591.143 1041.77 586.563C1041.77 581.76 1040.93 578.073 1039.26 575.504C1037.69 572.823 1035.29 571.036 1032.05 570.142C1028.81 569.137 1024.68 568.634 1019.65 568.634H1014.79V606.838ZM1083.1 687.102L1110.24 551.375H1136.72L1163.86 687.102H1140.91L1135.54 655.767H1111.92L1106.39 687.102H1083.1ZM1114.43 640.016H1132.86L1123.65 583.044L1114.43 640.016ZM1194.52 687.102V569.639H1172.9V551.375H1240.6V569.639H1219.31V687.102H1194.52ZM1259.65 687.102V551.375H1316.62V568.801H1284.44V607.844H1309.75V625.103H1284.44V670.01H1316.95V687.102H1259.65ZM1328.64 687.102V669.34C1331.76 669.452 1334.39 669.284 1336.51 668.837C1338.75 668.279 1340.59 667.106 1342.04 665.318C1343.61 663.531 1344.89 660.794 1345.9 657.108C1346.9 653.31 1347.74 648.227 1348.41 641.859C1349.08 635.492 1349.81 627.393 1350.59 617.563L1354.94 551.375H1420.96V687.102H1396.33V569.974H1376.9L1373.88 620.579C1373.21 630.521 1372.43 639.29 1371.53 646.886C1370.75 654.482 1369.47 660.962 1367.68 666.324C1366 671.574 1363.6 675.819 1360.47 679.058C1357.35 682.298 1353.21 684.588 1348.07 685.929C1342.94 687.157 1336.46 687.548 1328.64 687.102ZM1448.97 687.102V551.375H1473.6V608.347H1479.63C1488.79 608.347 1496.44 609.631 1502.59 612.201C1508.73 614.658 1513.37 618.791 1516.5 624.6C1519.62 630.297 1521.19 638.005 1521.19 647.724C1521.19 655.32 1520.24 661.688 1518.34 666.826C1516.44 671.853 1513.59 675.875 1509.79 678.891C1506.11 681.907 1501.64 684.03 1496.39 685.258C1491.14 686.487 1485.22 687.102 1478.63 687.102H1448.97ZM1473.6 670.345H1478.63C1483.43 670.345 1487.23 669.675 1490.02 668.334C1492.93 666.994 1495.05 664.648 1496.39 661.297C1497.73 657.834 1498.4 653.142 1498.4 647.221C1498.29 640.184 1496.83 634.822 1494.04 631.135C1491.36 627.449 1486.11 625.606 1478.29 625.606H1473.6V670.345Z" fill="#187A85"/>
<path d="M1582.19 687.102V551.375H1660.45V687.102H1635.98V568.969H1606.66V687.102H1582.19ZM1687.57 687.102V551.375H1744.54V568.801H1712.37V607.844H1737.67V625.103H1712.37V670.01H1744.88V687.102H1687.57ZM1765.94 687.102V551.375H1805.83C1813.98 551.375 1820.57 552.883 1825.6 555.899C1830.74 558.915 1834.48 563.328 1836.82 569.137C1839.28 574.834 1840.51 581.76 1840.51 589.915C1840.51 598.74 1839 605.889 1835.99 611.363C1832.97 616.725 1828.73 620.635 1823.25 623.092C1817.89 625.55 1811.52 626.779 1804.15 626.779H1790.74V687.102H1765.94ZM1790.74 609.352H1800.13C1804.6 609.352 1808.06 608.738 1810.52 607.509C1813.09 606.168 1814.82 604.102 1815.71 601.309C1816.72 598.404 1817.22 594.55 1817.22 589.747C1817.22 584.832 1816.83 580.866 1816.05 577.85C1815.38 574.722 1813.81 572.432 1811.35 570.98C1809.01 569.528 1805.27 568.801 1800.13 568.801H1790.74V609.352ZM1861.01 687.102V551.375H1894.36C1900.39 551.375 1905.81 551.933 1910.61 553.05C1915.53 554.168 1919.71 556.067 1923.18 558.748C1926.75 561.317 1929.49 564.836 1931.39 569.304C1933.29 573.773 1934.24 579.414 1934.24 586.228C1934.24 591.702 1933.45 596.394 1931.89 600.303C1930.44 604.213 1928.26 607.341 1925.36 609.687C1922.45 611.921 1918.82 613.429 1914.46 614.211C1919.83 615.105 1924.24 617.004 1927.7 619.908C1931.28 622.701 1933.9 626.388 1935.58 630.968C1937.36 635.548 1938.26 641.077 1938.26 647.556C1938.26 654.036 1937.42 659.789 1935.74 664.816C1934.18 669.731 1931.78 673.864 1928.54 677.215C1925.41 680.455 1921.45 682.912 1916.64 684.588C1911.95 686.264 1906.42 687.102 1900.05 687.102H1861.01ZM1885.81 669.675H1895.19C1902.68 669.675 1907.76 667.888 1910.44 664.313C1913.12 660.626 1914.46 654.985 1914.46 647.389C1914.46 641.915 1913.79 637.503 1912.45 634.151C1911.22 630.688 1909.1 628.119 1906.09 626.443C1903.18 624.768 1899.27 623.93 1894.36 623.93H1885.81V669.675ZM1885.81 606.838H1894.19C1899.1 606.838 1902.9 606.112 1905.58 604.66C1908.26 603.208 1910.11 600.974 1911.11 597.958C1912.23 594.941 1912.79 591.143 1912.79 586.563C1912.79 581.76 1911.95 578.073 1910.27 575.504C1908.71 572.823 1906.31 571.036 1903.07 570.142C1899.83 569.137 1895.7 568.634 1890.67 568.634H1885.81V606.838ZM1997.85 688.945C1988.24 688.945 1980.59 687.157 1974.89 683.583C1969.2 680.008 1965.12 674.869 1962.66 668.167C1960.2 661.464 1958.98 653.533 1958.98 644.373V593.601C1958.98 584.441 1960.2 576.621 1962.66 570.142C1965.12 563.551 1969.2 558.524 1974.89 555.061C1980.59 551.598 1988.24 549.867 1997.85 549.867C2007.68 549.867 2015.39 551.598 2020.97 555.061C2026.67 558.524 2030.75 563.551 2033.21 570.142C2035.78 576.621 2037.06 584.441 2037.06 593.601V644.54C2037.06 653.589 2035.78 661.464 2033.21 668.167C2030.75 674.758 2026.67 679.896 2020.97 683.583C2015.39 687.157 2007.68 688.945 1997.85 688.945ZM1997.85 670.68C2001.98 670.68 2005 669.787 2006.9 667.999C2008.91 666.212 2010.25 663.754 2010.92 660.626C2011.59 657.499 2011.93 654.091 2011.93 650.405V587.904C2011.93 584.106 2011.59 580.699 2010.92 577.682C2010.25 574.666 2008.91 572.32 2006.9 570.645C2005 568.857 2001.98 567.964 1997.85 567.964C1993.94 567.964 1990.98 568.857 1988.97 570.645C1986.96 572.32 1985.62 574.666 1984.95 577.682C1984.28 580.699 1983.94 584.106 1983.94 587.904V650.405C1983.94 654.091 1984.22 657.499 1984.78 660.626C1985.45 663.754 1986.79 666.212 1988.8 667.999C1990.81 669.787 1993.83 670.68 1997.85 670.68ZM2098.97 688.945C2089.36 688.945 2081.71 687.157 2076.02 683.583C2070.32 680.008 2066.24 674.869 2063.78 668.167C2061.33 661.464 2060.1 653.533 2060.1 644.373V593.601C2060.1 584.441 2061.33 576.621 2063.78 570.142C2066.24 563.551 2070.32 558.524 2076.02 555.061C2081.71 551.598 2089.36 549.867 2098.97 549.867C2108.8 549.867 2116.51 551.598 2122.1 555.061C2127.79 558.524 2131.87 563.551 2134.33 570.142C2136.9 576.621 2138.18 584.441 2138.18 593.601V644.54C2138.18 653.589 2136.9 661.464 2134.33 668.167C2131.87 674.758 2127.79 679.896 2122.1 683.583C2116.51 687.157 2108.8 688.945 2098.97 688.945ZM2098.97 670.68C2103.1 670.68 2106.12 669.787 2108.02 667.999C2110.03 666.212 2111.37 663.754 2112.04 660.626C2112.71 657.499 2113.05 654.091 2113.05 650.405V587.904C2113.05 584.106 2112.71 580.699 2112.04 577.682C2111.37 574.666 2110.03 572.32 2108.02 570.645C2106.12 568.857 2103.1 567.964 2098.97 567.964C2095.06 567.964 2092.1 568.857 2090.09 570.645C2088.08 572.32 2086.74 574.666 2086.07 577.682C2085.4 580.699 2085.06 584.106 2085.06 587.904V650.405C2085.06 654.091 2085.34 657.499 2085.9 660.626C2086.57 663.754 2087.91 666.212 2089.92 667.999C2091.93 669.787 2094.95 670.68 2098.97 670.68ZM2176.8 687.102V569.639H2155.19V551.375H2222.88V569.639H2201.6V687.102H2176.8ZM2242.27 687.102V551.375H2266.9V608.347H2271.92L2293.88 551.375H2318.51L2292.7 615.384L2320.52 687.102H2295.38L2271.92 624.6H2266.9V687.102H2242.27ZM2339.29 687.102V551.375H2379.17C2387.32 551.375 2393.91 552.883 2398.94 555.899C2404.08 558.915 2407.82 563.328 2410.17 569.137C2412.63 574.834 2413.85 581.76 2413.85 589.915C2413.85 598.74 2412.35 605.889 2409.33 611.363C2406.31 616.725 2402.07 620.635 2396.59 623.092C2391.23 625.55 2384.87 626.779 2377.49 626.779H2364.09V687.102H2339.29ZM2364.09 609.352H2373.47C2377.94 609.352 2381.4 608.738 2383.86 607.509C2386.43 606.168 2388.16 604.102 2389.05 601.309C2390.06 598.404 2390.56 594.55 2390.56 589.747C2390.56 584.832 2390.17 580.866 2389.39 577.85C2388.72 574.722 2387.16 572.432 2384.7 570.98C2382.35 569.528 2378.61 568.801 2373.47 568.801H2364.09V609.352ZM2434.69 687.102V551.375H2459.32V608.347H2465.35C2474.63 608.347 2482.33 609.631 2488.48 612.201C2494.62 614.658 2499.26 618.791 2502.39 624.6C2505.51 630.297 2507.08 638.005 2507.08 647.724C2507.08 655.32 2506.07 661.688 2504.06 666.826C2502.16 671.853 2499.37 675.875 2495.68 678.891C2492 681.907 2487.53 684.03 2482.28 685.258C2477.03 686.487 2471.05 687.102 2464.35 687.102H2434.69ZM2459.32 670.345H2464.52C2469.21 670.345 2473.01 669.675 2475.91 668.334C2478.81 666.994 2480.94 664.648 2482.28 661.297C2483.62 657.834 2484.23 653.142 2484.12 647.221C2484.12 640.184 2482.72 634.822 2479.93 631.135C2477.14 627.449 2471.89 625.606 2464.18 625.606H2459.32V670.345ZM2519.81 687.102V551.375H2544.44V687.102H2519.81ZM2571.97 687.102V551.375H2605.31C2611.34 551.375 2616.76 551.933 2621.57 553.05C2626.48 554.168 2630.67 556.067 2634.13 558.748C2637.71 561.317 2640.44 564.836 2642.34 569.304C2644.24 573.773 2645.19 579.414 2645.19 586.228C2645.19 591.702 2644.41 596.394 2642.85 600.303C2641.39 604.213 2639.22 607.341 2636.31 609.687C2633.41 611.921 2629.78 613.429 2625.42 614.211C2630.78 615.105 2635.19 617.004 2638.66 619.908C2642.23 622.701 2644.86 626.388 2646.53 630.968C2648.32 635.548 2649.21 641.077 2649.21 647.556C2649.21 654.036 2648.38 659.789 2646.7 664.816C2645.14 669.731 2642.73 673.864 2639.49 677.215C2636.37 680.455 2632.4 682.912 2627.6 684.588C2622.91 686.264 2617.38 687.102 2611.01 687.102H2571.97ZM2596.77 669.675H2606.15C2613.63 669.675 2618.72 667.888 2621.4 664.313C2624.08 660.626 2625.42 654.985 2625.42 647.389C2625.42 641.915 2624.75 637.503 2623.41 634.151C2622.18 630.688 2620.06 628.119 2617.04 626.443C2614.14 624.768 2610.23 623.93 2605.31 623.93H2596.77V669.675ZM2596.77 606.838H2605.14C2610.06 606.838 2613.86 606.112 2616.54 604.66C2619.22 603.208 2621.06 600.974 2622.07 597.958C2623.18 594.941 2623.74 591.143 2623.74 586.563C2623.74 581.76 2622.91 578.073 2621.23 575.504C2619.67 572.823 2617.26 571.036 2614.02 570.142C2610.79 569.137 2606.65 568.634 2601.63 568.634H2596.77V606.838ZM2665.07 687.102L2692.22 551.375H2718.69L2745.84 687.102H2722.88L2717.52 655.767H2693.89L2688.36 687.102H2665.07ZM2696.41 640.016H2714.84L2705.62 583.044L2696.41 640.016ZM2776.49 687.102V569.639H2754.87V551.375H2822.57V569.639H2801.29V687.102H2776.49ZM2841.62 687.102V551.375H2898.59V568.801H2866.42V607.844H2891.72V625.103H2866.42V670.01H2898.93V687.102H2841.62ZM2910.61 687.102V669.34C2913.74 669.452 2916.36 669.284 2918.49 668.837C2920.72 668.279 2922.56 667.106 2924.02 665.318C2925.58 663.531 2926.87 660.794 2927.87 657.108C2928.88 653.31 2929.71 648.227 2930.38 641.859C2931.05 635.492 2931.78 627.393 2932.56 617.563L2936.92 551.375H3002.94V687.102H2978.31V569.974H2958.87L2955.85 620.579C2955.18 630.521 2954.4 639.29 2953.51 646.886C2952.73 654.482 2951.44 660.962 2949.65 666.324C2947.98 671.574 2945.58 675.819 2942.45 679.058C2939.32 682.298 2935.19 684.588 2930.05 685.929C2924.91 687.157 2918.43 687.548 2910.61 687.102ZM3030.94 687.102V551.375H3055.57V608.347H3061.61C3070.77 608.347 3078.42 609.631 3084.56 612.201C3090.71 614.658 3095.34 618.791 3098.47 624.6C3101.6 630.297 3103.16 638.005 3103.16 647.724C3103.16 655.32 3102.21 661.688 3100.31 666.826C3098.41 671.853 3095.57 675.875 3091.77 678.891C3088.08 681.907 3083.61 684.03 3078.36 685.258C3073.11 686.487 3067.19 687.102 3060.6 687.102H3030.94ZM3055.57 670.345H3060.6C3065.4 670.345 3069.2 669.675 3072 668.334C3074.9 666.994 3077.02 664.648 3078.36 661.297C3079.7 657.834 3080.37 653.142 3080.37 647.221C3080.26 640.184 3078.81 634.822 3076.02 631.135C3073.34 627.449 3068.09 625.606 3060.27 625.606H3055.57V670.345Z" fill="#187A85"/>
<path d="M-116.779 935V799.273H-38.5263V935H-62.9906V816.867H-92.3143V935H-116.779ZM-11.4032 935V799.273H45.5685V816.7H13.3963V855.742H38.6984V873.001H13.3963V917.908H45.9037V935H-11.4032ZM66.9722 935V799.273H106.852C115.007 799.273 121.598 800.781 126.625 803.797C131.764 806.814 135.506 811.226 137.852 817.035C140.309 822.732 141.538 829.658 141.538 837.813C141.538 846.638 140.03 853.787 137.014 859.261C133.998 864.623 129.753 868.533 124.279 870.991C118.917 873.448 112.55 874.677 105.177 874.677H91.7716V935H66.9722ZM91.7716 857.25H101.155C105.624 857.25 109.087 856.636 111.544 855.407C114.113 854.067 115.845 852 116.739 849.207C117.744 846.303 118.247 842.449 118.247 837.645C118.247 832.73 117.856 828.765 117.074 825.748C116.404 822.621 114.84 820.33 112.382 818.878C110.036 817.426 106.294 816.7 101.155 816.7H91.7716V857.25ZM162.039 935V799.273H195.384C201.416 799.273 206.834 799.832 211.637 800.949C216.553 802.066 220.742 803.965 224.205 806.646C227.779 809.215 230.516 812.734 232.415 817.203C234.314 821.671 235.264 827.312 235.264 834.127C235.264 839.6 234.482 844.292 232.918 848.202C231.466 852.112 229.287 855.24 226.383 857.585C223.479 859.82 219.848 861.328 215.491 862.11C220.853 863.003 225.266 864.902 228.729 867.807C232.304 870.6 234.929 874.286 236.604 878.866C238.392 883.446 239.285 888.976 239.285 895.455C239.285 901.934 238.448 907.687 236.772 912.714C235.208 917.629 232.806 921.762 229.567 925.114C226.439 928.353 222.473 930.811 217.67 932.487C212.978 934.162 207.448 935 201.081 935H162.039ZM186.838 917.573H196.222C203.706 917.573 208.789 915.786 211.47 912.211C214.151 908.525 215.491 902.884 215.491 895.287C215.491 889.814 214.821 885.401 213.481 882.05C212.252 878.587 210.129 876.018 207.113 874.342C204.209 872.666 200.299 871.828 195.384 871.828H186.838V917.573ZM186.838 854.737H195.216C200.131 854.737 203.929 854.011 206.61 852.559C209.292 851.106 211.135 848.872 212.14 845.856C213.257 842.84 213.816 839.042 213.816 834.462C213.816 829.658 212.978 825.972 211.302 823.402C209.738 820.721 207.337 818.934 204.097 818.04C200.857 817.035 196.724 816.532 191.697 816.532H186.838V854.737ZM298.878 936.843C289.271 936.843 281.619 935.056 275.922 931.481C270.225 927.906 266.147 922.768 263.69 916.065C261.232 909.363 260.003 901.431 260.003 892.271V841.499C260.003 832.339 261.232 824.52 263.69 818.04C266.147 811.45 270.225 806.423 275.922 802.96C281.619 799.497 289.271 797.765 298.878 797.765C308.708 797.765 316.416 799.497 322.002 802.96C327.699 806.423 331.776 811.45 334.234 818.04C336.803 824.52 338.088 832.339 338.088 841.499V892.439C338.088 901.487 336.803 909.363 334.234 916.065C331.776 922.656 327.699 927.795 322.002 931.481C316.416 935.056 308.708 936.843 298.878 936.843ZM298.878 918.579C303.011 918.579 306.027 917.685 307.926 915.898C309.937 914.11 311.278 911.653 311.948 908.525C312.618 905.397 312.953 901.99 312.953 898.304V835.802C312.953 832.004 312.618 828.597 311.948 825.581C311.278 822.565 309.937 820.219 307.926 818.543C306.027 816.756 303.011 815.862 298.878 815.862C294.968 815.862 292.008 816.756 289.997 818.543C287.986 820.219 286.646 822.565 285.976 825.581C285.305 828.597 284.97 832.004 284.97 835.802V898.304C284.97 901.99 285.249 905.397 285.808 908.525C286.478 911.653 287.819 914.11 289.83 915.898C291.84 917.685 294.856 918.579 298.878 918.579ZM399.999 936.843C390.392 936.843 382.74 935.056 377.043 931.481C371.345 927.906 367.268 922.768 364.81 916.065C362.353 909.363 361.124 901.431 361.124 892.271V841.499C361.124 832.339 362.353 824.52 364.81 818.04C367.268 811.45 371.345 806.423 377.043 802.96C382.74 799.497 390.392 797.765 399.999 797.765C409.829 797.765 417.537 799.497 423.123 802.96C428.82 806.423 432.897 811.45 435.355 818.04C437.924 824.52 439.209 832.339 439.209 841.499V892.439C439.209 901.487 437.924 909.363 435.355 916.065C432.897 922.656 428.82 927.795 423.123 931.481C417.537 935.056 409.829 936.843 399.999 936.843ZM399.999 918.579C404.132 918.579 407.148 917.685 409.047 915.898C411.058 914.11 412.399 911.653 413.069 908.525C413.739 905.397 414.074 901.99 414.074 898.304V835.802C414.074 832.004 413.739 828.597 413.069 825.581C412.399 822.565 411.058 820.219 409.047 818.543C407.148 816.756 404.132 815.862 399.999 815.862C396.089 815.862 393.129 816.756 391.118 818.543C389.107 820.219 387.767 822.565 387.096 825.581C386.426 828.597 386.091 832.004 386.091 835.802V898.304C386.091 901.99 386.37 905.397 386.929 908.525C387.599 911.653 388.94 914.11 390.95 915.898C392.961 917.685 395.977 918.579 399.999 918.579ZM477.828 935V817.538H456.213V799.273H523.908V817.538H502.628V935H477.828ZM543.293 935V799.273H567.925V856.245H572.952L594.903 799.273H619.535L593.73 863.283L621.546 935H596.411L572.952 872.499H567.925V935H543.293ZM640.315 935V799.273H680.196C688.35 799.273 694.941 800.781 699.968 803.797C705.107 806.814 708.849 811.226 711.195 817.035C713.653 822.732 714.881 829.658 714.881 837.813C714.881 846.638 713.373 853.787 710.357 859.261C707.341 864.623 703.096 868.533 697.622 870.991C692.26 873.448 685.893 874.677 678.52 874.677H665.115V935H640.315ZM665.115 857.25H674.498C678.967 857.25 682.43 856.636 684.887 855.407C687.457 854.067 689.188 852 690.082 849.207C691.087 846.303 691.59 842.449 691.59 837.645C691.59 832.73 691.199 828.765 690.417 825.748C689.747 822.621 688.183 820.33 685.725 818.878C683.379 817.426 679.637 816.7 674.498 816.7H665.115V857.25ZM735.717 935V799.273H760.349V856.245H766.381C775.653 856.245 783.361 857.53 789.505 860.099C795.649 862.557 800.285 866.69 803.413 872.499C806.541 878.196 808.105 885.904 808.105 895.622C808.105 903.219 807.099 909.586 805.088 914.725C803.189 919.752 800.397 923.773 796.71 926.789C793.024 929.806 788.555 931.928 783.305 933.157C778.055 934.386 772.078 935 765.376 935H735.717ZM760.349 918.244H765.543C770.235 918.244 774.033 917.573 776.938 916.233C779.842 914.892 781.965 912.546 783.305 909.195C784.646 905.732 785.26 901.04 785.148 895.12C785.148 888.082 783.752 882.72 780.959 879.034C778.166 875.347 772.916 873.504 765.208 873.504H760.349V918.244ZM820.839 935V799.273H845.471V935H820.839ZM872.994 935V799.273H906.339C912.371 799.273 917.789 799.832 922.593 800.949C927.508 802.066 931.697 803.965 935.16 806.646C938.735 809.215 941.471 812.734 943.37 817.203C945.269 821.671 946.219 827.312 946.219 834.127C946.219 839.6 945.437 844.292 943.873 848.202C942.421 852.112 940.243 855.24 937.338 857.585C934.434 859.82 930.803 861.328 926.446 862.11C931.809 863.003 936.221 864.902 939.684 867.807C943.259 870.6 945.884 874.286 947.56 878.866C949.347 883.446 950.241 888.976 950.241 895.455C950.241 901.934 949.403 907.687 947.727 912.714C946.163 917.629 943.761 921.762 940.522 925.114C937.394 928.353 933.428 930.811 928.625 932.487C923.933 934.162 918.403 935 912.036 935H872.994ZM897.793 917.573H907.177C914.661 917.573 919.744 915.786 922.425 912.211C925.106 908.525 926.446 902.884 926.446 895.287C926.446 889.814 925.776 885.401 924.436 882.05C923.207 878.587 921.084 876.018 918.068 874.342C915.164 872.666 911.254 871.828 906.339 871.828H897.793V917.573ZM897.793 854.737H906.171C911.086 854.737 914.885 854.011 917.566 852.559C920.247 851.106 922.09 848.872 923.095 845.856C924.212 842.84 924.771 839.042 924.771 834.462C924.771 829.658 923.933 825.972 922.257 823.402C920.693 820.721 918.292 818.934 915.052 818.04C911.813 817.035 907.679 816.532 902.652 816.532H897.793V854.737ZM966.099 935L993.244 799.273H1019.72L1046.86 935H1023.91L1018.55 903.666H994.92L989.39 935H966.099ZM997.433 887.915H1015.87L1006.65 830.943L997.433 887.915ZM1077.52 935V817.538H1055.9V799.273H1123.6V817.538H1102.32V935H1077.52ZM1142.65 935V799.273H1199.62V816.7H1167.45V855.742H1192.75V873.001H1167.45V917.908H1199.95V935H1142.65ZM1211.64 935V917.238C1214.77 917.35 1217.39 917.182 1219.51 916.736C1221.75 916.177 1223.59 915.004 1225.04 913.217C1226.61 911.429 1227.89 908.692 1228.9 905.006C1229.9 901.208 1230.74 896.125 1231.41 889.758C1232.08 883.39 1232.81 875.291 1233.59 865.461L1237.95 799.273H1303.97V935H1279.33V817.873H1259.9L1256.88 868.477C1256.21 878.419 1255.43 887.188 1254.54 894.785C1253.75 902.381 1252.47 908.86 1250.68 914.222C1249.01 919.472 1246.6 923.717 1243.48 926.957C1240.35 930.197 1236.21 932.487 1231.08 933.827C1225.94 935.056 1219.46 935.447 1211.64 935ZM1331.97 935V799.273H1356.6V856.245H1362.63C1371.79 856.245 1379.45 857.53 1385.59 860.099C1391.73 862.557 1396.37 866.69 1399.5 872.499C1402.63 878.196 1404.19 885.904 1404.19 895.622C1404.19 903.219 1403.24 909.586 1401.34 914.725C1399.44 919.752 1396.59 923.773 1392.8 926.789C1389.11 929.806 1384.64 931.928 1379.39 933.157C1374.14 934.386 1368.22 935 1361.63 935H1331.97ZM1356.6 918.244H1361.63C1366.43 918.244 1370.23 917.573 1373.02 916.233C1375.93 914.892 1378.05 912.546 1379.39 909.195C1380.73 905.732 1381.4 901.04 1381.4 895.12C1381.29 888.082 1379.84 882.72 1377.04 879.034C1374.36 875.347 1369.11 873.504 1361.29 873.504H1356.6V918.244Z" fill="#187A85"/>
<path d="M1465.2 935V799.273H1543.45V935H1518.98V816.867H1489.66V935H1465.2ZM1570.57 935V799.273H1627.54V816.7H1595.37V855.742H1620.67V873.001H1595.37V917.908H1627.88V935H1570.57ZM1648.95 935V799.273H1688.83C1696.98 799.273 1703.57 800.781 1708.6 803.797C1713.74 806.814 1717.48 811.226 1719.83 817.035C1722.28 822.732 1723.51 829.658 1723.51 837.813C1723.51 846.638 1722 853.787 1718.99 859.261C1715.97 864.623 1711.73 868.533 1706.25 870.991C1700.89 873.448 1694.52 874.677 1687.15 874.677H1673.75V935H1648.95ZM1673.75 857.25H1683.13C1687.6 857.25 1691.06 856.636 1693.52 855.407C1696.09 854.067 1697.82 852 1698.71 849.207C1699.72 846.303 1700.22 842.449 1700.22 837.645C1700.22 832.73 1699.83 828.765 1699.05 825.748C1698.38 822.621 1696.81 820.33 1694.36 818.878C1692.01 817.426 1688.27 816.7 1683.13 816.7H1673.75V857.25ZM1744.01 935V799.273H1777.36C1783.39 799.273 1788.81 799.832 1793.61 800.949C1798.53 802.066 1802.72 803.965 1806.18 806.646C1809.75 809.215 1812.49 812.734 1814.39 817.203C1816.29 821.671 1817.24 827.312 1817.24 834.127C1817.24 839.6 1816.46 844.292 1814.89 848.202C1813.44 852.112 1811.26 855.24 1808.36 857.585C1805.45 859.82 1801.82 861.328 1797.47 862.11C1802.83 863.003 1807.24 864.902 1810.7 867.807C1814.28 870.6 1816.9 874.286 1818.58 878.866C1820.37 883.446 1821.26 888.976 1821.26 895.455C1821.26 901.934 1820.42 907.687 1818.75 912.714C1817.18 917.629 1814.78 921.762 1811.54 925.114C1808.41 928.353 1804.45 930.811 1799.64 932.487C1794.95 934.162 1789.42 935 1783.06 935H1744.01ZM1768.81 917.573H1778.2C1785.68 917.573 1790.76 915.786 1793.44 912.211C1796.13 908.525 1797.47 902.884 1797.47 895.287C1797.47 889.814 1796.8 885.401 1795.46 882.05C1794.23 878.587 1792.1 876.018 1789.09 874.342C1786.18 872.666 1782.27 871.828 1777.36 871.828H1768.81V917.573ZM1768.81 854.737H1777.19C1782.11 854.737 1785.9 854.011 1788.59 852.559C1791.27 851.106 1793.11 848.872 1794.11 845.856C1795.23 842.84 1795.79 839.042 1795.79 834.462C1795.79 829.658 1794.95 825.972 1793.28 823.402C1791.71 820.721 1789.31 818.934 1786.07 818.04C1782.83 817.035 1778.7 816.532 1773.67 816.532H1768.81V854.737ZM1880.85 936.843C1871.25 936.843 1863.59 935.056 1857.9 931.481C1852.2 927.906 1848.12 922.768 1845.66 916.065C1843.21 909.363 1841.98 901.431 1841.98 892.271V841.499C1841.98 832.339 1843.21 824.52 1845.66 818.04C1848.12 811.45 1852.2 806.423 1857.9 802.96C1863.59 799.497 1871.25 797.765 1880.85 797.765C1890.68 797.765 1898.39 799.497 1903.98 802.96C1909.67 806.423 1913.75 811.45 1916.21 818.04C1918.78 824.52 1920.06 832.339 1920.06 841.499V892.439C1920.06 901.487 1918.78 909.363 1916.21 916.065C1913.75 922.656 1909.67 927.795 1903.98 931.481C1898.39 935.056 1890.68 936.843 1880.85 936.843ZM1880.85 918.579C1884.99 918.579 1888 917.685 1889.9 915.898C1891.91 914.11 1893.25 911.653 1893.92 908.525C1894.59 905.397 1894.93 901.99 1894.93 898.304V835.802C1894.93 832.004 1894.59 828.597 1893.92 825.581C1893.25 822.565 1891.91 820.219 1889.9 818.543C1888 816.756 1884.99 815.862 1880.85 815.862C1876.94 815.862 1873.98 816.756 1871.97 818.543C1869.96 820.219 1868.62 822.565 1867.95 825.581C1867.28 828.597 1866.94 832.004 1866.94 835.802V898.304C1866.94 901.99 1867.22 905.397 1867.78 908.525C1868.45 911.653 1869.79 914.11 1871.8 915.898C1873.81 917.685 1876.83 918.579 1880.85 918.579ZM1981.97 936.843C1972.37 936.843 1964.71 935.056 1959.02 931.481C1953.32 927.906 1949.24 922.768 1946.79 916.065C1944.33 909.363 1943.1 901.431 1943.1 892.271V841.499C1943.1 832.339 1944.33 824.52 1946.79 818.04C1949.24 811.45 1953.32 806.423 1959.02 802.96C1964.71 799.497 1972.37 797.765 1981.97 797.765C1991.8 797.765 1999.51 799.497 2005.1 802.96C2010.79 806.423 2014.87 811.45 2017.33 818.04C2019.9 824.52 2021.18 832.339 2021.18 841.499V892.439C2021.18 901.487 2019.9 909.363 2017.33 916.065C2014.87 922.656 2010.79 927.795 2005.1 931.481C1999.51 935.056 1991.8 936.843 1981.97 936.843ZM1981.97 918.579C1986.11 918.579 1989.12 917.685 1991.02 915.898C1993.03 914.11 1994.37 911.653 1995.04 908.525C1995.71 905.397 1996.05 901.99 1996.05 898.304V835.802C1996.05 832.004 1995.71 828.597 1995.04 825.581C1994.37 822.565 1993.03 820.219 1991.02 818.543C1989.12 816.756 1986.11 815.862 1981.97 815.862C1978.06 815.862 1975.1 816.756 1973.09 818.543C1971.08 820.219 1969.74 822.565 1969.07 825.581C1968.4 828.597 1968.07 832.004 1968.07 835.802V898.304C1968.07 901.99 1968.34 905.397 1968.9 908.525C1969.57 911.653 1970.91 914.11 1972.92 915.898C1974.94 917.685 1977.95 918.579 1981.97 918.579ZM2059.8 935V817.538H2038.19V799.273H2105.88V817.538H2084.6V935H2059.8ZM2125.27 935V799.273H2149.9V856.245H2154.93L2176.88 799.273H2201.51L2175.7 863.283L2203.52 935H2178.39L2154.93 872.499H2149.9V935H2125.27ZM2222.29 935V799.273H2262.17C2270.33 799.273 2276.92 800.781 2281.94 803.797C2287.08 806.814 2290.82 811.226 2293.17 817.035C2295.63 822.732 2296.86 829.658 2296.86 837.813C2296.86 846.638 2295.35 853.787 2292.33 859.261C2289.32 864.623 2285.07 868.533 2279.6 870.991C2274.23 873.448 2267.87 874.677 2260.49 874.677H2247.09V935H2222.29ZM2247.09 857.25H2256.47C2260.94 857.25 2264.4 856.636 2266.86 855.407C2269.43 854.067 2271.16 852 2272.06 849.207C2273.06 846.303 2273.56 842.449 2273.56 837.645C2273.56 832.73 2273.17 828.765 2272.39 825.748C2271.72 822.621 2270.16 820.33 2267.7 818.878C2265.35 817.426 2261.61 816.7 2256.47 816.7H2247.09V857.25ZM2317.69 935V799.273H2342.32V856.245H2348.36C2357.63 856.245 2365.34 857.53 2371.48 860.099C2377.62 862.557 2382.26 866.69 2385.39 872.499C2388.52 878.196 2390.08 885.904 2390.08 895.622C2390.08 903.219 2389.07 909.586 2387.06 914.725C2385.16 919.752 2382.37 923.773 2378.68 926.789C2375 929.806 2370.53 931.928 2365.28 933.157C2360.03 934.386 2354.05 935 2347.35 935H2317.69ZM2342.32 918.244H2347.52C2352.21 918.244 2356.01 917.573 2358.91 916.233C2361.82 914.892 2363.94 912.546 2365.28 909.195C2366.62 905.732 2367.23 901.04 2367.12 895.12C2367.12 888.082 2365.73 882.72 2362.93 879.034C2360.14 875.347 2354.89 873.504 2347.18 873.504H2342.32V918.244ZM2402.81 935V799.273H2427.45V935H2402.81ZM2454.97 935V799.273H2488.31C2494.35 799.273 2499.76 799.832 2504.57 800.949C2509.48 802.066 2513.67 803.965 2517.13 806.646C2520.71 809.215 2523.45 812.734 2525.35 817.203C2527.24 821.671 2528.19 827.312 2528.19 834.127C2528.19 839.6 2527.41 844.292 2525.85 848.202C2524.4 852.112 2522.22 855.24 2519.31 857.585C2516.41 859.82 2512.78 861.328 2508.42 862.11C2513.78 863.003 2518.2 864.902 2521.66 867.807C2525.23 870.6 2527.86 874.286 2529.53 878.866C2531.32 883.446 2532.22 888.976 2532.22 895.455C2532.22 901.934 2531.38 907.687 2529.7 912.714C2528.14 917.629 2525.74 921.762 2522.5 925.114C2519.37 928.353 2515.4 930.811 2510.6 932.487C2505.91 934.162 2500.38 935 2494.01 935H2454.97ZM2479.77 917.573H2489.15C2496.64 917.573 2501.72 915.786 2504.4 912.211C2507.08 908.525 2508.42 902.884 2508.42 895.287C2508.42 889.814 2507.75 885.401 2506.41 882.05C2505.18 878.587 2503.06 876.018 2500.04 874.342C2497.14 872.666 2493.23 871.828 2488.31 871.828H2479.77V917.573ZM2479.77 854.737H2488.15C2493.06 854.737 2496.86 854.011 2499.54 852.559C2502.22 851.106 2504.06 848.872 2505.07 845.856C2506.19 842.84 2506.75 839.042 2506.75 834.462C2506.75 829.658 2505.91 825.972 2504.23 823.402C2502.67 820.721 2500.27 818.934 2497.03 818.04C2493.79 817.035 2489.65 816.532 2484.63 816.532H2479.77V854.737ZM2548.07 935L2575.22 799.273H2601.69L2628.84 935H2605.88L2600.52 903.666H2576.89L2571.36 935H2548.07ZM2579.41 887.915H2597.84L2588.62 830.943L2579.41 887.915ZM2659.49 935V817.538H2637.88V799.273H2705.57V817.538H2684.29V935H2659.49ZM2724.62 935V799.273H2781.59V816.7H2749.42V855.742H2774.72V873.001H2749.42V917.908H2781.93V935H2724.62ZM2793.61 935V917.238C2796.74 917.35 2799.37 917.182 2801.49 916.736C2803.72 916.177 2805.57 915.004 2807.02 913.217C2808.58 911.429 2809.87 908.692 2810.87 905.006C2811.88 901.208 2812.72 896.125 2813.39 889.758C2814.06 883.39 2814.78 875.291 2815.56 865.461L2819.92 799.273H2885.94V935H2861.31V817.873H2841.87L2838.86 868.477C2838.19 878.419 2837.4 887.188 2836.51 894.785C2835.73 902.381 2834.44 908.86 2832.66 914.222C2830.98 919.472 2828.58 923.717 2825.45 926.957C2822.32 930.197 2818.19 932.487 2813.05 933.827C2807.91 935.056 2801.43 935.447 2793.61 935ZM2913.94 935V799.273H2938.58V856.245H2944.61C2953.77 856.245 2961.42 857.53 2967.56 860.099C2973.71 862.557 2978.34 866.69 2981.47 872.499C2984.6 878.196 2986.16 885.904 2986.16 895.622C2986.16 903.219 2985.21 909.586 2983.32 914.725C2981.42 919.752 2978.57 923.773 2974.77 926.789C2971.08 929.806 2966.61 931.928 2961.36 933.157C2956.11 934.386 2950.19 935 2943.6 935H2913.94ZM2938.58 918.244H2943.6C2948.41 918.244 2952.2 917.573 2955 916.233C2957.9 914.892 2960.02 912.546 2961.36 909.195C2962.71 905.732 2963.38 901.04 2963.38 895.12C2963.26 888.082 2961.81 882.72 2959.02 879.034C2956.34 875.347 2951.09 873.504 2943.27 873.504H2938.58V918.244Z" fill="#187A85"/>
<path d="M-1.7786 1183V1047.27H76.4737V1183H52.0094V1064.87H22.6857V1183H-1.7786ZM103.597 1183V1047.27H160.569V1064.7H128.396V1103.74H153.698V1121H128.396V1165.91H160.904V1183H103.597ZM181.972 1183V1047.27H221.852C230.007 1047.27 236.598 1048.78 241.625 1051.8C246.764 1054.81 250.506 1059.23 252.852 1065.04C255.309 1070.73 256.538 1077.66 256.538 1085.81C256.538 1094.64 255.03 1101.79 252.014 1107.26C248.998 1112.62 244.753 1116.53 239.279 1118.99C233.917 1121.45 227.55 1122.68 220.177 1122.68H206.772V1183H181.972ZM206.772 1105.25H216.155C220.624 1105.25 224.087 1104.64 226.544 1103.41C229.113 1102.07 230.845 1100 231.739 1097.21C232.744 1094.3 233.247 1090.45 233.247 1085.65C233.247 1080.73 232.856 1076.76 232.074 1073.75C231.404 1070.62 229.84 1068.33 227.382 1066.88C225.036 1065.43 221.294 1064.7 216.155 1064.7H206.772V1105.25ZM277.039 1183V1047.27H310.384C316.416 1047.27 321.834 1047.83 326.637 1048.95C331.553 1050.07 335.742 1051.97 339.205 1054.65C342.779 1057.22 345.516 1060.73 347.415 1065.2C349.314 1069.67 350.264 1075.31 350.264 1082.13C350.264 1087.6 349.482 1092.29 347.918 1096.2C346.466 1100.11 344.287 1103.24 341.383 1105.59C338.479 1107.82 334.848 1109.33 330.491 1110.11C335.853 1111 340.266 1112.9 343.729 1115.81C347.304 1118.6 349.929 1122.29 351.604 1126.87C353.392 1131.45 354.285 1136.98 354.285 1143.45C354.285 1149.93 353.448 1155.69 351.772 1160.71C350.208 1165.63 347.806 1169.76 344.567 1173.11C341.439 1176.35 337.473 1178.81 332.67 1180.49C327.978 1182.16 322.448 1183 316.081 1183H277.039ZM301.838 1165.57H311.222C318.706 1165.57 323.789 1163.79 326.47 1160.21C329.151 1156.52 330.491 1150.88 330.491 1143.29C330.491 1137.81 329.821 1133.4 328.481 1130.05C327.252 1126.59 325.129 1124.02 322.113 1122.34C319.209 1120.67 315.299 1119.83 310.384 1119.83H301.838V1165.57ZM301.838 1102.74H310.216C315.131 1102.74 318.929 1102.01 321.61 1100.56C324.292 1099.11 326.135 1096.87 327.14 1093.86C328.257 1090.84 328.816 1087.04 328.816 1082.46C328.816 1077.66 327.978 1073.97 326.302 1071.4C324.738 1068.72 322.337 1066.93 319.097 1066.04C315.857 1065.04 311.724 1064.53 306.697 1064.53H301.838V1102.74ZM413.878 1184.84C404.271 1184.84 396.619 1183.06 390.922 1179.48C385.225 1175.91 381.147 1170.77 378.69 1164.07C376.232 1157.36 375.003 1149.43 375.003 1140.27V1089.5C375.003 1080.34 376.232 1072.52 378.69 1066.04C381.147 1059.45 385.225 1054.42 390.922 1050.96C396.619 1047.5 404.271 1045.77 413.878 1045.77C423.708 1045.77 431.416 1047.5 437.002 1050.96C442.699 1054.42 446.776 1059.45 449.234 1066.04C451.803 1072.52 453.088 1080.34 453.088 1089.5V1140.44C453.088 1149.49 451.803 1157.36 449.234 1164.07C446.776 1170.66 442.699 1175.79 437.002 1179.48C431.416 1183.06 423.708 1184.84 413.878 1184.84ZM413.878 1166.58C418.011 1166.58 421.027 1165.69 422.926 1163.9C424.937 1162.11 426.278 1159.65 426.948 1156.52C427.618 1153.4 427.953 1149.99 427.953 1146.3V1083.8C427.953 1080 427.618 1076.6 426.948 1073.58C426.278 1070.56 424.937 1068.22 422.926 1066.54C421.027 1064.76 418.011 1063.86 413.878 1063.86C409.968 1063.86 407.008 1064.76 404.997 1066.54C402.986 1068.22 401.646 1070.56 400.976 1073.58C400.305 1076.6 399.97 1080 399.97 1083.8V1146.3C399.97 1149.99 400.249 1153.4 400.808 1156.52C401.478 1159.65 402.819 1162.11 404.83 1163.9C406.84 1165.69 409.856 1166.58 413.878 1166.58ZM514.999 1184.84C505.392 1184.84 497.74 1183.06 492.043 1179.48C486.345 1175.91 482.268 1170.77 479.81 1164.07C477.353 1157.36 476.124 1149.43 476.124 1140.27V1089.5C476.124 1080.34 477.353 1072.52 479.81 1066.04C482.268 1059.45 486.345 1054.42 492.043 1050.96C497.74 1047.5 505.392 1045.77 514.999 1045.77C524.829 1045.77 532.537 1047.5 538.123 1050.96C543.82 1054.42 547.897 1059.45 550.355 1066.04C552.924 1072.52 554.209 1080.34 554.209 1089.5V1140.44C554.209 1149.49 552.924 1157.36 550.355 1164.07C547.897 1170.66 543.82 1175.79 538.123 1179.48C532.537 1183.06 524.829 1184.84 514.999 1184.84ZM514.999 1166.58C519.132 1166.58 522.148 1165.69 524.047 1163.9C526.058 1162.11 527.399 1159.65 528.069 1156.52C528.739 1153.4 529.074 1149.99 529.074 1146.3V1083.8C529.074 1080 528.739 1076.6 528.069 1073.58C527.399 1070.56 526.058 1068.22 524.047 1066.54C522.148 1064.76 519.132 1063.86 514.999 1063.86C511.089 1063.86 508.129 1064.76 506.118 1066.54C504.107 1068.22 502.767 1070.56 502.096 1073.58C501.426 1076.6 501.091 1080 501.091 1083.8V1146.3C501.091 1149.99 501.37 1153.4 501.929 1156.52C502.599 1159.65 503.94 1162.11 505.95 1163.9C507.961 1165.69 510.977 1166.58 514.999 1166.58ZM592.828 1183V1065.54H571.213V1047.27H638.908V1065.54H617.628V1183H592.828ZM658.293 1183V1047.27H682.925V1104.24H687.952L709.903 1047.27H734.535L708.73 1111.28L736.546 1183H711.411L687.952 1120.5H682.925V1183H658.293ZM755.315 1183V1047.27H795.196C803.35 1047.27 809.941 1048.78 814.968 1051.8C820.107 1054.81 823.849 1059.23 826.195 1065.04C828.653 1070.73 829.881 1077.66 829.881 1085.81C829.881 1094.64 828.373 1101.79 825.357 1107.26C822.341 1112.62 818.096 1116.53 812.622 1118.99C807.26 1121.45 800.893 1122.68 793.52 1122.68H780.115V1183H755.315ZM780.115 1105.25H789.498C793.967 1105.25 797.43 1104.64 799.887 1103.41C802.457 1102.07 804.188 1100 805.082 1097.21C806.087 1094.3 806.59 1090.45 806.59 1085.65C806.59 1080.73 806.199 1076.76 805.417 1073.75C804.747 1070.62 803.183 1068.33 800.725 1066.88C798.379 1065.43 794.637 1064.7 789.498 1064.7H780.115V1105.25ZM850.717 1183V1047.27H875.349V1104.24H881.381C890.653 1104.24 898.361 1105.53 904.505 1108.1C910.649 1110.56 915.285 1114.69 918.413 1120.5C921.541 1126.2 923.105 1133.9 923.105 1143.62C923.105 1151.22 922.099 1157.59 920.088 1162.72C918.189 1167.75 915.397 1171.77 911.71 1174.79C908.024 1177.81 903.555 1179.93 898.305 1181.16C893.055 1182.39 887.078 1183 880.376 1183H850.717ZM875.349 1166.24H880.543C885.235 1166.24 889.033 1165.57 891.938 1164.23C894.842 1162.89 896.965 1160.55 898.305 1157.2C899.646 1153.73 900.26 1149.04 900.148 1143.12C900.148 1136.08 898.752 1130.72 895.959 1127.03C893.166 1123.35 887.916 1121.5 880.208 1121.5H875.349V1166.24ZM935.839 1183V1047.27H960.471V1183H935.839ZM987.994 1183V1047.27H1021.34C1027.37 1047.27 1032.79 1047.83 1037.59 1048.95C1042.51 1050.07 1046.7 1051.97 1050.16 1054.65C1053.73 1057.22 1056.47 1060.73 1058.37 1065.2C1060.27 1069.67 1061.22 1075.31 1061.22 1082.13C1061.22 1087.6 1060.44 1092.29 1058.87 1096.2C1057.42 1100.11 1055.24 1103.24 1052.34 1105.59C1049.43 1107.82 1045.8 1109.33 1041.45 1110.11C1046.81 1111 1051.22 1112.9 1054.68 1115.81C1058.26 1118.6 1060.88 1122.29 1062.56 1126.87C1064.35 1131.45 1065.24 1136.98 1065.24 1143.45C1065.24 1149.93 1064.4 1155.69 1062.73 1160.71C1061.16 1165.63 1058.76 1169.76 1055.52 1173.11C1052.39 1176.35 1048.43 1178.81 1043.62 1180.49C1038.93 1182.16 1033.4 1183 1027.04 1183H987.994ZM1012.79 1165.57H1022.18C1029.66 1165.57 1034.74 1163.79 1037.42 1160.21C1040.11 1156.52 1041.45 1150.88 1041.45 1143.29C1041.45 1137.81 1040.78 1133.4 1039.44 1130.05C1038.21 1126.59 1036.08 1124.02 1033.07 1122.34C1030.16 1120.67 1026.25 1119.83 1021.34 1119.83H1012.79V1165.57ZM1012.79 1102.74H1021.17C1026.09 1102.74 1029.88 1102.01 1032.57 1100.56C1035.25 1099.11 1037.09 1096.87 1038.1 1093.86C1039.21 1090.84 1039.77 1087.04 1039.77 1082.46C1039.77 1077.66 1038.93 1073.97 1037.26 1071.4C1035.69 1068.72 1033.29 1066.93 1030.05 1066.04C1026.81 1065.04 1022.68 1064.53 1017.65 1064.53H1012.79V1102.74ZM1081.1 1183L1108.24 1047.27H1134.72L1161.86 1183H1138.91L1133.55 1151.67H1109.92L1104.39 1183H1081.1ZM1112.43 1135.91H1130.87L1121.65 1078.94L1112.43 1135.91ZM1192.52 1183V1065.54H1170.9V1047.27H1238.6V1065.54H1217.32V1183H1192.52ZM1257.65 1183V1047.27H1314.62V1064.7H1282.45V1103.74H1307.75V1121H1282.45V1165.91H1314.95V1183H1257.65ZM1326.64 1183V1165.24C1329.77 1165.35 1332.39 1165.18 1334.51 1164.74C1336.75 1164.18 1338.59 1163 1340.04 1161.22C1341.61 1159.43 1342.89 1156.69 1343.9 1153.01C1344.9 1149.21 1345.74 1144.13 1346.41 1137.76C1347.08 1131.39 1347.81 1123.29 1348.59 1113.46L1352.95 1047.27H1418.97V1183H1394.33V1065.87H1374.9L1371.88 1116.48C1371.21 1126.42 1370.43 1135.19 1369.54 1142.78C1368.75 1150.38 1367.47 1156.86 1365.68 1162.22C1364.01 1167.47 1361.6 1171.72 1358.48 1174.96C1355.35 1178.2 1351.21 1180.49 1346.08 1181.83C1340.94 1183.06 1334.46 1183.45 1326.64 1183ZM1446.97 1183V1047.27H1471.6V1104.24H1477.63C1486.79 1104.24 1494.45 1105.53 1500.59 1108.1C1506.73 1110.56 1511.37 1114.69 1514.5 1120.5C1517.63 1126.2 1519.19 1133.9 1519.19 1143.62C1519.19 1151.22 1518.24 1157.59 1516.34 1162.72C1514.44 1167.75 1511.59 1171.77 1507.8 1174.79C1504.11 1177.81 1499.64 1179.93 1494.39 1181.16C1489.14 1182.39 1483.22 1183 1476.63 1183H1446.97ZM1471.6 1166.24H1476.63C1481.43 1166.24 1485.23 1165.57 1488.02 1164.23C1490.93 1162.89 1493.05 1160.55 1494.39 1157.2C1495.73 1153.73 1496.4 1149.04 1496.4 1143.12C1496.29 1136.08 1494.84 1130.72 1492.04 1127.03C1489.36 1123.35 1484.11 1121.5 1476.29 1121.5H1471.6V1166.24Z" fill="#187A85"/>
<path d="M1580.2 1183V1047.27H1658.45V1183H1633.98V1064.87H1604.66V1183H1580.2ZM1685.57 1183V1047.27H1742.54V1064.7H1710.37V1103.74H1735.67V1121H1710.37V1165.91H1742.88V1183H1685.57ZM1763.95 1183V1047.27H1803.83C1811.98 1047.27 1818.57 1048.78 1823.6 1051.8C1828.74 1054.81 1832.48 1059.23 1834.83 1065.04C1837.28 1070.73 1838.51 1077.66 1838.51 1085.81C1838.51 1094.64 1837 1101.79 1833.99 1107.26C1830.97 1112.62 1826.73 1116.53 1821.25 1118.99C1815.89 1121.45 1809.52 1122.68 1802.15 1122.68H1788.75V1183H1763.95ZM1788.75 1105.25H1798.13C1802.6 1105.25 1806.06 1104.64 1808.52 1103.41C1811.09 1102.07 1812.82 1100 1813.71 1097.21C1814.72 1094.3 1815.22 1090.45 1815.22 1085.65C1815.22 1080.73 1814.83 1076.76 1814.05 1073.75C1813.38 1070.62 1811.81 1068.33 1809.36 1066.88C1807.01 1065.43 1803.27 1064.7 1798.13 1064.7H1788.75V1105.25ZM1859.01 1183V1047.27H1892.36C1898.39 1047.27 1903.81 1047.83 1908.61 1048.95C1913.53 1050.07 1917.72 1051.97 1921.18 1054.65C1924.75 1057.22 1927.49 1060.73 1929.39 1065.2C1931.29 1069.67 1932.24 1075.31 1932.24 1082.13C1932.24 1087.6 1931.46 1092.29 1929.89 1096.2C1928.44 1100.11 1926.26 1103.24 1923.36 1105.59C1920.45 1107.82 1916.82 1109.33 1912.47 1110.11C1917.83 1111 1922.24 1112.9 1925.7 1115.81C1929.28 1118.6 1931.9 1122.29 1933.58 1126.87C1935.37 1131.45 1936.26 1136.98 1936.26 1143.45C1936.26 1149.93 1935.42 1155.69 1933.75 1160.71C1932.18 1165.63 1929.78 1169.76 1926.54 1173.11C1923.41 1176.35 1919.45 1178.81 1914.64 1180.49C1909.95 1182.16 1904.42 1183 1898.06 1183H1859.01ZM1883.81 1165.57H1893.2C1900.68 1165.57 1905.76 1163.79 1908.44 1160.21C1911.13 1156.52 1912.47 1150.88 1912.47 1143.29C1912.47 1137.81 1911.8 1133.4 1910.46 1130.05C1909.23 1126.59 1907.1 1124.02 1904.09 1122.34C1901.18 1120.67 1897.27 1119.83 1892.36 1119.83H1883.81V1165.57ZM1883.81 1102.74H1892.19C1897.11 1102.74 1900.9 1102.01 1903.59 1100.56C1906.27 1099.11 1908.11 1096.87 1909.11 1093.86C1910.23 1090.84 1910.79 1087.04 1910.79 1082.46C1910.79 1077.66 1909.95 1073.97 1908.28 1071.4C1906.71 1068.72 1904.31 1066.93 1901.07 1066.04C1897.83 1065.04 1893.7 1064.53 1888.67 1064.53H1883.81V1102.74ZM1995.85 1184.84C1986.25 1184.84 1978.59 1183.06 1972.9 1179.48C1967.2 1175.91 1963.12 1170.77 1960.66 1164.07C1958.21 1157.36 1956.98 1149.43 1956.98 1140.27V1089.5C1956.98 1080.34 1958.21 1072.52 1960.66 1066.04C1963.12 1059.45 1967.2 1054.42 1972.9 1050.96C1978.59 1047.5 1986.25 1045.77 1995.85 1045.77C2005.68 1045.77 2013.39 1047.5 2018.98 1050.96C2024.67 1054.42 2028.75 1059.45 2031.21 1066.04C2033.78 1072.52 2035.06 1080.34 2035.06 1089.5V1140.44C2035.06 1149.49 2033.78 1157.36 2031.21 1164.07C2028.75 1170.66 2024.67 1175.79 2018.98 1179.48C2013.39 1183.06 2005.68 1184.84 1995.85 1184.84ZM1995.85 1166.58C1999.99 1166.58 2003 1165.69 2004.9 1163.9C2006.91 1162.11 2008.25 1159.65 2008.92 1156.52C2009.59 1153.4 2009.93 1149.99 2009.93 1146.3V1083.8C2009.93 1080 2009.59 1076.6 2008.92 1073.58C2008.25 1070.56 2006.91 1068.22 2004.9 1066.54C2003 1064.76 1999.99 1063.86 1995.85 1063.86C1991.94 1063.86 1988.98 1064.76 1986.97 1066.54C1984.96 1068.22 1983.62 1070.56 1982.95 1073.58C1982.28 1076.6 1981.94 1080 1981.94 1083.8V1146.3C1981.94 1149.99 1982.22 1153.4 1982.78 1156.52C1983.45 1159.65 1984.79 1162.11 1986.8 1163.9C1988.81 1165.69 1991.83 1166.58 1995.85 1166.58ZM2096.97 1184.84C2087.37 1184.84 2079.71 1183.06 2074.02 1179.48C2068.32 1175.91 2064.24 1170.77 2061.79 1164.07C2059.33 1157.36 2058.1 1149.43 2058.1 1140.27V1089.5C2058.1 1080.34 2059.33 1072.52 2061.79 1066.04C2064.24 1059.45 2068.32 1054.42 2074.02 1050.96C2079.71 1047.5 2087.37 1045.77 2096.97 1045.77C2106.8 1045.77 2114.51 1047.5 2120.1 1050.96C2125.79 1054.42 2129.87 1059.45 2132.33 1066.04C2134.9 1072.52 2136.18 1080.34 2136.18 1089.5V1140.44C2136.18 1149.49 2134.9 1157.36 2132.33 1164.07C2129.87 1170.66 2125.79 1175.79 2120.1 1179.48C2114.51 1183.06 2106.8 1184.84 2096.97 1184.84ZM2096.97 1166.58C2101.11 1166.58 2104.12 1165.69 2106.02 1163.9C2108.03 1162.11 2109.37 1159.65 2110.04 1156.52C2110.71 1153.4 2111.05 1149.99 2111.05 1146.3V1083.8C2111.05 1080 2110.71 1076.6 2110.04 1073.58C2109.37 1070.56 2108.03 1068.22 2106.02 1066.54C2104.12 1064.76 2101.11 1063.86 2096.97 1063.86C2093.06 1063.86 2090.1 1064.76 2088.09 1066.54C2086.08 1068.22 2084.74 1070.56 2084.07 1073.58C2083.4 1076.6 2083.07 1080 2083.07 1083.8V1146.3C2083.07 1149.99 2083.34 1153.4 2083.9 1156.52C2084.57 1159.65 2085.91 1162.11 2087.92 1163.9C2089.94 1165.69 2092.95 1166.58 2096.97 1166.58ZM2174.8 1183V1065.54H2153.19V1047.27H2220.88V1065.54H2199.6V1183H2174.8ZM2240.27 1183V1047.27H2264.9V1104.24H2269.93L2291.88 1047.27H2316.51L2290.7 1111.28L2318.52 1183H2293.39L2269.93 1120.5H2264.9V1183H2240.27ZM2337.29 1183V1047.27H2377.17C2385.33 1047.27 2391.92 1048.78 2396.94 1051.8C2402.08 1054.81 2405.82 1059.23 2408.17 1065.04C2410.63 1070.73 2411.86 1077.66 2411.86 1085.81C2411.86 1094.64 2410.35 1101.79 2407.33 1107.26C2404.32 1112.62 2400.07 1116.53 2394.6 1118.99C2389.23 1121.45 2382.87 1122.68 2375.49 1122.68H2362.09V1183H2337.29ZM2362.09 1105.25H2371.47C2375.94 1105.25 2379.4 1104.64 2381.86 1103.41C2384.43 1102.07 2386.16 1100 2387.06 1097.21C2388.06 1094.3 2388.56 1090.45 2388.56 1085.65C2388.56 1080.73 2388.17 1076.76 2387.39 1073.75C2386.72 1070.62 2385.16 1068.33 2382.7 1066.88C2380.35 1065.43 2376.61 1064.7 2371.47 1064.7H2362.09V1105.25ZM2432.69 1183V1047.27H2457.32V1104.24H2463.36C2472.63 1104.24 2480.34 1105.53 2486.48 1108.1C2492.62 1110.56 2497.26 1114.69 2500.39 1120.5C2503.52 1126.2 2505.08 1133.9 2505.08 1143.62C2505.08 1151.22 2504.07 1157.59 2502.06 1162.72C2500.16 1167.75 2497.37 1171.77 2493.68 1174.79C2490 1177.81 2485.53 1179.93 2480.28 1181.16C2475.03 1182.39 2469.05 1183 2462.35 1183H2432.69ZM2457.32 1166.24H2462.52C2467.21 1166.24 2471.01 1165.57 2473.91 1164.23C2476.82 1162.89 2478.94 1160.55 2480.28 1157.2C2481.62 1153.73 2482.23 1149.04 2482.12 1143.12C2482.12 1136.08 2480.73 1130.72 2477.93 1127.03C2475.14 1123.35 2469.89 1121.5 2462.18 1121.5H2457.32V1166.24ZM2517.81 1183V1047.27H2542.45V1183H2517.81ZM2569.97 1183V1047.27H2603.31C2609.35 1047.27 2614.76 1047.83 2619.57 1048.95C2624.48 1050.07 2628.67 1051.97 2632.13 1054.65C2635.71 1057.22 2638.45 1060.73 2640.35 1065.2C2642.24 1069.67 2643.19 1075.31 2643.19 1082.13C2643.19 1087.6 2642.41 1092.29 2640.85 1096.2C2639.4 1100.11 2637.22 1103.24 2634.31 1105.59C2631.41 1107.82 2627.78 1109.33 2623.42 1110.11C2628.78 1111 2633.2 1112.9 2636.66 1115.81C2640.23 1118.6 2642.86 1122.29 2644.53 1126.87C2646.32 1131.45 2647.22 1136.98 2647.22 1143.45C2647.22 1149.93 2646.38 1155.69 2644.7 1160.71C2643.14 1165.63 2640.74 1169.76 2637.5 1173.11C2634.37 1176.35 2630.4 1178.81 2625.6 1180.49C2620.91 1182.16 2615.38 1183 2609.01 1183H2569.97ZM2594.77 1165.57H2604.15C2611.64 1165.57 2616.72 1163.79 2619.4 1160.21C2622.08 1156.52 2623.42 1150.88 2623.42 1143.29C2623.42 1137.81 2622.75 1133.4 2621.41 1130.05C2620.18 1126.59 2618.06 1124.02 2615.04 1122.34C2612.14 1120.67 2608.23 1119.83 2603.31 1119.83H2594.77V1165.57ZM2594.77 1102.74H2603.15C2608.06 1102.74 2611.86 1102.01 2614.54 1100.56C2617.22 1099.11 2619.06 1096.87 2620.07 1093.86C2621.19 1090.84 2621.75 1087.04 2621.75 1082.46C2621.75 1077.66 2620.91 1073.97 2619.23 1071.4C2617.67 1068.72 2615.27 1066.93 2612.03 1066.04C2608.79 1065.04 2604.65 1064.53 2599.63 1064.53H2594.77V1102.74ZM2663.07 1183L2690.22 1047.27H2716.69L2743.84 1183H2720.88L2715.52 1151.67H2691.89L2686.36 1183H2663.07ZM2694.41 1135.91H2712.84L2703.62 1078.94L2694.41 1135.91ZM2774.49 1183V1065.54H2752.88V1047.27H2820.57V1065.54H2799.29V1183H2774.49ZM2839.62 1183V1047.27H2896.59V1064.7H2864.42V1103.74H2889.72V1121H2864.42V1165.91H2896.93V1183H2839.62ZM2908.61 1183V1165.24C2911.74 1165.35 2914.37 1165.18 2916.49 1164.74C2918.72 1164.18 2920.57 1163 2922.02 1161.22C2923.58 1159.43 2924.87 1156.69 2925.87 1153.01C2926.88 1149.21 2927.72 1144.13 2928.39 1137.76C2929.06 1131.39 2929.78 1123.29 2930.56 1113.46L2934.92 1047.27H3000.94V1183H2976.31V1065.87H2956.87L2953.86 1116.48C2953.19 1126.42 2952.4 1135.19 2951.51 1142.78C2950.73 1150.38 2949.44 1156.86 2947.66 1162.22C2945.98 1167.47 2943.58 1171.72 2940.45 1174.96C2937.32 1178.2 2933.19 1180.49 2928.05 1181.83C2922.91 1183.06 2916.43 1183.45 2908.61 1183ZM3028.94 1183V1047.27H3053.58V1104.24H3059.61C3068.77 1104.24 3076.42 1105.53 3082.56 1108.1C3088.71 1110.56 3093.34 1114.69 3096.47 1120.5C3099.6 1126.2 3101.16 1133.9 3101.16 1143.62C3101.16 1151.22 3100.21 1157.59 3098.32 1162.72C3096.42 1167.75 3093.57 1171.77 3089.77 1174.79C3086.08 1177.81 3081.61 1179.93 3076.36 1181.16C3071.11 1182.39 3065.19 1183 3058.6 1183H3028.94ZM3053.58 1166.24H3058.6C3063.41 1166.24 3067.2 1165.57 3070 1164.23C3072.9 1162.89 3075.02 1160.55 3076.36 1157.2C3077.71 1153.73 3078.38 1149.04 3078.38 1143.12C3078.26 1136.08 3076.81 1130.72 3074.02 1127.03C3071.34 1123.35 3066.09 1121.5 3058.27 1121.5H3053.58V1166.24Z" fill="#187A85"/>
</svg>
