<svg width="2560" height="1232" viewBox="0 0 2560 1232" fill="none" xmlns="http://www.w3.org/2000/svg">
<path d="M-116.001 192V56.2733H-37.7489V192H-62.2133V73.8675H-91.5369V192H-116.001ZM-10.6258 192V56.2733H46.3459V73.6999H14.1736V112.742H39.4757V130.001H14.1736V174.908H46.681V192H-10.6258ZM67.7495 192V56.2733H107.63C115.785 56.2733 122.375 57.7813 127.402 60.7975C132.541 63.8136 136.283 68.2262 138.629 74.035C141.087 79.7322 142.315 86.6582 142.315 94.813C142.315 103.638 140.807 110.787 137.791 116.261C134.775 121.623 130.53 125.533 125.056 127.991C119.694 130.448 113.327 131.677 105.954 131.677H92.549V192H67.7495ZM92.549 114.25H101.933C106.401 114.25 109.864 113.636 112.322 112.407C114.891 111.067 116.622 109 117.516 106.207C118.521 103.303 119.024 99.4489 119.024 94.6454C119.024 89.7302 118.633 85.7645 117.851 82.7484C117.181 79.6205 115.617 77.3305 113.159 75.8782C110.813 74.426 107.071 73.6999 101.933 73.6999H92.549V114.25ZM162.816 192V56.2733H196.161C202.193 56.2733 207.611 56.8318 212.415 57.9489C217.33 59.066 221.519 60.9651 224.982 63.6461C228.557 66.2154 231.294 69.7342 233.193 74.2026C235.092 78.671 236.041 84.3123 236.041 91.1265C236.041 96.6003 235.259 101.292 233.695 105.202C232.243 109.112 230.065 112.24 227.16 114.585C224.256 116.82 220.625 118.328 216.269 119.11C221.631 120.003 226.043 121.902 229.506 124.807C233.081 127.6 235.706 131.286 237.382 135.866C239.169 140.446 240.063 145.976 240.063 152.455C240.063 158.934 239.225 164.687 237.549 169.714C235.985 174.629 233.584 178.762 230.344 182.114C227.216 185.353 223.251 187.811 218.447 189.487C213.755 191.162 208.226 192 201.858 192H162.816ZM187.615 174.573H196.999C204.483 174.573 209.566 172.786 212.247 169.211C214.928 165.525 216.269 159.884 216.269 152.287C216.269 146.814 215.598 142.401 214.258 139.05C213.029 135.587 210.907 133.018 207.891 131.342C204.986 129.666 201.076 128.828 196.161 128.828H187.615V174.573ZM187.615 111.737H195.993C200.909 111.737 204.707 111.011 207.388 109.559C210.069 108.106 211.912 105.872 212.917 102.856C214.035 99.8399 214.593 96.0418 214.593 91.4617C214.593 86.6582 213.755 82.9718 212.08 80.4025C210.516 77.7214 208.114 75.9341 204.874 75.0404C201.635 74.035 197.502 73.5323 192.475 73.5323H187.615V111.737ZM299.655 193.843C290.048 193.843 282.396 192.056 276.699 188.481C271.002 184.906 266.924 179.768 264.467 173.065C262.009 166.363 260.78 158.431 260.78 149.271V98.4994C260.78 89.3392 262.009 81.5196 264.467 75.0404C266.924 68.4496 271.002 63.4227 276.699 59.9597C282.396 56.4967 290.048 54.7652 299.655 54.7652C309.486 54.7652 317.194 56.4967 322.779 59.9597C328.476 63.4227 332.554 68.4496 335.011 75.0404C337.581 81.5196 338.865 89.3392 338.865 98.4994V149.439C338.865 158.487 337.581 166.363 335.011 173.065C332.554 179.656 328.476 184.795 322.779 188.481C317.194 192.056 309.486 193.843 299.655 193.843ZM299.655 175.579C303.789 175.579 306.805 174.685 308.704 172.898C310.715 171.11 312.055 168.653 312.725 165.525C313.396 162.397 313.731 158.99 313.731 155.304V92.8022C313.731 89.0041 313.396 85.5969 312.725 82.5808C312.055 79.5646 310.715 77.2188 308.704 75.5431C306.805 73.7558 303.789 72.8621 299.655 72.8621C295.745 72.8621 292.785 73.7558 290.774 75.5431C288.764 77.2188 287.423 79.5646 286.753 82.5808C286.083 85.5969 285.748 89.0041 285.748 92.8022V155.304C285.748 158.99 286.027 162.397 286.585 165.525C287.256 168.653 288.596 171.11 290.607 172.898C292.618 174.685 295.634 175.579 299.655 175.579ZM400.776 193.843C391.169 193.843 383.517 192.056 377.82 188.481C372.123 184.906 368.045 179.768 365.588 173.065C363.13 166.363 361.901 158.431 361.901 149.271V98.4994C361.901 89.3392 363.13 81.5196 365.588 75.0404C368.045 68.4496 372.123 63.4227 377.82 59.9597C383.517 56.4967 391.169 54.7652 400.776 54.7652C410.607 54.7652 418.315 56.4967 423.9 59.9597C429.597 63.4227 433.675 68.4496 436.132 75.0404C438.701 81.5196 439.986 89.3392 439.986 98.4994V149.439C439.986 158.487 438.701 166.363 436.132 173.065C433.675 179.656 429.597 184.795 423.9 188.481C418.315 192.056 410.607 193.843 400.776 193.843ZM400.776 175.579C404.909 175.579 407.926 174.685 409.825 172.898C411.835 171.11 413.176 168.653 413.846 165.525C414.516 162.397 414.852 158.99 414.852 155.304V92.8022C414.852 89.0041 414.516 85.5969 413.846 82.5808C413.176 79.5646 411.835 77.2188 409.825 75.5431C407.926 73.7558 404.909 72.8621 400.776 72.8621C396.866 72.8621 393.906 73.7558 391.895 75.5431C389.884 77.2188 388.544 79.5646 387.874 82.5808C387.203 85.5969 386.868 89.0041 386.868 92.8022V155.304C386.868 158.99 387.148 162.397 387.706 165.525C388.376 168.653 389.717 171.11 391.728 172.898C393.738 174.685 396.755 175.579 400.776 175.579ZM478.606 192V74.5377H456.99V56.2733H524.686V74.5377H503.405V192H478.606ZM544.071 192V56.2733H568.703V113.245H573.73L595.68 56.2733H620.312L594.507 120.283L622.323 192H597.188L573.73 129.499H568.703V192H544.071ZM641.093 192V56.2733H680.973C689.128 56.2733 695.719 57.7813 700.746 60.7975C705.884 63.8136 709.626 68.2262 711.972 74.035C714.43 79.7322 715.659 86.6582 715.659 94.813C715.659 103.638 714.151 110.787 711.134 116.261C708.118 121.623 703.873 125.533 698.4 127.991C693.038 130.448 686.67 131.677 679.297 131.677H665.892V192H641.093ZM665.892 114.25H675.276C679.744 114.25 683.207 113.636 685.665 112.407C688.234 111.067 689.966 109 690.859 106.207C691.865 103.303 692.367 99.4489 692.367 94.6454C692.367 89.7302 691.976 85.7645 691.194 82.7484C690.524 79.6205 688.96 77.3305 686.503 75.8782C684.157 74.426 680.414 73.6999 675.276 73.6999H665.892V114.25ZM736.494 192V56.2733H761.126V113.245H767.158C776.43 113.245 784.138 114.53 790.282 117.099C796.426 119.557 801.062 123.69 804.19 129.499C807.318 135.196 808.882 142.904 808.882 152.622C808.882 160.219 807.876 166.586 805.866 171.725C803.967 176.752 801.174 180.773 797.488 183.789C793.801 186.806 789.333 188.928 784.082 190.157C778.832 191.386 772.856 192 766.153 192H736.494ZM761.126 175.244H766.321C771.012 175.244 774.811 174.573 777.715 173.233C780.619 171.892 782.742 169.546 784.082 166.195C785.423 162.732 786.037 158.04 785.926 152.12C785.926 145.082 784.529 139.72 781.737 136.034C778.944 132.347 773.693 130.504 765.986 130.504H761.126V175.244ZM821.617 192V56.2733H846.249V192H821.617ZM873.771 192V56.2733H907.116C913.148 56.2733 918.566 56.8318 923.37 57.9489C928.285 59.066 932.474 60.9651 935.937 63.6461C939.512 66.2154 942.249 69.7342 944.148 74.2026C946.047 78.671 946.996 84.3123 946.996 91.1265C946.996 96.6003 946.214 101.292 944.65 105.202C943.198 109.112 941.02 112.24 938.115 114.585C935.211 116.82 931.58 118.328 927.224 119.11C932.586 120.003 936.998 121.902 940.461 124.807C944.036 127.6 946.661 131.286 948.337 135.866C950.124 140.446 951.018 145.976 951.018 152.455C951.018 158.934 950.18 164.687 948.504 169.714C946.941 174.629 944.539 178.762 941.299 182.114C938.171 185.353 934.206 187.811 929.402 189.487C924.71 191.162 919.181 192 912.813 192H873.771ZM898.57 174.573H907.954C915.439 174.573 920.521 172.786 923.202 169.211C925.883 165.525 927.224 159.884 927.224 152.287C927.224 146.814 926.554 142.401 925.213 139.05C923.984 135.587 921.862 133.018 918.846 131.342C915.941 129.666 912.031 128.828 907.116 128.828H898.57V174.573ZM898.57 111.737H906.949C911.864 111.737 915.662 111.011 918.343 109.559C921.024 108.106 922.867 105.872 923.873 102.856C924.99 99.8399 925.548 96.0418 925.548 91.4617C925.548 86.6582 924.71 82.9718 923.035 80.4025C921.471 77.7214 919.069 75.9341 915.829 75.0404C912.59 74.035 908.457 73.5323 903.43 73.5323H898.57V111.737ZM966.876 192L994.022 56.2733H1020.5L1047.64 192H1024.69L1019.32 160.666H995.697L990.168 192H966.876ZM998.211 144.915H1016.64L1007.43 87.9428L998.211 144.915ZM1078.29 192V74.5377H1056.68V56.2733H1124.37V74.5377H1103.09V192H1078.29ZM1143.42 192V56.2733H1200.4V73.6999H1168.22V112.742H1193.53V130.001H1168.22V174.908H1200.73V192H1143.42ZM1212.42 192V174.238C1215.54 174.35 1218.17 174.182 1220.29 173.736C1222.53 173.177 1224.37 172.004 1225.82 170.217C1227.39 168.429 1228.67 165.692 1229.68 162.006C1230.68 158.208 1231.52 153.125 1232.19 146.758C1232.86 140.39 1233.59 132.291 1234.37 122.461L1238.72 56.2733H1304.74V192H1280.11V74.8729H1260.67L1257.66 125.477C1256.99 135.419 1256.21 144.188 1255.31 151.785C1254.53 159.381 1253.25 165.86 1251.46 171.222C1249.78 176.472 1247.38 180.717 1244.25 183.957C1241.13 187.197 1236.99 189.487 1231.85 190.827C1226.71 192.056 1220.24 192.447 1212.42 192ZM1332.75 192V56.2733H1357.38V113.245H1363.41C1372.57 113.245 1380.22 114.53 1386.37 117.099C1392.51 119.557 1397.15 123.69 1400.27 129.499C1403.4 135.196 1404.97 142.904 1404.97 152.622C1404.97 160.219 1404.02 166.586 1402.12 171.725C1400.22 176.752 1397.37 180.773 1393.57 183.789C1389.89 186.806 1385.42 188.928 1380.17 190.157C1374.92 191.386 1369 192 1362.41 192H1332.75ZM1357.38 175.244H1362.41C1367.21 175.244 1371.01 174.573 1373.8 173.233C1376.7 171.892 1378.83 169.546 1380.17 166.195C1381.51 162.732 1382.18 158.04 1382.18 152.12C1382.07 145.082 1380.61 139.72 1377.82 136.034C1375.14 132.347 1369.89 130.504 1362.07 130.504H1357.38V175.244Z" fill="#E6E3DA"/>
<path d="M1465.98 192V56.2733H1544.23V192H1519.76V73.8675H1490.44V192H1465.98ZM1571.35 192V56.2733H1628.32V73.6999H1596.15V112.742H1621.45V130.001H1596.15V174.908H1628.66V192H1571.35ZM1649.73 192V56.2733H1689.61C1697.76 56.2733 1704.35 57.7813 1709.38 60.7975C1714.52 63.8136 1718.26 68.2262 1720.61 74.035C1723.06 79.7322 1724.29 86.6582 1724.29 94.813C1724.29 103.638 1722.78 110.787 1719.77 116.261C1716.75 121.623 1712.51 125.533 1707.03 127.991C1701.67 130.448 1695.3 131.677 1687.93 131.677H1674.53V192H1649.73ZM1674.53 114.25H1683.91C1688.38 114.25 1691.84 113.636 1694.3 112.407C1696.87 111.067 1698.6 109 1699.49 106.207C1700.5 103.303 1701 99.4489 1701 94.6454C1701 89.7302 1700.61 85.7645 1699.83 82.7484C1699.16 79.6205 1697.59 77.3305 1695.14 75.8782C1692.79 74.426 1689.05 73.6999 1683.91 73.6999H1674.53V114.25ZM1744.79 192V56.2733H1778.14C1784.17 56.2733 1789.59 56.8318 1794.39 57.9489C1799.31 59.066 1803.5 60.9651 1806.96 63.6461C1810.53 66.2154 1813.27 69.7342 1815.17 74.2026C1817.07 78.671 1818.02 84.3123 1818.02 91.1265C1818.02 96.6003 1817.24 101.292 1815.67 105.202C1814.22 109.112 1812.04 112.24 1809.14 114.585C1806.23 116.82 1802.6 118.328 1798.25 119.11C1803.61 120.003 1808.02 121.902 1811.48 124.807C1815.06 127.6 1817.68 131.286 1819.36 135.866C1821.15 140.446 1822.04 145.976 1822.04 152.455C1822.04 158.934 1821.2 164.687 1819.53 169.714C1817.96 174.629 1815.56 178.762 1812.32 182.114C1809.19 185.353 1805.23 187.811 1800.42 189.487C1795.73 191.162 1790.2 192 1783.83 192H1744.79ZM1769.59 174.573H1778.98C1786.46 174.573 1791.54 172.786 1794.22 169.211C1796.9 165.525 1798.25 159.884 1798.25 152.287C1798.25 146.814 1797.58 142.401 1796.23 139.05C1795.01 135.587 1792.88 133.018 1789.87 131.342C1786.96 129.666 1783.05 128.828 1778.14 128.828H1769.59V174.573ZM1769.59 111.737H1777.97C1782.89 111.737 1786.68 111.011 1789.36 109.559C1792.05 108.106 1793.89 105.872 1794.89 102.856C1796.01 99.8399 1796.57 96.0418 1796.57 91.4617C1796.57 86.6582 1795.73 82.9718 1794.06 80.4025C1792.49 77.7214 1790.09 75.9341 1786.85 75.0404C1783.61 74.035 1779.48 73.5323 1774.45 73.5323H1769.59V111.737ZM1881.63 193.843C1872.02 193.843 1864.37 192.056 1858.68 188.481C1852.98 184.906 1848.9 179.768 1846.44 173.065C1843.99 166.363 1842.76 158.431 1842.76 149.271V98.4994C1842.76 89.3392 1843.99 81.5196 1846.44 75.0404C1848.9 68.4496 1852.98 63.4227 1858.68 59.9597C1864.37 56.4967 1872.02 54.7652 1881.63 54.7652C1891.46 54.7652 1899.17 56.4967 1904.76 59.9597C1910.45 63.4227 1914.53 68.4496 1916.99 75.0404C1919.56 81.5196 1920.84 89.3392 1920.84 98.4994V149.439C1920.84 158.487 1919.56 166.363 1916.99 173.065C1914.53 179.656 1910.45 184.795 1904.76 188.481C1899.17 192.056 1891.46 193.843 1881.63 193.843ZM1881.63 175.579C1885.77 175.579 1888.78 174.685 1890.68 172.898C1892.69 171.11 1894.03 168.653 1894.7 165.525C1895.37 162.397 1895.71 158.99 1895.71 155.304V92.8022C1895.71 89.0041 1895.37 85.5969 1894.7 82.5808C1894.03 79.5646 1892.69 77.2188 1890.68 75.5431C1888.78 73.7558 1885.77 72.8621 1881.63 72.8621C1877.72 72.8621 1874.76 73.7558 1872.75 75.5431C1870.74 77.2188 1869.4 79.5646 1868.73 82.5808C1868.06 85.5969 1867.72 89.0041 1867.72 92.8022V155.304C1867.72 158.99 1868 162.397 1868.56 165.525C1869.23 168.653 1870.57 171.11 1872.58 172.898C1874.59 174.685 1877.61 175.579 1881.63 175.579ZM1982.75 193.843C1973.15 193.843 1965.49 192.056 1959.8 188.481C1954.1 184.906 1950.02 179.768 1947.56 173.065C1945.11 166.363 1943.88 158.431 1943.88 149.271V98.4994C1943.88 89.3392 1945.11 81.5196 1947.56 75.0404C1950.02 68.4496 1954.1 63.4227 1959.8 59.9597C1965.49 56.4967 1973.15 54.7652 1982.75 54.7652C1992.58 54.7652 2000.29 56.4967 2005.88 59.9597C2011.57 63.4227 2015.65 68.4496 2018.11 75.0404C2020.68 81.5196 2021.96 89.3392 2021.96 98.4994V149.439C2021.96 158.487 2020.68 166.363 2018.11 173.065C2015.65 179.656 2011.57 184.795 2005.88 188.481C2000.29 192.056 1992.58 193.843 1982.75 193.843ZM1982.75 175.579C1986.89 175.579 1989.9 174.685 1991.8 172.898C1993.81 171.11 1995.15 168.653 1995.82 165.525C1996.49 162.397 1996.83 158.99 1996.83 155.304V92.8022C1996.83 89.0041 1996.49 85.5969 1995.82 82.5808C1995.15 79.5646 1993.81 77.2188 1991.8 75.5431C1989.9 73.7558 1986.89 72.8621 1982.75 72.8621C1978.84 72.8621 1975.88 73.7558 1973.87 75.5431C1971.86 77.2188 1970.52 79.5646 1969.85 82.5808C1969.18 85.5969 1968.84 89.0041 1968.84 92.8022V155.304C1968.84 158.99 1969.12 162.397 1969.68 165.525C1970.35 168.653 1971.69 171.11 1973.7 172.898C1975.72 174.685 1978.73 175.579 1982.75 175.579ZM2060.58 192V74.5377H2038.97V56.2733H2106.66V74.5377H2085.38V192H2060.58ZM2126.05 192V56.2733H2150.68V113.245H2155.71L2177.66 56.2733H2202.29L2176.48 120.283L2204.3 192H2179.17L2155.71 129.499H2150.68V192H2126.05ZM2223.07 192V56.2733H2262.95C2271.1 56.2733 2277.7 57.7813 2282.72 60.7975C2287.86 63.8136 2291.6 68.2262 2293.95 74.035C2296.41 79.7322 2297.64 86.6582 2297.64 94.813C2297.64 103.638 2296.13 110.787 2293.11 116.261C2290.09 121.623 2285.85 125.533 2280.38 127.991C2275.01 130.448 2268.65 131.677 2261.27 131.677H2247.87V192H2223.07ZM2247.87 114.25H2257.25C2261.72 114.25 2265.18 113.636 2267.64 112.407C2270.21 111.067 2271.94 109 2272.84 106.207C2273.84 103.303 2274.34 99.4489 2274.34 94.6454C2274.34 89.7302 2273.95 85.7645 2273.17 82.7484C2272.5 79.6205 2270.94 77.3305 2268.48 75.8782C2266.13 74.426 2262.39 73.6999 2257.25 73.6999H2247.87V114.25ZM2318.47 192V56.2733H2343.1V113.245H2349.14C2358.41 113.245 2366.11 114.53 2372.26 117.099C2378.4 119.557 2383.04 123.69 2386.17 129.499C2389.29 135.196 2390.86 142.904 2390.86 152.622C2390.86 160.219 2389.85 166.586 2387.84 171.725C2385.94 176.752 2383.15 180.773 2379.46 183.789C2375.78 186.806 2371.31 188.928 2366.06 190.157C2360.81 191.386 2354.83 192 2348.13 192H2318.47ZM2343.1 175.244H2348.3C2352.99 175.244 2356.79 174.573 2359.69 173.233C2362.6 171.892 2364.72 169.546 2366.06 166.195C2367.4 162.732 2368.01 158.04 2367.9 152.12C2367.9 145.082 2366.51 139.72 2363.71 136.034C2360.92 132.347 2355.67 130.504 2347.96 130.504H2343.1V175.244ZM2403.59 192V56.2733H2428.23V192H2403.59ZM2455.75 192V56.2733H2489.09C2495.13 56.2733 2500.54 56.8318 2505.35 57.9489C2510.26 59.066 2514.45 60.9651 2517.91 63.6461C2521.49 66.2154 2524.23 69.7342 2526.12 74.2026C2528.02 78.671 2528.97 84.3123 2528.97 91.1265C2528.97 96.6003 2528.19 101.292 2526.63 105.202C2525.17 109.112 2523 112.24 2520.09 114.585C2517.19 116.82 2513.56 118.328 2509.2 119.11C2514.56 120.003 2518.97 121.902 2522.44 124.807C2526.01 127.6 2528.64 131.286 2530.31 135.866C2532.1 140.446 2532.99 145.976 2532.99 152.455C2532.99 158.934 2532.16 164.687 2530.48 169.714C2528.92 174.629 2526.52 178.762 2523.28 182.114C2520.15 185.353 2516.18 187.811 2511.38 189.487C2506.69 191.162 2501.16 192 2494.79 192H2455.75ZM2480.55 174.573H2489.93C2497.42 174.573 2502.5 172.786 2505.18 169.211C2507.86 165.525 2509.2 159.884 2509.2 152.287C2509.2 146.814 2508.53 142.401 2507.19 139.05C2505.96 135.587 2503.84 133.018 2500.82 131.342C2497.92 129.666 2494.01 128.828 2489.09 128.828H2480.55V174.573ZM2480.55 111.737H2488.93C2493.84 111.737 2497.64 111.011 2500.32 109.559C2503 108.106 2504.84 105.872 2505.85 102.856C2506.97 99.8399 2507.52 96.0418 2507.52 91.4617C2507.52 86.6582 2506.69 82.9718 2505.01 80.4025C2503.45 77.7214 2501.05 75.9341 2497.81 75.0404C2494.57 74.035 2490.43 73.5323 2485.41 73.5323H2480.55V111.737ZM2548.85 192L2576 56.2733H2602.47L2629.62 192H2606.66L2601.3 160.666H2577.67L2572.14 192H2548.85ZM2580.19 144.915H2598.62L2589.4 87.9428L2580.19 144.915ZM2660.27 192V74.5377H2638.66V56.2733H2706.35V74.5377H2685.07V192H2660.27ZM2725.4 192V56.2733H2782.37V73.6999H2750.2V112.742H2775.5V130.001H2750.2V174.908H2782.71V192H2725.4ZM2794.39 192V174.238C2797.52 174.35 2800.15 174.182 2802.27 173.736C2804.5 173.177 2806.35 172.004 2807.8 170.217C2809.36 168.429 2810.65 165.692 2811.65 162.006C2812.66 158.208 2813.5 153.125 2814.17 146.758C2814.84 140.39 2815.56 132.291 2816.34 122.461L2820.7 56.2733H2886.72V192H2862.09V74.8729H2842.65L2839.63 125.477C2838.96 135.419 2838.18 144.188 2837.29 151.785C2836.51 159.381 2835.22 165.86 2833.44 171.222C2831.76 176.472 2829.36 180.717 2826.23 183.957C2823.1 187.197 2818.97 189.487 2813.83 190.827C2808.69 192.056 2802.21 192.447 2794.39 192ZM2914.72 192V56.2733H2939.36V113.245H2945.39C2954.55 113.245 2962.2 114.53 2968.34 117.099C2974.49 119.557 2979.12 123.69 2982.25 129.499C2985.38 135.196 2986.94 142.904 2986.94 152.622C2986.94 160.219 2985.99 166.586 2984.09 171.725C2982.2 176.752 2979.35 180.773 2975.55 183.789C2971.86 186.806 2967.39 188.928 2962.14 190.157C2956.89 191.386 2950.97 192 2944.38 192H2914.72ZM2939.36 175.244H2944.38C2949.19 175.244 2952.98 174.573 2955.78 173.233C2958.68 171.892 2960.8 169.546 2962.14 166.195C2963.48 162.732 2964.15 158.04 2964.15 152.12C2964.04 145.082 2962.59 139.72 2959.8 136.034C2957.12 132.347 2951.87 130.504 2944.05 130.504H2939.36V175.244Z" fill="#E6E3DA"/>
<path d="M-535.779 440.051V304.324H-457.526V440.051H-481.991V321.918H-511.314V440.051H-535.779ZM-430.403 440.051V304.324H-373.431V321.751H-405.604V360.793H-380.302V378.052H-405.604V422.959H-373.096V440.051H-430.403ZM-352.028 440.051V304.324H-312.148C-303.993 304.324 -297.402 305.832 -292.375 308.848C-287.236 311.864 -283.494 316.277 -281.148 322.086C-278.691 327.783 -277.462 334.709 -277.462 342.864C-277.462 351.689 -278.97 358.838 -281.986 364.312C-285.002 369.674 -289.247 373.584 -294.721 376.041C-300.083 378.499 -306.45 379.728 -313.823 379.728H-327.228V440.051H-352.028ZM-327.228 362.301H-317.845C-313.376 362.301 -309.913 361.687 -307.456 360.458C-304.887 359.117 -303.155 357.051 -302.261 354.258C-301.256 351.354 -300.753 347.5 -300.753 342.696C-300.753 337.781 -301.144 333.815 -301.926 330.799C-302.596 327.671 -304.16 325.381 -306.618 323.929C-308.964 322.477 -312.706 321.751 -317.845 321.751H-327.228V362.301ZM-256.961 440.051V304.324H-223.616C-217.584 304.324 -212.166 304.883 -207.363 306C-202.447 307.117 -198.258 309.016 -194.795 311.697C-191.221 314.266 -188.484 317.785 -186.585 322.253C-184.686 326.722 -183.736 332.363 -183.736 339.177C-183.736 344.651 -184.518 349.343 -186.082 353.253C-187.534 357.163 -189.713 360.29 -192.617 362.636C-195.521 364.87 -199.152 366.379 -203.509 367.16C-198.147 368.054 -193.734 369.953 -190.271 372.858C-186.696 375.65 -184.071 379.337 -182.396 383.917C-180.608 388.497 -179.715 394.027 -179.715 400.506C-179.715 406.985 -180.552 412.738 -182.228 417.765C-183.792 422.68 -186.194 426.813 -189.433 430.165C-192.561 433.404 -196.527 435.862 -201.33 437.537C-206.022 439.213 -211.552 440.051 -217.919 440.051H-256.961ZM-232.162 422.624H-222.778C-215.294 422.624 -210.211 420.837 -207.53 417.262C-204.849 413.576 -203.509 407.934 -203.509 400.338C-203.509 394.864 -204.179 390.452 -205.519 387.101C-206.748 383.638 -208.871 381.068 -211.887 379.393C-214.791 377.717 -218.701 376.879 -223.616 376.879H-232.162V422.624ZM-232.162 359.788H-223.784C-218.869 359.788 -215.071 359.062 -212.39 357.609C-209.708 356.157 -207.865 353.923 -206.86 350.907C-205.743 347.891 -205.184 344.093 -205.184 339.512C-205.184 334.709 -206.022 331.023 -207.698 328.453C-209.262 325.772 -211.663 323.985 -214.903 323.091C-218.143 322.086 -222.276 321.583 -227.303 321.583H-232.162V359.788ZM-120.122 441.894C-129.729 441.894 -137.381 440.107 -143.078 436.532C-148.775 432.957 -152.853 427.819 -155.31 421.116C-157.768 414.414 -158.997 406.482 -158.997 397.322V346.55C-158.997 337.39 -157.768 329.57 -155.31 323.091C-152.853 316.5 -148.775 311.473 -143.078 308.01C-137.381 304.547 -129.729 302.816 -120.122 302.816C-110.292 302.816 -102.584 304.547 -96.9982 308.01C-91.3011 311.473 -87.2237 316.5 -84.7661 323.091C-82.1968 329.57 -80.9121 337.39 -80.9121 346.55V397.49C-80.9121 406.538 -82.1968 414.414 -84.7661 421.116C-87.2237 427.707 -91.3011 432.846 -96.9982 436.532C-102.584 440.107 -110.292 441.894 -120.122 441.894ZM-120.122 423.63C-115.989 423.63 -112.973 422.736 -111.074 420.949C-109.063 419.161 -107.722 416.704 -107.052 413.576C-106.382 410.448 -106.047 407.041 -106.047 403.354V340.853C-106.047 337.055 -106.382 333.648 -107.052 330.632C-107.722 327.615 -109.063 325.27 -111.074 323.594C-112.973 321.807 -115.989 320.913 -120.122 320.913C-124.032 320.913 -126.992 321.807 -129.003 323.594C-131.014 325.27 -132.354 327.615 -133.024 330.632C-133.695 333.648 -134.03 337.055 -134.03 340.853V403.354C-134.03 407.041 -133.751 410.448 -133.192 413.576C-132.522 416.704 -131.181 419.161 -129.17 420.949C-127.16 422.736 -124.144 423.63 -120.122 423.63ZM-19.0012 441.894C-28.6082 441.894 -36.2603 440.107 -41.9574 436.532C-47.6546 432.957 -51.732 427.819 -54.1896 421.116C-56.6472 414.414 -57.876 406.482 -57.876 397.322V346.55C-57.876 337.39 -56.6472 329.57 -54.1896 323.091C-51.732 316.5 -47.6546 311.473 -41.9574 308.01C-36.2603 304.547 -28.6082 302.816 -19.0012 302.816C-9.17078 302.816 -1.46284 304.547 4.12262 308.01C9.81979 311.473 13.8972 316.5 16.3548 323.091C18.9241 329.57 20.2088 337.39 20.2088 346.55V397.49C20.2088 406.538 18.9241 414.414 16.3548 421.116C13.8972 427.707 9.81979 432.846 4.12262 436.532C-1.46284 440.107 -9.17078 441.894 -19.0012 441.894ZM-19.0012 423.63C-14.868 423.63 -11.8518 422.736 -9.95275 420.949C-7.94198 419.161 -6.60147 416.704 -5.93121 413.576C-5.26096 410.448 -4.92583 407.041 -4.92583 403.354V340.853C-4.92583 337.055 -5.26096 333.648 -5.93121 330.632C-6.60147 327.615 -7.94198 325.27 -9.95275 323.594C-11.8518 321.807 -14.868 320.913 -19.0012 320.913C-22.911 320.913 -25.8713 321.807 -27.8821 323.594C-29.8928 325.27 -31.2334 327.615 -31.9036 330.632C-32.5739 333.648 -32.909 337.055 -32.909 340.853V403.354C-32.909 407.041 -32.6297 410.448 -32.0712 413.576C-31.4009 416.704 -30.0604 419.161 -28.0496 420.949C-26.0389 422.736 -23.0227 423.63 -19.0012 423.63ZM58.8283 440.051V322.589H37.2126V304.324H104.908V322.589H83.6278V440.051H58.8283ZM124.293 440.051V304.324H148.925V361.296H153.952L175.903 304.324H200.535L174.73 368.333L202.546 440.051H177.411L153.952 377.549H148.925V440.051H124.293ZM221.315 440.051V304.324H261.196C269.35 304.324 275.941 305.832 280.968 308.848C286.107 311.864 289.849 316.277 292.195 322.086C294.653 327.783 295.881 334.709 295.881 342.864C295.881 351.689 294.373 358.838 291.357 364.312C288.341 369.674 284.096 373.584 278.622 376.041C273.26 378.499 266.893 379.728 259.52 379.728H246.115V440.051H221.315ZM246.115 362.301H255.498C259.967 362.301 263.43 361.687 265.887 360.458C268.457 359.117 270.188 357.051 271.082 354.258C272.087 351.354 272.59 347.5 272.59 342.696C272.59 337.781 272.199 333.815 271.417 330.799C270.747 327.671 269.183 325.381 266.725 323.929C264.379 322.477 260.637 321.751 255.498 321.751H246.115V362.301ZM316.717 440.051V304.324H341.349V361.296H347.381C356.653 361.296 364.361 362.58 370.505 365.15C376.649 367.607 381.285 371.741 384.413 377.549C387.541 383.247 389.105 390.955 389.105 400.673C389.105 408.27 388.099 414.637 386.088 419.776C384.189 424.802 381.397 428.824 377.71 431.84C374.024 434.856 369.555 436.979 364.305 438.208C359.055 439.436 353.078 440.051 346.376 440.051H316.717ZM341.349 423.294H346.543C351.235 423.294 355.033 422.624 357.938 421.284C360.842 419.943 362.965 417.597 364.305 414.246C365.646 410.783 366.26 406.091 366.148 400.171C366.148 393.133 364.752 387.771 361.959 384.084C359.166 380.398 353.916 378.555 346.208 378.555H341.349V423.294ZM401.839 440.051V304.324H426.471V440.051H401.839ZM453.994 440.051V304.324H487.339C493.371 304.324 498.789 304.883 503.593 306C508.508 307.117 512.697 309.016 516.16 311.697C519.735 314.266 522.471 317.785 524.37 322.253C526.269 326.722 527.219 332.363 527.219 339.177C527.219 344.651 526.437 349.343 524.873 353.253C523.421 357.163 521.243 360.29 518.338 362.636C515.434 364.87 511.803 366.379 507.446 367.16C512.809 368.054 517.221 369.953 520.684 372.858C524.259 375.65 526.884 379.337 528.56 383.917C530.347 388.497 531.241 394.027 531.241 400.506C531.241 406.985 530.403 412.738 528.727 417.765C527.163 422.68 524.761 426.813 521.522 430.165C518.394 433.404 514.428 435.862 509.625 437.537C504.933 439.213 499.403 440.051 493.036 440.051H453.994ZM478.793 422.624H488.177C495.661 422.624 500.744 420.837 503.425 417.262C506.106 413.576 507.446 407.934 507.446 400.338C507.446 394.864 506.776 390.452 505.436 387.101C504.207 383.638 502.084 381.068 499.068 379.393C496.164 377.717 492.254 376.879 487.339 376.879H478.793V422.624ZM478.793 359.788H487.171C492.086 359.788 495.885 359.062 498.566 357.609C501.247 356.157 503.09 353.923 504.095 350.907C505.212 347.891 505.771 344.093 505.771 339.512C505.771 334.709 504.933 331.023 503.257 328.453C501.693 325.772 499.292 323.985 496.052 323.091C492.813 322.086 488.679 321.583 483.652 321.583H478.793V359.788ZM547.099 440.051L574.244 304.324H600.719L627.865 440.051H604.908L599.546 408.716H575.92L570.39 440.051H547.099ZM578.433 392.965H596.865L587.649 335.994L578.433 392.965ZM658.517 440.051V322.589H636.901V304.324H704.597V322.589H683.317V440.051H658.517ZM723.647 440.051V304.324H780.619V321.751H748.447V360.793H773.749V378.052H748.447V422.959H780.954V440.051H723.647ZM792.639 440.051V422.289C795.767 422.401 798.392 422.233 800.514 421.786C802.749 421.228 804.592 420.055 806.044 418.267C807.608 416.48 808.893 413.743 809.898 410.057C810.903 406.259 811.741 401.176 812.411 394.809C813.082 388.441 813.808 380.342 814.59 370.512L818.946 304.324H884.967V440.051H860.335V322.924H840.897L837.881 373.528C837.211 383.47 836.429 392.239 835.535 399.835C834.753 407.432 833.469 413.911 831.681 419.273C830.006 424.523 827.604 428.768 824.476 432.008C821.348 435.247 817.215 437.537 812.076 438.878C806.938 440.107 800.458 440.498 792.639 440.051ZM912.969 440.051V304.324H937.601V361.296H943.634C952.794 361.296 960.446 362.58 966.59 365.15C972.734 367.607 977.37 371.741 980.498 377.549C983.625 383.247 985.189 390.955 985.189 400.673C985.189 408.27 984.24 414.637 982.341 419.776C980.442 424.802 977.593 428.824 973.795 431.84C970.109 434.856 965.64 436.979 960.39 438.208C955.14 439.436 949.219 440.051 942.628 440.051H912.969ZM937.601 423.294H942.628C947.432 423.294 951.23 422.624 954.023 421.284C956.927 419.943 959.049 417.597 960.39 414.246C961.73 410.783 962.401 406.091 962.401 400.171C962.289 393.133 960.837 387.771 958.044 384.084C955.363 380.398 950.113 378.555 942.293 378.555H937.601V423.294Z" fill="#E6E3DA"/>
<path d="M1046.2 440.051V304.324H1124.45V440.051H1099.98V321.918H1070.66V440.051H1046.2ZM1151.57 440.051V304.324H1208.54V321.751H1176.37V360.793H1201.67V378.052H1176.37V422.959H1208.88V440.051H1151.57ZM1229.95 440.051V304.324H1269.83C1277.98 304.324 1284.57 305.832 1289.6 308.848C1294.74 311.864 1298.48 316.277 1300.83 322.086C1303.28 327.783 1304.51 334.709 1304.51 342.864C1304.51 351.689 1303 358.838 1299.99 364.312C1296.97 369.674 1292.73 373.584 1287.25 376.041C1281.89 378.499 1275.52 379.728 1268.15 379.728H1254.75V440.051H1229.95ZM1254.75 362.301H1264.13C1268.6 362.301 1272.06 361.687 1274.52 360.458C1277.09 359.117 1278.82 357.051 1279.71 354.258C1280.72 351.354 1281.22 347.5 1281.22 342.696C1281.22 337.781 1280.83 333.815 1280.05 330.799C1279.38 327.671 1277.81 325.381 1275.36 323.929C1273.01 322.477 1269.27 321.751 1264.13 321.751H1254.75V362.301ZM1325.01 440.051V304.324H1358.36C1364.39 304.324 1369.81 304.883 1374.61 306C1379.53 307.117 1383.72 309.016 1387.18 311.697C1390.75 314.266 1393.49 317.785 1395.39 322.253C1397.29 326.722 1398.24 332.363 1398.24 339.177C1398.24 344.651 1397.46 349.343 1395.89 353.253C1394.44 357.163 1392.26 360.29 1389.36 362.636C1386.45 364.87 1382.82 366.379 1378.47 367.16C1383.83 368.054 1388.24 369.953 1391.7 372.858C1395.28 375.65 1397.9 379.337 1399.58 383.917C1401.37 388.497 1402.26 394.027 1402.26 400.506C1402.26 406.985 1401.42 412.738 1399.75 417.765C1398.18 422.68 1395.78 426.813 1392.54 430.165C1389.41 433.404 1385.45 435.862 1380.64 437.537C1375.95 439.213 1370.42 440.051 1364.06 440.051H1325.01ZM1349.81 422.624H1359.2C1366.68 422.624 1371.76 420.837 1374.44 417.262C1377.13 413.576 1378.47 407.934 1378.47 400.338C1378.47 394.864 1377.8 390.452 1376.46 387.101C1375.23 383.638 1373.1 381.068 1370.09 379.393C1367.18 377.717 1363.27 376.879 1358.36 376.879H1349.81V422.624ZM1349.81 359.788H1358.19C1363.11 359.788 1366.9 359.062 1369.59 357.609C1372.27 356.157 1374.11 353.923 1375.11 350.907C1376.23 347.891 1376.79 344.093 1376.79 339.512C1376.79 334.709 1375.95 331.023 1374.28 328.453C1372.71 325.772 1370.31 323.985 1367.07 323.091C1363.83 322.086 1359.7 321.583 1354.67 321.583H1349.81V359.788ZM1461.85 441.894C1452.25 441.894 1444.59 440.107 1438.9 436.532C1433.2 432.957 1429.12 427.819 1426.66 421.116C1424.21 414.414 1422.98 406.482 1422.98 397.322V346.55C1422.98 337.39 1424.21 329.57 1426.66 323.091C1429.12 316.5 1433.2 311.473 1438.9 308.01C1444.59 304.547 1452.25 302.816 1461.85 302.816C1471.68 302.816 1479.39 304.547 1484.98 308.01C1490.67 311.473 1494.75 316.5 1497.21 323.091C1499.78 329.57 1501.06 337.39 1501.06 346.55V397.49C1501.06 406.538 1499.78 414.414 1497.21 421.116C1494.75 427.707 1490.67 432.846 1484.98 436.532C1479.39 440.107 1471.68 441.894 1461.85 441.894ZM1461.85 423.63C1465.99 423.63 1469 422.736 1470.9 420.949C1472.91 419.161 1474.25 416.704 1474.92 413.576C1475.59 410.448 1475.93 407.041 1475.93 403.354V340.853C1475.93 337.055 1475.59 333.648 1474.92 330.632C1474.25 327.615 1472.91 325.27 1470.9 323.594C1469 321.807 1465.99 320.913 1461.85 320.913C1457.94 320.913 1454.98 321.807 1452.97 323.594C1450.96 325.27 1449.62 327.615 1448.95 330.632C1448.28 333.648 1447.94 337.055 1447.94 340.853V403.354C1447.94 407.041 1448.22 410.448 1448.78 413.576C1449.45 416.704 1450.79 419.161 1452.8 420.949C1454.81 422.736 1457.83 423.63 1461.85 423.63ZM1562.97 441.894C1553.37 441.894 1545.71 440.107 1540.02 436.532C1534.32 432.957 1530.24 427.819 1527.79 421.116C1525.33 414.414 1524.1 406.482 1524.1 397.322V346.55C1524.1 337.39 1525.33 329.57 1527.79 323.091C1530.24 316.5 1534.32 311.473 1540.02 308.01C1545.71 304.547 1553.37 302.816 1562.97 302.816C1572.8 302.816 1580.51 304.547 1586.1 308.01C1591.79 311.473 1595.87 316.5 1598.33 323.091C1600.9 329.57 1602.18 337.39 1602.18 346.55V397.49C1602.18 406.538 1600.9 414.414 1598.33 421.116C1595.87 427.707 1591.79 432.846 1586.1 436.532C1580.51 440.107 1572.8 441.894 1562.97 441.894ZM1562.97 423.63C1567.11 423.63 1570.12 422.736 1572.02 420.949C1574.03 419.161 1575.37 416.704 1576.04 413.576C1576.71 410.448 1577.05 407.041 1577.05 403.354V340.853C1577.05 337.055 1576.71 333.648 1576.04 330.632C1575.37 327.615 1574.03 325.27 1572.02 323.594C1570.12 321.807 1567.11 320.913 1562.97 320.913C1559.06 320.913 1556.1 321.807 1554.09 323.594C1552.08 325.27 1550.74 327.615 1550.07 330.632C1549.4 333.648 1549.07 337.055 1549.07 340.853V403.354C1549.07 407.041 1549.34 410.448 1549.9 413.576C1550.57 416.704 1551.91 419.161 1553.92 420.949C1555.94 422.736 1558.95 423.63 1562.97 423.63ZM1640.8 440.051V322.589H1619.19V304.324H1686.88V322.589H1665.6V440.051H1640.8ZM1706.27 440.051V304.324H1730.9V361.296H1735.93L1757.88 304.324H1782.51L1756.7 368.333L1784.52 440.051H1759.39L1735.93 377.549H1730.9V440.051H1706.27ZM1803.29 440.051V304.324H1843.17C1851.33 304.324 1857.92 305.832 1862.94 308.848C1868.08 311.864 1871.82 316.277 1874.17 322.086C1876.63 327.783 1877.86 334.709 1877.86 342.864C1877.86 351.689 1876.35 358.838 1873.33 364.312C1870.32 369.674 1866.07 373.584 1860.6 376.041C1855.23 378.499 1848.87 379.728 1841.49 379.728H1828.09V440.051H1803.29ZM1828.09 362.301H1837.47C1841.94 362.301 1845.4 361.687 1847.86 360.458C1850.43 359.117 1852.16 357.051 1853.06 354.258C1854.06 351.354 1854.56 347.5 1854.56 342.696C1854.56 337.781 1854.17 333.815 1853.39 330.799C1852.72 327.671 1851.16 325.381 1848.7 323.929C1846.35 322.477 1842.61 321.751 1837.47 321.751H1828.09V362.301ZM1898.69 440.051V304.324H1923.32V361.296H1929.36C1938.63 361.296 1946.34 362.58 1952.48 365.15C1958.62 367.607 1963.26 371.741 1966.39 377.549C1969.52 383.247 1971.08 390.955 1971.08 400.673C1971.08 408.27 1970.07 414.637 1968.06 419.776C1966.16 424.802 1963.37 428.824 1959.68 431.84C1956 434.856 1951.53 436.979 1946.28 438.208C1941.03 439.436 1935.05 440.051 1928.35 440.051H1898.69ZM1923.32 423.294H1928.52C1933.21 423.294 1937.01 422.624 1939.91 421.284C1942.82 419.943 1944.94 417.597 1946.28 414.246C1947.62 410.783 1948.23 406.091 1948.12 400.171C1948.12 393.133 1946.73 387.771 1943.93 384.084C1941.14 380.398 1935.89 378.555 1928.18 378.555H1923.32V423.294ZM1983.81 440.051V304.324H2008.45V440.051H1983.81ZM2035.97 440.051V304.324H2069.31C2075.35 304.324 2080.76 304.883 2085.57 306C2090.48 307.117 2094.67 309.016 2098.13 311.697C2101.71 314.266 2104.45 317.785 2106.35 322.253C2108.24 326.722 2109.19 332.363 2109.19 339.177C2109.19 344.651 2108.41 349.343 2106.85 353.253C2105.4 357.163 2103.22 360.29 2100.31 362.636C2097.41 364.87 2093.78 366.379 2089.42 367.16C2094.78 368.054 2099.2 369.953 2102.66 372.858C2106.23 375.65 2108.86 379.337 2110.53 383.917C2112.32 388.497 2113.22 394.027 2113.22 400.506C2113.22 406.985 2112.38 412.738 2110.7 417.765C2109.14 422.68 2106.74 426.813 2103.5 430.165C2100.37 433.404 2096.4 435.862 2091.6 437.537C2086.91 439.213 2081.38 440.051 2075.01 440.051H2035.97ZM2060.77 422.624H2070.15C2077.64 422.624 2082.72 420.837 2085.4 417.262C2088.08 413.576 2089.42 407.934 2089.42 400.338C2089.42 394.864 2088.75 390.452 2087.41 387.101C2086.18 383.638 2084.06 381.068 2081.04 379.393C2078.14 377.717 2074.23 376.879 2069.31 376.879H2060.77V422.624ZM2060.77 359.788H2069.15C2074.06 359.788 2077.86 359.062 2080.54 357.609C2083.22 356.157 2085.06 353.923 2086.07 350.907C2087.19 347.891 2087.75 344.093 2087.75 339.512C2087.75 334.709 2086.91 331.023 2085.23 328.453C2083.67 325.772 2081.27 323.985 2078.03 323.091C2074.79 322.086 2070.65 321.583 2065.63 321.583H2060.77V359.788ZM2129.07 440.051L2156.22 304.324H2182.69L2209.84 440.051H2186.88L2181.52 408.716H2157.89L2152.36 440.051H2129.07ZM2160.41 392.965H2178.84L2169.62 335.994L2160.41 392.965ZM2240.49 440.051V322.589H2218.88V304.324H2286.57V322.589H2265.29V440.051H2240.49ZM2305.62 440.051V304.324H2362.59V321.751H2330.42V360.793H2355.72V378.052H2330.42V422.959H2362.93V440.051H2305.62ZM2374.61 440.051V422.289C2377.74 422.401 2380.37 422.233 2382.49 421.786C2384.72 421.228 2386.57 420.055 2388.02 418.267C2389.58 416.48 2390.87 413.743 2391.87 410.057C2392.88 406.259 2393.72 401.176 2394.39 394.809C2395.06 388.441 2395.78 380.342 2396.56 370.512L2400.92 304.324H2466.94V440.051H2442.31V322.924H2422.87L2419.86 373.528C2419.19 383.47 2418.4 392.239 2417.51 399.835C2416.73 407.432 2415.44 413.911 2413.66 419.273C2411.98 424.523 2409.58 428.768 2406.45 432.008C2403.32 435.247 2399.19 437.537 2394.05 438.878C2388.91 440.107 2382.43 440.498 2374.61 440.051ZM2494.94 440.051V304.324H2519.58V361.296H2525.61C2534.77 361.296 2542.42 362.58 2548.56 365.15C2554.71 367.607 2559.34 371.741 2562.47 377.549C2565.6 383.247 2567.16 390.955 2567.16 400.673C2567.16 408.27 2566.21 414.637 2564.32 419.776C2562.42 424.802 2559.57 428.824 2555.77 431.84C2552.08 434.856 2547.61 436.979 2542.36 438.208C2537.11 439.436 2531.19 440.051 2524.6 440.051H2494.94ZM2519.58 423.294H2524.6C2529.41 423.294 2533.2 422.624 2536 421.284C2538.9 419.943 2541.02 417.597 2542.36 414.246C2543.71 410.783 2544.38 406.091 2544.38 400.171C2544.26 393.133 2542.81 387.771 2540.02 384.084C2537.34 380.398 2532.09 378.555 2524.27 378.555H2519.58V423.294Z" fill="#E6E3DA"/>
<path d="M0.219443 688.102V552.375H78.4718V688.102H54.0074V569.969H24.6838V688.102H0.219443ZM105.595 688.102V552.375H162.567V569.801H130.394V608.844H155.696V626.103H130.394V671.01H162.902V688.102H105.595ZM183.97 688.102V552.375H223.85C232.005 552.375 238.596 553.883 243.623 556.899C248.762 559.915 252.504 564.328 254.85 570.137C257.307 575.834 258.536 582.76 258.536 590.915C258.536 599.74 257.028 606.889 254.012 612.363C250.996 617.725 246.751 621.635 241.277 624.092C235.915 626.55 229.548 627.779 222.175 627.779H208.77V688.102H183.97ZM208.77 610.352H218.153C222.622 610.352 226.085 609.738 228.542 608.509C231.112 607.168 232.843 605.102 233.737 602.309C234.742 599.404 235.245 595.55 235.245 590.747C235.245 585.832 234.854 581.866 234.072 578.85C233.402 575.722 231.838 573.432 229.38 571.98C227.034 570.528 223.292 569.801 218.153 569.801H208.77V610.352ZM279.037 688.102V552.375H312.382C318.414 552.375 323.832 552.933 328.635 554.05C333.551 555.168 337.74 557.067 341.203 559.748C344.777 562.317 347.514 565.836 349.413 570.304C351.312 574.773 352.262 580.414 352.262 587.228C352.262 592.702 351.48 597.394 349.916 601.303C348.464 605.213 346.286 608.341 343.381 610.687C340.477 612.921 336.846 614.429 332.489 615.211C337.851 616.105 342.264 618.004 345.727 620.908C349.302 623.701 351.927 627.388 353.602 631.968C355.39 636.548 356.283 642.077 356.283 648.556C356.283 655.036 355.446 660.789 353.77 665.816C352.206 670.731 349.804 674.864 346.565 678.215C343.437 681.455 339.471 683.912 334.668 685.588C329.976 687.264 324.446 688.102 318.079 688.102H279.037ZM303.836 670.675H313.22C320.704 670.675 325.787 668.888 328.468 665.313C331.149 661.626 332.489 655.985 332.489 648.389C332.489 642.915 331.819 638.503 330.479 635.151C329.25 631.688 327.127 629.119 324.111 627.443C321.207 625.768 317.297 624.93 312.382 624.93H303.836V670.675ZM303.836 607.838H312.214C317.129 607.838 320.928 607.112 323.609 605.66C326.29 604.208 328.133 601.974 329.138 598.958C330.255 595.941 330.814 592.143 330.814 587.563C330.814 582.76 329.976 579.073 328.3 576.504C326.736 573.823 324.335 572.036 321.095 571.142C317.856 570.137 313.722 569.634 308.695 569.634H303.836V607.838ZM415.876 689.945C406.269 689.945 398.617 688.157 392.92 684.583C387.223 681.008 383.145 675.869 380.688 669.167C378.23 662.464 377.001 654.533 377.001 645.373V594.601C377.001 585.441 378.23 577.621 380.688 571.142C383.145 564.551 387.223 559.524 392.92 556.061C398.617 552.598 406.269 550.867 415.876 550.867C425.706 550.867 433.414 552.598 439 556.061C444.697 559.524 448.774 564.551 451.232 571.142C453.801 577.621 455.086 585.441 455.086 594.601V645.54C455.086 654.589 453.801 662.464 451.232 669.167C448.774 675.758 444.697 680.896 439 684.583C433.414 688.157 425.706 689.945 415.876 689.945ZM415.876 671.68C420.009 671.68 423.025 670.787 424.924 668.999C426.935 667.212 428.276 664.754 428.946 661.626C429.616 658.499 429.951 655.091 429.951 651.405V588.904C429.951 585.106 429.616 581.699 428.946 578.682C428.276 575.666 426.935 573.32 424.924 571.645C423.025 569.857 420.009 568.964 415.876 568.964C411.966 568.964 409.006 569.857 406.995 571.645C404.984 573.32 403.644 575.666 402.974 578.682C402.303 581.699 401.968 585.106 401.968 588.904V651.405C401.968 655.091 402.247 658.499 402.806 661.626C403.476 664.754 404.817 667.212 406.828 668.999C408.838 670.787 411.854 671.68 415.876 671.68ZM516.997 689.945C507.39 689.945 499.738 688.157 494.041 684.583C488.343 681.008 484.266 675.869 481.808 669.167C479.351 662.464 478.122 654.533 478.122 645.373V594.601C478.122 585.441 479.351 577.621 481.808 571.142C484.266 564.551 488.343 559.524 494.041 556.061C499.738 552.598 507.39 550.867 516.997 550.867C526.827 550.867 534.535 552.598 540.121 556.061C545.818 559.524 549.895 564.551 552.353 571.142C554.922 577.621 556.207 585.441 556.207 594.601V645.54C556.207 654.589 554.922 662.464 552.353 669.167C549.895 675.758 545.818 680.896 540.121 684.583C534.535 688.157 526.827 689.945 516.997 689.945ZM516.997 671.68C521.13 671.68 524.146 670.787 526.045 668.999C528.056 667.212 529.397 664.754 530.067 661.626C530.737 658.499 531.072 655.091 531.072 651.405V588.904C531.072 585.106 530.737 581.699 530.067 578.682C529.397 575.666 528.056 573.32 526.045 571.645C524.146 569.857 521.13 568.964 516.997 568.964C513.087 568.964 510.127 569.857 508.116 571.645C506.105 573.32 504.765 575.666 504.094 578.682C503.424 581.699 503.089 585.106 503.089 588.904V651.405C503.089 655.091 503.368 658.499 503.927 661.626C504.597 664.754 505.938 667.212 507.948 668.999C509.959 670.787 512.975 671.68 516.997 671.68ZM594.826 688.102V570.639H573.211V552.375H640.906V570.639H619.626V688.102H594.826ZM660.291 688.102V552.375H684.923V609.347H689.95L711.901 552.375H736.533L710.728 616.384L738.544 688.102H713.409L689.95 625.6H684.923V688.102H660.291ZM757.313 688.102V552.375H797.194C805.348 552.375 811.939 553.883 816.966 556.899C822.105 559.915 825.847 564.328 828.193 570.137C830.651 575.834 831.879 582.76 831.879 590.915C831.879 599.74 830.371 606.889 827.355 612.363C824.339 617.725 820.094 621.635 814.62 624.092C809.258 626.55 802.891 627.779 795.518 627.779H782.113V688.102H757.313ZM782.113 610.352H791.497C795.965 610.352 799.428 609.738 801.885 608.509C804.455 607.168 806.186 605.102 807.08 602.309C808.085 599.404 808.588 595.55 808.588 590.747C808.588 585.832 808.197 581.866 807.415 578.85C806.745 575.722 805.181 573.432 802.723 571.98C800.377 570.528 796.635 569.801 791.497 569.801H782.113V610.352ZM852.715 688.102V552.375H877.347V609.347H883.379C892.651 609.347 900.359 610.631 906.503 613.201C912.647 615.658 917.283 619.791 920.411 625.6C923.539 631.297 925.103 639.005 925.103 648.724C925.103 656.32 924.097 662.688 922.086 667.826C920.187 672.853 917.395 676.875 913.708 679.891C910.022 682.907 905.553 685.03 900.303 686.258C895.053 687.487 889.076 688.102 882.374 688.102H852.715ZM877.347 671.345H882.541C887.233 671.345 891.031 670.675 893.936 669.334C896.84 667.994 898.963 665.648 900.303 662.297C901.644 658.834 902.258 654.142 902.146 648.221C902.146 641.184 900.75 635.822 897.957 632.135C895.164 628.449 889.914 626.606 882.206 626.606H877.347V671.345ZM937.837 688.102V552.375H962.469V688.102H937.837ZM989.992 688.102V552.375H1023.34C1029.37 552.375 1034.79 552.933 1039.59 554.05C1044.51 555.168 1048.69 557.067 1052.16 559.748C1055.73 562.317 1058.47 565.836 1060.37 570.304C1062.27 574.773 1063.22 580.414 1063.22 587.228C1063.22 592.702 1062.44 597.394 1060.87 601.303C1059.42 605.213 1057.24 608.341 1054.34 610.687C1051.43 612.921 1047.8 614.429 1043.44 615.211C1048.81 616.105 1053.22 618.004 1056.68 620.908C1060.26 623.701 1062.88 627.388 1064.56 631.968C1066.34 636.548 1067.24 642.077 1067.24 648.556C1067.24 655.036 1066.4 660.789 1064.73 665.816C1063.16 670.731 1060.76 674.864 1057.52 678.215C1054.39 681.455 1050.43 683.912 1045.62 685.588C1040.93 687.264 1035.4 688.102 1029.03 688.102H989.992ZM1014.79 670.675H1024.17C1031.66 670.675 1036.74 668.888 1039.42 665.313C1042.1 661.626 1043.44 655.985 1043.44 648.389C1043.44 642.915 1042.77 638.503 1041.43 635.151C1040.2 631.688 1038.08 629.119 1035.07 627.443C1032.16 625.768 1028.25 624.93 1023.34 624.93H1014.79V670.675ZM1014.79 607.838H1023.17C1028.08 607.838 1031.88 607.112 1034.56 605.66C1037.24 604.208 1039.09 601.974 1040.09 598.958C1041.21 595.941 1041.77 592.143 1041.77 587.563C1041.77 582.76 1040.93 579.073 1039.26 576.504C1037.69 573.823 1035.29 572.036 1032.05 571.142C1028.81 570.137 1024.68 569.634 1019.65 569.634H1014.79V607.838ZM1083.1 688.102L1110.24 552.375H1136.72L1163.86 688.102H1140.91L1135.54 656.767H1111.92L1106.39 688.102H1083.1ZM1114.43 641.016H1132.86L1123.65 584.044L1114.43 641.016ZM1194.52 688.102V570.639H1172.9V552.375H1240.6V570.639H1219.31V688.102H1194.52ZM1259.65 688.102V552.375H1316.62V569.801H1284.44V608.844H1309.75V626.103H1284.44V671.01H1316.95V688.102H1259.65ZM1328.64 688.102V670.34C1331.76 670.452 1334.39 670.284 1336.51 669.837C1338.75 669.279 1340.59 668.106 1342.04 666.318C1343.61 664.531 1344.89 661.794 1345.9 658.108C1346.9 654.31 1347.74 649.227 1348.41 642.859C1349.08 636.492 1349.81 628.393 1350.59 618.563L1354.94 552.375H1420.96V688.102H1396.33V570.974H1376.9L1373.88 621.579C1373.21 631.521 1372.43 640.29 1371.53 647.886C1370.75 655.482 1369.47 661.962 1367.68 667.324C1366 672.574 1363.6 676.819 1360.47 680.058C1357.35 683.298 1353.21 685.588 1348.07 686.929C1342.94 688.157 1336.46 688.548 1328.64 688.102ZM1448.97 688.102V552.375H1473.6V609.347H1479.63C1488.79 609.347 1496.44 610.631 1502.59 613.201C1508.73 615.658 1513.37 619.791 1516.5 625.6C1519.62 631.297 1521.19 639.005 1521.19 648.724C1521.19 656.32 1520.24 662.688 1518.34 667.826C1516.44 672.853 1513.59 676.875 1509.79 679.891C1506.11 682.907 1501.64 685.03 1496.39 686.258C1491.14 687.487 1485.22 688.102 1478.63 688.102H1448.97ZM1473.6 671.345H1478.63C1483.43 671.345 1487.23 670.675 1490.02 669.334C1492.93 667.994 1495.05 665.648 1496.39 662.297C1497.73 658.834 1498.4 654.142 1498.4 648.221C1498.29 641.184 1496.83 635.822 1494.04 632.135C1491.36 628.449 1486.11 626.606 1478.29 626.606H1473.6V671.345Z" fill="#E6E3DA"/>
<path d="M1582.19 688.102V552.375H1660.45V688.102H1635.98V569.969H1606.66V688.102H1582.19ZM1687.57 688.102V552.375H1744.54V569.801H1712.37V608.844H1737.67V626.103H1712.37V671.01H1744.88V688.102H1687.57ZM1765.94 688.102V552.375H1805.83C1813.98 552.375 1820.57 553.883 1825.6 556.899C1830.74 559.915 1834.48 564.328 1836.82 570.137C1839.28 575.834 1840.51 582.76 1840.51 590.915C1840.51 599.74 1839 606.889 1835.99 612.363C1832.97 617.725 1828.73 621.635 1823.25 624.092C1817.89 626.55 1811.52 627.779 1804.15 627.779H1790.74V688.102H1765.94ZM1790.74 610.352H1800.13C1804.6 610.352 1808.06 609.738 1810.52 608.509C1813.09 607.168 1814.82 605.102 1815.71 602.309C1816.72 599.404 1817.22 595.55 1817.22 590.747C1817.22 585.832 1816.83 581.866 1816.05 578.85C1815.38 575.722 1813.81 573.432 1811.35 571.98C1809.01 570.528 1805.27 569.801 1800.13 569.801H1790.74V610.352ZM1861.01 688.102V552.375H1894.36C1900.39 552.375 1905.81 552.933 1910.61 554.05C1915.53 555.168 1919.71 557.067 1923.18 559.748C1926.75 562.317 1929.49 565.836 1931.39 570.304C1933.29 574.773 1934.24 580.414 1934.24 587.228C1934.24 592.702 1933.45 597.394 1931.89 601.303C1930.44 605.213 1928.26 608.341 1925.36 610.687C1922.45 612.921 1918.82 614.429 1914.46 615.211C1919.83 616.105 1924.24 618.004 1927.7 620.908C1931.28 623.701 1933.9 627.388 1935.58 631.968C1937.36 636.548 1938.26 642.077 1938.26 648.556C1938.26 655.036 1937.42 660.789 1935.74 665.816C1934.18 670.731 1931.78 674.864 1928.54 678.215C1925.41 681.455 1921.45 683.912 1916.64 685.588C1911.95 687.264 1906.42 688.102 1900.05 688.102H1861.01ZM1885.81 670.675H1895.19C1902.68 670.675 1907.76 668.888 1910.44 665.313C1913.12 661.626 1914.46 655.985 1914.46 648.389C1914.46 642.915 1913.79 638.503 1912.45 635.151C1911.22 631.688 1909.1 629.119 1906.09 627.443C1903.18 625.768 1899.27 624.93 1894.36 624.93H1885.81V670.675ZM1885.81 607.838H1894.19C1899.1 607.838 1902.9 607.112 1905.58 605.66C1908.26 604.208 1910.11 601.974 1911.11 598.958C1912.23 595.941 1912.79 592.143 1912.79 587.563C1912.79 582.76 1911.95 579.073 1910.27 576.504C1908.71 573.823 1906.31 572.036 1903.07 571.142C1899.83 570.137 1895.7 569.634 1890.67 569.634H1885.81V607.838ZM1997.85 689.945C1988.24 689.945 1980.59 688.157 1974.89 684.583C1969.2 681.008 1965.12 675.869 1962.66 669.167C1960.2 662.464 1958.98 654.533 1958.98 645.373V594.601C1958.98 585.441 1960.2 577.621 1962.66 571.142C1965.12 564.551 1969.2 559.524 1974.89 556.061C1980.59 552.598 1988.24 550.867 1997.85 550.867C2007.68 550.867 2015.39 552.598 2020.97 556.061C2026.67 559.524 2030.75 564.551 2033.21 571.142C2035.78 577.621 2037.06 585.441 2037.06 594.601V645.54C2037.06 654.589 2035.78 662.464 2033.21 669.167C2030.75 675.758 2026.67 680.896 2020.97 684.583C2015.39 688.157 2007.68 689.945 1997.85 689.945ZM1997.85 671.68C2001.98 671.68 2005 670.787 2006.9 668.999C2008.91 667.212 2010.25 664.754 2010.92 661.626C2011.59 658.499 2011.93 655.091 2011.93 651.405V588.904C2011.93 585.106 2011.59 581.699 2010.92 578.682C2010.25 575.666 2008.91 573.32 2006.9 571.645C2005 569.857 2001.98 568.964 1997.85 568.964C1993.94 568.964 1990.98 569.857 1988.97 571.645C1986.96 573.32 1985.62 575.666 1984.95 578.682C1984.28 581.699 1983.94 585.106 1983.94 588.904V651.405C1983.94 655.091 1984.22 658.499 1984.78 661.626C1985.45 664.754 1986.79 667.212 1988.8 668.999C1990.81 670.787 1993.83 671.68 1997.85 671.68ZM2098.97 689.945C2089.36 689.945 2081.71 688.157 2076.02 684.583C2070.32 681.008 2066.24 675.869 2063.78 669.167C2061.33 662.464 2060.1 654.533 2060.1 645.373V594.601C2060.1 585.441 2061.33 577.621 2063.78 571.142C2066.24 564.551 2070.32 559.524 2076.02 556.061C2081.71 552.598 2089.36 550.867 2098.97 550.867C2108.8 550.867 2116.51 552.598 2122.1 556.061C2127.79 559.524 2131.87 564.551 2134.33 571.142C2136.9 577.621 2138.18 585.441 2138.18 594.601V645.54C2138.18 654.589 2136.9 662.464 2134.33 669.167C2131.87 675.758 2127.79 680.896 2122.1 684.583C2116.51 688.157 2108.8 689.945 2098.97 689.945ZM2098.97 671.68C2103.1 671.68 2106.12 670.787 2108.02 668.999C2110.03 667.212 2111.37 664.754 2112.04 661.626C2112.71 658.499 2113.05 655.091 2113.05 651.405V588.904C2113.05 585.106 2112.71 581.699 2112.04 578.682C2111.37 575.666 2110.03 573.32 2108.02 571.645C2106.12 569.857 2103.1 568.964 2098.97 568.964C2095.06 568.964 2092.1 569.857 2090.09 571.645C2088.08 573.32 2086.74 575.666 2086.07 578.682C2085.4 581.699 2085.06 585.106 2085.06 588.904V651.405C2085.06 655.091 2085.34 658.499 2085.9 661.626C2086.57 664.754 2087.91 667.212 2089.92 668.999C2091.93 670.787 2094.95 671.68 2098.97 671.68ZM2176.8 688.102V570.639H2155.19V552.375H2222.88V570.639H2201.6V688.102H2176.8ZM2242.27 688.102V552.375H2266.9V609.347H2271.92L2293.88 552.375H2318.51L2292.7 616.384L2320.52 688.102H2295.38L2271.92 625.6H2266.9V688.102H2242.27ZM2339.29 688.102V552.375H2379.17C2387.32 552.375 2393.91 553.883 2398.94 556.899C2404.08 559.915 2407.82 564.328 2410.17 570.137C2412.63 575.834 2413.85 582.76 2413.85 590.915C2413.85 599.74 2412.35 606.889 2409.33 612.363C2406.31 617.725 2402.07 621.635 2396.59 624.092C2391.23 626.55 2384.87 627.779 2377.49 627.779H2364.09V688.102H2339.29ZM2364.09 610.352H2373.47C2377.94 610.352 2381.4 609.738 2383.86 608.509C2386.43 607.168 2388.16 605.102 2389.05 602.309C2390.06 599.404 2390.56 595.55 2390.56 590.747C2390.56 585.832 2390.17 581.866 2389.39 578.85C2388.72 575.722 2387.16 573.432 2384.7 571.98C2382.35 570.528 2378.61 569.801 2373.47 569.801H2364.09V610.352ZM2434.69 688.102V552.375H2459.32V609.347H2465.35C2474.63 609.347 2482.33 610.631 2488.48 613.201C2494.62 615.658 2499.26 619.791 2502.39 625.6C2505.51 631.297 2507.08 639.005 2507.08 648.724C2507.08 656.32 2506.07 662.688 2504.06 667.826C2502.16 672.853 2499.37 676.875 2495.68 679.891C2492 682.907 2487.53 685.03 2482.28 686.258C2477.03 687.487 2471.05 688.102 2464.35 688.102H2434.69ZM2459.32 671.345H2464.52C2469.21 671.345 2473.01 670.675 2475.91 669.334C2478.81 667.994 2480.94 665.648 2482.28 662.297C2483.62 658.834 2484.23 654.142 2484.12 648.221C2484.12 641.184 2482.72 635.822 2479.93 632.135C2477.14 628.449 2471.89 626.606 2464.18 626.606H2459.32V671.345ZM2519.81 688.102V552.375H2544.44V688.102H2519.81ZM2571.97 688.102V552.375H2605.31C2611.34 552.375 2616.76 552.933 2621.57 554.05C2626.48 555.168 2630.67 557.067 2634.13 559.748C2637.71 562.317 2640.44 565.836 2642.34 570.304C2644.24 574.773 2645.19 580.414 2645.19 587.228C2645.19 592.702 2644.41 597.394 2642.85 601.303C2641.39 605.213 2639.22 608.341 2636.31 610.687C2633.41 612.921 2629.78 614.429 2625.42 615.211C2630.78 616.105 2635.19 618.004 2638.66 620.908C2642.23 623.701 2644.86 627.388 2646.53 631.968C2648.32 636.548 2649.21 642.077 2649.21 648.556C2649.21 655.036 2648.38 660.789 2646.7 665.816C2645.14 670.731 2642.73 674.864 2639.49 678.215C2636.37 681.455 2632.4 683.912 2627.6 685.588C2622.91 687.264 2617.38 688.102 2611.01 688.102H2571.97ZM2596.77 670.675H2606.15C2613.63 670.675 2618.72 668.888 2621.4 665.313C2624.08 661.626 2625.42 655.985 2625.42 648.389C2625.42 642.915 2624.75 638.503 2623.41 635.151C2622.18 631.688 2620.06 629.119 2617.04 627.443C2614.14 625.768 2610.23 624.93 2605.31 624.93H2596.77V670.675ZM2596.77 607.838H2605.14C2610.06 607.838 2613.86 607.112 2616.54 605.66C2619.22 604.208 2621.06 601.974 2622.07 598.958C2623.18 595.941 2623.74 592.143 2623.74 587.563C2623.74 582.76 2622.91 579.073 2621.23 576.504C2619.67 573.823 2617.26 572.036 2614.02 571.142C2610.79 570.137 2606.65 569.634 2601.63 569.634H2596.77V607.838ZM2665.07 688.102L2692.22 552.375H2718.69L2745.84 688.102H2722.88L2717.52 656.767H2693.89L2688.36 688.102H2665.07ZM2696.41 641.016H2714.84L2705.62 584.044L2696.41 641.016ZM2776.49 688.102V570.639H2754.87V552.375H2822.57V570.639H2801.29V688.102H2776.49ZM2841.62 688.102V552.375H2898.59V569.801H2866.42V608.844H2891.72V626.103H2866.42V671.01H2898.93V688.102H2841.62ZM2910.61 688.102V670.34C2913.74 670.452 2916.36 670.284 2918.49 669.837C2920.72 669.279 2922.56 668.106 2924.02 666.318C2925.58 664.531 2926.87 661.794 2927.87 658.108C2928.88 654.31 2929.71 649.227 2930.38 642.859C2931.05 636.492 2931.78 628.393 2932.56 618.563L2936.92 552.375H3002.94V688.102H2978.31V570.974H2958.87L2955.85 621.579C2955.18 631.521 2954.4 640.29 2953.51 647.886C2952.73 655.482 2951.44 661.962 2949.65 667.324C2947.98 672.574 2945.58 676.819 2942.45 680.058C2939.32 683.298 2935.19 685.588 2930.05 686.929C2924.91 688.157 2918.43 688.548 2910.61 688.102ZM3030.94 688.102V552.375H3055.57V609.347H3061.61C3070.77 609.347 3078.42 610.631 3084.56 613.201C3090.71 615.658 3095.34 619.791 3098.47 625.6C3101.6 631.297 3103.16 639.005 3103.16 648.724C3103.16 656.32 3102.21 662.688 3100.31 667.826C3098.41 672.853 3095.57 676.875 3091.77 679.891C3088.08 682.907 3083.61 685.03 3078.36 686.258C3073.11 687.487 3067.19 688.102 3060.6 688.102H3030.94ZM3055.57 671.345H3060.6C3065.4 671.345 3069.2 670.675 3072 669.334C3074.9 667.994 3077.02 665.648 3078.36 662.297C3079.7 658.834 3080.37 654.142 3080.37 648.221C3080.26 641.184 3078.81 635.822 3076.02 632.135C3073.34 628.449 3068.09 626.606 3060.27 626.606H3055.57V671.345Z" fill="#E6E3DA"/>
<path d="M-116.779 936V800.273H-38.5263V936H-62.9906V817.867H-92.3143V936H-116.779ZM-11.4032 936V800.273H45.5685V817.7H13.3963V856.742H38.6984V874.001H13.3963V918.908H45.9037V936H-11.4032ZM66.9722 936V800.273H106.852C115.007 800.273 121.598 801.781 126.625 804.797C131.764 807.814 135.506 812.226 137.852 818.035C140.309 823.732 141.538 830.658 141.538 838.813C141.538 847.638 140.03 854.787 137.014 860.261C133.998 865.623 129.753 869.533 124.279 871.991C118.917 874.448 112.55 875.677 105.177 875.677H91.7716V936H66.9722ZM91.7716 858.25H101.155C105.624 858.25 109.087 857.636 111.544 856.407C114.113 855.067 115.845 853 116.739 850.207C117.744 847.303 118.247 843.449 118.247 838.645C118.247 833.73 117.856 829.765 117.074 826.748C116.404 823.621 114.84 821.33 112.382 819.878C110.036 818.426 106.294 817.7 101.155 817.7H91.7716V858.25ZM162.039 936V800.273H195.384C201.416 800.273 206.834 800.832 211.637 801.949C216.553 803.066 220.742 804.965 224.205 807.646C227.779 810.215 230.516 813.734 232.415 818.203C234.314 822.671 235.264 828.312 235.264 835.127C235.264 840.6 234.482 845.292 232.918 849.202C231.466 853.112 229.287 856.24 226.383 858.585C223.479 860.82 219.848 862.328 215.491 863.11C220.853 864.003 225.266 865.902 228.729 868.807C232.304 871.6 234.929 875.286 236.604 879.866C238.392 884.446 239.285 889.976 239.285 896.455C239.285 902.934 238.448 908.687 236.772 913.714C235.208 918.629 232.806 922.762 229.567 926.114C226.439 929.353 222.473 931.811 217.67 933.487C212.978 935.162 207.448 936 201.081 936H162.039ZM186.838 918.573H196.222C203.706 918.573 208.789 916.786 211.47 913.211C214.151 909.525 215.491 903.884 215.491 896.287C215.491 890.814 214.821 886.401 213.481 883.05C212.252 879.587 210.129 877.018 207.113 875.342C204.209 873.666 200.299 872.828 195.384 872.828H186.838V918.573ZM186.838 855.737H195.216C200.131 855.737 203.929 855.011 206.61 853.559C209.292 852.106 211.135 849.872 212.14 846.856C213.257 843.84 213.816 840.042 213.816 835.462C213.816 830.658 212.978 826.972 211.302 824.402C209.738 821.721 207.337 819.934 204.097 819.04C200.857 818.035 196.724 817.532 191.697 817.532H186.838V855.737ZM298.878 937.843C289.271 937.843 281.619 936.056 275.922 932.481C270.225 928.906 266.147 923.768 263.69 917.065C261.232 910.363 260.003 902.431 260.003 893.271V842.499C260.003 833.339 261.232 825.52 263.69 819.04C266.147 812.45 270.225 807.423 275.922 803.96C281.619 800.497 289.271 798.765 298.878 798.765C308.708 798.765 316.416 800.497 322.002 803.96C327.699 807.423 331.776 812.45 334.234 819.04C336.803 825.52 338.088 833.339 338.088 842.499V893.439C338.088 902.487 336.803 910.363 334.234 917.065C331.776 923.656 327.699 928.795 322.002 932.481C316.416 936.056 308.708 937.843 298.878 937.843ZM298.878 919.579C303.011 919.579 306.027 918.685 307.926 916.898C309.937 915.11 311.278 912.653 311.948 909.525C312.618 906.397 312.953 902.99 312.953 899.304V836.802C312.953 833.004 312.618 829.597 311.948 826.581C311.278 823.565 309.937 821.219 307.926 819.543C306.027 817.756 303.011 816.862 298.878 816.862C294.968 816.862 292.008 817.756 289.997 819.543C287.986 821.219 286.646 823.565 285.976 826.581C285.305 829.597 284.97 833.004 284.97 836.802V899.304C284.97 902.99 285.249 906.397 285.808 909.525C286.478 912.653 287.819 915.11 289.83 916.898C291.84 918.685 294.856 919.579 298.878 919.579ZM399.999 937.843C390.392 937.843 382.74 936.056 377.043 932.481C371.345 928.906 367.268 923.768 364.81 917.065C362.353 910.363 361.124 902.431 361.124 893.271V842.499C361.124 833.339 362.353 825.52 364.81 819.04C367.268 812.45 371.345 807.423 377.043 803.96C382.74 800.497 390.392 798.765 399.999 798.765C409.829 798.765 417.537 800.497 423.123 803.96C428.82 807.423 432.897 812.45 435.355 819.04C437.924 825.52 439.209 833.339 439.209 842.499V893.439C439.209 902.487 437.924 910.363 435.355 917.065C432.897 923.656 428.82 928.795 423.123 932.481C417.537 936.056 409.829 937.843 399.999 937.843ZM399.999 919.579C404.132 919.579 407.148 918.685 409.047 916.898C411.058 915.11 412.399 912.653 413.069 909.525C413.739 906.397 414.074 902.99 414.074 899.304V836.802C414.074 833.004 413.739 829.597 413.069 826.581C412.399 823.565 411.058 821.219 409.047 819.543C407.148 817.756 404.132 816.862 399.999 816.862C396.089 816.862 393.129 817.756 391.118 819.543C389.107 821.219 387.767 823.565 387.096 826.581C386.426 829.597 386.091 833.004 386.091 836.802V899.304C386.091 902.99 386.37 906.397 386.929 909.525C387.599 912.653 388.94 915.11 390.95 916.898C392.961 918.685 395.977 919.579 399.999 919.579ZM477.828 936V818.538H456.213V800.273H523.908V818.538H502.628V936H477.828ZM543.293 936V800.273H567.925V857.245H572.952L594.903 800.273H619.535L593.73 864.283L621.546 936H596.411L572.952 873.499H567.925V936H543.293ZM640.315 936V800.273H680.196C688.35 800.273 694.941 801.781 699.968 804.797C705.107 807.814 708.849 812.226 711.195 818.035C713.653 823.732 714.881 830.658 714.881 838.813C714.881 847.638 713.373 854.787 710.357 860.261C707.341 865.623 703.096 869.533 697.622 871.991C692.26 874.448 685.893 875.677 678.52 875.677H665.115V936H640.315ZM665.115 858.25H674.498C678.967 858.25 682.43 857.636 684.887 856.407C687.457 855.067 689.188 853 690.082 850.207C691.087 847.303 691.59 843.449 691.59 838.645C691.59 833.73 691.199 829.765 690.417 826.748C689.747 823.621 688.183 821.33 685.725 819.878C683.379 818.426 679.637 817.7 674.498 817.7H665.115V858.25ZM735.717 936V800.273H760.349V857.245H766.381C775.653 857.245 783.361 858.53 789.505 861.099C795.649 863.557 800.285 867.69 803.413 873.499C806.541 879.196 808.105 886.904 808.105 896.622C808.105 904.219 807.099 910.586 805.088 915.725C803.189 920.752 800.397 924.773 796.71 927.789C793.024 930.806 788.555 932.928 783.305 934.157C778.055 935.386 772.078 936 765.376 936H735.717ZM760.349 919.244H765.543C770.235 919.244 774.033 918.573 776.938 917.233C779.842 915.892 781.965 913.546 783.305 910.195C784.646 906.732 785.26 902.04 785.148 896.12C785.148 889.082 783.752 883.72 780.959 880.034C778.166 876.347 772.916 874.504 765.208 874.504H760.349V919.244ZM820.839 936V800.273H845.471V936H820.839ZM872.994 936V800.273H906.339C912.371 800.273 917.789 800.832 922.593 801.949C927.508 803.066 931.697 804.965 935.16 807.646C938.735 810.215 941.471 813.734 943.37 818.203C945.269 822.671 946.219 828.312 946.219 835.127C946.219 840.6 945.437 845.292 943.873 849.202C942.421 853.112 940.243 856.24 937.338 858.585C934.434 860.82 930.803 862.328 926.446 863.11C931.809 864.003 936.221 865.902 939.684 868.807C943.259 871.6 945.884 875.286 947.56 879.866C949.347 884.446 950.241 889.976 950.241 896.455C950.241 902.934 949.403 908.687 947.727 913.714C946.163 918.629 943.761 922.762 940.522 926.114C937.394 929.353 933.428 931.811 928.625 933.487C923.933 935.162 918.403 936 912.036 936H872.994ZM897.793 918.573H907.177C914.661 918.573 919.744 916.786 922.425 913.211C925.106 909.525 926.446 903.884 926.446 896.287C926.446 890.814 925.776 886.401 924.436 883.05C923.207 879.587 921.084 877.018 918.068 875.342C915.164 873.666 911.254 872.828 906.339 872.828H897.793V918.573ZM897.793 855.737H906.171C911.086 855.737 914.885 855.011 917.566 853.559C920.247 852.106 922.09 849.872 923.095 846.856C924.212 843.84 924.771 840.042 924.771 835.462C924.771 830.658 923.933 826.972 922.257 824.402C920.693 821.721 918.292 819.934 915.052 819.04C911.813 818.035 907.679 817.532 902.652 817.532H897.793V855.737ZM966.099 936L993.244 800.273H1019.72L1046.86 936H1023.91L1018.55 904.666H994.92L989.39 936H966.099ZM997.433 888.915H1015.87L1006.65 831.943L997.433 888.915ZM1077.52 936V818.538H1055.9V800.273H1123.6V818.538H1102.32V936H1077.52ZM1142.65 936V800.273H1199.62V817.7H1167.45V856.742H1192.75V874.001H1167.45V918.908H1199.95V936H1142.65ZM1211.64 936V918.238C1214.77 918.35 1217.39 918.182 1219.51 917.736C1221.75 917.177 1223.59 916.004 1225.04 914.217C1226.61 912.429 1227.89 909.692 1228.9 906.006C1229.9 902.208 1230.74 897.125 1231.41 890.758C1232.08 884.39 1232.81 876.291 1233.59 866.461L1237.95 800.273H1303.97V936H1279.33V818.873H1259.9L1256.88 869.477C1256.21 879.419 1255.43 888.188 1254.54 895.785C1253.75 903.381 1252.47 909.86 1250.68 915.222C1249.01 920.472 1246.6 924.717 1243.48 927.957C1240.35 931.197 1236.21 933.487 1231.08 934.827C1225.94 936.056 1219.46 936.447 1211.64 936ZM1331.97 936V800.273H1356.6V857.245H1362.63C1371.79 857.245 1379.45 858.53 1385.59 861.099C1391.73 863.557 1396.37 867.69 1399.5 873.499C1402.63 879.196 1404.19 886.904 1404.19 896.622C1404.19 904.219 1403.24 910.586 1401.34 915.725C1399.44 920.752 1396.59 924.773 1392.8 927.789C1389.11 930.806 1384.64 932.928 1379.39 934.157C1374.14 935.386 1368.22 936 1361.63 936H1331.97ZM1356.6 919.244H1361.63C1366.43 919.244 1370.23 918.573 1373.02 917.233C1375.93 915.892 1378.05 913.546 1379.39 910.195C1380.73 906.732 1381.4 902.04 1381.4 896.12C1381.29 889.082 1379.84 883.72 1377.04 880.034C1374.36 876.347 1369.11 874.504 1361.29 874.504H1356.6V919.244Z" fill="#E6E3DA"/>
<path d="M1465.2 936V800.273H1543.45V936H1518.98V817.867H1489.66V936H1465.2ZM1570.57 936V800.273H1627.54V817.7H1595.37V856.742H1620.67V874.001H1595.37V918.908H1627.88V936H1570.57ZM1648.95 936V800.273H1688.83C1696.98 800.273 1703.57 801.781 1708.6 804.797C1713.74 807.814 1717.48 812.226 1719.83 818.035C1722.28 823.732 1723.51 830.658 1723.51 838.813C1723.51 847.638 1722 854.787 1718.99 860.261C1715.97 865.623 1711.73 869.533 1706.25 871.991C1700.89 874.448 1694.52 875.677 1687.15 875.677H1673.75V936H1648.95ZM1673.75 858.25H1683.13C1687.6 858.25 1691.06 857.636 1693.52 856.407C1696.09 855.067 1697.82 853 1698.71 850.207C1699.72 847.303 1700.22 843.449 1700.22 838.645C1700.22 833.73 1699.83 829.765 1699.05 826.748C1698.38 823.621 1696.81 821.33 1694.36 819.878C1692.01 818.426 1688.27 817.7 1683.13 817.7H1673.75V858.25ZM1744.01 936V800.273H1777.36C1783.39 800.273 1788.81 800.832 1793.61 801.949C1798.53 803.066 1802.72 804.965 1806.18 807.646C1809.75 810.215 1812.49 813.734 1814.39 818.203C1816.29 822.671 1817.24 828.312 1817.24 835.127C1817.24 840.6 1816.46 845.292 1814.89 849.202C1813.44 853.112 1811.26 856.24 1808.36 858.585C1805.45 860.82 1801.82 862.328 1797.47 863.11C1802.83 864.003 1807.24 865.902 1810.7 868.807C1814.28 871.6 1816.9 875.286 1818.58 879.866C1820.37 884.446 1821.26 889.976 1821.26 896.455C1821.26 902.934 1820.42 908.687 1818.75 913.714C1817.18 918.629 1814.78 922.762 1811.54 926.114C1808.41 929.353 1804.45 931.811 1799.64 933.487C1794.95 935.162 1789.42 936 1783.06 936H1744.01ZM1768.81 918.573H1778.2C1785.68 918.573 1790.76 916.786 1793.44 913.211C1796.13 909.525 1797.47 903.884 1797.47 896.287C1797.47 890.814 1796.8 886.401 1795.46 883.05C1794.23 879.587 1792.1 877.018 1789.09 875.342C1786.18 873.666 1782.27 872.828 1777.36 872.828H1768.81V918.573ZM1768.81 855.737H1777.19C1782.11 855.737 1785.9 855.011 1788.59 853.559C1791.27 852.106 1793.11 849.872 1794.11 846.856C1795.23 843.84 1795.79 840.042 1795.79 835.462C1795.79 830.658 1794.95 826.972 1793.28 824.402C1791.71 821.721 1789.31 819.934 1786.07 819.04C1782.83 818.035 1778.7 817.532 1773.67 817.532H1768.81V855.737ZM1880.85 937.843C1871.25 937.843 1863.59 936.056 1857.9 932.481C1852.2 928.906 1848.12 923.768 1845.66 917.065C1843.21 910.363 1841.98 902.431 1841.98 893.271V842.499C1841.98 833.339 1843.21 825.52 1845.66 819.04C1848.12 812.45 1852.2 807.423 1857.9 803.96C1863.59 800.497 1871.25 798.765 1880.85 798.765C1890.68 798.765 1898.39 800.497 1903.98 803.96C1909.67 807.423 1913.75 812.45 1916.21 819.04C1918.78 825.52 1920.06 833.339 1920.06 842.499V893.439C1920.06 902.487 1918.78 910.363 1916.21 917.065C1913.75 923.656 1909.67 928.795 1903.98 932.481C1898.39 936.056 1890.68 937.843 1880.85 937.843ZM1880.85 919.579C1884.99 919.579 1888 918.685 1889.9 916.898C1891.91 915.11 1893.25 912.653 1893.92 909.525C1894.59 906.397 1894.93 902.99 1894.93 899.304V836.802C1894.93 833.004 1894.59 829.597 1893.92 826.581C1893.25 823.565 1891.91 821.219 1889.9 819.543C1888 817.756 1884.99 816.862 1880.85 816.862C1876.94 816.862 1873.98 817.756 1871.97 819.543C1869.96 821.219 1868.62 823.565 1867.95 826.581C1867.28 829.597 1866.94 833.004 1866.94 836.802V899.304C1866.94 902.99 1867.22 906.397 1867.78 909.525C1868.45 912.653 1869.79 915.11 1871.8 916.898C1873.81 918.685 1876.83 919.579 1880.85 919.579ZM1981.97 937.843C1972.37 937.843 1964.71 936.056 1959.02 932.481C1953.32 928.906 1949.24 923.768 1946.79 917.065C1944.33 910.363 1943.1 902.431 1943.1 893.271V842.499C1943.1 833.339 1944.33 825.52 1946.79 819.04C1949.24 812.45 1953.32 807.423 1959.02 803.96C1964.71 800.497 1972.37 798.765 1981.97 798.765C1991.8 798.765 1999.51 800.497 2005.1 803.96C2010.79 807.423 2014.87 812.45 2017.33 819.04C2019.9 825.52 2021.18 833.339 2021.18 842.499V893.439C2021.18 902.487 2019.9 910.363 2017.33 917.065C2014.87 923.656 2010.79 928.795 2005.1 932.481C1999.51 936.056 1991.8 937.843 1981.97 937.843ZM1981.97 919.579C1986.11 919.579 1989.12 918.685 1991.02 916.898C1993.03 915.11 1994.37 912.653 1995.04 909.525C1995.71 906.397 1996.05 902.99 1996.05 899.304V836.802C1996.05 833.004 1995.71 829.597 1995.04 826.581C1994.37 823.565 1993.03 821.219 1991.02 819.543C1989.12 817.756 1986.11 816.862 1981.97 816.862C1978.06 816.862 1975.1 817.756 1973.09 819.543C1971.08 821.219 1969.74 823.565 1969.07 826.581C1968.4 829.597 1968.07 833.004 1968.07 836.802V899.304C1968.07 902.99 1968.34 906.397 1968.9 909.525C1969.57 912.653 1970.91 915.11 1972.92 916.898C1974.94 918.685 1977.95 919.579 1981.97 919.579ZM2059.8 936V818.538H2038.19V800.273H2105.88V818.538H2084.6V936H2059.8ZM2125.27 936V800.273H2149.9V857.245H2154.93L2176.88 800.273H2201.51L2175.7 864.283L2203.52 936H2178.39L2154.93 873.499H2149.9V936H2125.27ZM2222.29 936V800.273H2262.17C2270.33 800.273 2276.92 801.781 2281.94 804.797C2287.08 807.814 2290.82 812.226 2293.17 818.035C2295.63 823.732 2296.86 830.658 2296.86 838.813C2296.86 847.638 2295.35 854.787 2292.33 860.261C2289.32 865.623 2285.07 869.533 2279.6 871.991C2274.23 874.448 2267.87 875.677 2260.49 875.677H2247.09V936H2222.29ZM2247.09 858.25H2256.47C2260.94 858.25 2264.4 857.636 2266.86 856.407C2269.43 855.067 2271.16 853 2272.06 850.207C2273.06 847.303 2273.56 843.449 2273.56 838.645C2273.56 833.73 2273.17 829.765 2272.39 826.748C2271.72 823.621 2270.16 821.33 2267.7 819.878C2265.35 818.426 2261.61 817.7 2256.47 817.7H2247.09V858.25ZM2317.69 936V800.273H2342.32V857.245H2348.36C2357.63 857.245 2365.34 858.53 2371.48 861.099C2377.62 863.557 2382.26 867.69 2385.39 873.499C2388.52 879.196 2390.08 886.904 2390.08 896.622C2390.08 904.219 2389.07 910.586 2387.06 915.725C2385.16 920.752 2382.37 924.773 2378.68 927.789C2375 930.806 2370.53 932.928 2365.28 934.157C2360.03 935.386 2354.05 936 2347.35 936H2317.69ZM2342.32 919.244H2347.52C2352.21 919.244 2356.01 918.573 2358.91 917.233C2361.82 915.892 2363.94 913.546 2365.28 910.195C2366.62 906.732 2367.23 902.04 2367.12 896.12C2367.12 889.082 2365.73 883.72 2362.93 880.034C2360.14 876.347 2354.89 874.504 2347.18 874.504H2342.32V919.244ZM2402.81 936V800.273H2427.45V936H2402.81ZM2454.97 936V800.273H2488.31C2494.35 800.273 2499.76 800.832 2504.57 801.949C2509.48 803.066 2513.67 804.965 2517.13 807.646C2520.71 810.215 2523.45 813.734 2525.35 818.203C2527.24 822.671 2528.19 828.312 2528.19 835.127C2528.19 840.6 2527.41 845.292 2525.85 849.202C2524.4 853.112 2522.22 856.24 2519.31 858.585C2516.41 860.82 2512.78 862.328 2508.42 863.11C2513.78 864.003 2518.2 865.902 2521.66 868.807C2525.23 871.6 2527.86 875.286 2529.53 879.866C2531.32 884.446 2532.22 889.976 2532.22 896.455C2532.22 902.934 2531.38 908.687 2529.7 913.714C2528.14 918.629 2525.74 922.762 2522.5 926.114C2519.37 929.353 2515.4 931.811 2510.6 933.487C2505.91 935.162 2500.38 936 2494.01 936H2454.97ZM2479.77 918.573H2489.15C2496.64 918.573 2501.72 916.786 2504.4 913.211C2507.08 909.525 2508.42 903.884 2508.42 896.287C2508.42 890.814 2507.75 886.401 2506.41 883.05C2505.18 879.587 2503.06 877.018 2500.04 875.342C2497.14 873.666 2493.23 872.828 2488.31 872.828H2479.77V918.573ZM2479.77 855.737H2488.15C2493.06 855.737 2496.86 855.011 2499.54 853.559C2502.22 852.106 2504.06 849.872 2505.07 846.856C2506.19 843.84 2506.75 840.042 2506.75 835.462C2506.75 830.658 2505.91 826.972 2504.23 824.402C2502.67 821.721 2500.27 819.934 2497.03 819.04C2493.79 818.035 2489.65 817.532 2484.63 817.532H2479.77V855.737ZM2548.07 936L2575.22 800.273H2601.69L2628.84 936H2605.88L2600.52 904.666H2576.89L2571.36 936H2548.07ZM2579.41 888.915H2597.84L2588.62 831.943L2579.41 888.915ZM2659.49 936V818.538H2637.88V800.273H2705.57V818.538H2684.29V936H2659.49ZM2724.62 936V800.273H2781.59V817.7H2749.42V856.742H2774.72V874.001H2749.42V918.908H2781.93V936H2724.62ZM2793.61 936V918.238C2796.74 918.35 2799.37 918.182 2801.49 917.736C2803.72 917.177 2805.57 916.004 2807.02 914.217C2808.58 912.429 2809.87 909.692 2810.87 906.006C2811.88 902.208 2812.72 897.125 2813.39 890.758C2814.06 884.39 2814.78 876.291 2815.56 866.461L2819.92 800.273H2885.94V936H2861.31V818.873H2841.87L2838.86 869.477C2838.19 879.419 2837.4 888.188 2836.51 895.785C2835.73 903.381 2834.44 909.86 2832.66 915.222C2830.98 920.472 2828.58 924.717 2825.45 927.957C2822.32 931.197 2818.19 933.487 2813.05 934.827C2807.91 936.056 2801.43 936.447 2793.61 936ZM2913.94 936V800.273H2938.58V857.245H2944.61C2953.77 857.245 2961.42 858.53 2967.56 861.099C2973.71 863.557 2978.34 867.69 2981.47 873.499C2984.6 879.196 2986.16 886.904 2986.16 896.622C2986.16 904.219 2985.21 910.586 2983.32 915.725C2981.42 920.752 2978.57 924.773 2974.77 927.789C2971.08 930.806 2966.61 932.928 2961.36 934.157C2956.11 935.386 2950.19 936 2943.6 936H2913.94ZM2938.58 919.244H2943.6C2948.41 919.244 2952.2 918.573 2955 917.233C2957.9 915.892 2960.02 913.546 2961.36 910.195C2962.71 906.732 2963.38 902.04 2963.38 896.12C2963.26 889.082 2961.81 883.72 2959.02 880.034C2956.34 876.347 2951.09 874.504 2943.27 874.504H2938.58V919.244Z" fill="#E6E3DA"/>
<path d="M-1.7786 1184V1048.27H76.4737V1184H52.0094V1065.87H22.6857V1184H-1.7786ZM103.597 1184V1048.27H160.569V1065.7H128.396V1104.74H153.698V1122H128.396V1166.91H160.904V1184H103.597ZM181.972 1184V1048.27H221.852C230.007 1048.27 236.598 1049.78 241.625 1052.8C246.764 1055.81 250.506 1060.23 252.852 1066.04C255.309 1071.73 256.538 1078.66 256.538 1086.81C256.538 1095.64 255.03 1102.79 252.014 1108.26C248.998 1113.62 244.753 1117.53 239.279 1119.99C233.917 1122.45 227.55 1123.68 220.177 1123.68H206.772V1184H181.972ZM206.772 1106.25H216.155C220.624 1106.25 224.087 1105.64 226.544 1104.41C229.113 1103.07 230.845 1101 231.739 1098.21C232.744 1095.3 233.247 1091.45 233.247 1086.65C233.247 1081.73 232.856 1077.76 232.074 1074.75C231.404 1071.62 229.84 1069.33 227.382 1067.88C225.036 1066.43 221.294 1065.7 216.155 1065.7H206.772V1106.25ZM277.039 1184V1048.27H310.384C316.416 1048.27 321.834 1048.83 326.637 1049.95C331.553 1051.07 335.742 1052.97 339.205 1055.65C342.779 1058.22 345.516 1061.73 347.415 1066.2C349.314 1070.67 350.264 1076.31 350.264 1083.13C350.264 1088.6 349.482 1093.29 347.918 1097.2C346.466 1101.11 344.287 1104.24 341.383 1106.59C338.479 1108.82 334.848 1110.33 330.491 1111.11C335.853 1112 340.266 1113.9 343.729 1116.81C347.304 1119.6 349.929 1123.29 351.604 1127.87C353.392 1132.45 354.285 1137.98 354.285 1144.45C354.285 1150.93 353.448 1156.69 351.772 1161.71C350.208 1166.63 347.806 1170.76 344.567 1174.11C341.439 1177.35 337.473 1179.81 332.67 1181.49C327.978 1183.16 322.448 1184 316.081 1184H277.039ZM301.838 1166.57H311.222C318.706 1166.57 323.789 1164.79 326.47 1161.21C329.151 1157.52 330.491 1151.88 330.491 1144.29C330.491 1138.81 329.821 1134.4 328.481 1131.05C327.252 1127.59 325.129 1125.02 322.113 1123.34C319.209 1121.67 315.299 1120.83 310.384 1120.83H301.838V1166.57ZM301.838 1103.74H310.216C315.131 1103.74 318.929 1103.01 321.61 1101.56C324.292 1100.11 326.135 1097.87 327.14 1094.86C328.257 1091.84 328.816 1088.04 328.816 1083.46C328.816 1078.66 327.978 1074.97 326.302 1072.4C324.738 1069.72 322.337 1067.93 319.097 1067.04C315.857 1066.04 311.724 1065.53 306.697 1065.53H301.838V1103.74ZM413.878 1185.84C404.271 1185.84 396.619 1184.06 390.922 1180.48C385.225 1176.91 381.147 1171.77 378.69 1165.07C376.232 1158.36 375.003 1150.43 375.003 1141.27V1090.5C375.003 1081.34 376.232 1073.52 378.69 1067.04C381.147 1060.45 385.225 1055.42 390.922 1051.96C396.619 1048.5 404.271 1046.77 413.878 1046.77C423.708 1046.77 431.416 1048.5 437.002 1051.96C442.699 1055.42 446.776 1060.45 449.234 1067.04C451.803 1073.52 453.088 1081.34 453.088 1090.5V1141.44C453.088 1150.49 451.803 1158.36 449.234 1165.07C446.776 1171.66 442.699 1176.79 437.002 1180.48C431.416 1184.06 423.708 1185.84 413.878 1185.84ZM413.878 1167.58C418.011 1167.58 421.027 1166.69 422.926 1164.9C424.937 1163.11 426.278 1160.65 426.948 1157.52C427.618 1154.4 427.953 1150.99 427.953 1147.3V1084.8C427.953 1081 427.618 1077.6 426.948 1074.58C426.278 1071.56 424.937 1069.22 422.926 1067.54C421.027 1065.76 418.011 1064.86 413.878 1064.86C409.968 1064.86 407.008 1065.76 404.997 1067.54C402.986 1069.22 401.646 1071.56 400.976 1074.58C400.305 1077.6 399.97 1081 399.97 1084.8V1147.3C399.97 1150.99 400.249 1154.4 400.808 1157.52C401.478 1160.65 402.819 1163.11 404.83 1164.9C406.84 1166.69 409.856 1167.58 413.878 1167.58ZM514.999 1185.84C505.392 1185.84 497.74 1184.06 492.043 1180.48C486.345 1176.91 482.268 1171.77 479.81 1165.07C477.353 1158.36 476.124 1150.43 476.124 1141.27V1090.5C476.124 1081.34 477.353 1073.52 479.81 1067.04C482.268 1060.45 486.345 1055.42 492.043 1051.96C497.74 1048.5 505.392 1046.77 514.999 1046.77C524.829 1046.77 532.537 1048.5 538.123 1051.96C543.82 1055.42 547.897 1060.45 550.355 1067.04C552.924 1073.52 554.209 1081.34 554.209 1090.5V1141.44C554.209 1150.49 552.924 1158.36 550.355 1165.07C547.897 1171.66 543.82 1176.79 538.123 1180.48C532.537 1184.06 524.829 1185.84 514.999 1185.84ZM514.999 1167.58C519.132 1167.58 522.148 1166.69 524.047 1164.9C526.058 1163.11 527.399 1160.65 528.069 1157.52C528.739 1154.4 529.074 1150.99 529.074 1147.3V1084.8C529.074 1081 528.739 1077.6 528.069 1074.58C527.399 1071.56 526.058 1069.22 524.047 1067.54C522.148 1065.76 519.132 1064.86 514.999 1064.86C511.089 1064.86 508.129 1065.76 506.118 1067.54C504.107 1069.22 502.767 1071.56 502.096 1074.58C501.426 1077.6 501.091 1081 501.091 1084.8V1147.3C501.091 1150.99 501.37 1154.4 501.929 1157.52C502.599 1160.65 503.94 1163.11 505.95 1164.9C507.961 1166.69 510.977 1167.58 514.999 1167.58ZM592.828 1184V1066.54H571.213V1048.27H638.908V1066.54H617.628V1184H592.828ZM658.293 1184V1048.27H682.925V1105.24H687.952L709.903 1048.27H734.535L708.73 1112.28L736.546 1184H711.411L687.952 1121.5H682.925V1184H658.293ZM755.315 1184V1048.27H795.196C803.35 1048.27 809.941 1049.78 814.968 1052.8C820.107 1055.81 823.849 1060.23 826.195 1066.04C828.653 1071.73 829.881 1078.66 829.881 1086.81C829.881 1095.64 828.373 1102.79 825.357 1108.26C822.341 1113.62 818.096 1117.53 812.622 1119.99C807.26 1122.45 800.893 1123.68 793.52 1123.68H780.115V1184H755.315ZM780.115 1106.25H789.498C793.967 1106.25 797.43 1105.64 799.887 1104.41C802.457 1103.07 804.188 1101 805.082 1098.21C806.087 1095.3 806.59 1091.45 806.59 1086.65C806.59 1081.73 806.199 1077.76 805.417 1074.75C804.747 1071.62 803.183 1069.33 800.725 1067.88C798.379 1066.43 794.637 1065.7 789.498 1065.7H780.115V1106.25ZM850.717 1184V1048.27H875.349V1105.24H881.381C890.653 1105.24 898.361 1106.53 904.505 1109.1C910.649 1111.56 915.285 1115.69 918.413 1121.5C921.541 1127.2 923.105 1134.9 923.105 1144.62C923.105 1152.22 922.099 1158.59 920.088 1163.72C918.189 1168.75 915.397 1172.77 911.71 1175.79C908.024 1178.81 903.555 1180.93 898.305 1182.16C893.055 1183.39 887.078 1184 880.376 1184H850.717ZM875.349 1167.24H880.543C885.235 1167.24 889.033 1166.57 891.938 1165.23C894.842 1163.89 896.965 1161.55 898.305 1158.2C899.646 1154.73 900.26 1150.04 900.148 1144.12C900.148 1137.08 898.752 1131.72 895.959 1128.03C893.166 1124.35 887.916 1122.5 880.208 1122.5H875.349V1167.24ZM935.839 1184V1048.27H960.471V1184H935.839ZM987.994 1184V1048.27H1021.34C1027.37 1048.27 1032.79 1048.83 1037.59 1049.95C1042.51 1051.07 1046.7 1052.97 1050.16 1055.65C1053.73 1058.22 1056.47 1061.73 1058.37 1066.2C1060.27 1070.67 1061.22 1076.31 1061.22 1083.13C1061.22 1088.6 1060.44 1093.29 1058.87 1097.2C1057.42 1101.11 1055.24 1104.24 1052.34 1106.59C1049.43 1108.82 1045.8 1110.33 1041.45 1111.11C1046.81 1112 1051.22 1113.9 1054.68 1116.81C1058.26 1119.6 1060.88 1123.29 1062.56 1127.87C1064.35 1132.45 1065.24 1137.98 1065.24 1144.45C1065.24 1150.93 1064.4 1156.69 1062.73 1161.71C1061.16 1166.63 1058.76 1170.76 1055.52 1174.11C1052.39 1177.35 1048.43 1179.81 1043.62 1181.49C1038.93 1183.16 1033.4 1184 1027.04 1184H987.994ZM1012.79 1166.57H1022.18C1029.66 1166.57 1034.74 1164.79 1037.42 1161.21C1040.11 1157.52 1041.45 1151.88 1041.45 1144.29C1041.45 1138.81 1040.78 1134.4 1039.44 1131.05C1038.21 1127.59 1036.08 1125.02 1033.07 1123.34C1030.16 1121.67 1026.25 1120.83 1021.34 1120.83H1012.79V1166.57ZM1012.79 1103.74H1021.17C1026.09 1103.74 1029.88 1103.01 1032.57 1101.56C1035.25 1100.11 1037.09 1097.87 1038.1 1094.86C1039.21 1091.84 1039.77 1088.04 1039.77 1083.46C1039.77 1078.66 1038.93 1074.97 1037.26 1072.4C1035.69 1069.72 1033.29 1067.93 1030.05 1067.04C1026.81 1066.04 1022.68 1065.53 1017.65 1065.53H1012.79V1103.74ZM1081.1 1184L1108.24 1048.27H1134.72L1161.86 1184H1138.91L1133.55 1152.67H1109.92L1104.39 1184H1081.1ZM1112.43 1136.91H1130.87L1121.65 1079.94L1112.43 1136.91ZM1192.52 1184V1066.54H1170.9V1048.27H1238.6V1066.54H1217.32V1184H1192.52ZM1257.65 1184V1048.27H1314.62V1065.7H1282.45V1104.74H1307.75V1122H1282.45V1166.91H1314.95V1184H1257.65ZM1326.64 1184V1166.24C1329.77 1166.35 1332.39 1166.18 1334.51 1165.74C1336.75 1165.18 1338.59 1164 1340.04 1162.22C1341.61 1160.43 1342.89 1157.69 1343.9 1154.01C1344.9 1150.21 1345.74 1145.13 1346.41 1138.76C1347.08 1132.39 1347.81 1124.29 1348.59 1114.46L1352.95 1048.27H1418.97V1184H1394.33V1066.87H1374.9L1371.88 1117.48C1371.21 1127.42 1370.43 1136.19 1369.54 1143.78C1368.75 1151.38 1367.47 1157.86 1365.68 1163.22C1364.01 1168.47 1361.6 1172.72 1358.48 1175.96C1355.35 1179.2 1351.21 1181.49 1346.08 1182.83C1340.94 1184.06 1334.46 1184.45 1326.64 1184ZM1446.97 1184V1048.27H1471.6V1105.24H1477.63C1486.79 1105.24 1494.45 1106.53 1500.59 1109.1C1506.73 1111.56 1511.37 1115.69 1514.5 1121.5C1517.63 1127.2 1519.19 1134.9 1519.19 1144.62C1519.19 1152.22 1518.24 1158.59 1516.34 1163.72C1514.44 1168.75 1511.59 1172.77 1507.8 1175.79C1504.11 1178.81 1499.64 1180.93 1494.39 1182.16C1489.14 1183.39 1483.22 1184 1476.63 1184H1446.97ZM1471.6 1167.24H1476.63C1481.43 1167.24 1485.23 1166.57 1488.02 1165.23C1490.93 1163.89 1493.05 1161.55 1494.39 1158.2C1495.73 1154.73 1496.4 1150.04 1496.4 1144.12C1496.29 1137.08 1494.84 1131.72 1492.04 1128.03C1489.36 1124.35 1484.11 1122.5 1476.29 1122.5H1471.6V1167.24Z" fill="#E6E3DA"/>
<path d="M1580.2 1184V1048.27H1658.45V1184H1633.98V1065.87H1604.66V1184H1580.2ZM1685.57 1184V1048.27H1742.54V1065.7H1710.37V1104.74H1735.67V1122H1710.37V1166.91H1742.88V1184H1685.57ZM1763.95 1184V1048.27H1803.83C1811.98 1048.27 1818.57 1049.78 1823.6 1052.8C1828.74 1055.81 1832.48 1060.23 1834.83 1066.04C1837.28 1071.73 1838.51 1078.66 1838.51 1086.81C1838.51 1095.64 1837 1102.79 1833.99 1108.26C1830.97 1113.62 1826.73 1117.53 1821.25 1119.99C1815.89 1122.45 1809.52 1123.68 1802.15 1123.68H1788.75V1184H1763.95ZM1788.75 1106.25H1798.13C1802.6 1106.25 1806.06 1105.64 1808.52 1104.41C1811.09 1103.07 1812.82 1101 1813.71 1098.21C1814.72 1095.3 1815.22 1091.45 1815.22 1086.65C1815.22 1081.73 1814.83 1077.76 1814.05 1074.75C1813.38 1071.62 1811.81 1069.33 1809.36 1067.88C1807.01 1066.43 1803.27 1065.7 1798.13 1065.7H1788.75V1106.25ZM1859.01 1184V1048.27H1892.36C1898.39 1048.27 1903.81 1048.83 1908.61 1049.95C1913.53 1051.07 1917.72 1052.97 1921.18 1055.65C1924.75 1058.22 1927.49 1061.73 1929.39 1066.2C1931.29 1070.67 1932.24 1076.31 1932.24 1083.13C1932.24 1088.6 1931.46 1093.29 1929.89 1097.2C1928.44 1101.11 1926.26 1104.24 1923.36 1106.59C1920.45 1108.82 1916.82 1110.33 1912.47 1111.11C1917.83 1112 1922.24 1113.9 1925.7 1116.81C1929.28 1119.6 1931.9 1123.29 1933.58 1127.87C1935.37 1132.45 1936.26 1137.98 1936.26 1144.45C1936.26 1150.93 1935.42 1156.69 1933.75 1161.71C1932.18 1166.63 1929.78 1170.76 1926.54 1174.11C1923.41 1177.35 1919.45 1179.81 1914.64 1181.49C1909.95 1183.16 1904.42 1184 1898.06 1184H1859.01ZM1883.81 1166.57H1893.2C1900.68 1166.57 1905.76 1164.79 1908.44 1161.21C1911.13 1157.52 1912.47 1151.88 1912.47 1144.29C1912.47 1138.81 1911.8 1134.4 1910.46 1131.05C1909.23 1127.59 1907.1 1125.02 1904.09 1123.34C1901.18 1121.67 1897.27 1120.83 1892.36 1120.83H1883.81V1166.57ZM1883.81 1103.74H1892.19C1897.11 1103.74 1900.9 1103.01 1903.59 1101.56C1906.27 1100.11 1908.11 1097.87 1909.11 1094.86C1910.23 1091.84 1910.79 1088.04 1910.79 1083.46C1910.79 1078.66 1909.95 1074.97 1908.28 1072.4C1906.71 1069.72 1904.31 1067.93 1901.07 1067.04C1897.83 1066.04 1893.7 1065.53 1888.67 1065.53H1883.81V1103.74ZM1995.85 1185.84C1986.25 1185.84 1978.59 1184.06 1972.9 1180.48C1967.2 1176.91 1963.12 1171.77 1960.66 1165.07C1958.21 1158.36 1956.98 1150.43 1956.98 1141.27V1090.5C1956.98 1081.34 1958.21 1073.52 1960.66 1067.04C1963.12 1060.45 1967.2 1055.42 1972.9 1051.96C1978.59 1048.5 1986.25 1046.77 1995.85 1046.77C2005.68 1046.77 2013.39 1048.5 2018.98 1051.96C2024.67 1055.42 2028.75 1060.45 2031.21 1067.04C2033.78 1073.52 2035.06 1081.34 2035.06 1090.5V1141.44C2035.06 1150.49 2033.78 1158.36 2031.21 1165.07C2028.75 1171.66 2024.67 1176.79 2018.98 1180.48C2013.39 1184.06 2005.68 1185.84 1995.85 1185.84ZM1995.85 1167.58C1999.99 1167.58 2003 1166.69 2004.9 1164.9C2006.91 1163.11 2008.25 1160.65 2008.92 1157.52C2009.59 1154.4 2009.93 1150.99 2009.93 1147.3V1084.8C2009.93 1081 2009.59 1077.6 2008.92 1074.58C2008.25 1071.56 2006.91 1069.22 2004.9 1067.54C2003 1065.76 1999.99 1064.86 1995.85 1064.86C1991.94 1064.86 1988.98 1065.76 1986.97 1067.54C1984.96 1069.22 1983.62 1071.56 1982.95 1074.58C1982.28 1077.6 1981.94 1081 1981.94 1084.8V1147.3C1981.94 1150.99 1982.22 1154.4 1982.78 1157.52C1983.45 1160.65 1984.79 1163.11 1986.8 1164.9C1988.81 1166.69 1991.83 1167.58 1995.85 1167.58ZM2096.97 1185.84C2087.37 1185.84 2079.71 1184.06 2074.02 1180.48C2068.32 1176.91 2064.24 1171.77 2061.79 1165.07C2059.33 1158.36 2058.1 1150.43 2058.1 1141.27V1090.5C2058.1 1081.34 2059.33 1073.52 2061.79 1067.04C2064.24 1060.45 2068.32 1055.42 2074.02 1051.96C2079.71 1048.5 2087.37 1046.77 2096.97 1046.77C2106.8 1046.77 2114.51 1048.5 2120.1 1051.96C2125.79 1055.42 2129.87 1060.45 2132.33 1067.04C2134.9 1073.52 2136.18 1081.34 2136.18 1090.5V1141.44C2136.18 1150.49 2134.9 1158.36 2132.33 1165.07C2129.87 1171.66 2125.79 1176.79 2120.1 1180.48C2114.51 1184.06 2106.8 1185.84 2096.97 1185.84ZM2096.97 1167.58C2101.11 1167.58 2104.12 1166.69 2106.02 1164.9C2108.03 1163.11 2109.37 1160.65 2110.04 1157.52C2110.71 1154.4 2111.05 1150.99 2111.05 1147.3V1084.8C2111.05 1081 2110.71 1077.6 2110.04 1074.58C2109.37 1071.56 2108.03 1069.22 2106.02 1067.54C2104.12 1065.76 2101.11 1064.86 2096.97 1064.86C2093.06 1064.86 2090.1 1065.76 2088.09 1067.54C2086.08 1069.22 2084.74 1071.56 2084.07 1074.58C2083.4 1077.6 2083.07 1081 2083.07 1084.8V1147.3C2083.07 1150.99 2083.34 1154.4 2083.9 1157.52C2084.57 1160.65 2085.91 1163.11 2087.92 1164.9C2089.94 1166.69 2092.95 1167.58 2096.97 1167.58ZM2174.8 1184V1066.54H2153.19V1048.27H2220.88V1066.54H2199.6V1184H2174.8ZM2240.27 1184V1048.27H2264.9V1105.24H2269.93L2291.88 1048.27H2316.51L2290.7 1112.28L2318.52 1184H2293.39L2269.93 1121.5H2264.9V1184H2240.27ZM2337.29 1184V1048.27H2377.17C2385.33 1048.27 2391.92 1049.78 2396.94 1052.8C2402.08 1055.81 2405.82 1060.23 2408.17 1066.04C2410.63 1071.73 2411.86 1078.66 2411.86 1086.81C2411.86 1095.64 2410.35 1102.79 2407.33 1108.26C2404.32 1113.62 2400.07 1117.53 2394.6 1119.99C2389.23 1122.45 2382.87 1123.68 2375.49 1123.68H2362.09V1184H2337.29ZM2362.09 1106.25H2371.47C2375.94 1106.25 2379.4 1105.64 2381.86 1104.41C2384.43 1103.07 2386.16 1101 2387.06 1098.21C2388.06 1095.3 2388.56 1091.45 2388.56 1086.65C2388.56 1081.73 2388.17 1077.76 2387.39 1074.75C2386.72 1071.62 2385.16 1069.33 2382.7 1067.88C2380.35 1066.43 2376.61 1065.7 2371.47 1065.7H2362.09V1106.25ZM2432.69 1184V1048.27H2457.32V1105.24H2463.36C2472.63 1105.24 2480.34 1106.53 2486.48 1109.1C2492.62 1111.56 2497.26 1115.69 2500.39 1121.5C2503.52 1127.2 2505.08 1134.9 2505.08 1144.62C2505.08 1152.22 2504.07 1158.59 2502.06 1163.72C2500.16 1168.75 2497.37 1172.77 2493.68 1175.79C2490 1178.81 2485.53 1180.93 2480.28 1182.16C2475.03 1183.39 2469.05 1184 2462.35 1184H2432.69ZM2457.32 1167.24H2462.52C2467.21 1167.24 2471.01 1166.57 2473.91 1165.23C2476.82 1163.89 2478.94 1161.55 2480.28 1158.2C2481.62 1154.73 2482.23 1150.04 2482.12 1144.12C2482.12 1137.08 2480.73 1131.72 2477.93 1128.03C2475.14 1124.35 2469.89 1122.5 2462.18 1122.5H2457.32V1167.24ZM2517.81 1184V1048.27H2542.45V1184H2517.81ZM2569.97 1184V1048.27H2603.31C2609.35 1048.27 2614.76 1048.83 2619.57 1049.95C2624.48 1051.07 2628.67 1052.97 2632.13 1055.65C2635.71 1058.22 2638.45 1061.73 2640.35 1066.2C2642.24 1070.67 2643.19 1076.31 2643.19 1083.13C2643.19 1088.6 2642.41 1093.29 2640.85 1097.2C2639.4 1101.11 2637.22 1104.24 2634.31 1106.59C2631.41 1108.82 2627.78 1110.33 2623.42 1111.11C2628.78 1112 2633.2 1113.9 2636.66 1116.81C2640.23 1119.6 2642.86 1123.29 2644.53 1127.87C2646.32 1132.45 2647.22 1137.98 2647.22 1144.45C2647.22 1150.93 2646.38 1156.69 2644.7 1161.71C2643.14 1166.63 2640.74 1170.76 2637.5 1174.11C2634.37 1177.35 2630.4 1179.81 2625.6 1181.49C2620.91 1183.16 2615.38 1184 2609.01 1184H2569.97ZM2594.77 1166.57H2604.15C2611.64 1166.57 2616.72 1164.79 2619.4 1161.21C2622.08 1157.52 2623.42 1151.88 2623.42 1144.29C2623.42 1138.81 2622.75 1134.4 2621.41 1131.05C2620.18 1127.59 2618.06 1125.02 2615.04 1123.34C2612.14 1121.67 2608.23 1120.83 2603.31 1120.83H2594.77V1166.57ZM2594.77 1103.74H2603.15C2608.06 1103.74 2611.86 1103.01 2614.54 1101.56C2617.22 1100.11 2619.06 1097.87 2620.07 1094.86C2621.19 1091.84 2621.75 1088.04 2621.75 1083.46C2621.75 1078.66 2620.91 1074.97 2619.23 1072.4C2617.67 1069.72 2615.27 1067.93 2612.03 1067.04C2608.79 1066.04 2604.65 1065.53 2599.63 1065.53H2594.77V1103.74ZM2663.07 1184L2690.22 1048.27H2716.69L2743.84 1184H2720.88L2715.52 1152.67H2691.89L2686.36 1184H2663.07ZM2694.41 1136.91H2712.84L2703.62 1079.94L2694.41 1136.91ZM2774.49 1184V1066.54H2752.88V1048.27H2820.57V1066.54H2799.29V1184H2774.49ZM2839.62 1184V1048.27H2896.59V1065.7H2864.42V1104.74H2889.72V1122H2864.42V1166.91H2896.93V1184H2839.62ZM2908.61 1184V1166.24C2911.74 1166.35 2914.37 1166.18 2916.49 1165.74C2918.72 1165.18 2920.57 1164 2922.02 1162.22C2923.58 1160.43 2924.87 1157.69 2925.87 1154.01C2926.88 1150.21 2927.72 1145.13 2928.39 1138.76C2929.06 1132.39 2929.78 1124.29 2930.56 1114.46L2934.92 1048.27H3000.94V1184H2976.31V1066.87H2956.87L2953.86 1117.48C2953.19 1127.42 2952.4 1136.19 2951.51 1143.78C2950.73 1151.38 2949.44 1157.86 2947.66 1163.22C2945.98 1168.47 2943.58 1172.72 2940.45 1175.96C2937.32 1179.2 2933.19 1181.49 2928.05 1182.83C2922.91 1184.06 2916.43 1184.45 2908.61 1184ZM3028.94 1184V1048.27H3053.58V1105.24H3059.61C3068.77 1105.24 3076.42 1106.53 3082.56 1109.1C3088.71 1111.56 3093.34 1115.69 3096.47 1121.5C3099.6 1127.2 3101.16 1134.9 3101.16 1144.62C3101.16 1152.22 3100.21 1158.59 3098.32 1163.72C3096.42 1168.75 3093.57 1172.77 3089.77 1175.79C3086.08 1178.81 3081.61 1180.93 3076.36 1182.16C3071.11 1183.39 3065.19 1184 3058.6 1184H3028.94ZM3053.58 1167.24H3058.6C3063.41 1167.24 3067.2 1166.57 3070 1165.23C3072.9 1163.89 3075.02 1161.55 3076.36 1158.2C3077.71 1154.73 3078.38 1150.04 3078.38 1144.12C3078.26 1137.08 3076.81 1131.72 3074.02 1128.03C3071.34 1124.35 3066.09 1122.5 3058.27 1122.5H3053.58V1167.24Z" fill="#E6E3DA"/>
</svg>
