<svg width="2560" height="745" viewBox="0 0 2560 745" fill="none" xmlns="http://www.w3.org/2000/svg">
<path d="M-116 200V64.2733H-37.748V200H-62.2123V81.8675H-91.536V200H-116ZM-10.6249 200V64.2733H46.3468V81.6999H14.1746V120.742H39.4767V138.001H14.1746V182.908H46.682V200H-10.6249ZM67.7505 200V64.2733H107.631C115.785 64.2733 122.376 65.7813 127.403 68.7975C132.542 71.8136 136.284 76.2262 138.63 82.035C141.088 87.7322 142.316 94.6582 142.316 102.813C142.316 111.638 140.808 118.787 137.792 124.261C134.776 129.623 130.531 133.533 125.057 135.991C119.695 138.448 113.328 139.677 105.955 139.677H92.55V200H67.7505ZM92.55 122.25H101.934C106.402 122.25 109.865 121.636 112.322 120.407C114.892 119.067 116.623 117 117.517 114.207C118.522 111.303 119.025 107.449 119.025 102.645C119.025 97.7302 118.634 93.7645 117.852 90.7484C117.182 87.6205 115.618 85.3305 113.16 83.8782C110.814 82.426 107.072 81.6999 101.934 81.6999H92.55V122.25ZM162.817 200V64.2733H196.162C202.194 64.2733 207.612 64.8318 212.416 65.9489C217.331 67.066 221.52 68.9651 224.983 71.6461C228.558 74.2154 231.295 77.7342 233.194 82.2026C235.093 86.671 236.042 92.3123 236.042 99.1265C236.042 104.6 235.26 109.292 233.696 113.202C232.244 117.112 230.066 120.24 227.161 122.585C224.257 124.82 220.626 126.328 216.27 127.11C221.632 128.003 226.044 129.902 229.507 132.807C233.082 135.6 235.707 139.286 237.383 143.866C239.17 148.446 240.064 153.976 240.064 160.455C240.064 166.934 239.226 172.687 237.55 177.714C235.986 182.629 233.585 186.762 230.345 190.114C227.217 193.353 223.252 195.811 218.448 197.487C213.756 199.162 208.227 200 201.859 200H162.817ZM187.616 182.573H197C204.484 182.573 209.567 180.786 212.248 177.211C214.929 173.525 216.27 167.884 216.27 160.287C216.27 154.814 215.599 150.401 214.259 147.05C213.03 143.587 210.908 141.018 207.892 139.342C204.987 137.666 201.077 136.828 196.162 136.828H187.616V182.573ZM187.616 119.737H195.994C200.91 119.737 204.708 119.011 207.389 117.559C210.07 116.106 211.913 113.872 212.918 110.856C214.036 107.84 214.594 104.042 214.594 99.4617C214.594 94.6582 213.756 90.9718 212.081 88.4025C210.517 85.7214 208.115 83.9341 204.875 83.0404C201.636 82.035 197.503 81.5323 192.476 81.5323H187.616V119.737ZM299.656 201.843C290.049 201.843 282.397 200.056 276.7 196.481C271.003 192.906 266.925 187.768 264.468 181.065C262.01 174.363 260.781 166.431 260.781 157.271V106.499C260.781 97.3392 262.01 89.5196 264.468 83.0404C266.925 76.4496 271.003 71.4227 276.7 67.9597C282.397 64.4967 290.049 62.7652 299.656 62.7652C309.487 62.7652 317.195 64.4967 322.78 67.9597C328.477 71.4227 332.555 76.4496 335.012 83.0404C337.582 89.5196 338.866 97.3392 338.866 106.499V157.439C338.866 166.487 337.582 174.363 335.012 181.065C332.555 187.656 328.477 192.795 322.78 196.481C317.195 200.056 309.487 201.843 299.656 201.843ZM299.656 183.579C303.79 183.579 306.806 182.685 308.705 180.898C310.715 179.11 312.056 176.653 312.726 173.525C313.397 170.397 313.732 166.99 313.732 163.304V100.802C313.732 97.0041 313.397 93.5969 312.726 90.5808C312.056 87.5646 310.715 85.2188 308.705 83.5431C306.806 81.7558 303.79 80.8621 299.656 80.8621C295.746 80.8621 292.786 81.7558 290.775 83.5431C288.765 85.2188 287.424 87.5646 286.754 90.5808C286.084 93.5969 285.748 97.0041 285.748 100.802V163.304C285.748 166.99 286.028 170.397 286.586 173.525C287.257 176.653 288.597 179.11 290.608 180.898C292.619 182.685 295.635 183.579 299.656 183.579ZM400.777 201.843C391.17 201.843 383.518 200.056 377.821 196.481C372.124 192.906 368.046 187.768 365.589 181.065C363.131 174.363 361.902 166.431 361.902 157.271V106.499C361.902 97.3392 363.131 89.5196 365.589 83.0404C368.046 76.4496 372.124 71.4227 377.821 67.9597C383.518 64.4967 391.17 62.7652 400.777 62.7652C410.608 62.7652 418.315 64.4967 423.901 67.9597C429.598 71.4227 433.675 76.4496 436.133 83.0404C438.702 89.5196 439.987 97.3392 439.987 106.499V157.439C439.987 166.487 438.702 174.363 436.133 181.065C433.675 187.656 429.598 192.795 423.901 196.481C418.315 200.056 410.608 201.843 400.777 201.843ZM400.777 183.579C404.91 183.579 407.927 182.685 409.826 180.898C411.836 179.11 413.177 176.653 413.847 173.525C414.517 170.397 414.852 166.99 414.852 163.304V100.802C414.852 97.0041 414.517 93.5969 413.847 90.5808C413.177 87.5646 411.836 85.2188 409.826 83.5431C407.927 81.7558 404.91 80.8621 400.777 80.8621C396.867 80.8621 393.907 81.7558 391.896 83.5431C389.885 85.2188 388.545 87.5646 387.875 90.5808C387.204 93.5969 386.869 97.0041 386.869 100.802V163.304C386.869 166.99 387.149 170.397 387.707 173.525C388.377 176.653 389.718 179.11 391.729 180.898C393.739 182.685 396.756 183.579 400.777 183.579ZM478.607 200V82.5377H456.991V64.2733H524.687V82.5377H503.406V200H478.607ZM544.072 200V64.2733H568.704V121.245H573.731L595.681 64.2733H620.313L594.508 128.283L622.324 200H597.189L573.731 137.499H568.704V200H544.072ZM641.094 200V64.2733H680.974C689.129 64.2733 695.72 65.7813 700.747 68.7975C705.885 71.8136 709.627 76.2262 711.973 82.035C714.431 87.7322 715.66 94.6582 715.66 102.813C715.66 111.638 714.152 118.787 711.135 124.261C708.119 129.623 703.874 133.533 698.401 135.991C693.039 138.448 686.671 139.677 679.298 139.677H665.893V200H641.094ZM665.893 122.25H675.277C679.745 122.25 683.208 121.636 685.666 120.407C688.235 119.067 689.967 117 690.86 114.207C691.866 111.303 692.368 107.449 692.368 102.645C692.368 97.7302 691.977 93.7645 691.195 90.7484C690.525 87.6205 688.961 85.3305 686.504 83.8782C684.158 82.426 680.415 81.6999 675.277 81.6999H665.893V122.25ZM736.495 200V64.2733H761.127V121.245H767.159C776.431 121.245 784.139 122.53 790.283 125.099C796.427 127.557 801.063 131.69 804.191 137.499C807.319 143.196 808.883 150.904 808.883 160.622C808.883 168.219 807.877 174.586 805.867 179.725C803.968 184.752 801.175 188.773 797.488 191.789C793.802 194.806 789.334 196.928 784.083 198.157C778.833 199.386 772.857 200 766.154 200H736.495ZM761.127 183.244H766.322C771.013 183.244 774.812 182.573 777.716 181.233C780.62 179.892 782.743 177.546 784.083 174.195C785.424 170.732 786.038 166.04 785.927 160.12C785.927 153.082 784.53 147.72 781.737 144.034C778.945 140.347 773.694 138.504 765.986 138.504H761.127V183.244ZM821.618 200V64.2733H846.25V200H821.618ZM873.772 200V64.2733H907.117C913.149 64.2733 918.567 64.8318 923.371 65.9489C928.286 67.066 932.475 68.9651 935.938 71.6461C939.513 74.2154 942.25 77.7342 944.149 82.2026C946.048 86.671 946.997 92.3123 946.997 99.1265C946.997 104.6 946.215 109.292 944.651 113.202C943.199 117.112 941.021 120.24 938.116 122.585C935.212 124.82 931.581 126.328 927.225 127.11C932.587 128.003 936.999 129.902 940.462 132.807C944.037 135.6 946.662 139.286 948.338 143.866C950.125 148.446 951.019 153.976 951.019 160.455C951.019 166.934 950.181 172.687 948.505 177.714C946.941 182.629 944.54 186.762 941.3 190.114C938.172 193.353 934.207 195.811 929.403 197.487C924.711 199.162 919.182 200 912.814 200H873.772ZM898.571 182.573H907.955C915.439 182.573 920.522 180.786 923.203 177.211C925.884 173.525 927.225 167.884 927.225 160.287C927.225 154.814 926.555 150.401 925.214 147.05C923.985 143.587 921.863 141.018 918.847 139.342C915.942 137.666 912.032 136.828 907.117 136.828H898.571V182.573ZM898.571 119.737H906.95C911.865 119.737 915.663 119.011 918.344 117.559C921.025 116.106 922.868 113.872 923.874 110.856C924.991 107.84 925.549 104.042 925.549 99.4617C925.549 94.6582 924.711 90.9718 923.036 88.4025C921.472 85.7214 919.07 83.9341 915.83 83.0404C912.591 82.035 908.458 81.5323 903.431 81.5323H898.571V119.737ZM966.877 200L994.023 64.2733H1020.5L1047.64 200H1024.69L1019.32 168.666H995.698L990.169 200H966.877ZM998.212 152.915H1016.64L1007.43 95.9428L998.212 152.915ZM1078.3 200V82.5377H1056.68V64.2733H1124.38V82.5377H1103.09V200H1078.3ZM1143.43 200V64.2733H1200.4V81.6999H1168.22V120.742H1193.53V138.001H1168.22V182.908H1200.73V200H1143.43ZM1212.42 200V182.238C1215.55 182.35 1218.17 182.182 1220.29 181.736C1222.53 181.177 1224.37 180.004 1225.82 178.217C1227.39 176.429 1228.67 173.692 1229.68 170.006C1230.68 166.208 1231.52 161.125 1232.19 154.758C1232.86 148.39 1233.59 140.291 1234.37 130.461L1238.72 64.2733H1304.74V200H1280.11V82.8729H1260.68L1257.66 133.477C1256.99 143.419 1256.21 152.188 1255.31 159.785C1254.53 167.381 1253.25 173.86 1251.46 179.222C1249.78 184.472 1247.38 188.717 1244.25 191.957C1241.13 195.197 1236.99 197.487 1231.85 198.827C1226.72 200.056 1220.24 200.447 1212.42 200ZM1332.75 200V64.2733H1357.38V121.245H1363.41C1372.57 121.245 1380.22 122.53 1386.37 125.099C1392.51 127.557 1397.15 131.69 1400.28 137.499C1403.4 143.196 1404.97 150.904 1404.97 160.622C1404.97 168.219 1404.02 174.586 1402.12 179.725C1400.22 184.752 1397.37 188.773 1393.57 191.789C1389.89 194.806 1385.42 196.928 1380.17 198.157C1374.92 199.386 1369 200 1362.41 200H1332.75ZM1357.38 183.244H1362.41C1367.21 183.244 1371.01 182.573 1373.8 181.233C1376.71 179.892 1378.83 177.546 1380.17 174.195C1381.51 170.732 1382.18 166.04 1382.18 160.12C1382.07 153.082 1380.62 147.72 1377.82 144.034C1375.14 140.347 1369.89 138.504 1362.07 138.504H1357.38V183.244Z" fill="#F4F4F4"/>
<path d="M1465.97 200V64.2733H1544.23V200H1519.76V81.8675H1490.44V200H1465.97ZM1571.35 200V64.2733H1628.32V81.6999H1596.15V120.742H1621.45V138.001H1596.15V182.908H1628.66V200H1571.35ZM1649.73 200V64.2733H1689.61C1697.76 64.2733 1704.35 65.7813 1709.38 68.7975C1714.52 71.8136 1718.26 76.2262 1720.6 82.035C1723.06 87.7322 1724.29 94.6582 1724.29 102.813C1724.29 111.638 1722.78 118.787 1719.77 124.261C1716.75 129.623 1712.51 133.533 1707.03 135.991C1701.67 138.448 1695.3 139.677 1687.93 139.677H1674.52V200H1649.73ZM1674.52 122.25H1683.91C1688.38 122.25 1691.84 121.636 1694.3 120.407C1696.87 119.067 1698.6 117 1699.49 114.207C1700.5 111.303 1701 107.449 1701 102.645C1701 97.7302 1700.61 93.7645 1699.83 90.7484C1699.16 87.6205 1697.59 85.3305 1695.13 83.8782C1692.79 82.426 1689.05 81.6999 1683.91 81.6999H1674.52V122.25ZM1744.79 200V64.2733H1778.14C1784.17 64.2733 1789.59 64.8318 1794.39 65.9489C1799.31 67.066 1803.49 68.9651 1806.96 71.6461C1810.53 74.2154 1813.27 77.7342 1815.17 82.2026C1817.07 86.671 1818.02 92.3123 1818.02 99.1265C1818.02 104.6 1817.23 109.292 1815.67 113.202C1814.22 117.112 1812.04 120.24 1809.14 122.585C1806.23 124.82 1802.6 126.328 1798.24 127.11C1803.61 128.003 1808.02 129.902 1811.48 132.807C1815.06 135.6 1817.68 139.286 1819.36 143.866C1821.14 148.446 1822.04 153.976 1822.04 160.455C1822.04 166.934 1821.2 172.687 1819.52 177.714C1817.96 182.629 1815.56 186.762 1812.32 190.114C1809.19 193.353 1805.23 195.811 1800.42 197.487C1795.73 199.162 1790.2 200 1783.83 200H1744.79ZM1769.59 182.573H1778.97C1786.46 182.573 1791.54 180.786 1794.22 177.211C1796.9 173.525 1798.24 167.884 1798.24 160.287C1798.24 154.814 1797.57 150.401 1796.23 147.05C1795 143.587 1792.88 141.018 1789.87 139.342C1786.96 137.666 1783.05 136.828 1778.14 136.828H1769.59V182.573ZM1769.59 119.737H1777.97C1782.88 119.737 1786.68 119.011 1789.36 117.559C1792.04 116.106 1793.89 113.872 1794.89 110.856C1796.01 107.84 1796.57 104.042 1796.57 99.4617C1796.57 94.6582 1795.73 90.9718 1794.06 88.4025C1792.49 85.7214 1790.09 83.9341 1786.85 83.0404C1783.61 82.035 1779.48 81.5323 1774.45 81.5323H1769.59V119.737ZM1881.63 201.843C1872.02 201.843 1864.37 200.056 1858.67 196.481C1852.98 192.906 1848.9 187.768 1846.44 181.065C1843.98 174.363 1842.76 166.431 1842.76 157.271V106.499C1842.76 97.3392 1843.98 89.5196 1846.44 83.0404C1848.9 76.4496 1852.98 71.4227 1858.67 67.9597C1864.37 64.4967 1872.02 62.7652 1881.63 62.7652C1891.46 62.7652 1899.17 64.4967 1904.75 67.9597C1910.45 71.4227 1914.53 76.4496 1916.99 83.0404C1919.56 89.5196 1920.84 97.3392 1920.84 106.499V157.439C1920.84 166.487 1919.56 174.363 1916.99 181.065C1914.53 187.656 1910.45 192.795 1904.75 196.481C1899.17 200.056 1891.46 201.843 1881.63 201.843ZM1881.63 183.579C1885.76 183.579 1888.78 182.685 1890.68 180.898C1892.69 179.11 1894.03 176.653 1894.7 173.525C1895.37 170.397 1895.71 166.99 1895.71 163.304V100.802C1895.71 97.0041 1895.37 93.5969 1894.7 90.5808C1894.03 87.5646 1892.69 85.2188 1890.68 83.5431C1888.78 81.7558 1885.76 80.8621 1881.63 80.8621C1877.72 80.8621 1874.76 81.7558 1872.75 83.5431C1870.74 85.2188 1869.4 87.5646 1868.73 90.5808C1868.06 93.5969 1867.72 97.0041 1867.72 100.802V163.304C1867.72 166.99 1868 170.397 1868.56 173.525C1869.23 176.653 1870.57 179.11 1872.58 180.898C1874.59 182.685 1877.61 183.579 1881.63 183.579ZM1982.75 201.843C1973.14 201.843 1965.49 200.056 1959.8 196.481C1954.1 192.906 1950.02 187.768 1947.56 181.065C1945.11 174.363 1943.88 166.431 1943.88 157.271V106.499C1943.88 97.3392 1945.11 89.5196 1947.56 83.0404C1950.02 76.4496 1954.1 71.4227 1959.8 67.9597C1965.49 64.4967 1973.14 62.7652 1982.75 62.7652C1992.58 62.7652 2000.29 64.4967 2005.88 67.9597C2011.57 71.4227 2015.65 76.4496 2018.11 83.0404C2020.68 89.5196 2021.96 97.3392 2021.96 106.499V157.439C2021.96 166.487 2020.68 174.363 2018.11 181.065C2015.65 187.656 2011.57 192.795 2005.88 196.481C2000.29 200.056 1992.58 201.843 1982.75 201.843ZM1982.75 183.579C1986.88 183.579 1989.9 182.685 1991.8 180.898C1993.81 179.11 1995.15 176.653 1995.82 173.525C1996.49 170.397 1996.83 166.99 1996.83 163.304V100.802C1996.83 97.0041 1996.49 93.5969 1995.82 90.5808C1995.15 87.5646 1993.81 85.2188 1991.8 83.5431C1989.9 81.7558 1986.88 80.8621 1982.75 80.8621C1978.84 80.8621 1975.88 81.7558 1973.87 83.5431C1971.86 85.2188 1970.52 87.5646 1969.85 90.5808C1969.18 93.5969 1968.84 97.0041 1968.84 100.802V163.304C1968.84 166.99 1969.12 170.397 1969.68 173.525C1970.35 176.653 1971.69 179.11 1973.7 180.898C1975.71 182.685 1978.73 183.579 1982.75 183.579ZM2060.58 200V82.5377H2038.97V64.2733H2106.66V82.5377H2085.38V200H2060.58ZM2126.05 200V64.2733H2150.68V121.245H2155.71L2177.66 64.2733H2202.29L2176.48 128.283L2204.3 200H2179.16L2155.71 137.499H2150.68V200H2126.05ZM2223.07 200V64.2733H2262.95C2271.1 64.2733 2277.69 65.7813 2282.72 68.7975C2287.86 71.8136 2291.6 76.2262 2293.95 82.035C2296.41 87.7322 2297.63 94.6582 2297.63 102.813C2297.63 111.638 2296.13 118.787 2293.11 124.261C2290.09 129.623 2285.85 133.533 2280.38 135.991C2275.01 138.448 2268.65 139.677 2261.27 139.677H2247.87V200H2223.07ZM2247.87 122.25H2257.25C2261.72 122.25 2265.18 121.636 2267.64 120.407C2270.21 119.067 2271.94 117 2272.83 114.207C2273.84 111.303 2274.34 107.449 2274.34 102.645C2274.34 97.7302 2273.95 93.7645 2273.17 90.7484C2272.5 87.6205 2270.94 85.3305 2268.48 83.8782C2266.13 82.426 2262.39 81.6999 2257.25 81.6999H2247.87V122.25ZM2318.47 200V64.2733H2343.1V121.245H2349.13C2358.41 121.245 2366.11 122.53 2372.26 125.099C2378.4 127.557 2383.04 131.69 2386.17 137.499C2389.29 143.196 2390.86 150.904 2390.86 160.622C2390.86 168.219 2389.85 174.586 2387.84 179.725C2385.94 184.752 2383.15 188.773 2379.46 191.789C2375.78 194.806 2371.31 196.928 2366.06 198.157C2360.81 199.386 2354.83 200 2348.13 200H2318.47ZM2343.1 183.244H2348.3C2352.99 183.244 2356.79 182.573 2359.69 181.233C2362.6 179.892 2364.72 177.546 2366.06 174.195C2367.4 170.732 2368.01 166.04 2367.9 160.12C2367.9 153.082 2366.5 147.72 2363.71 144.034C2360.92 140.347 2355.67 138.504 2347.96 138.504H2343.1V183.244ZM2403.59 200V64.2733H2428.22V200H2403.59ZM2455.75 200V64.2733H2489.09C2495.12 64.2733 2500.54 64.8318 2505.35 65.9489C2510.26 67.066 2514.45 68.9651 2517.91 71.6461C2521.49 74.2154 2524.22 77.7342 2526.12 82.2026C2528.02 86.671 2528.97 92.3123 2528.97 99.1265C2528.97 104.6 2528.19 109.292 2526.63 113.202C2525.17 117.112 2523 120.24 2520.09 122.585C2517.19 124.82 2513.56 126.328 2509.2 127.11C2514.56 128.003 2518.97 129.902 2522.44 132.807C2526.01 135.6 2528.64 139.286 2530.31 143.866C2532.1 148.446 2532.99 153.976 2532.99 160.455C2532.99 166.934 2532.16 172.687 2530.48 177.714C2528.92 182.629 2526.51 186.762 2523.27 190.114C2520.15 193.353 2516.18 195.811 2511.38 197.487C2506.69 199.162 2501.16 200 2494.79 200H2455.75ZM2480.55 182.573H2489.93C2497.41 182.573 2502.5 180.786 2505.18 177.211C2507.86 173.525 2509.2 167.884 2509.2 160.287C2509.2 154.814 2508.53 150.401 2507.19 147.05C2505.96 143.587 2503.84 141.018 2500.82 139.342C2497.92 137.666 2494.01 136.828 2489.09 136.828H2480.55V182.573ZM2480.55 119.737H2488.92C2493.84 119.737 2497.64 119.011 2500.32 117.559C2503 116.106 2504.84 113.872 2505.85 110.856C2506.97 107.84 2507.52 104.042 2507.52 99.4617C2507.52 94.6582 2506.69 90.9718 2505.01 88.4025C2503.45 85.7214 2501.04 83.9341 2497.81 83.0404C2494.57 82.035 2490.43 81.5323 2485.41 81.5323H2480.55V119.737ZM2548.85 200L2576 64.2733H2602.47L2629.62 200H2606.66L2601.3 168.666H2577.67L2572.14 200H2548.85ZM2580.19 152.915H2598.62L2589.4 95.9428L2580.19 152.915ZM2660.27 200V82.5377H2638.65V64.2733H2706.35V82.5377H2685.07V200H2660.27ZM2725.4 200V64.2733H2782.37V81.6999H2750.2V120.742H2775.5V138.001H2750.2V182.908H2782.71V200H2725.4ZM2794.39 200V182.238C2797.52 182.35 2800.14 182.182 2802.27 181.736C2804.5 181.177 2806.34 180.004 2807.8 178.217C2809.36 176.429 2810.65 173.692 2811.65 170.006C2812.66 166.208 2813.49 161.125 2814.16 154.758C2814.83 148.39 2815.56 140.291 2816.34 130.461L2820.7 64.2733H2886.72V200H2862.09V82.8729H2842.65L2839.63 133.477C2838.96 143.419 2838.18 152.188 2837.29 159.785C2836.51 167.381 2835.22 173.86 2833.43 179.222C2831.76 184.472 2829.36 188.717 2826.23 191.957C2823.1 195.197 2818.97 197.487 2813.83 198.827C2808.69 200.056 2802.21 200.447 2794.39 200ZM2914.72 200V64.2733H2939.35V121.245H2945.39C2954.55 121.245 2962.2 122.53 2968.34 125.099C2974.49 127.557 2979.12 131.69 2982.25 137.499C2985.38 143.196 2986.94 150.904 2986.94 160.622C2986.94 168.219 2985.99 174.586 2984.09 179.725C2982.19 184.752 2979.35 188.773 2975.55 191.789C2971.86 194.806 2967.39 196.928 2962.14 198.157C2956.89 199.386 2950.97 200 2944.38 200H2914.72ZM2939.35 183.244H2944.38C2949.18 183.244 2952.98 182.573 2955.78 181.233C2958.68 179.892 2960.8 177.546 2962.14 174.195C2963.48 170.732 2964.15 166.04 2964.15 160.12C2964.04 153.082 2962.59 147.72 2959.8 144.034C2957.12 140.347 2951.87 138.504 2944.05 138.504H2939.35V183.244Z" fill="#F4F4F4"/>
<path d="M-535.779 448.051V312.324H-457.526V448.051H-481.991V329.918H-511.314V448.051H-535.779ZM-430.403 448.051V312.324H-373.431V329.751H-405.604V368.793H-380.302V386.052H-405.604V430.959H-373.096V448.051H-430.403ZM-352.028 448.051V312.324H-312.148C-303.993 312.324 -297.402 313.832 -292.375 316.848C-287.236 319.864 -283.494 324.277 -281.148 330.086C-278.691 335.783 -277.462 342.709 -277.462 350.864C-277.462 359.689 -278.97 366.838 -281.986 372.312C-285.002 377.674 -289.247 381.584 -294.721 384.041C-300.083 386.499 -306.45 387.728 -313.823 387.728H-327.228V448.051H-352.028ZM-327.228 370.301H-317.845C-313.376 370.301 -309.913 369.687 -307.456 368.458C-304.887 367.117 -303.155 365.051 -302.261 362.258C-301.256 359.354 -300.753 355.5 -300.753 350.696C-300.753 345.781 -301.144 341.815 -301.926 338.799C-302.596 335.671 -304.16 333.381 -306.618 331.929C-308.964 330.477 -312.706 329.751 -317.845 329.751H-327.228V370.301ZM-256.961 448.051V312.324H-223.616C-217.584 312.324 -212.166 312.883 -207.363 314C-202.447 315.117 -198.258 317.016 -194.795 319.697C-191.221 322.266 -188.484 325.785 -186.585 330.253C-184.686 334.722 -183.736 340.363 -183.736 347.177C-183.736 352.651 -184.518 357.343 -186.082 361.253C-187.534 365.163 -189.713 368.29 -192.617 370.636C-195.521 372.87 -199.152 374.379 -203.509 375.16C-198.147 376.054 -193.734 377.953 -190.271 380.858C-186.696 383.65 -184.071 387.337 -182.396 391.917C-180.608 396.497 -179.715 402.027 -179.715 408.506C-179.715 414.985 -180.552 420.738 -182.228 425.765C-183.792 430.68 -186.194 434.813 -189.433 438.165C-192.561 441.404 -196.527 443.862 -201.33 445.537C-206.022 447.213 -211.552 448.051 -217.919 448.051H-256.961ZM-232.162 430.624H-222.778C-215.294 430.624 -210.211 428.837 -207.53 425.262C-204.849 421.576 -203.509 415.934 -203.509 408.338C-203.509 402.864 -204.179 398.452 -205.519 395.101C-206.748 391.638 -208.871 389.068 -211.887 387.393C-214.791 385.717 -218.701 384.879 -223.616 384.879H-232.162V430.624ZM-232.162 367.788H-223.784C-218.869 367.788 -215.071 367.062 -212.39 365.609C-209.708 364.157 -207.865 361.923 -206.86 358.907C-205.743 355.891 -205.184 352.093 -205.184 347.512C-205.184 342.709 -206.022 339.023 -207.698 336.453C-209.262 333.772 -211.663 331.985 -214.903 331.091C-218.143 330.086 -222.276 329.583 -227.303 329.583H-232.162V367.788ZM-120.122 449.894C-129.729 449.894 -137.381 448.107 -143.078 444.532C-148.775 440.957 -152.853 435.819 -155.31 429.116C-157.768 422.414 -158.997 414.482 -158.997 405.322V354.55C-158.997 345.39 -157.768 337.57 -155.31 331.091C-152.853 324.5 -148.775 319.473 -143.078 316.01C-137.381 312.547 -129.729 310.816 -120.122 310.816C-110.292 310.816 -102.584 312.547 -96.9982 316.01C-91.3011 319.473 -87.2237 324.5 -84.7661 331.091C-82.1968 337.57 -80.9121 345.39 -80.9121 354.55V405.49C-80.9121 414.538 -82.1968 422.414 -84.7661 429.116C-87.2237 435.707 -91.3011 440.846 -96.9982 444.532C-102.584 448.107 -110.292 449.894 -120.122 449.894ZM-120.122 431.63C-115.989 431.63 -112.973 430.736 -111.074 428.949C-109.063 427.161 -107.722 424.704 -107.052 421.576C-106.382 418.448 -106.047 415.041 -106.047 411.354V348.853C-106.047 345.055 -106.382 341.648 -107.052 338.632C-107.722 335.615 -109.063 333.27 -111.074 331.594C-112.973 329.807 -115.989 328.913 -120.122 328.913C-124.032 328.913 -126.992 329.807 -129.003 331.594C-131.014 333.27 -132.354 335.615 -133.024 338.632C-133.695 341.648 -134.03 345.055 -134.03 348.853V411.354C-134.03 415.041 -133.751 418.448 -133.192 421.576C-132.522 424.704 -131.181 427.161 -129.17 428.949C-127.16 430.736 -124.144 431.63 -120.122 431.63ZM-19.0012 449.894C-28.6082 449.894 -36.2603 448.107 -41.9574 444.532C-47.6546 440.957 -51.732 435.819 -54.1896 429.116C-56.6472 422.414 -57.876 414.482 -57.876 405.322V354.55C-57.876 345.39 -56.6472 337.57 -54.1896 331.091C-51.732 324.5 -47.6546 319.473 -41.9574 316.01C-36.2603 312.547 -28.6082 310.816 -19.0012 310.816C-9.17078 310.816 -1.46284 312.547 4.12262 316.01C9.81979 319.473 13.8972 324.5 16.3548 331.091C18.9241 337.57 20.2088 345.39 20.2088 354.55V405.49C20.2088 414.538 18.9241 422.414 16.3548 429.116C13.8972 435.707 9.81979 440.846 4.12262 444.532C-1.46284 448.107 -9.17078 449.894 -19.0012 449.894ZM-19.0012 431.63C-14.868 431.63 -11.8518 430.736 -9.95275 428.949C-7.94198 427.161 -6.60147 424.704 -5.93121 421.576C-5.26096 418.448 -4.92583 415.041 -4.92583 411.354V348.853C-4.92583 345.055 -5.26096 341.648 -5.93121 338.632C-6.60147 335.615 -7.94198 333.27 -9.95275 331.594C-11.8518 329.807 -14.868 328.913 -19.0012 328.913C-22.911 328.913 -25.8713 329.807 -27.8821 331.594C-29.8928 333.27 -31.2334 335.615 -31.9036 338.632C-32.5739 341.648 -32.909 345.055 -32.909 348.853V411.354C-32.909 415.041 -32.6297 418.448 -32.0712 421.576C-31.4009 424.704 -30.0604 427.161 -28.0496 428.949C-26.0389 430.736 -23.0227 431.63 -19.0012 431.63ZM58.8283 448.051V330.589H37.2126V312.324H104.908V330.589H83.6278V448.051H58.8283ZM124.293 448.051V312.324H148.925V369.296H153.952L175.903 312.324H200.535L174.73 376.333L202.546 448.051H177.411L153.952 385.549H148.925V448.051H124.293ZM221.315 448.051V312.324H261.196C269.35 312.324 275.941 313.832 280.968 316.848C286.107 319.864 289.849 324.277 292.195 330.086C294.653 335.783 295.881 342.709 295.881 350.864C295.881 359.689 294.373 366.838 291.357 372.312C288.341 377.674 284.096 381.584 278.622 384.041C273.26 386.499 266.893 387.728 259.52 387.728H246.115V448.051H221.315ZM246.115 370.301H255.498C259.967 370.301 263.43 369.687 265.887 368.458C268.457 367.117 270.188 365.051 271.082 362.258C272.087 359.354 272.59 355.5 272.59 350.696C272.59 345.781 272.199 341.815 271.417 338.799C270.747 335.671 269.183 333.381 266.725 331.929C264.379 330.477 260.637 329.751 255.498 329.751H246.115V370.301ZM316.717 448.051V312.324H341.349V369.296H347.381C356.653 369.296 364.361 370.58 370.505 373.15C376.649 375.607 381.285 379.741 384.413 385.549C387.541 391.247 389.105 398.955 389.105 408.673C389.105 416.27 388.099 422.637 386.088 427.776C384.189 432.802 381.397 436.824 377.71 439.84C374.024 442.856 369.555 444.979 364.305 446.208C359.055 447.436 353.078 448.051 346.376 448.051H316.717ZM341.349 431.294H346.543C351.235 431.294 355.033 430.624 357.938 429.284C360.842 427.943 362.965 425.597 364.305 422.246C365.646 418.783 366.26 414.091 366.148 408.171C366.148 401.133 364.752 395.771 361.959 392.084C359.166 388.398 353.916 386.555 346.208 386.555H341.349V431.294ZM401.839 448.051V312.324H426.471V448.051H401.839ZM453.994 448.051V312.324H487.339C493.371 312.324 498.789 312.883 503.593 314C508.508 315.117 512.697 317.016 516.16 319.697C519.735 322.266 522.471 325.785 524.37 330.253C526.269 334.722 527.219 340.363 527.219 347.177C527.219 352.651 526.437 357.343 524.873 361.253C523.421 365.163 521.243 368.29 518.338 370.636C515.434 372.87 511.803 374.379 507.446 375.16C512.809 376.054 517.221 377.953 520.684 380.858C524.259 383.65 526.884 387.337 528.56 391.917C530.347 396.497 531.241 402.027 531.241 408.506C531.241 414.985 530.403 420.738 528.727 425.765C527.163 430.68 524.761 434.813 521.522 438.165C518.394 441.404 514.428 443.862 509.625 445.537C504.933 447.213 499.403 448.051 493.036 448.051H453.994ZM478.793 430.624H488.177C495.661 430.624 500.744 428.837 503.425 425.262C506.106 421.576 507.446 415.934 507.446 408.338C507.446 402.864 506.776 398.452 505.436 395.101C504.207 391.638 502.084 389.068 499.068 387.393C496.164 385.717 492.254 384.879 487.339 384.879H478.793V430.624ZM478.793 367.788H487.171C492.086 367.788 495.885 367.062 498.566 365.609C501.247 364.157 503.09 361.923 504.095 358.907C505.212 355.891 505.771 352.093 505.771 347.512C505.771 342.709 504.933 339.023 503.257 336.453C501.693 333.772 499.292 331.985 496.052 331.091C492.813 330.086 488.679 329.583 483.652 329.583H478.793V367.788ZM547.099 448.051L574.244 312.324H600.719L627.865 448.051H604.908L599.546 416.716H575.92L570.39 448.051H547.099ZM578.433 400.965H596.865L587.649 343.994L578.433 400.965ZM658.517 448.051V330.589H636.901V312.324H704.597V330.589H683.317V448.051H658.517ZM723.647 448.051V312.324H780.619V329.751H748.447V368.793H773.749V386.052H748.447V430.959H780.954V448.051H723.647ZM792.639 448.051V430.289C795.767 430.401 798.392 430.233 800.514 429.786C802.749 429.228 804.592 428.055 806.044 426.267C807.608 424.48 808.893 421.743 809.898 418.057C810.903 414.259 811.741 409.176 812.411 402.809C813.082 396.441 813.808 388.342 814.59 378.512L818.946 312.324H884.967V448.051H860.335V330.924H840.897L837.881 381.528C837.211 391.47 836.429 400.239 835.535 407.835C834.753 415.432 833.469 421.911 831.681 427.273C830.006 432.523 827.604 436.768 824.476 440.008C821.348 443.247 817.215 445.537 812.076 446.878C806.938 448.107 800.458 448.498 792.639 448.051ZM912.969 448.051V312.324H937.601V369.296H943.634C952.794 369.296 960.446 370.58 966.59 373.15C972.734 375.607 977.37 379.741 980.498 385.549C983.625 391.247 985.189 398.955 985.189 408.673C985.189 416.27 984.24 422.637 982.341 427.776C980.442 432.802 977.593 436.824 973.795 439.84C970.109 442.856 965.64 444.979 960.39 446.208C955.14 447.436 949.219 448.051 942.628 448.051H912.969ZM937.601 431.294H942.628C947.432 431.294 951.23 430.624 954.023 429.284C956.927 427.943 959.049 425.597 960.39 422.246C961.73 418.783 962.401 414.091 962.401 408.171C962.289 401.133 960.837 395.771 958.044 392.084C955.363 388.398 950.113 386.555 942.293 386.555H937.601V431.294Z" fill="#F4F4F4"/>
<path d="M1046.2 448.051V312.324H1124.45V448.051H1099.98V329.918H1070.66V448.051H1046.2ZM1151.57 448.051V312.324H1208.54V329.751H1176.37V368.793H1201.67V386.052H1176.37V430.959H1208.88V448.051H1151.57ZM1229.95 448.051V312.324H1269.83C1277.98 312.324 1284.57 313.832 1289.6 316.848C1294.74 319.864 1298.48 324.277 1300.83 330.086C1303.28 335.783 1304.51 342.709 1304.51 350.864C1304.51 359.689 1303 366.838 1299.99 372.312C1296.97 377.674 1292.73 381.584 1287.25 384.041C1281.89 386.499 1275.52 387.728 1268.15 387.728H1254.75V448.051H1229.95ZM1254.75 370.301H1264.13C1268.6 370.301 1272.06 369.687 1274.52 368.458C1277.09 367.117 1278.82 365.051 1279.71 362.258C1280.72 359.354 1281.22 355.5 1281.22 350.696C1281.22 345.781 1280.83 341.815 1280.05 338.799C1279.38 335.671 1277.81 333.381 1275.36 331.929C1273.01 330.477 1269.27 329.751 1264.13 329.751H1254.75V370.301ZM1325.01 448.051V312.324H1358.36C1364.39 312.324 1369.81 312.883 1374.61 314C1379.53 315.117 1383.72 317.016 1387.18 319.697C1390.75 322.266 1393.49 325.785 1395.39 330.253C1397.29 334.722 1398.24 340.363 1398.24 347.177C1398.24 352.651 1397.46 357.343 1395.89 361.253C1394.44 365.163 1392.26 368.29 1389.36 370.636C1386.45 372.87 1382.82 374.379 1378.47 375.16C1383.83 376.054 1388.24 377.953 1391.7 380.858C1395.28 383.65 1397.9 387.337 1399.58 391.917C1401.37 396.497 1402.26 402.027 1402.26 408.506C1402.26 414.985 1401.42 420.738 1399.75 425.765C1398.18 430.68 1395.78 434.813 1392.54 438.165C1389.41 441.404 1385.45 443.862 1380.64 445.537C1375.95 447.213 1370.42 448.051 1364.06 448.051H1325.01ZM1349.81 430.624H1359.2C1366.68 430.624 1371.76 428.837 1374.44 425.262C1377.13 421.576 1378.47 415.934 1378.47 408.338C1378.47 402.864 1377.8 398.452 1376.46 395.101C1375.23 391.638 1373.1 389.068 1370.09 387.393C1367.18 385.717 1363.27 384.879 1358.36 384.879H1349.81V430.624ZM1349.81 367.788H1358.19C1363.11 367.788 1366.9 367.062 1369.59 365.609C1372.27 364.157 1374.11 361.923 1375.11 358.907C1376.23 355.891 1376.79 352.093 1376.79 347.512C1376.79 342.709 1375.95 339.023 1374.28 336.453C1372.71 333.772 1370.31 331.985 1367.07 331.091C1363.83 330.086 1359.7 329.583 1354.67 329.583H1349.81V367.788ZM1461.85 449.894C1452.25 449.894 1444.59 448.107 1438.9 444.532C1433.2 440.957 1429.12 435.819 1426.66 429.116C1424.21 422.414 1422.98 414.482 1422.98 405.322V354.55C1422.98 345.39 1424.21 337.57 1426.66 331.091C1429.12 324.5 1433.2 319.473 1438.9 316.01C1444.59 312.547 1452.25 310.816 1461.85 310.816C1471.68 310.816 1479.39 312.547 1484.98 316.01C1490.67 319.473 1494.75 324.5 1497.21 331.091C1499.78 337.57 1501.06 345.39 1501.06 354.55V405.49C1501.06 414.538 1499.78 422.414 1497.21 429.116C1494.75 435.707 1490.67 440.846 1484.98 444.532C1479.39 448.107 1471.68 449.894 1461.85 449.894ZM1461.85 431.63C1465.99 431.63 1469 430.736 1470.9 428.949C1472.91 427.161 1474.25 424.704 1474.92 421.576C1475.59 418.448 1475.93 415.041 1475.93 411.354V348.853C1475.93 345.055 1475.59 341.648 1474.92 338.632C1474.25 335.615 1472.91 333.27 1470.9 331.594C1469 329.807 1465.99 328.913 1461.85 328.913C1457.94 328.913 1454.98 329.807 1452.97 331.594C1450.96 333.27 1449.62 335.615 1448.95 338.632C1448.28 341.648 1447.94 345.055 1447.94 348.853V411.354C1447.94 415.041 1448.22 418.448 1448.78 421.576C1449.45 424.704 1450.79 427.161 1452.8 428.949C1454.81 430.736 1457.83 431.63 1461.85 431.63ZM1562.97 449.894C1553.37 449.894 1545.71 448.107 1540.02 444.532C1534.32 440.957 1530.24 435.819 1527.79 429.116C1525.33 422.414 1524.1 414.482 1524.1 405.322V354.55C1524.1 345.39 1525.33 337.57 1527.79 331.091C1530.24 324.5 1534.32 319.473 1540.02 316.01C1545.71 312.547 1553.37 310.816 1562.97 310.816C1572.8 310.816 1580.51 312.547 1586.1 316.01C1591.79 319.473 1595.87 324.5 1598.33 331.091C1600.9 337.57 1602.18 345.39 1602.18 354.55V405.49C1602.18 414.538 1600.9 422.414 1598.33 429.116C1595.87 435.707 1591.79 440.846 1586.1 444.532C1580.51 448.107 1572.8 449.894 1562.97 449.894ZM1562.97 431.63C1567.11 431.63 1570.12 430.736 1572.02 428.949C1574.03 427.161 1575.37 424.704 1576.04 421.576C1576.71 418.448 1577.05 415.041 1577.05 411.354V348.853C1577.05 345.055 1576.71 341.648 1576.04 338.632C1575.37 335.615 1574.03 333.27 1572.02 331.594C1570.12 329.807 1567.11 328.913 1562.97 328.913C1559.06 328.913 1556.1 329.807 1554.09 331.594C1552.08 333.27 1550.74 335.615 1550.07 338.632C1549.4 341.648 1549.07 345.055 1549.07 348.853V411.354C1549.07 415.041 1549.34 418.448 1549.9 421.576C1550.57 424.704 1551.91 427.161 1553.92 428.949C1555.94 430.736 1558.95 431.63 1562.97 431.63ZM1640.8 448.051V330.589H1619.19V312.324H1686.88V330.589H1665.6V448.051H1640.8ZM1706.27 448.051V312.324H1730.9V369.296H1735.93L1757.88 312.324H1782.51L1756.7 376.333L1784.52 448.051H1759.39L1735.93 385.549H1730.9V448.051H1706.27ZM1803.29 448.051V312.324H1843.17C1851.33 312.324 1857.92 313.832 1862.94 316.848C1868.08 319.864 1871.82 324.277 1874.17 330.086C1876.63 335.783 1877.86 342.709 1877.86 350.864C1877.86 359.689 1876.35 366.838 1873.33 372.312C1870.32 377.674 1866.07 381.584 1860.6 384.041C1855.23 386.499 1848.87 387.728 1841.49 387.728H1828.09V448.051H1803.29ZM1828.09 370.301H1837.47C1841.94 370.301 1845.4 369.687 1847.86 368.458C1850.43 367.117 1852.16 365.051 1853.06 362.258C1854.06 359.354 1854.56 355.5 1854.56 350.696C1854.56 345.781 1854.17 341.815 1853.39 338.799C1852.72 335.671 1851.16 333.381 1848.7 331.929C1846.35 330.477 1842.61 329.751 1837.47 329.751H1828.09V370.301ZM1898.69 448.051V312.324H1923.32V369.296H1929.36C1938.63 369.296 1946.34 370.58 1952.48 373.15C1958.62 375.607 1963.26 379.741 1966.39 385.549C1969.52 391.247 1971.08 398.955 1971.08 408.673C1971.08 416.27 1970.07 422.637 1968.06 427.776C1966.16 432.802 1963.37 436.824 1959.68 439.84C1956 442.856 1951.53 444.979 1946.28 446.208C1941.03 447.436 1935.05 448.051 1928.35 448.051H1898.69ZM1923.32 431.294H1928.52C1933.21 431.294 1937.01 430.624 1939.91 429.284C1942.82 427.943 1944.94 425.597 1946.28 422.246C1947.62 418.783 1948.23 414.091 1948.12 408.171C1948.12 401.133 1946.73 395.771 1943.93 392.084C1941.14 388.398 1935.89 386.555 1928.18 386.555H1923.32V431.294ZM1983.81 448.051V312.324H2008.45V448.051H1983.81ZM2035.97 448.051V312.324H2069.31C2075.35 312.324 2080.76 312.883 2085.57 314C2090.48 315.117 2094.67 317.016 2098.13 319.697C2101.71 322.266 2104.45 325.785 2106.35 330.253C2108.24 334.722 2109.19 340.363 2109.19 347.177C2109.19 352.651 2108.41 357.343 2106.85 361.253C2105.4 365.163 2103.22 368.29 2100.31 370.636C2097.41 372.87 2093.78 374.379 2089.42 375.16C2094.78 376.054 2099.2 377.953 2102.66 380.858C2106.23 383.65 2108.86 387.337 2110.53 391.917C2112.32 396.497 2113.22 402.027 2113.22 408.506C2113.22 414.985 2112.38 420.738 2110.7 425.765C2109.14 430.68 2106.74 434.813 2103.5 438.165C2100.37 441.404 2096.4 443.862 2091.6 445.537C2086.91 447.213 2081.38 448.051 2075.01 448.051H2035.97ZM2060.77 430.624H2070.15C2077.64 430.624 2082.72 428.837 2085.4 425.262C2088.08 421.576 2089.42 415.934 2089.42 408.338C2089.42 402.864 2088.75 398.452 2087.41 395.101C2086.18 391.638 2084.06 389.068 2081.04 387.393C2078.14 385.717 2074.23 384.879 2069.31 384.879H2060.77V430.624ZM2060.77 367.788H2069.15C2074.06 367.788 2077.86 367.062 2080.54 365.609C2083.22 364.157 2085.06 361.923 2086.07 358.907C2087.19 355.891 2087.75 352.093 2087.75 347.512C2087.75 342.709 2086.91 339.023 2085.23 336.453C2083.67 333.772 2081.27 331.985 2078.03 331.091C2074.79 330.086 2070.65 329.583 2065.63 329.583H2060.77V367.788ZM2129.07 448.051L2156.22 312.324H2182.69L2209.84 448.051H2186.88L2181.52 416.716H2157.89L2152.36 448.051H2129.07ZM2160.41 400.965H2178.84L2169.62 343.994L2160.41 400.965ZM2240.49 448.051V330.589H2218.88V312.324H2286.57V330.589H2265.29V448.051H2240.49ZM2305.62 448.051V312.324H2362.59V329.751H2330.42V368.793H2355.72V386.052H2330.42V430.959H2362.93V448.051H2305.62ZM2374.61 448.051V430.289C2377.74 430.401 2380.37 430.233 2382.49 429.786C2384.72 429.228 2386.57 428.055 2388.02 426.267C2389.58 424.48 2390.87 421.743 2391.87 418.057C2392.88 414.259 2393.72 409.176 2394.39 402.809C2395.06 396.441 2395.78 388.342 2396.56 378.512L2400.92 312.324H2466.94V448.051H2442.31V330.924H2422.87L2419.86 381.528C2419.19 391.47 2418.4 400.239 2417.51 407.835C2416.73 415.432 2415.44 421.911 2413.66 427.273C2411.98 432.523 2409.58 436.768 2406.45 440.008C2403.32 443.247 2399.19 445.537 2394.05 446.878C2388.91 448.107 2382.43 448.498 2374.61 448.051ZM2494.94 448.051V312.324H2519.58V369.296H2525.61C2534.77 369.296 2542.42 370.58 2548.56 373.15C2554.71 375.607 2559.34 379.741 2562.47 385.549C2565.6 391.247 2567.16 398.955 2567.16 408.673C2567.16 416.27 2566.21 422.637 2564.32 427.776C2562.42 432.802 2559.57 436.824 2555.77 439.84C2552.08 442.856 2547.61 444.979 2542.36 446.208C2537.11 447.436 2531.19 448.051 2524.6 448.051H2494.94ZM2519.58 431.294H2524.6C2529.41 431.294 2533.2 430.624 2536 429.284C2538.9 427.943 2541.02 425.597 2542.36 422.246C2543.71 418.783 2544.38 414.091 2544.38 408.171C2544.26 401.133 2542.81 395.771 2540.02 392.084C2537.34 388.398 2532.09 386.555 2524.27 386.555H2519.58V431.294Z" fill="#F4F4F4"/>
<path d="M0.219443 696.102V560.375H78.4718V696.102H54.0074V577.969H24.6838V696.102H0.219443ZM105.595 696.102V560.375H162.567V577.802H130.394V616.844H155.696V634.103H130.394V679.01H162.902V696.102H105.595ZM183.97 696.102V560.375H223.85C232.005 560.375 238.596 561.883 243.623 564.899C248.762 567.915 252.504 572.328 254.85 578.137C257.307 583.834 258.536 590.76 258.536 598.915C258.536 607.74 257.028 614.889 254.012 620.363C250.996 625.725 246.751 629.635 241.277 632.092C235.915 634.55 229.548 635.779 222.175 635.779H208.77V696.102H183.97ZM208.77 618.352H218.153C222.622 618.352 226.085 617.738 228.542 616.509C231.112 615.168 232.843 613.102 233.737 610.309C234.742 607.405 235.245 603.551 235.245 598.747C235.245 593.832 234.854 589.866 234.072 586.85C233.402 583.722 231.838 581.432 229.38 579.98C227.034 578.528 223.292 577.802 218.153 577.802H208.77V618.352ZM279.037 696.102V560.375H312.382C318.414 560.375 323.832 560.934 328.635 562.051C333.551 563.168 337.74 565.067 341.203 567.748C344.777 570.317 347.514 573.836 349.413 578.304C351.312 582.773 352.262 588.414 352.262 595.228C352.262 600.702 351.48 605.394 349.916 609.304C348.464 613.214 346.286 616.341 343.381 618.687C340.477 620.921 336.846 622.43 332.489 623.212C337.851 624.105 342.264 626.004 345.727 628.909C349.302 631.701 351.927 635.388 353.602 639.968C355.39 644.548 356.283 650.078 356.283 656.557C356.283 663.036 355.446 668.789 353.77 673.816C352.206 678.731 349.804 682.864 346.565 686.216C343.437 689.455 339.471 691.913 334.668 693.588C329.976 695.264 324.446 696.102 318.079 696.102H279.037ZM303.836 678.675H313.22C320.704 678.675 325.787 676.888 328.468 673.313C331.149 669.627 332.489 663.985 332.489 656.389C332.489 650.915 331.819 646.503 330.479 643.152C329.25 639.689 327.127 637.119 324.111 635.444C321.207 633.768 317.297 632.93 312.382 632.93H303.836V678.675ZM303.836 615.839H312.214C317.129 615.839 320.928 615.113 323.609 613.66C326.29 612.208 328.133 609.974 329.138 606.958C330.255 603.942 330.814 600.144 330.814 595.563C330.814 590.76 329.976 587.074 328.3 584.504C326.736 581.823 324.335 580.036 321.095 579.142C317.856 578.137 313.722 577.634 308.695 577.634H303.836V615.839ZM415.876 697.945C406.269 697.945 398.617 696.158 392.92 692.583C387.223 689.008 383.145 683.87 380.688 677.167C378.23 670.465 377.001 662.533 377.001 653.373V602.601C377.001 593.441 378.23 585.621 380.688 579.142C383.145 572.551 387.223 567.524 392.92 564.061C398.617 560.598 406.269 558.867 415.876 558.867C425.706 558.867 433.414 560.598 439 564.061C444.697 567.524 448.774 572.551 451.232 579.142C453.801 585.621 455.086 593.441 455.086 602.601V653.541C455.086 662.589 453.801 670.465 451.232 677.167C448.774 683.758 444.697 688.897 439 692.583C433.414 696.158 425.706 697.945 415.876 697.945ZM415.876 679.681C420.009 679.681 423.025 678.787 424.924 677C426.935 675.212 428.276 672.755 428.946 669.627C429.616 666.499 429.951 663.092 429.951 659.405V596.904C429.951 593.106 429.616 589.699 428.946 586.683C428.276 583.666 426.935 581.321 424.924 579.645C423.025 577.858 420.009 576.964 415.876 576.964C411.966 576.964 409.006 577.858 406.995 579.645C404.984 581.321 403.644 583.666 402.974 586.683C402.303 589.699 401.968 593.106 401.968 596.904V659.405C401.968 663.092 402.247 666.499 402.806 669.627C403.476 672.755 404.817 675.212 406.828 677C408.838 678.787 411.854 679.681 415.876 679.681ZM516.997 697.945C507.39 697.945 499.738 696.158 494.041 692.583C488.343 689.008 484.266 683.87 481.808 677.167C479.351 670.465 478.122 662.533 478.122 653.373V602.601C478.122 593.441 479.351 585.621 481.808 579.142C484.266 572.551 488.343 567.524 494.041 564.061C499.738 560.598 507.39 558.867 516.997 558.867C526.827 558.867 534.535 560.598 540.121 564.061C545.818 567.524 549.895 572.551 552.353 579.142C554.922 585.621 556.207 593.441 556.207 602.601V653.541C556.207 662.589 554.922 670.465 552.353 677.167C549.895 683.758 545.818 688.897 540.121 692.583C534.535 696.158 526.827 697.945 516.997 697.945ZM516.997 679.681C521.13 679.681 524.146 678.787 526.045 677C528.056 675.212 529.397 672.755 530.067 669.627C530.737 666.499 531.072 663.092 531.072 659.405V596.904C531.072 593.106 530.737 589.699 530.067 586.683C529.397 583.666 528.056 581.321 526.045 579.645C524.146 577.858 521.13 576.964 516.997 576.964C513.087 576.964 510.127 577.858 508.116 579.645C506.105 581.321 504.765 583.666 504.094 586.683C503.424 589.699 503.089 593.106 503.089 596.904V659.405C503.089 663.092 503.368 666.499 503.927 669.627C504.597 672.755 505.938 675.212 507.948 677C509.959 678.787 512.975 679.681 516.997 679.681ZM594.826 696.102V578.64H573.211V560.375H640.906V578.64H619.626V696.102H594.826ZM660.291 696.102V560.375H684.923V617.347H689.95L711.901 560.375H736.533L710.728 624.384L738.544 696.102H713.409L689.95 633.6H684.923V696.102H660.291ZM757.313 696.102V560.375H797.194C805.348 560.375 811.939 561.883 816.966 564.899C822.105 567.915 825.847 572.328 828.193 578.137C830.651 583.834 831.879 590.76 831.879 598.915C831.879 607.74 830.371 614.889 827.355 620.363C824.339 625.725 820.094 629.635 814.62 632.092C809.258 634.55 802.891 635.779 795.518 635.779H782.113V696.102H757.313ZM782.113 618.352H791.497C795.965 618.352 799.428 617.738 801.885 616.509C804.455 615.168 806.186 613.102 807.08 610.309C808.085 607.405 808.588 603.551 808.588 598.747C808.588 593.832 808.197 589.866 807.415 586.85C806.745 583.722 805.181 581.432 802.723 579.98C800.377 578.528 796.635 577.802 791.497 577.802H782.113V618.352ZM852.715 696.102V560.375H877.347V617.347H883.379C892.651 617.347 900.359 618.631 906.503 621.201C912.647 623.658 917.283 627.792 920.411 633.6C923.539 639.298 925.103 647.006 925.103 656.724C925.103 664.321 924.097 670.688 922.086 675.827C920.187 680.853 917.395 684.875 913.708 687.891C910.022 690.907 905.553 693.03 900.303 694.259C895.053 695.487 889.076 696.102 882.374 696.102H852.715ZM877.347 679.345H882.541C887.233 679.345 891.031 678.675 893.936 677.335C896.84 675.994 898.963 673.648 900.303 670.297C901.644 666.834 902.258 662.142 902.146 656.222C902.146 649.184 900.75 643.822 897.957 640.135C895.164 636.449 889.914 634.606 882.206 634.606H877.347V679.345ZM937.837 696.102V560.375H962.469V696.102H937.837ZM989.992 696.102V560.375H1023.34C1029.37 560.375 1034.79 560.934 1039.59 562.051C1044.51 563.168 1048.69 565.067 1052.16 567.748C1055.73 570.317 1058.47 573.836 1060.37 578.304C1062.27 582.773 1063.22 588.414 1063.22 595.228C1063.22 600.702 1062.44 605.394 1060.87 609.304C1059.42 613.214 1057.24 616.341 1054.34 618.687C1051.43 620.921 1047.8 622.43 1043.44 623.212C1048.81 624.105 1053.22 626.004 1056.68 628.909C1060.26 631.701 1062.88 635.388 1064.56 639.968C1066.34 644.548 1067.24 650.078 1067.24 656.557C1067.24 663.036 1066.4 668.789 1064.73 673.816C1063.16 678.731 1060.76 682.864 1057.52 686.216C1054.39 689.455 1050.43 691.913 1045.62 693.588C1040.93 695.264 1035.4 696.102 1029.03 696.102H989.992ZM1014.79 678.675H1024.17C1031.66 678.675 1036.74 676.888 1039.42 673.313C1042.1 669.627 1043.44 663.985 1043.44 656.389C1043.44 650.915 1042.77 646.503 1041.43 643.152C1040.2 639.689 1038.08 637.119 1035.07 635.444C1032.16 633.768 1028.25 632.93 1023.34 632.93H1014.79V678.675ZM1014.79 615.839H1023.17C1028.08 615.839 1031.88 615.113 1034.56 613.66C1037.24 612.208 1039.09 609.974 1040.09 606.958C1041.21 603.942 1041.77 600.144 1041.77 595.563C1041.77 590.76 1040.93 587.074 1039.26 584.504C1037.69 581.823 1035.29 580.036 1032.05 579.142C1028.81 578.137 1024.68 577.634 1019.65 577.634H1014.79V615.839ZM1083.1 696.102L1110.24 560.375H1136.72L1163.86 696.102H1140.91L1135.54 664.767H1111.92L1106.39 696.102H1083.1ZM1114.43 649.016H1132.86L1123.65 592.045L1114.43 649.016ZM1194.52 696.102V578.64H1172.9V560.375H1240.6V578.64H1219.31V696.102H1194.52ZM1259.65 696.102V560.375H1316.62V577.802H1284.44V616.844H1309.75V634.103H1284.44V679.01H1316.95V696.102H1259.65ZM1328.64 696.102V678.34C1331.76 678.452 1334.39 678.284 1336.51 677.837C1338.75 677.279 1340.59 676.106 1342.04 674.319C1343.61 672.531 1344.89 669.794 1345.9 666.108C1346.9 662.31 1347.74 657.227 1348.41 650.86C1349.08 644.492 1349.81 636.393 1350.59 626.563L1354.94 560.375H1420.96V696.102H1396.33V578.975H1376.9L1373.88 629.579C1373.21 639.521 1372.43 648.29 1371.53 655.886C1370.75 663.483 1369.47 669.962 1367.68 675.324C1366 680.574 1363.6 684.819 1360.47 688.059C1357.35 691.298 1353.21 693.588 1348.07 694.929C1342.94 696.158 1336.46 696.549 1328.64 696.102ZM1448.97 696.102V560.375H1473.6V617.347H1479.63C1488.79 617.347 1496.44 618.631 1502.59 621.201C1508.73 623.658 1513.37 627.792 1516.5 633.6C1519.62 639.298 1521.19 647.006 1521.19 656.724C1521.19 664.321 1520.24 670.688 1518.34 675.827C1516.44 680.853 1513.59 684.875 1509.79 687.891C1506.11 690.907 1501.64 693.03 1496.39 694.259C1491.14 695.487 1485.22 696.102 1478.63 696.102H1448.97ZM1473.6 679.345H1478.63C1483.43 679.345 1487.23 678.675 1490.02 677.335C1492.93 675.994 1495.05 673.648 1496.39 670.297C1497.73 666.834 1498.4 662.142 1498.4 656.222C1498.29 649.184 1496.83 643.822 1494.04 640.135C1491.36 636.449 1486.11 634.606 1478.29 634.606H1473.6V679.345Z" fill="#F4F4F4"/>
<path d="M1582.19 696.102V560.375H1660.45V696.102H1635.98V577.969H1606.66V696.102H1582.19ZM1687.57 696.102V560.375H1744.54V577.802H1712.37V616.844H1737.67V634.103H1712.37V679.01H1744.88V696.102H1687.57ZM1765.94 696.102V560.375H1805.83C1813.98 560.375 1820.57 561.883 1825.6 564.899C1830.74 567.915 1834.48 572.328 1836.82 578.137C1839.28 583.834 1840.51 590.76 1840.51 598.915C1840.51 607.74 1839 614.889 1835.99 620.363C1832.97 625.725 1828.73 629.635 1823.25 632.092C1817.89 634.55 1811.52 635.779 1804.15 635.779H1790.74V696.102H1765.94ZM1790.74 618.352H1800.13C1804.6 618.352 1808.06 617.738 1810.52 616.509C1813.09 615.168 1814.82 613.102 1815.71 610.309C1816.72 607.405 1817.22 603.551 1817.22 598.747C1817.22 593.832 1816.83 589.866 1816.05 586.85C1815.38 583.722 1813.81 581.432 1811.35 579.98C1809.01 578.528 1805.27 577.802 1800.13 577.802H1790.74V618.352ZM1861.01 696.102V560.375H1894.36C1900.39 560.375 1905.81 560.934 1910.61 562.051C1915.53 563.168 1919.71 565.067 1923.18 567.748C1926.75 570.317 1929.49 573.836 1931.39 578.304C1933.29 582.773 1934.24 588.414 1934.24 595.228C1934.24 600.702 1933.45 605.394 1931.89 609.304C1930.44 613.214 1928.26 616.341 1925.36 618.687C1922.45 620.921 1918.82 622.43 1914.46 623.212C1919.83 624.105 1924.24 626.004 1927.7 628.909C1931.28 631.701 1933.9 635.388 1935.58 639.968C1937.36 644.548 1938.26 650.078 1938.26 656.557C1938.26 663.036 1937.42 668.789 1935.74 673.816C1934.18 678.731 1931.78 682.864 1928.54 686.216C1925.41 689.455 1921.45 691.913 1916.64 693.588C1911.95 695.264 1906.42 696.102 1900.05 696.102H1861.01ZM1885.81 678.675H1895.19C1902.68 678.675 1907.76 676.888 1910.44 673.313C1913.12 669.627 1914.46 663.985 1914.46 656.389C1914.46 650.915 1913.79 646.503 1912.45 643.152C1911.22 639.689 1909.1 637.119 1906.09 635.444C1903.18 633.768 1899.27 632.93 1894.36 632.93H1885.81V678.675ZM1885.81 615.839H1894.19C1899.1 615.839 1902.9 615.113 1905.58 613.66C1908.26 612.208 1910.11 609.974 1911.11 606.958C1912.23 603.942 1912.79 600.144 1912.79 595.563C1912.79 590.76 1911.95 587.074 1910.27 584.504C1908.71 581.823 1906.31 580.036 1903.07 579.142C1899.83 578.137 1895.7 577.634 1890.67 577.634H1885.81V615.839ZM1997.85 697.945C1988.24 697.945 1980.59 696.158 1974.89 692.583C1969.2 689.008 1965.12 683.87 1962.66 677.167C1960.2 670.465 1958.98 662.533 1958.98 653.373V602.601C1958.98 593.441 1960.2 585.621 1962.66 579.142C1965.12 572.551 1969.2 567.524 1974.89 564.061C1980.59 560.598 1988.24 558.867 1997.85 558.867C2007.68 558.867 2015.39 560.598 2020.97 564.061C2026.67 567.524 2030.75 572.551 2033.21 579.142C2035.78 585.621 2037.06 593.441 2037.06 602.601V653.541C2037.06 662.589 2035.78 670.465 2033.21 677.167C2030.75 683.758 2026.67 688.897 2020.97 692.583C2015.39 696.158 2007.68 697.945 1997.85 697.945ZM1997.85 679.681C2001.98 679.681 2005 678.787 2006.9 677C2008.91 675.212 2010.25 672.755 2010.92 669.627C2011.59 666.499 2011.93 663.092 2011.93 659.405V596.904C2011.93 593.106 2011.59 589.699 2010.92 586.683C2010.25 583.666 2008.91 581.321 2006.9 579.645C2005 577.858 2001.98 576.964 1997.85 576.964C1993.94 576.964 1990.98 577.858 1988.97 579.645C1986.96 581.321 1985.62 583.666 1984.95 586.683C1984.28 589.699 1983.94 593.106 1983.94 596.904V659.405C1983.94 663.092 1984.22 666.499 1984.78 669.627C1985.45 672.755 1986.79 675.212 1988.8 677C1990.81 678.787 1993.83 679.681 1997.85 679.681ZM2098.97 697.945C2089.36 697.945 2081.71 696.158 2076.02 692.583C2070.32 689.008 2066.24 683.87 2063.78 677.167C2061.33 670.465 2060.1 662.533 2060.1 653.373V602.601C2060.1 593.441 2061.33 585.621 2063.78 579.142C2066.24 572.551 2070.32 567.524 2076.02 564.061C2081.71 560.598 2089.36 558.867 2098.97 558.867C2108.8 558.867 2116.51 560.598 2122.1 564.061C2127.79 567.524 2131.87 572.551 2134.33 579.142C2136.9 585.621 2138.18 593.441 2138.18 602.601V653.541C2138.18 662.589 2136.9 670.465 2134.33 677.167C2131.87 683.758 2127.79 688.897 2122.1 692.583C2116.51 696.158 2108.8 697.945 2098.97 697.945ZM2098.97 679.681C2103.1 679.681 2106.12 678.787 2108.02 677C2110.03 675.212 2111.37 672.755 2112.04 669.627C2112.71 666.499 2113.05 663.092 2113.05 659.405V596.904C2113.05 593.106 2112.71 589.699 2112.04 586.683C2111.37 583.666 2110.03 581.321 2108.02 579.645C2106.12 577.858 2103.1 576.964 2098.97 576.964C2095.06 576.964 2092.1 577.858 2090.09 579.645C2088.08 581.321 2086.74 583.666 2086.07 586.683C2085.4 589.699 2085.06 593.106 2085.06 596.904V659.405C2085.06 663.092 2085.34 666.499 2085.9 669.627C2086.57 672.755 2087.91 675.212 2089.92 677C2091.93 678.787 2094.95 679.681 2098.97 679.681ZM2176.8 696.102V578.64H2155.19V560.375H2222.88V578.64H2201.6V696.102H2176.8ZM2242.27 696.102V560.375H2266.9V617.347H2271.92L2293.88 560.375H2318.51L2292.7 624.384L2320.52 696.102H2295.38L2271.92 633.6H2266.9V696.102H2242.27ZM2339.29 696.102V560.375H2379.17C2387.32 560.375 2393.91 561.883 2398.94 564.899C2404.08 567.915 2407.82 572.328 2410.17 578.137C2412.63 583.834 2413.85 590.76 2413.85 598.915C2413.85 607.74 2412.35 614.889 2409.33 620.363C2406.31 625.725 2402.07 629.635 2396.59 632.092C2391.23 634.55 2384.87 635.779 2377.49 635.779H2364.09V696.102H2339.29ZM2364.09 618.352H2373.47C2377.94 618.352 2381.4 617.738 2383.86 616.509C2386.43 615.168 2388.16 613.102 2389.05 610.309C2390.06 607.405 2390.56 603.551 2390.56 598.747C2390.56 593.832 2390.17 589.866 2389.39 586.85C2388.72 583.722 2387.16 581.432 2384.7 579.98C2382.35 578.528 2378.61 577.802 2373.47 577.802H2364.09V618.352ZM2434.69 696.102V560.375H2459.32V617.347H2465.35C2474.63 617.347 2482.33 618.631 2488.48 621.201C2494.62 623.658 2499.26 627.792 2502.39 633.6C2505.51 639.298 2507.08 647.006 2507.08 656.724C2507.08 664.321 2506.07 670.688 2504.06 675.827C2502.16 680.853 2499.37 684.875 2495.68 687.891C2492 690.907 2487.53 693.03 2482.28 694.259C2477.03 695.487 2471.05 696.102 2464.35 696.102H2434.69ZM2459.32 679.345H2464.52C2469.21 679.345 2473.01 678.675 2475.91 677.335C2478.81 675.994 2480.94 673.648 2482.28 670.297C2483.62 666.834 2484.23 662.142 2484.12 656.222C2484.12 649.184 2482.72 643.822 2479.93 640.135C2477.14 636.449 2471.89 634.606 2464.18 634.606H2459.32V679.345ZM2519.81 696.102V560.375H2544.44V696.102H2519.81ZM2571.97 696.102V560.375H2605.31C2611.34 560.375 2616.76 560.934 2621.57 562.051C2626.48 563.168 2630.67 565.067 2634.13 567.748C2637.71 570.317 2640.44 573.836 2642.34 578.304C2644.24 582.773 2645.19 588.414 2645.19 595.228C2645.19 600.702 2644.41 605.394 2642.85 609.304C2641.39 613.214 2639.22 616.341 2636.31 618.687C2633.41 620.921 2629.78 622.43 2625.42 623.212C2630.78 624.105 2635.19 626.004 2638.66 628.909C2642.23 631.701 2644.86 635.388 2646.53 639.968C2648.32 644.548 2649.21 650.078 2649.21 656.557C2649.21 663.036 2648.38 668.789 2646.7 673.816C2645.14 678.731 2642.73 682.864 2639.49 686.216C2636.37 689.455 2632.4 691.913 2627.6 693.588C2622.91 695.264 2617.38 696.102 2611.01 696.102H2571.97ZM2596.77 678.675H2606.15C2613.63 678.675 2618.72 676.888 2621.4 673.313C2624.08 669.627 2625.42 663.985 2625.42 656.389C2625.42 650.915 2624.75 646.503 2623.41 643.152C2622.18 639.689 2620.06 637.119 2617.04 635.444C2614.14 633.768 2610.23 632.93 2605.31 632.93H2596.77V678.675ZM2596.77 615.839H2605.14C2610.06 615.839 2613.86 615.113 2616.54 613.66C2619.22 612.208 2621.06 609.974 2622.07 606.958C2623.18 603.942 2623.74 600.144 2623.74 595.563C2623.74 590.76 2622.91 587.074 2621.23 584.504C2619.67 581.823 2617.26 580.036 2614.02 579.142C2610.79 578.137 2606.65 577.634 2601.63 577.634H2596.77V615.839ZM2665.07 696.102L2692.22 560.375H2718.69L2745.84 696.102H2722.88L2717.52 664.767H2693.89L2688.36 696.102H2665.07ZM2696.41 649.016H2714.84L2705.62 592.045L2696.41 649.016ZM2776.49 696.102V578.64H2754.87V560.375H2822.57V578.64H2801.29V696.102H2776.49ZM2841.62 696.102V560.375H2898.59V577.802H2866.42V616.844H2891.72V634.103H2866.42V679.01H2898.93V696.102H2841.62ZM2910.61 696.102V678.34C2913.74 678.452 2916.36 678.284 2918.49 677.837C2920.72 677.279 2922.56 676.106 2924.02 674.319C2925.58 672.531 2926.87 669.794 2927.87 666.108C2928.88 662.31 2929.71 657.227 2930.38 650.86C2931.05 644.492 2931.78 636.393 2932.56 626.563L2936.92 560.375H3002.94V696.102H2978.31V578.975H2958.87L2955.85 629.579C2955.18 639.521 2954.4 648.29 2953.51 655.886C2952.73 663.483 2951.44 669.962 2949.65 675.324C2947.98 680.574 2945.58 684.819 2942.45 688.059C2939.32 691.298 2935.19 693.588 2930.05 694.929C2924.91 696.158 2918.43 696.549 2910.61 696.102ZM3030.94 696.102V560.375H3055.57V617.347H3061.61C3070.77 617.347 3078.42 618.631 3084.56 621.201C3090.71 623.658 3095.34 627.792 3098.47 633.6C3101.6 639.298 3103.16 647.006 3103.16 656.724C3103.16 664.321 3102.21 670.688 3100.31 675.827C3098.41 680.853 3095.57 684.875 3091.77 687.891C3088.08 690.907 3083.61 693.03 3078.36 694.259C3073.11 695.487 3067.19 696.102 3060.6 696.102H3030.94ZM3055.57 679.345H3060.6C3065.4 679.345 3069.2 678.675 3072 677.335C3074.9 675.994 3077.02 673.648 3078.36 670.297C3079.7 666.834 3080.37 662.142 3080.37 656.222C3080.26 649.184 3078.81 643.822 3076.02 640.135C3073.34 636.449 3068.09 634.606 3060.27 634.606H3055.57V679.345Z" fill="#F4F4F4"/>
</svg>
