<svg width="32" height="27" viewBox="0 0 32 27" fill="none" xmlns="http://www.w3.org/2000/svg">
<path fill-rule="evenodd" clip-rule="evenodd" d="M29.4112 0.844508C29.1627 0.934966 22.7055 3.41269 15.0617 6.35059C6.50105 9.64091 1.10135 11.7513 1.00083 11.8461C0.786299 12.0483 0.670415 12.4515 0.732076 12.7812C0.837742 13.3462 0.875976 13.3641 4.88236 14.7213C7.94665 15.7593 8.56605 15.9485 8.68756 15.8832C8.76737 15.8404 9.65419 15.3 10.6583 14.6824C11.6624 14.0648 15.4535 11.7392 19.0831 9.51419C25.8531 5.36406 25.9006 5.33777 25.9006 5.73824C25.9006 5.82284 23.663 7.93574 19.5931 11.6943C16.1239 14.898 13.2108 17.5974 13.1196 17.693C12.9571 17.8633 12.9491 17.9334 12.722 21.1947C12.5589 23.536 12.5103 24.5802 12.5582 24.7167C12.6385 24.9456 12.945 25.1139 13.1582 25.0461C13.241 25.0196 14.2168 24.1075 15.3265 23.0191C16.4362 21.9307 17.3702 21.0402 17.4021 21.0402C17.4339 21.0402 19.0777 22.2708 21.0547 23.775C23.0318 25.2791 24.7588 26.5679 24.8927 26.639C25.4179 26.9182 26.1881 26.6982 26.5523 26.1648C26.6701 25.9923 27.2896 23.2783 29.2746 14.2378C30.6879 7.80071 31.8443 2.44109 31.8443 2.32741C31.8443 1.91006 31.6798 1.55123 31.3253 1.1956C30.7781 0.646644 30.2308 0.546282 29.4112 0.844508Z" fill="#545753"/>
</svg>
