<svg width="38" height="26" viewBox="0 0 38 26" fill="none" xmlns="http://www.w3.org/2000/svg">
<path fill-rule="evenodd" clip-rule="evenodd" d="M1.9258 0.904648C5.37651 4.26449 18.6129 15.6423 19.0709 15.6423C19.5485 15.6423 31.9927 4.92212 35.8214 1.21228C37.0431 0.0286774 36.6454 0 19.0347 0C3.62705 0 1.13226 0.131656 1.9258 0.904648ZM0 13.0353C0 24.3212 0.0507458 24.8035 1.15193 23.9895C3.62452 22.1619 13.3208 13.4335 13.3208 13.0353C13.3208 12.637 3.62452 3.90863 1.15193 2.08108C0.0507458 1.26703 0 1.74933 0 13.0353ZM31.3989 6.85721C27.9102 9.95439 25.0557 12.7342 25.0557 13.0353C25.0557 13.3364 27.9102 16.1162 31.3989 19.2133L37.7421 24.8439L37.9248 18.9396C38.0251 15.6925 38.0251 10.378 37.9248 7.13095L37.7421 1.22662L31.3989 6.85721ZM7.67783 20.0417L1.14622 25.7447L10.0883 25.9252C15.0062 26.0249 23.0462 26.0249 27.9552 25.9252L36.8814 25.7447L30.4525 20.0417C26.9168 16.9055 23.7788 14.3388 23.4788 14.3388C23.1788 14.3388 22.0547 15.0981 20.9815 16.0262L19.0297 17.7136L17.0778 16.0262C16.0046 15.0981 14.9199 14.3388 14.6681 14.3388C14.4156 14.3388 11.27 16.9055 7.67783 20.0417Z" fill="#545753"/>
</svg>
