<svg width="39" height="26" viewBox="0 0 39 26" fill="none" xmlns="http://www.w3.org/2000/svg">
<path fill-rule="evenodd" clip-rule="evenodd" d="M0.605698 3.85285C1.64074 15.2784 7.15692 22.7846 15.9168 24.689C17.3664 25.004 19.2963 25.2648 20.2064 25.2688L21.8608 25.2755V20.8755V16.4755L22.9312 16.7311C26.3477 17.5461 29.4412 20.1356 31.1831 23.6388L31.9974 25.2755H35.1033C36.9574 25.2755 38.2096 25.3191 38.2096 25.0759C38.2096 24.8515 37.6475 23.2774 36.9605 21.8323C35.6199 19.0115 32.4054 15.3383 30.3302 14.2557C29.6327 13.8916 28.9908 13.529 28.904 13.4491C28.8172 13.3697 29.9083 12.2121 31.3291 10.8764C33.254 9.06707 34.2575 7.71779 35.266 5.58147C37.4679 0.917536 37.3673 0.982624 34.0337 0.917536H31.3291L30.273 3.1289C28.7829 6.46795 25.41 9.85172 22.7487 10.6779C21.8931 10.9438 21.9694 10.8999 21.8608 6.0315V0.917536H18.9413L15.9324 0.880371V9.38572C15.8304 17.6355 15.8043 17.8843 15.0487 17.7585C13.7171 17.5369 11.3368 15.6154 10.0888 13.7546C8.39982 11.2365 7.53528 8.65937 6.98253 4.49375L6.50257 0.880371H3.42626H0.350342L0.605698 3.85285Z" fill="#545753"/>
</svg>
