<svg width="2560" height="716" viewBox="0 0 2560 716" fill="none" xmlns="http://www.w3.org/2000/svg">
<path d="M-116 171V35.2733H-37.748V171H-62.2123V52.8675H-91.536V171H-116ZM-10.6249 171V35.2733H46.3468V52.6999H14.1746V91.7423H39.4767V109.001H14.1746V153.908H46.682V171H-10.6249ZM67.7505 171V35.2733H107.631C115.785 35.2733 122.376 36.7813 127.403 39.7975C132.542 42.8136 136.284 47.2262 138.63 53.035C141.088 58.7322 142.316 65.6582 142.316 73.813C142.316 82.638 140.808 89.7874 137.792 95.2611C134.776 100.623 130.531 104.533 125.057 106.991C119.695 109.448 113.328 110.677 105.955 110.677H92.55V171H67.7505ZM92.55 93.2504H101.934C106.402 93.2504 109.865 92.636 112.322 91.4072C114.892 90.0667 116.623 88 117.517 85.2073C118.522 82.3029 119.025 78.4489 119.025 73.6454C119.025 68.7302 118.634 64.7645 117.852 61.7484C117.182 58.6205 115.618 56.3305 113.16 54.8782C110.814 53.426 107.072 52.6999 101.934 52.6999H92.55V93.2504ZM162.817 171V35.2733H196.162C202.194 35.2733 207.612 35.8318 212.416 36.9489C217.331 38.066 221.52 39.9651 224.983 42.6461C228.558 45.2154 231.295 48.7342 233.194 53.2026C235.093 57.671 236.042 63.3123 236.042 70.1265C236.042 75.6003 235.26 80.2921 233.696 84.2019C232.244 88.1117 230.066 91.2396 227.161 93.5855C224.257 95.8197 220.626 97.3278 216.27 98.1097C221.632 99.0034 226.044 100.902 229.507 103.807C233.082 106.6 235.707 110.286 237.383 114.866C239.17 119.446 240.064 124.976 240.064 131.455C240.064 137.934 239.226 143.687 237.55 148.714C235.986 153.629 233.585 157.762 230.345 161.114C227.217 164.353 223.252 166.811 218.448 168.487C213.756 170.162 208.227 171 201.859 171H162.817ZM187.616 153.573H197C204.484 153.573 209.567 151.786 212.248 148.211C214.929 144.525 216.27 138.884 216.27 131.287C216.27 125.814 215.599 121.401 214.259 118.05C213.03 114.587 210.908 112.018 207.892 110.342C204.987 108.666 201.077 107.828 196.162 107.828H187.616V153.573ZM187.616 90.7369H195.994C200.91 90.7369 204.708 90.0108 207.389 88.5586C210.07 87.1064 211.913 84.8722 212.918 81.856C214.036 78.8399 214.594 75.0418 214.594 70.4617C214.594 65.6582 213.756 61.9718 212.081 59.4025C210.517 56.7214 208.115 54.9341 204.875 54.0404C201.636 53.035 197.503 52.5323 192.476 52.5323H187.616V90.7369ZM299.656 172.843C290.049 172.843 282.397 171.056 276.7 167.481C271.003 163.906 266.925 158.768 264.468 152.065C262.01 145.363 260.781 137.431 260.781 128.271V77.4994C260.781 68.3392 262.01 60.5196 264.468 54.0404C266.925 47.4496 271.003 42.4227 276.7 38.9597C282.397 35.4967 290.049 33.7652 299.656 33.7652C309.487 33.7652 317.195 35.4967 322.78 38.9597C328.477 42.4227 332.555 47.4496 335.012 54.0404C337.582 60.5196 338.866 68.3392 338.866 77.4994V128.439C338.866 137.487 337.582 145.363 335.012 152.065C332.555 158.656 328.477 163.795 322.78 167.481C317.195 171.056 309.487 172.843 299.656 172.843ZM299.656 154.579C303.79 154.579 306.806 153.685 308.705 151.898C310.715 150.11 312.056 147.653 312.726 144.525C313.397 141.397 313.732 137.99 313.732 134.304V71.8022C313.732 68.0041 313.397 64.5969 312.726 61.5808C312.056 58.5646 310.715 56.2188 308.705 54.5431C306.806 52.7558 303.79 51.8621 299.656 51.8621C295.746 51.8621 292.786 52.7558 290.775 54.5431C288.765 56.2188 287.424 58.5646 286.754 61.5808C286.084 64.5969 285.748 68.0041 285.748 71.8022V134.304C285.748 137.99 286.028 141.397 286.586 144.525C287.257 147.653 288.597 150.11 290.608 151.898C292.619 153.685 295.635 154.579 299.656 154.579ZM400.777 172.843C391.17 172.843 383.518 171.056 377.821 167.481C372.124 163.906 368.046 158.768 365.589 152.065C363.131 145.363 361.902 137.431 361.902 128.271V77.4994C361.902 68.3392 363.131 60.5196 365.589 54.0404C368.046 47.4496 372.124 42.4227 377.821 38.9597C383.518 35.4967 391.17 33.7652 400.777 33.7652C410.608 33.7652 418.315 35.4967 423.901 38.9597C429.598 42.4227 433.675 47.4496 436.133 54.0404C438.702 60.5196 439.987 68.3392 439.987 77.4994V128.439C439.987 137.487 438.702 145.363 436.133 152.065C433.675 158.656 429.598 163.795 423.901 167.481C418.315 171.056 410.608 172.843 400.777 172.843ZM400.777 154.579C404.91 154.579 407.927 153.685 409.826 151.898C411.836 150.11 413.177 147.653 413.847 144.525C414.517 141.397 414.852 137.99 414.852 134.304V71.8022C414.852 68.0041 414.517 64.5969 413.847 61.5808C413.177 58.5646 411.836 56.2188 409.826 54.5431C407.927 52.7558 404.91 51.8621 400.777 51.8621C396.867 51.8621 393.907 52.7558 391.896 54.5431C389.885 56.2188 388.545 58.5646 387.875 61.5808C387.204 64.5969 386.869 68.0041 386.869 71.8022V134.304C386.869 137.99 387.149 141.397 387.707 144.525C388.377 147.653 389.718 150.11 391.729 151.898C393.739 153.685 396.756 154.579 400.777 154.579ZM478.607 171V53.5377H456.991V35.2733H524.687V53.5377H503.406V171H478.607ZM544.072 171V35.2733H568.704V92.245H573.731L595.681 35.2733H620.313L594.508 99.2827L622.324 171H597.189L573.731 108.499H568.704V171H544.072ZM641.094 171V35.2733H680.974C689.129 35.2733 695.72 36.7813 700.747 39.7975C705.885 42.8136 709.627 47.2262 711.973 53.035C714.431 58.7322 715.66 65.6582 715.66 73.813C715.66 82.638 714.152 89.7874 711.135 95.2611C708.119 100.623 703.874 104.533 698.401 106.991C693.039 109.448 686.671 110.677 679.298 110.677H665.893V171H641.094ZM665.893 93.2504H675.277C679.745 93.2504 683.208 92.636 685.666 91.4072C688.235 90.0667 689.967 88 690.86 85.2073C691.866 82.3029 692.368 78.4489 692.368 73.6454C692.368 68.7302 691.977 64.7645 691.195 61.7484C690.525 58.6205 688.961 56.3305 686.504 54.8782C684.158 53.426 680.415 52.6999 675.277 52.6999H665.893V93.2504ZM736.495 171V35.2733H761.127V92.245H767.159C776.431 92.245 784.139 93.5296 790.283 96.099C796.427 98.5566 801.063 102.69 804.191 108.499C807.319 114.196 808.883 121.904 808.883 131.622C808.883 139.219 807.877 145.586 805.867 150.725C803.968 155.752 801.175 159.773 797.488 162.789C793.802 165.806 789.334 167.928 784.083 169.157C778.833 170.386 772.857 171 766.154 171H736.495ZM761.127 154.244H766.322C771.013 154.244 774.812 153.573 777.716 152.233C780.62 150.892 782.743 148.546 784.083 145.195C785.424 141.732 786.038 137.04 785.927 131.12C785.927 124.082 784.53 118.72 781.737 115.034C778.945 111.347 773.694 109.504 765.986 109.504H761.127V154.244ZM821.618 171V35.2733H846.25V171H821.618ZM873.772 171V35.2733H907.117C913.149 35.2733 918.567 35.8318 923.371 36.9489C928.286 38.066 932.475 39.9651 935.938 42.6461C939.513 45.2154 942.25 48.7342 944.149 53.2026C946.048 57.671 946.997 63.3123 946.997 70.1265C946.997 75.6003 946.215 80.2921 944.651 84.2019C943.199 88.1117 941.021 91.2396 938.116 93.5855C935.212 95.8197 931.581 97.3278 927.225 98.1097C932.587 99.0034 936.999 100.902 940.462 103.807C944.037 106.6 946.662 110.286 948.338 114.866C950.125 119.446 951.019 124.976 951.019 131.455C951.019 137.934 950.181 143.687 948.505 148.714C946.941 153.629 944.54 157.762 941.3 161.114C938.172 164.353 934.207 166.811 929.403 168.487C924.711 170.162 919.182 171 912.814 171H873.772ZM898.571 153.573H907.955C915.439 153.573 920.522 151.786 923.203 148.211C925.884 144.525 927.225 138.884 927.225 131.287C927.225 125.814 926.555 121.401 925.214 118.05C923.985 114.587 921.863 112.018 918.847 110.342C915.942 108.666 912.032 107.828 907.117 107.828H898.571V153.573ZM898.571 90.7369H906.95C911.865 90.7369 915.663 90.0108 918.344 88.5586C921.025 87.1064 922.868 84.8722 923.874 81.856C924.991 78.8399 925.549 75.0418 925.549 70.4617C925.549 65.6582 924.711 61.9718 923.036 59.4025C921.472 56.7214 919.07 54.9341 915.83 54.0404C912.591 53.035 908.458 52.5323 903.431 52.5323H898.571V90.7369ZM966.877 171L994.023 35.2733H1020.5L1047.64 171H1024.69L1019.32 139.666H995.698L990.169 171H966.877ZM998.212 123.915H1016.64L1007.43 66.9428L998.212 123.915ZM1078.3 171V53.5377H1056.68V35.2733H1124.38V53.5377H1103.09V171H1078.3ZM1143.43 171V35.2733H1200.4V52.6999H1168.22V91.7423H1193.53V109.001H1168.22V153.908H1200.73V171H1143.43ZM1212.42 171V153.238C1215.55 153.35 1218.17 153.182 1220.29 152.736C1222.53 152.177 1224.37 151.004 1225.82 149.217C1227.39 147.429 1228.67 144.692 1229.68 141.006C1230.68 137.208 1231.52 132.125 1232.19 125.758C1232.86 119.39 1233.59 111.291 1234.37 101.461L1238.72 35.2733H1304.74V171H1280.11V53.8729H1260.68L1257.66 104.477C1256.99 114.419 1256.21 123.188 1255.31 130.785C1254.53 138.381 1253.25 144.86 1251.46 150.222C1249.78 155.472 1247.38 159.717 1244.25 162.957C1241.13 166.197 1236.99 168.487 1231.85 169.827C1226.72 171.056 1220.24 171.447 1212.42 171ZM1332.75 171V35.2733H1357.38V92.245H1363.41C1372.57 92.245 1380.22 93.5296 1386.37 96.099C1392.51 98.5566 1397.15 102.69 1400.28 108.499C1403.4 114.196 1404.97 121.904 1404.97 131.622C1404.97 139.219 1404.02 145.586 1402.12 150.725C1400.22 155.752 1397.37 159.773 1393.57 162.789C1389.89 165.806 1385.42 167.928 1380.17 169.157C1374.92 170.386 1369 171 1362.41 171H1332.75ZM1357.38 154.244H1362.41C1367.21 154.244 1371.01 153.573 1373.8 152.233C1376.71 150.892 1378.83 148.546 1380.17 145.195C1381.51 141.732 1382.18 137.04 1382.18 131.12C1382.07 124.082 1380.62 118.72 1377.82 115.034C1375.14 111.347 1369.89 109.504 1362.07 109.504H1357.38V154.244Z" fill="#F4F4F4"/>
<path d="M1465.97 171V35.2733H1544.23V171H1519.76V52.8675H1490.44V171H1465.97ZM1571.35 171V35.2733H1628.32V52.6999H1596.15V91.7423H1621.45V109.001H1596.15V153.908H1628.66V171H1571.35ZM1649.73 171V35.2733H1689.61C1697.76 35.2733 1704.35 36.7813 1709.38 39.7975C1714.52 42.8136 1718.26 47.2262 1720.6 53.035C1723.06 58.7322 1724.29 65.6582 1724.29 73.813C1724.29 82.638 1722.78 89.7874 1719.77 95.2611C1716.75 100.623 1712.51 104.533 1707.03 106.991C1701.67 109.448 1695.3 110.677 1687.93 110.677H1674.52V171H1649.73ZM1674.52 93.2504H1683.91C1688.38 93.2504 1691.84 92.636 1694.3 91.4072C1696.87 90.0667 1698.6 88 1699.49 85.2073C1700.5 82.3029 1701 78.4489 1701 73.6454C1701 68.7302 1700.61 64.7645 1699.83 61.7484C1699.16 58.6205 1697.59 56.3305 1695.13 54.8782C1692.79 53.426 1689.05 52.6999 1683.91 52.6999H1674.52V93.2504ZM1744.79 171V35.2733H1778.14C1784.17 35.2733 1789.59 35.8318 1794.39 36.9489C1799.31 38.066 1803.49 39.9651 1806.96 42.6461C1810.53 45.2154 1813.27 48.7342 1815.17 53.2026C1817.07 57.671 1818.02 63.3123 1818.02 70.1265C1818.02 75.6003 1817.23 80.2921 1815.67 84.2019C1814.22 88.1117 1812.04 91.2396 1809.14 93.5855C1806.23 95.8197 1802.6 97.3278 1798.24 98.1097C1803.61 99.0034 1808.02 100.902 1811.48 103.807C1815.06 106.6 1817.68 110.286 1819.36 114.866C1821.14 119.446 1822.04 124.976 1822.04 131.455C1822.04 137.934 1821.2 143.687 1819.52 148.714C1817.96 153.629 1815.56 157.762 1812.32 161.114C1809.19 164.353 1805.23 166.811 1800.42 168.487C1795.73 170.162 1790.2 171 1783.83 171H1744.79ZM1769.59 153.573H1778.97C1786.46 153.573 1791.54 151.786 1794.22 148.211C1796.9 144.525 1798.24 138.884 1798.24 131.287C1798.24 125.814 1797.57 121.401 1796.23 118.05C1795 114.587 1792.88 112.018 1789.87 110.342C1786.96 108.666 1783.05 107.828 1778.14 107.828H1769.59V153.573ZM1769.59 90.7369H1777.97C1782.88 90.7369 1786.68 90.0108 1789.36 88.5586C1792.04 87.1064 1793.89 84.8722 1794.89 81.856C1796.01 78.8399 1796.57 75.0418 1796.57 70.4617C1796.57 65.6582 1795.73 61.9718 1794.06 59.4025C1792.49 56.7214 1790.09 54.9341 1786.85 54.0404C1783.61 53.035 1779.48 52.5323 1774.45 52.5323H1769.59V90.7369ZM1881.63 172.843C1872.02 172.843 1864.37 171.056 1858.67 167.481C1852.98 163.906 1848.9 158.768 1846.44 152.065C1843.98 145.363 1842.76 137.431 1842.76 128.271V77.4994C1842.76 68.3392 1843.98 60.5196 1846.44 54.0404C1848.9 47.4496 1852.98 42.4227 1858.67 38.9597C1864.37 35.4967 1872.02 33.7652 1881.63 33.7652C1891.46 33.7652 1899.17 35.4967 1904.75 38.9597C1910.45 42.4227 1914.53 47.4496 1916.99 54.0404C1919.56 60.5196 1920.84 68.3392 1920.84 77.4994V128.439C1920.84 137.487 1919.56 145.363 1916.99 152.065C1914.53 158.656 1910.45 163.795 1904.75 167.481C1899.17 171.056 1891.46 172.843 1881.63 172.843ZM1881.63 154.579C1885.76 154.579 1888.78 153.685 1890.68 151.898C1892.69 150.11 1894.03 147.653 1894.7 144.525C1895.37 141.397 1895.71 137.99 1895.71 134.304V71.8022C1895.71 68.0041 1895.37 64.5969 1894.7 61.5808C1894.03 58.5646 1892.69 56.2188 1890.68 54.5431C1888.78 52.7558 1885.76 51.8621 1881.63 51.8621C1877.72 51.8621 1874.76 52.7558 1872.75 54.5431C1870.74 56.2188 1869.4 58.5646 1868.73 61.5808C1868.06 64.5969 1867.72 68.0041 1867.72 71.8022V134.304C1867.72 137.99 1868 141.397 1868.56 144.525C1869.23 147.653 1870.57 150.11 1872.58 151.898C1874.59 153.685 1877.61 154.579 1881.63 154.579ZM1982.75 172.843C1973.14 172.843 1965.49 171.056 1959.8 167.481C1954.1 163.906 1950.02 158.768 1947.56 152.065C1945.11 145.363 1943.88 137.431 1943.88 128.271V77.4994C1943.88 68.3392 1945.11 60.5196 1947.56 54.0404C1950.02 47.4496 1954.1 42.4227 1959.8 38.9597C1965.49 35.4967 1973.14 33.7652 1982.75 33.7652C1992.58 33.7652 2000.29 35.4967 2005.88 38.9597C2011.57 42.4227 2015.65 47.4496 2018.11 54.0404C2020.68 60.5196 2021.96 68.3392 2021.96 77.4994V128.439C2021.96 137.487 2020.68 145.363 2018.11 152.065C2015.65 158.656 2011.57 163.795 2005.88 167.481C2000.29 171.056 1992.58 172.843 1982.75 172.843ZM1982.75 154.579C1986.88 154.579 1989.9 153.685 1991.8 151.898C1993.81 150.11 1995.15 147.653 1995.82 144.525C1996.49 141.397 1996.83 137.99 1996.83 134.304V71.8022C1996.83 68.0041 1996.49 64.5969 1995.82 61.5808C1995.15 58.5646 1993.81 56.2188 1991.8 54.5431C1989.9 52.7558 1986.88 51.8621 1982.75 51.8621C1978.84 51.8621 1975.88 52.7558 1973.87 54.5431C1971.86 56.2188 1970.52 58.5646 1969.85 61.5808C1969.18 64.5969 1968.84 68.0041 1968.84 71.8022V134.304C1968.84 137.99 1969.12 141.397 1969.68 144.525C1970.35 147.653 1971.69 150.11 1973.7 151.898C1975.71 153.685 1978.73 154.579 1982.75 154.579ZM2060.58 171V53.5377H2038.97V35.2733H2106.66V53.5377H2085.38V171H2060.58ZM2126.05 171V35.2733H2150.68V92.245H2155.71L2177.66 35.2733H2202.29L2176.48 99.2827L2204.3 171H2179.16L2155.71 108.499H2150.68V171H2126.05ZM2223.07 171V35.2733H2262.95C2271.1 35.2733 2277.69 36.7813 2282.72 39.7975C2287.86 42.8136 2291.6 47.2262 2293.95 53.035C2296.41 58.7322 2297.63 65.6582 2297.63 73.813C2297.63 82.638 2296.13 89.7874 2293.11 95.2611C2290.09 100.623 2285.85 104.533 2280.38 106.991C2275.01 109.448 2268.65 110.677 2261.27 110.677H2247.87V171H2223.07ZM2247.87 93.2504H2257.25C2261.72 93.2504 2265.18 92.636 2267.64 91.4072C2270.21 90.0667 2271.94 88 2272.83 85.2073C2273.84 82.3029 2274.34 78.4489 2274.34 73.6454C2274.34 68.7302 2273.95 64.7645 2273.17 61.7484C2272.5 58.6205 2270.94 56.3305 2268.48 54.8782C2266.13 53.426 2262.39 52.6999 2257.25 52.6999H2247.87V93.2504ZM2318.47 171V35.2733H2343.1V92.245H2349.13C2358.41 92.245 2366.11 93.5296 2372.26 96.099C2378.4 98.5566 2383.04 102.69 2386.17 108.499C2389.29 114.196 2390.86 121.904 2390.86 131.622C2390.86 139.219 2389.85 145.586 2387.84 150.725C2385.94 155.752 2383.15 159.773 2379.46 162.789C2375.78 165.806 2371.31 167.928 2366.06 169.157C2360.81 170.386 2354.83 171 2348.13 171H2318.47ZM2343.1 154.244H2348.3C2352.99 154.244 2356.79 153.573 2359.69 152.233C2362.6 150.892 2364.72 148.546 2366.06 145.195C2367.4 141.732 2368.01 137.04 2367.9 131.12C2367.9 124.082 2366.5 118.72 2363.71 115.034C2360.92 111.347 2355.67 109.504 2347.96 109.504H2343.1V154.244ZM2403.59 171V35.2733H2428.22V171H2403.59ZM2455.75 171V35.2733H2489.09C2495.12 35.2733 2500.54 35.8318 2505.35 36.9489C2510.26 38.066 2514.45 39.9651 2517.91 42.6461C2521.49 45.2154 2524.22 48.7342 2526.12 53.2026C2528.02 57.671 2528.97 63.3123 2528.97 70.1265C2528.97 75.6003 2528.19 80.2921 2526.63 84.2019C2525.17 88.1117 2523 91.2396 2520.09 93.5855C2517.19 95.8197 2513.56 97.3278 2509.2 98.1097C2514.56 99.0034 2518.97 100.902 2522.44 103.807C2526.01 106.6 2528.64 110.286 2530.31 114.866C2532.1 119.446 2532.99 124.976 2532.99 131.455C2532.99 137.934 2532.16 143.687 2530.48 148.714C2528.92 153.629 2526.51 157.762 2523.27 161.114C2520.15 164.353 2516.18 166.811 2511.38 168.487C2506.69 170.162 2501.16 171 2494.79 171H2455.75ZM2480.55 153.573H2489.93C2497.41 153.573 2502.5 151.786 2505.18 148.211C2507.86 144.525 2509.2 138.884 2509.2 131.287C2509.2 125.814 2508.53 121.401 2507.19 118.05C2505.96 114.587 2503.84 112.018 2500.82 110.342C2497.92 108.666 2494.01 107.828 2489.09 107.828H2480.55V153.573ZM2480.55 90.7369H2488.92C2493.84 90.7369 2497.64 90.0108 2500.32 88.5586C2503 87.1064 2504.84 84.8722 2505.85 81.856C2506.97 78.8399 2507.52 75.0418 2507.52 70.4617C2507.52 65.6582 2506.69 61.9718 2505.01 59.4025C2503.45 56.7214 2501.04 54.9341 2497.81 54.0404C2494.57 53.035 2490.43 52.5323 2485.41 52.5323H2480.55V90.7369ZM2548.85 171L2576 35.2733H2602.47L2629.62 171H2606.66L2601.3 139.666H2577.67L2572.14 171H2548.85ZM2580.19 123.915H2598.62L2589.4 66.9428L2580.19 123.915ZM2660.27 171V53.5377H2638.65V35.2733H2706.35V53.5377H2685.07V171H2660.27ZM2725.4 171V35.2733H2782.37V52.6999H2750.2V91.7423H2775.5V109.001H2750.2V153.908H2782.71V171H2725.4ZM2794.39 171V153.238C2797.52 153.35 2800.14 153.182 2802.27 152.736C2804.5 152.177 2806.34 151.004 2807.8 149.217C2809.36 147.429 2810.65 144.692 2811.65 141.006C2812.66 137.208 2813.49 132.125 2814.16 125.758C2814.83 119.39 2815.56 111.291 2816.34 101.461L2820.7 35.2733H2886.72V171H2862.09V53.8729H2842.65L2839.63 104.477C2838.96 114.419 2838.18 123.188 2837.29 130.785C2836.51 138.381 2835.22 144.86 2833.43 150.222C2831.76 155.472 2829.36 159.717 2826.23 162.957C2823.1 166.197 2818.97 168.487 2813.83 169.827C2808.69 171.056 2802.21 171.447 2794.39 171ZM2914.72 171V35.2733H2939.35V92.245H2945.39C2954.55 92.245 2962.2 93.5296 2968.34 96.099C2974.49 98.5566 2979.12 102.69 2982.25 108.499C2985.38 114.196 2986.94 121.904 2986.94 131.622C2986.94 139.219 2985.99 145.586 2984.09 150.725C2982.19 155.752 2979.35 159.773 2975.55 162.789C2971.86 165.806 2967.39 167.928 2962.14 169.157C2956.89 170.386 2950.97 171 2944.38 171H2914.72ZM2939.35 154.244H2944.38C2949.18 154.244 2952.98 153.573 2955.78 152.233C2958.68 150.892 2960.8 148.546 2962.14 145.195C2963.48 141.732 2964.15 137.04 2964.15 131.12C2964.04 124.082 2962.59 118.72 2959.8 115.034C2957.12 111.347 2951.87 109.504 2944.05 109.504H2939.35V154.244Z" fill="#F4F4F4"/>
<path d="M-535.779 419.051V283.324H-457.526V419.051H-481.991V300.918H-511.314V419.051H-535.779ZM-430.403 419.051V283.324H-373.431V300.751H-405.604V339.793H-380.302V357.052H-405.604V401.959H-373.096V419.051H-430.403ZM-352.028 419.051V283.324H-312.148C-303.993 283.324 -297.402 284.832 -292.375 287.848C-287.236 290.864 -283.494 295.277 -281.148 301.086C-278.691 306.783 -277.462 313.709 -277.462 321.864C-277.462 330.689 -278.97 337.838 -281.986 343.312C-285.002 348.674 -289.247 352.584 -294.721 355.041C-300.083 357.499 -306.45 358.728 -313.823 358.728H-327.228V419.051H-352.028ZM-327.228 341.301H-317.845C-313.376 341.301 -309.913 340.687 -307.456 339.458C-304.887 338.117 -303.155 336.051 -302.261 333.258C-301.256 330.354 -300.753 326.5 -300.753 321.696C-300.753 316.781 -301.144 312.815 -301.926 309.799C-302.596 306.671 -304.16 304.381 -306.618 302.929C-308.964 301.477 -312.706 300.751 -317.845 300.751H-327.228V341.301ZM-256.961 419.051V283.324H-223.616C-217.584 283.324 -212.166 283.883 -207.363 285C-202.447 286.117 -198.258 288.016 -194.795 290.697C-191.221 293.266 -188.484 296.785 -186.585 301.253C-184.686 305.722 -183.736 311.363 -183.736 318.177C-183.736 323.651 -184.518 328.343 -186.082 332.253C-187.534 336.163 -189.713 339.29 -192.617 341.636C-195.521 343.871 -199.152 345.379 -203.509 346.161C-198.147 347.054 -193.734 348.953 -190.271 351.858C-186.696 354.65 -184.071 358.337 -182.396 362.917C-180.608 367.497 -179.715 373.027 -179.715 379.506C-179.715 385.985 -180.552 391.738 -182.228 396.765C-183.792 401.68 -186.194 405.813 -189.433 409.165C-192.561 412.404 -196.527 414.862 -201.33 416.537C-206.022 418.213 -211.552 419.051 -217.919 419.051H-256.961ZM-232.162 401.624H-222.778C-215.294 401.624 -210.211 399.837 -207.53 396.262C-204.849 392.576 -203.509 386.934 -203.509 379.338C-203.509 373.864 -204.179 369.452 -205.519 366.101C-206.748 362.638 -208.871 360.068 -211.887 358.393C-214.791 356.717 -218.701 355.879 -223.616 355.879H-232.162V401.624ZM-232.162 338.788H-223.784C-218.869 338.788 -215.071 338.062 -212.39 336.609C-209.708 335.157 -207.865 332.923 -206.86 329.907C-205.743 326.891 -205.184 323.093 -205.184 318.513C-205.184 313.709 -206.022 310.023 -207.698 307.453C-209.262 304.772 -211.663 302.985 -214.903 302.091C-218.143 301.086 -222.276 300.583 -227.303 300.583H-232.162V338.788ZM-120.122 420.894C-129.729 420.894 -137.381 419.107 -143.078 415.532C-148.775 411.957 -152.853 406.819 -155.31 400.116C-157.768 393.414 -158.997 385.482 -158.997 376.322V325.55C-158.997 316.39 -157.768 308.57 -155.31 302.091C-152.853 295.5 -148.775 290.474 -143.078 287.011C-137.381 283.548 -129.729 281.816 -120.122 281.816C-110.292 281.816 -102.584 283.548 -96.9982 287.011C-91.3011 290.474 -87.2237 295.5 -84.7661 302.091C-82.1968 308.57 -80.9121 316.39 -80.9121 325.55V376.49C-80.9121 385.538 -82.1968 393.414 -84.7661 400.116C-87.2237 406.707 -91.3011 411.846 -96.9982 415.532C-102.584 419.107 -110.292 420.894 -120.122 420.894ZM-120.122 402.63C-115.989 402.63 -112.973 401.736 -111.074 399.949C-109.063 398.161 -107.722 395.704 -107.052 392.576C-106.382 389.448 -106.047 386.041 -106.047 382.354V319.853C-106.047 316.055 -106.382 312.648 -107.052 309.632C-107.722 306.615 -109.063 304.27 -111.074 302.594C-112.973 300.807 -115.989 299.913 -120.122 299.913C-124.032 299.913 -126.992 300.807 -129.003 302.594C-131.014 304.27 -132.354 306.615 -133.024 309.632C-133.695 312.648 -134.03 316.055 -134.03 319.853V382.354C-134.03 386.041 -133.751 389.448 -133.192 392.576C-132.522 395.704 -131.181 398.161 -129.17 399.949C-127.16 401.736 -124.144 402.63 -120.122 402.63ZM-19.0012 420.894C-28.6082 420.894 -36.2603 419.107 -41.9574 415.532C-47.6546 411.957 -51.732 406.819 -54.1896 400.116C-56.6472 393.414 -57.876 385.482 -57.876 376.322V325.55C-57.876 316.39 -56.6472 308.57 -54.1896 302.091C-51.732 295.5 -47.6546 290.474 -41.9574 287.011C-36.2603 283.548 -28.6082 281.816 -19.0012 281.816C-9.17078 281.816 -1.46284 283.548 4.12262 287.011C9.81979 290.474 13.8972 295.5 16.3548 302.091C18.9241 308.57 20.2088 316.39 20.2088 325.55V376.49C20.2088 385.538 18.9241 393.414 16.3548 400.116C13.8972 406.707 9.81979 411.846 4.12262 415.532C-1.46284 419.107 -9.17078 420.894 -19.0012 420.894ZM-19.0012 402.63C-14.868 402.63 -11.8518 401.736 -9.95275 399.949C-7.94198 398.161 -6.60147 395.704 -5.93121 392.576C-5.26096 389.448 -4.92583 386.041 -4.92583 382.354V319.853C-4.92583 316.055 -5.26096 312.648 -5.93121 309.632C-6.60147 306.615 -7.94198 304.27 -9.95275 302.594C-11.8518 300.807 -14.868 299.913 -19.0012 299.913C-22.911 299.913 -25.8713 300.807 -27.8821 302.594C-29.8928 304.27 -31.2334 306.615 -31.9036 309.632C-32.5739 312.648 -32.909 316.055 -32.909 319.853V382.354C-32.909 386.041 -32.6297 389.448 -32.0712 392.576C-31.4009 395.704 -30.0604 398.161 -28.0496 399.949C-26.0389 401.736 -23.0227 402.63 -19.0012 402.63ZM58.8283 419.051V301.589H37.2126V283.324H104.908V301.589H83.6278V419.051H58.8283ZM124.293 419.051V283.324H148.925V340.296H153.952L175.903 283.324H200.535L174.73 347.334L202.546 419.051H177.411L153.952 356.55H148.925V419.051H124.293ZM221.315 419.051V283.324H261.196C269.35 283.324 275.941 284.832 280.968 287.848C286.107 290.864 289.849 295.277 292.195 301.086C294.653 306.783 295.881 313.709 295.881 321.864C295.881 330.689 294.373 337.838 291.357 343.312C288.341 348.674 284.096 352.584 278.622 355.041C273.26 357.499 266.893 358.728 259.52 358.728H246.115V419.051H221.315ZM246.115 341.301H255.498C259.967 341.301 263.43 340.687 265.887 339.458C268.457 338.117 270.188 336.051 271.082 333.258C272.087 330.354 272.59 326.5 272.59 321.696C272.59 316.781 272.199 312.815 271.417 309.799C270.747 306.671 269.183 304.381 266.725 302.929C264.379 301.477 260.637 300.751 255.498 300.751H246.115V341.301ZM316.717 419.051V283.324H341.349V340.296H347.381C356.653 340.296 364.361 341.58 370.505 344.15C376.649 346.607 381.285 350.741 384.413 356.55C387.541 362.247 389.105 369.955 389.105 379.673C389.105 387.27 388.099 393.637 386.088 398.776C384.189 403.803 381.397 407.824 377.71 410.84C374.024 413.856 369.555 415.979 364.305 417.208C359.055 418.436 353.078 419.051 346.376 419.051H316.717ZM341.349 402.294H346.543C351.235 402.294 355.033 401.624 357.938 400.284C360.842 398.943 362.965 396.597 364.305 393.246C365.646 389.783 366.26 385.091 366.148 379.171C366.148 372.133 364.752 366.771 361.959 363.085C359.166 359.398 353.916 357.555 346.208 357.555H341.349V402.294ZM401.839 419.051V283.324H426.471V419.051H401.839ZM453.994 419.051V283.324H487.339C493.371 283.324 498.789 283.883 503.593 285C508.508 286.117 512.697 288.016 516.16 290.697C519.735 293.266 522.471 296.785 524.37 301.253C526.269 305.722 527.219 311.363 527.219 318.177C527.219 323.651 526.437 328.343 524.873 332.253C523.421 336.163 521.243 339.29 518.338 341.636C515.434 343.871 511.803 345.379 507.446 346.161C512.809 347.054 517.221 348.953 520.684 351.858C524.259 354.65 526.884 358.337 528.56 362.917C530.347 367.497 531.241 373.027 531.241 379.506C531.241 385.985 530.403 391.738 528.727 396.765C527.163 401.68 524.761 405.813 521.522 409.165C518.394 412.404 514.428 414.862 509.625 416.537C504.933 418.213 499.403 419.051 493.036 419.051H453.994ZM478.793 401.624H488.177C495.661 401.624 500.744 399.837 503.425 396.262C506.106 392.576 507.446 386.934 507.446 379.338C507.446 373.864 506.776 369.452 505.436 366.101C504.207 362.638 502.084 360.068 499.068 358.393C496.164 356.717 492.254 355.879 487.339 355.879H478.793V401.624ZM478.793 338.788H487.171C492.086 338.788 495.885 338.062 498.566 336.609C501.247 335.157 503.09 332.923 504.095 329.907C505.212 326.891 505.771 323.093 505.771 318.513C505.771 313.709 504.933 310.023 503.257 307.453C501.693 304.772 499.292 302.985 496.052 302.091C492.813 301.086 488.679 300.583 483.652 300.583H478.793V338.788ZM547.099 419.051L574.244 283.324H600.719L627.865 419.051H604.908L599.546 387.716H575.92L570.39 419.051H547.099ZM578.433 371.965H596.865L587.649 314.994L578.433 371.965ZM658.517 419.051V301.589H636.901V283.324H704.597V301.589H683.317V419.051H658.517ZM723.647 419.051V283.324H780.619V300.751H748.447V339.793H773.749V357.052H748.447V401.959H780.954V419.051H723.647ZM792.639 419.051V401.289C795.767 401.401 798.392 401.233 800.514 400.786C802.749 400.228 804.592 399.055 806.044 397.268C807.608 395.48 808.893 392.743 809.898 389.057C810.903 385.259 811.741 380.176 812.411 373.809C813.082 367.441 813.808 359.342 814.59 349.512L818.946 283.324H884.967V419.051H860.335V301.924H840.897L837.881 352.528C837.211 362.47 836.429 371.239 835.535 378.836C834.753 386.432 833.469 392.911 831.681 398.273C830.006 403.523 827.604 407.768 824.476 411.008C821.348 414.247 817.215 416.537 812.076 417.878C806.938 419.107 800.458 419.498 792.639 419.051ZM912.969 419.051V283.324H937.601V340.296H943.634C952.794 340.296 960.446 341.58 966.59 344.15C972.734 346.607 977.37 350.741 980.498 356.55C983.625 362.247 985.189 369.955 985.189 379.673C985.189 387.27 984.24 393.637 982.341 398.776C980.442 403.803 977.593 407.824 973.795 410.84C970.109 413.856 965.64 415.979 960.39 417.208C955.14 418.436 949.219 419.051 942.628 419.051H912.969ZM937.601 402.294H942.628C947.432 402.294 951.23 401.624 954.023 400.284C956.927 398.943 959.049 396.597 960.39 393.246C961.73 389.783 962.401 385.091 962.401 379.171C962.289 372.133 960.837 366.771 958.044 363.085C955.363 359.398 950.113 357.555 942.293 357.555H937.601V402.294Z" fill="#F4F4F4"/>
<path d="M1046.2 419.051V283.324H1124.45V419.051H1099.98V300.918H1070.66V419.051H1046.2ZM1151.57 419.051V283.324H1208.54V300.751H1176.37V339.793H1201.67V357.052H1176.37V401.959H1208.88V419.051H1151.57ZM1229.95 419.051V283.324H1269.83C1277.98 283.324 1284.57 284.832 1289.6 287.848C1294.74 290.864 1298.48 295.277 1300.83 301.086C1303.28 306.783 1304.51 313.709 1304.51 321.864C1304.51 330.689 1303 337.838 1299.99 343.312C1296.97 348.674 1292.73 352.584 1287.25 355.041C1281.89 357.499 1275.52 358.728 1268.15 358.728H1254.75V419.051H1229.95ZM1254.75 341.301H1264.13C1268.6 341.301 1272.06 340.687 1274.52 339.458C1277.09 338.117 1278.82 336.051 1279.71 333.258C1280.72 330.354 1281.22 326.5 1281.22 321.696C1281.22 316.781 1280.83 312.815 1280.05 309.799C1279.38 306.671 1277.81 304.381 1275.36 302.929C1273.01 301.477 1269.27 300.751 1264.13 300.751H1254.75V341.301ZM1325.01 419.051V283.324H1358.36C1364.39 283.324 1369.81 283.883 1374.61 285C1379.53 286.117 1383.72 288.016 1387.18 290.697C1390.75 293.266 1393.49 296.785 1395.39 301.253C1397.29 305.722 1398.24 311.363 1398.24 318.177C1398.24 323.651 1397.46 328.343 1395.89 332.253C1394.44 336.163 1392.26 339.29 1389.36 341.636C1386.45 343.871 1382.82 345.379 1378.47 346.161C1383.83 347.054 1388.24 348.953 1391.7 351.858C1395.28 354.65 1397.9 358.337 1399.58 362.917C1401.37 367.497 1402.26 373.027 1402.26 379.506C1402.26 385.985 1401.42 391.738 1399.75 396.765C1398.18 401.68 1395.78 405.813 1392.54 409.165C1389.41 412.404 1385.45 414.862 1380.64 416.537C1375.95 418.213 1370.42 419.051 1364.06 419.051H1325.01ZM1349.81 401.624H1359.2C1366.68 401.624 1371.76 399.837 1374.44 396.262C1377.13 392.576 1378.47 386.934 1378.47 379.338C1378.47 373.864 1377.8 369.452 1376.46 366.101C1375.23 362.638 1373.1 360.068 1370.09 358.393C1367.18 356.717 1363.27 355.879 1358.36 355.879H1349.81V401.624ZM1349.81 338.788H1358.19C1363.11 338.788 1366.9 338.062 1369.59 336.609C1372.27 335.157 1374.11 332.923 1375.11 329.907C1376.23 326.891 1376.79 323.093 1376.79 318.513C1376.79 313.709 1375.95 310.023 1374.28 307.453C1372.71 304.772 1370.31 302.985 1367.07 302.091C1363.83 301.086 1359.7 300.583 1354.67 300.583H1349.81V338.788ZM1461.85 420.894C1452.25 420.894 1444.59 419.107 1438.9 415.532C1433.2 411.957 1429.12 406.819 1426.66 400.116C1424.21 393.414 1422.98 385.482 1422.98 376.322V325.55C1422.98 316.39 1424.21 308.57 1426.66 302.091C1429.12 295.5 1433.2 290.474 1438.9 287.011C1444.59 283.548 1452.25 281.816 1461.85 281.816C1471.68 281.816 1479.39 283.548 1484.98 287.011C1490.67 290.474 1494.75 295.5 1497.21 302.091C1499.78 308.57 1501.06 316.39 1501.06 325.55V376.49C1501.06 385.538 1499.78 393.414 1497.21 400.116C1494.75 406.707 1490.67 411.846 1484.98 415.532C1479.39 419.107 1471.68 420.894 1461.85 420.894ZM1461.85 402.63C1465.99 402.63 1469 401.736 1470.9 399.949C1472.91 398.161 1474.25 395.704 1474.92 392.576C1475.59 389.448 1475.93 386.041 1475.93 382.354V319.853C1475.93 316.055 1475.59 312.648 1474.92 309.632C1474.25 306.615 1472.91 304.27 1470.9 302.594C1469 300.807 1465.99 299.913 1461.85 299.913C1457.94 299.913 1454.98 300.807 1452.97 302.594C1450.96 304.27 1449.62 306.615 1448.95 309.632C1448.28 312.648 1447.94 316.055 1447.94 319.853V382.354C1447.94 386.041 1448.22 389.448 1448.78 392.576C1449.45 395.704 1450.79 398.161 1452.8 399.949C1454.81 401.736 1457.83 402.63 1461.85 402.63ZM1562.97 420.894C1553.37 420.894 1545.71 419.107 1540.02 415.532C1534.32 411.957 1530.24 406.819 1527.79 400.116C1525.33 393.414 1524.1 385.482 1524.1 376.322V325.55C1524.1 316.39 1525.33 308.57 1527.79 302.091C1530.24 295.5 1534.32 290.474 1540.02 287.011C1545.71 283.548 1553.37 281.816 1562.97 281.816C1572.8 281.816 1580.51 283.548 1586.1 287.011C1591.79 290.474 1595.87 295.5 1598.33 302.091C1600.9 308.57 1602.18 316.39 1602.18 325.55V376.49C1602.18 385.538 1600.9 393.414 1598.33 400.116C1595.87 406.707 1591.79 411.846 1586.1 415.532C1580.51 419.107 1572.8 420.894 1562.97 420.894ZM1562.97 402.63C1567.11 402.63 1570.12 401.736 1572.02 399.949C1574.03 398.161 1575.37 395.704 1576.04 392.576C1576.71 389.448 1577.05 386.041 1577.05 382.354V319.853C1577.05 316.055 1576.71 312.648 1576.04 309.632C1575.37 306.615 1574.03 304.27 1572.02 302.594C1570.12 300.807 1567.11 299.913 1562.97 299.913C1559.06 299.913 1556.1 300.807 1554.09 302.594C1552.08 304.27 1550.74 306.615 1550.07 309.632C1549.4 312.648 1549.07 316.055 1549.07 319.853V382.354C1549.07 386.041 1549.34 389.448 1549.9 392.576C1550.57 395.704 1551.91 398.161 1553.92 399.949C1555.94 401.736 1558.95 402.63 1562.97 402.63ZM1640.8 419.051V301.589H1619.19V283.324H1686.88V301.589H1665.6V419.051H1640.8ZM1706.27 419.051V283.324H1730.9V340.296H1735.93L1757.88 283.324H1782.51L1756.7 347.334L1784.52 419.051H1759.39L1735.93 356.55H1730.9V419.051H1706.27ZM1803.29 419.051V283.324H1843.17C1851.33 283.324 1857.92 284.832 1862.94 287.848C1868.08 290.864 1871.82 295.277 1874.17 301.086C1876.63 306.783 1877.86 313.709 1877.86 321.864C1877.86 330.689 1876.35 337.838 1873.33 343.312C1870.32 348.674 1866.07 352.584 1860.6 355.041C1855.23 357.499 1848.87 358.728 1841.49 358.728H1828.09V419.051H1803.29ZM1828.09 341.301H1837.47C1841.94 341.301 1845.4 340.687 1847.86 339.458C1850.43 338.117 1852.16 336.051 1853.06 333.258C1854.06 330.354 1854.56 326.5 1854.56 321.696C1854.56 316.781 1854.17 312.815 1853.39 309.799C1852.72 306.671 1851.16 304.381 1848.7 302.929C1846.35 301.477 1842.61 300.751 1837.47 300.751H1828.09V341.301ZM1898.69 419.051V283.324H1923.32V340.296H1929.36C1938.63 340.296 1946.34 341.58 1952.48 344.15C1958.62 346.607 1963.26 350.741 1966.39 356.55C1969.52 362.247 1971.08 369.955 1971.08 379.673C1971.08 387.27 1970.07 393.637 1968.06 398.776C1966.16 403.803 1963.37 407.824 1959.68 410.84C1956 413.856 1951.53 415.979 1946.28 417.208C1941.03 418.436 1935.05 419.051 1928.35 419.051H1898.69ZM1923.32 402.294H1928.52C1933.21 402.294 1937.01 401.624 1939.91 400.284C1942.82 398.943 1944.94 396.597 1946.28 393.246C1947.62 389.783 1948.23 385.091 1948.12 379.171C1948.12 372.133 1946.73 366.771 1943.93 363.085C1941.14 359.398 1935.89 357.555 1928.18 357.555H1923.32V402.294ZM1983.81 419.051V283.324H2008.45V419.051H1983.81ZM2035.97 419.051V283.324H2069.31C2075.35 283.324 2080.76 283.883 2085.57 285C2090.48 286.117 2094.67 288.016 2098.13 290.697C2101.71 293.266 2104.45 296.785 2106.35 301.253C2108.24 305.722 2109.19 311.363 2109.19 318.177C2109.19 323.651 2108.41 328.343 2106.85 332.253C2105.4 336.163 2103.22 339.29 2100.31 341.636C2097.41 343.871 2093.78 345.379 2089.42 346.161C2094.78 347.054 2099.2 348.953 2102.66 351.858C2106.23 354.65 2108.86 358.337 2110.53 362.917C2112.32 367.497 2113.22 373.027 2113.22 379.506C2113.22 385.985 2112.38 391.738 2110.7 396.765C2109.14 401.68 2106.74 405.813 2103.5 409.165C2100.37 412.404 2096.4 414.862 2091.6 416.537C2086.91 418.213 2081.38 419.051 2075.01 419.051H2035.97ZM2060.77 401.624H2070.15C2077.64 401.624 2082.72 399.837 2085.4 396.262C2088.08 392.576 2089.42 386.934 2089.42 379.338C2089.42 373.864 2088.75 369.452 2087.41 366.101C2086.18 362.638 2084.06 360.068 2081.04 358.393C2078.14 356.717 2074.23 355.879 2069.31 355.879H2060.77V401.624ZM2060.77 338.788H2069.15C2074.06 338.788 2077.86 338.062 2080.54 336.609C2083.22 335.157 2085.06 332.923 2086.07 329.907C2087.19 326.891 2087.75 323.093 2087.75 318.513C2087.75 313.709 2086.91 310.023 2085.23 307.453C2083.67 304.772 2081.27 302.985 2078.03 302.091C2074.79 301.086 2070.65 300.583 2065.63 300.583H2060.77V338.788ZM2129.07 419.051L2156.22 283.324H2182.69L2209.84 419.051H2186.88L2181.52 387.716H2157.89L2152.36 419.051H2129.07ZM2160.41 371.965H2178.84L2169.62 314.994L2160.41 371.965ZM2240.49 419.051V301.589H2218.88V283.324H2286.57V301.589H2265.29V419.051H2240.49ZM2305.62 419.051V283.324H2362.59V300.751H2330.42V339.793H2355.72V357.052H2330.42V401.959H2362.93V419.051H2305.62ZM2374.61 419.051V401.289C2377.74 401.401 2380.37 401.233 2382.49 400.786C2384.72 400.228 2386.57 399.055 2388.02 397.268C2389.58 395.48 2390.87 392.743 2391.87 389.057C2392.88 385.259 2393.72 380.176 2394.39 373.809C2395.06 367.441 2395.78 359.342 2396.56 349.512L2400.92 283.324H2466.94V419.051H2442.31V301.924H2422.87L2419.86 352.528C2419.19 362.47 2418.4 371.239 2417.51 378.836C2416.73 386.432 2415.44 392.911 2413.66 398.273C2411.98 403.523 2409.58 407.768 2406.45 411.008C2403.32 414.247 2399.19 416.537 2394.05 417.878C2388.91 419.107 2382.43 419.498 2374.61 419.051ZM2494.94 419.051V283.324H2519.58V340.296H2525.61C2534.77 340.296 2542.42 341.58 2548.56 344.15C2554.71 346.607 2559.34 350.741 2562.47 356.55C2565.6 362.247 2567.16 369.955 2567.16 379.673C2567.16 387.27 2566.21 393.637 2564.32 398.776C2562.42 403.803 2559.57 407.824 2555.77 410.84C2552.08 413.856 2547.61 415.979 2542.36 417.208C2537.11 418.436 2531.19 419.051 2524.6 419.051H2494.94ZM2519.58 402.294H2524.6C2529.41 402.294 2533.2 401.624 2536 400.284C2538.9 398.943 2541.02 396.597 2542.36 393.246C2543.71 389.783 2544.38 385.091 2544.38 379.171C2544.26 372.133 2542.81 366.771 2540.02 363.085C2537.34 359.398 2532.09 357.555 2524.27 357.555H2519.58V402.294Z" fill="#F4F4F4"/>
<path d="M0.219443 667.102V531.375H78.4718V667.102H54.0074V548.969H24.6838V667.102H0.219443ZM105.595 667.102V531.375H162.567V548.802H130.394V587.844H155.696V605.103H130.394V650.01H162.902V667.102H105.595ZM183.97 667.102V531.375H223.85C232.005 531.375 238.596 532.883 243.623 535.899C248.762 538.915 252.504 543.328 254.85 549.137C257.307 554.834 258.536 561.76 258.536 569.915C258.536 578.74 257.028 585.889 254.012 591.363C250.996 596.725 246.751 600.635 241.277 603.092C235.915 605.55 229.548 606.779 222.175 606.779H208.77V667.102H183.97ZM208.77 589.352H218.153C222.622 589.352 226.085 588.738 228.542 587.509C231.112 586.168 232.843 584.102 233.737 581.309C234.742 578.405 235.245 574.551 235.245 569.747C235.245 564.832 234.854 560.866 234.072 557.85C233.402 554.722 231.838 552.432 229.38 550.98C227.034 549.528 223.292 548.802 218.153 548.802H208.77V589.352ZM279.037 667.102V531.375H312.382C318.414 531.375 323.832 531.934 328.635 533.051C333.551 534.168 337.74 536.067 341.203 538.748C344.777 541.317 347.514 544.836 349.413 549.304C351.312 553.773 352.262 559.414 352.262 566.228C352.262 571.702 351.48 576.394 349.916 580.304C348.464 584.214 346.286 587.341 343.381 589.687C340.477 591.921 336.846 593.43 332.489 594.211C337.851 595.105 342.264 597.004 345.727 599.909C349.302 602.701 351.927 606.388 353.602 610.968C355.39 615.548 356.283 621.078 356.283 627.557C356.283 634.036 355.446 639.789 353.77 644.816C352.206 649.731 349.804 653.864 346.565 657.216C343.437 660.455 339.471 662.913 334.668 664.588C329.976 666.264 324.446 667.102 318.079 667.102H279.037ZM303.836 649.675H313.22C320.704 649.675 325.787 647.888 328.468 644.313C331.149 640.627 332.489 634.985 332.489 627.389C332.489 621.915 331.819 617.503 330.479 614.152C329.25 610.689 327.127 608.119 324.111 606.444C321.207 604.768 317.297 603.93 312.382 603.93H303.836V649.675ZM303.836 586.839H312.214C317.129 586.839 320.928 586.113 323.609 584.66C326.29 583.208 328.133 580.974 329.138 577.958C330.255 574.942 330.814 571.144 330.814 566.563C330.814 561.76 329.976 558.074 328.3 555.504C326.736 552.823 324.335 551.036 321.095 550.142C317.856 549.137 313.722 548.634 308.695 548.634H303.836V586.839ZM415.876 668.945C406.269 668.945 398.617 667.158 392.92 663.583C387.223 660.008 383.145 654.87 380.688 648.167C378.23 641.465 377.001 633.533 377.001 624.373V573.601C377.001 564.441 378.23 556.621 380.688 550.142C383.145 543.551 387.223 538.524 392.92 535.061C398.617 531.598 406.269 529.867 415.876 529.867C425.706 529.867 433.414 531.598 439 535.061C444.697 538.524 448.774 543.551 451.232 550.142C453.801 556.621 455.086 564.441 455.086 573.601V624.541C455.086 633.589 453.801 641.465 451.232 648.167C448.774 654.758 444.697 659.897 439 663.583C433.414 667.158 425.706 668.945 415.876 668.945ZM415.876 650.681C420.009 650.681 423.025 649.787 424.924 647.999C426.935 646.212 428.276 643.755 428.946 640.627C429.616 637.499 429.951 634.092 429.951 630.405V567.904C429.951 564.106 429.616 560.699 428.946 557.683C428.276 554.666 426.935 552.321 424.924 550.645C423.025 548.858 420.009 547.964 415.876 547.964C411.966 547.964 409.006 548.858 406.995 550.645C404.984 552.321 403.644 554.666 402.974 557.683C402.303 560.699 401.968 564.106 401.968 567.904V630.405C401.968 634.092 402.247 637.499 402.806 640.627C403.476 643.755 404.817 646.212 406.828 647.999C408.838 649.787 411.854 650.681 415.876 650.681ZM516.997 668.945C507.39 668.945 499.738 667.158 494.041 663.583C488.343 660.008 484.266 654.87 481.808 648.167C479.351 641.465 478.122 633.533 478.122 624.373V573.601C478.122 564.441 479.351 556.621 481.808 550.142C484.266 543.551 488.343 538.524 494.041 535.061C499.738 531.598 507.39 529.867 516.997 529.867C526.827 529.867 534.535 531.598 540.121 535.061C545.818 538.524 549.895 543.551 552.353 550.142C554.922 556.621 556.207 564.441 556.207 573.601V624.541C556.207 633.589 554.922 641.465 552.353 648.167C549.895 654.758 545.818 659.897 540.121 663.583C534.535 667.158 526.827 668.945 516.997 668.945ZM516.997 650.681C521.13 650.681 524.146 649.787 526.045 647.999C528.056 646.212 529.397 643.755 530.067 640.627C530.737 637.499 531.072 634.092 531.072 630.405V567.904C531.072 564.106 530.737 560.699 530.067 557.683C529.397 554.666 528.056 552.321 526.045 550.645C524.146 548.858 521.13 547.964 516.997 547.964C513.087 547.964 510.127 548.858 508.116 550.645C506.105 552.321 504.765 554.666 504.094 557.683C503.424 560.699 503.089 564.106 503.089 567.904V630.405C503.089 634.092 503.368 637.499 503.927 640.627C504.597 643.755 505.938 646.212 507.948 647.999C509.959 649.787 512.975 650.681 516.997 650.681ZM594.826 667.102V549.64H573.211V531.375H640.906V549.64H619.626V667.102H594.826ZM660.291 667.102V531.375H684.923V588.347H689.95L711.901 531.375H736.533L710.728 595.384L738.544 667.102H713.409L689.95 604.6H684.923V667.102H660.291ZM757.313 667.102V531.375H797.194C805.348 531.375 811.939 532.883 816.966 535.899C822.105 538.915 825.847 543.328 828.193 549.137C830.651 554.834 831.879 561.76 831.879 569.915C831.879 578.74 830.371 585.889 827.355 591.363C824.339 596.725 820.094 600.635 814.62 603.092C809.258 605.55 802.891 606.779 795.518 606.779H782.113V667.102H757.313ZM782.113 589.352H791.497C795.965 589.352 799.428 588.738 801.885 587.509C804.455 586.168 806.186 584.102 807.08 581.309C808.085 578.405 808.588 574.551 808.588 569.747C808.588 564.832 808.197 560.866 807.415 557.85C806.745 554.722 805.181 552.432 802.723 550.98C800.377 549.528 796.635 548.802 791.497 548.802H782.113V589.352ZM852.715 667.102V531.375H877.347V588.347H883.379C892.651 588.347 900.359 589.631 906.503 592.201C912.647 594.658 917.283 598.792 920.411 604.6C923.539 610.298 925.103 618.006 925.103 627.724C925.103 635.32 924.097 641.688 922.086 646.827C920.187 651.853 917.395 655.875 913.708 658.891C910.022 661.907 905.553 664.03 900.303 665.259C895.053 666.487 889.076 667.102 882.374 667.102H852.715ZM877.347 650.345H882.541C887.233 650.345 891.031 649.675 893.936 648.335C896.84 646.994 898.963 644.648 900.303 641.297C901.644 637.834 902.258 633.142 902.146 627.222C902.146 620.184 900.75 614.822 897.957 611.135C895.164 607.449 889.914 605.606 882.206 605.606H877.347V650.345ZM937.837 667.102V531.375H962.469V667.102H937.837ZM989.992 667.102V531.375H1023.34C1029.37 531.375 1034.79 531.934 1039.59 533.051C1044.51 534.168 1048.69 536.067 1052.16 538.748C1055.73 541.317 1058.47 544.836 1060.37 549.304C1062.27 553.773 1063.22 559.414 1063.22 566.228C1063.22 571.702 1062.44 576.394 1060.87 580.304C1059.42 584.214 1057.24 587.341 1054.34 589.687C1051.43 591.921 1047.8 593.43 1043.44 594.211C1048.81 595.105 1053.22 597.004 1056.68 599.909C1060.26 602.701 1062.88 606.388 1064.56 610.968C1066.34 615.548 1067.24 621.078 1067.24 627.557C1067.24 634.036 1066.4 639.789 1064.73 644.816C1063.16 649.731 1060.76 653.864 1057.52 657.216C1054.39 660.455 1050.43 662.913 1045.62 664.588C1040.93 666.264 1035.4 667.102 1029.03 667.102H989.992ZM1014.79 649.675H1024.17C1031.66 649.675 1036.74 647.888 1039.42 644.313C1042.1 640.627 1043.44 634.985 1043.44 627.389C1043.44 621.915 1042.77 617.503 1041.43 614.152C1040.2 610.689 1038.08 608.119 1035.07 606.444C1032.16 604.768 1028.25 603.93 1023.34 603.93H1014.79V649.675ZM1014.79 586.839H1023.17C1028.08 586.839 1031.88 586.113 1034.56 584.66C1037.24 583.208 1039.09 580.974 1040.09 577.958C1041.21 574.942 1041.77 571.144 1041.77 566.563C1041.77 561.76 1040.93 558.074 1039.26 555.504C1037.69 552.823 1035.29 551.036 1032.05 550.142C1028.81 549.137 1024.68 548.634 1019.65 548.634H1014.79V586.839ZM1083.1 667.102L1110.24 531.375H1136.72L1163.86 667.102H1140.91L1135.54 635.767H1111.92L1106.39 667.102H1083.1ZM1114.43 620.016H1132.86L1123.65 563.045L1114.43 620.016ZM1194.52 667.102V549.64H1172.9V531.375H1240.6V549.64H1219.31V667.102H1194.52ZM1259.65 667.102V531.375H1316.62V548.802H1284.44V587.844H1309.75V605.103H1284.44V650.01H1316.95V667.102H1259.65ZM1328.64 667.102V649.34C1331.76 649.452 1334.39 649.284 1336.51 648.837C1338.75 648.279 1340.59 647.106 1342.04 645.318C1343.61 643.531 1344.89 640.794 1345.9 637.108C1346.9 633.31 1347.74 628.227 1348.41 621.86C1349.08 615.492 1349.81 607.393 1350.59 597.563L1354.94 531.375H1420.96V667.102H1396.33V549.975H1376.9L1373.88 600.579C1373.21 610.521 1372.43 619.29 1371.53 626.886C1370.75 634.483 1369.47 640.962 1367.68 646.324C1366 651.574 1363.6 655.819 1360.47 659.059C1357.35 662.298 1353.21 664.588 1348.07 665.929C1342.94 667.158 1336.46 667.549 1328.64 667.102ZM1448.97 667.102V531.375H1473.6V588.347H1479.63C1488.79 588.347 1496.44 589.631 1502.59 592.201C1508.73 594.658 1513.37 598.792 1516.5 604.6C1519.62 610.298 1521.19 618.006 1521.19 627.724C1521.19 635.32 1520.24 641.688 1518.34 646.827C1516.44 651.853 1513.59 655.875 1509.79 658.891C1506.11 661.907 1501.64 664.03 1496.39 665.259C1491.14 666.487 1485.22 667.102 1478.63 667.102H1448.97ZM1473.6 650.345H1478.63C1483.43 650.345 1487.23 649.675 1490.02 648.335C1492.93 646.994 1495.05 644.648 1496.39 641.297C1497.73 637.834 1498.4 633.142 1498.4 627.222C1498.29 620.184 1496.83 614.822 1494.04 611.135C1491.36 607.449 1486.11 605.606 1478.29 605.606H1473.6V650.345Z" fill="#F4F4F4"/>
<path d="M1582.19 667.102V531.375H1660.45V667.102H1635.98V548.969H1606.66V667.102H1582.19ZM1687.57 667.102V531.375H1744.54V548.802H1712.37V587.844H1737.67V605.103H1712.37V650.01H1744.88V667.102H1687.57ZM1765.94 667.102V531.375H1805.83C1813.98 531.375 1820.57 532.883 1825.6 535.899C1830.74 538.915 1834.48 543.328 1836.82 549.137C1839.28 554.834 1840.51 561.76 1840.51 569.915C1840.51 578.74 1839 585.889 1835.99 591.363C1832.97 596.725 1828.73 600.635 1823.25 603.092C1817.89 605.55 1811.52 606.779 1804.15 606.779H1790.74V667.102H1765.94ZM1790.74 589.352H1800.13C1804.6 589.352 1808.06 588.738 1810.52 587.509C1813.09 586.168 1814.82 584.102 1815.71 581.309C1816.72 578.405 1817.22 574.551 1817.22 569.747C1817.22 564.832 1816.83 560.866 1816.05 557.85C1815.38 554.722 1813.81 552.432 1811.35 550.98C1809.01 549.528 1805.27 548.802 1800.13 548.802H1790.74V589.352ZM1861.01 667.102V531.375H1894.36C1900.39 531.375 1905.81 531.934 1910.61 533.051C1915.53 534.168 1919.71 536.067 1923.18 538.748C1926.75 541.317 1929.49 544.836 1931.39 549.304C1933.29 553.773 1934.24 559.414 1934.24 566.228C1934.24 571.702 1933.45 576.394 1931.89 580.304C1930.44 584.214 1928.26 587.341 1925.36 589.687C1922.45 591.921 1918.82 593.43 1914.46 594.211C1919.83 595.105 1924.24 597.004 1927.7 599.909C1931.28 602.701 1933.9 606.388 1935.58 610.968C1937.36 615.548 1938.26 621.078 1938.26 627.557C1938.26 634.036 1937.42 639.789 1935.74 644.816C1934.18 649.731 1931.78 653.864 1928.54 657.216C1925.41 660.455 1921.45 662.913 1916.64 664.588C1911.95 666.264 1906.42 667.102 1900.05 667.102H1861.01ZM1885.81 649.675H1895.19C1902.68 649.675 1907.76 647.888 1910.44 644.313C1913.12 640.627 1914.46 634.985 1914.46 627.389C1914.46 621.915 1913.79 617.503 1912.45 614.152C1911.22 610.689 1909.1 608.119 1906.09 606.444C1903.18 604.768 1899.27 603.93 1894.36 603.93H1885.81V649.675ZM1885.81 586.839H1894.19C1899.1 586.839 1902.9 586.113 1905.58 584.66C1908.26 583.208 1910.11 580.974 1911.11 577.958C1912.23 574.942 1912.79 571.144 1912.79 566.563C1912.79 561.76 1911.95 558.074 1910.27 555.504C1908.71 552.823 1906.31 551.036 1903.07 550.142C1899.83 549.137 1895.7 548.634 1890.67 548.634H1885.81V586.839ZM1997.85 668.945C1988.24 668.945 1980.59 667.158 1974.89 663.583C1969.2 660.008 1965.12 654.87 1962.66 648.167C1960.2 641.465 1958.98 633.533 1958.98 624.373V573.601C1958.98 564.441 1960.2 556.621 1962.66 550.142C1965.12 543.551 1969.2 538.524 1974.89 535.061C1980.59 531.598 1988.24 529.867 1997.85 529.867C2007.68 529.867 2015.39 531.598 2020.97 535.061C2026.67 538.524 2030.75 543.551 2033.21 550.142C2035.78 556.621 2037.06 564.441 2037.06 573.601V624.541C2037.06 633.589 2035.78 641.465 2033.21 648.167C2030.75 654.758 2026.67 659.897 2020.97 663.583C2015.39 667.158 2007.68 668.945 1997.85 668.945ZM1997.85 650.681C2001.98 650.681 2005 649.787 2006.9 647.999C2008.91 646.212 2010.25 643.755 2010.92 640.627C2011.59 637.499 2011.93 634.092 2011.93 630.405V567.904C2011.93 564.106 2011.59 560.699 2010.92 557.683C2010.25 554.666 2008.91 552.321 2006.9 550.645C2005 548.858 2001.98 547.964 1997.85 547.964C1993.94 547.964 1990.98 548.858 1988.97 550.645C1986.96 552.321 1985.62 554.666 1984.95 557.683C1984.28 560.699 1983.94 564.106 1983.94 567.904V630.405C1983.94 634.092 1984.22 637.499 1984.78 640.627C1985.45 643.755 1986.79 646.212 1988.8 647.999C1990.81 649.787 1993.83 650.681 1997.85 650.681ZM2098.97 668.945C2089.36 668.945 2081.71 667.158 2076.02 663.583C2070.32 660.008 2066.24 654.87 2063.78 648.167C2061.33 641.465 2060.1 633.533 2060.1 624.373V573.601C2060.1 564.441 2061.33 556.621 2063.78 550.142C2066.24 543.551 2070.32 538.524 2076.02 535.061C2081.71 531.598 2089.36 529.867 2098.97 529.867C2108.8 529.867 2116.51 531.598 2122.1 535.061C2127.79 538.524 2131.87 543.551 2134.33 550.142C2136.9 556.621 2138.18 564.441 2138.18 573.601V624.541C2138.18 633.589 2136.9 641.465 2134.33 648.167C2131.87 654.758 2127.79 659.897 2122.1 663.583C2116.51 667.158 2108.8 668.945 2098.97 668.945ZM2098.97 650.681C2103.1 650.681 2106.12 649.787 2108.02 647.999C2110.03 646.212 2111.37 643.755 2112.04 640.627C2112.71 637.499 2113.05 634.092 2113.05 630.405V567.904C2113.05 564.106 2112.71 560.699 2112.04 557.683C2111.37 554.666 2110.03 552.321 2108.02 550.645C2106.12 548.858 2103.1 547.964 2098.97 547.964C2095.06 547.964 2092.1 548.858 2090.09 550.645C2088.08 552.321 2086.74 554.666 2086.07 557.683C2085.4 560.699 2085.06 564.106 2085.06 567.904V630.405C2085.06 634.092 2085.34 637.499 2085.9 640.627C2086.57 643.755 2087.91 646.212 2089.92 647.999C2091.93 649.787 2094.95 650.681 2098.97 650.681ZM2176.8 667.102V549.64H2155.19V531.375H2222.88V549.64H2201.6V667.102H2176.8ZM2242.27 667.102V531.375H2266.9V588.347H2271.92L2293.88 531.375H2318.51L2292.7 595.384L2320.52 667.102H2295.38L2271.92 604.6H2266.9V667.102H2242.27ZM2339.29 667.102V531.375H2379.17C2387.32 531.375 2393.91 532.883 2398.94 535.899C2404.08 538.915 2407.82 543.328 2410.17 549.137C2412.63 554.834 2413.85 561.76 2413.85 569.915C2413.85 578.74 2412.35 585.889 2409.33 591.363C2406.31 596.725 2402.07 600.635 2396.59 603.092C2391.23 605.55 2384.87 606.779 2377.49 606.779H2364.09V667.102H2339.29ZM2364.09 589.352H2373.47C2377.94 589.352 2381.4 588.738 2383.86 587.509C2386.43 586.168 2388.16 584.102 2389.05 581.309C2390.06 578.405 2390.56 574.551 2390.56 569.747C2390.56 564.832 2390.17 560.866 2389.39 557.85C2388.72 554.722 2387.16 552.432 2384.7 550.98C2382.35 549.528 2378.61 548.802 2373.47 548.802H2364.09V589.352ZM2434.69 667.102V531.375H2459.32V588.347H2465.35C2474.63 588.347 2482.33 589.631 2488.48 592.201C2494.62 594.658 2499.26 598.792 2502.39 604.6C2505.51 610.298 2507.08 618.006 2507.08 627.724C2507.08 635.32 2506.07 641.688 2504.06 646.827C2502.16 651.853 2499.37 655.875 2495.68 658.891C2492 661.907 2487.53 664.03 2482.28 665.259C2477.03 666.487 2471.05 667.102 2464.35 667.102H2434.69ZM2459.32 650.345H2464.52C2469.21 650.345 2473.01 649.675 2475.91 648.335C2478.81 646.994 2480.94 644.648 2482.28 641.297C2483.62 637.834 2484.23 633.142 2484.12 627.222C2484.12 620.184 2482.72 614.822 2479.93 611.135C2477.14 607.449 2471.89 605.606 2464.18 605.606H2459.32V650.345ZM2519.81 667.102V531.375H2544.44V667.102H2519.81ZM2571.97 667.102V531.375H2605.31C2611.34 531.375 2616.76 531.934 2621.57 533.051C2626.48 534.168 2630.67 536.067 2634.13 538.748C2637.71 541.317 2640.44 544.836 2642.34 549.304C2644.24 553.773 2645.19 559.414 2645.19 566.228C2645.19 571.702 2644.41 576.394 2642.85 580.304C2641.39 584.214 2639.22 587.341 2636.31 589.687C2633.41 591.921 2629.78 593.43 2625.42 594.211C2630.78 595.105 2635.19 597.004 2638.66 599.909C2642.23 602.701 2644.86 606.388 2646.53 610.968C2648.32 615.548 2649.21 621.078 2649.21 627.557C2649.21 634.036 2648.38 639.789 2646.7 644.816C2645.14 649.731 2642.73 653.864 2639.49 657.216C2636.37 660.455 2632.4 662.913 2627.6 664.588C2622.91 666.264 2617.38 667.102 2611.01 667.102H2571.97ZM2596.77 649.675H2606.15C2613.63 649.675 2618.72 647.888 2621.4 644.313C2624.08 640.627 2625.42 634.985 2625.42 627.389C2625.42 621.915 2624.75 617.503 2623.41 614.152C2622.18 610.689 2620.06 608.119 2617.04 606.444C2614.14 604.768 2610.23 603.93 2605.31 603.93H2596.77V649.675ZM2596.77 586.839H2605.14C2610.06 586.839 2613.86 586.113 2616.54 584.66C2619.22 583.208 2621.06 580.974 2622.07 577.958C2623.18 574.942 2623.74 571.144 2623.74 566.563C2623.74 561.76 2622.91 558.074 2621.23 555.504C2619.67 552.823 2617.26 551.036 2614.02 550.142C2610.79 549.137 2606.65 548.634 2601.63 548.634H2596.77V586.839ZM2665.07 667.102L2692.22 531.375H2718.69L2745.84 667.102H2722.88L2717.52 635.767H2693.89L2688.36 667.102H2665.07ZM2696.41 620.016H2714.84L2705.62 563.045L2696.41 620.016ZM2776.49 667.102V549.64H2754.87V531.375H2822.57V549.64H2801.29V667.102H2776.49ZM2841.62 667.102V531.375H2898.59V548.802H2866.42V587.844H2891.72V605.103H2866.42V650.01H2898.93V667.102H2841.62ZM2910.61 667.102V649.34C2913.74 649.452 2916.36 649.284 2918.49 648.837C2920.72 648.279 2922.56 647.106 2924.02 645.318C2925.58 643.531 2926.87 640.794 2927.87 637.108C2928.88 633.31 2929.71 628.227 2930.38 621.86C2931.05 615.492 2931.78 607.393 2932.56 597.563L2936.92 531.375H3002.94V667.102H2978.31V549.975H2958.87L2955.85 600.579C2955.18 610.521 2954.4 619.29 2953.51 626.886C2952.73 634.483 2951.44 640.962 2949.65 646.324C2947.98 651.574 2945.58 655.819 2942.45 659.059C2939.32 662.298 2935.19 664.588 2930.05 665.929C2924.91 667.158 2918.43 667.549 2910.61 667.102ZM3030.94 667.102V531.375H3055.57V588.347H3061.61C3070.77 588.347 3078.42 589.631 3084.56 592.201C3090.71 594.658 3095.34 598.792 3098.47 604.6C3101.6 610.298 3103.16 618.006 3103.16 627.724C3103.16 635.32 3102.21 641.688 3100.31 646.827C3098.41 651.853 3095.57 655.875 3091.77 658.891C3088.08 661.907 3083.61 664.03 3078.36 665.259C3073.11 666.487 3067.19 667.102 3060.6 667.102H3030.94ZM3055.57 650.345H3060.6C3065.4 650.345 3069.2 649.675 3072 648.335C3074.9 646.994 3077.02 644.648 3078.36 641.297C3079.7 637.834 3080.37 633.142 3080.37 627.222C3080.26 620.184 3078.81 614.822 3076.02 611.135C3073.34 607.449 3068.09 605.606 3060.27 605.606H3055.57V650.345Z" fill="#F4F4F4"/>
</svg>
