<svg width="2560" height="1202" viewBox="0 0 2560 1202" fill="none" xmlns="http://www.w3.org/2000/svg">
<path d="M83.9481 194.083V62.413H116.297C122.149 62.413 127.405 62.9549 132.065 64.0386C136.833 65.1223 140.897 66.9646 144.256 69.5655C147.724 72.058 150.379 75.4717 152.221 79.8065C154.064 84.1413 154.985 89.614 154.985 96.2246C154.985 101.535 154.226 106.086 152.709 109.879C151.3 113.672 149.187 116.707 146.369 118.982C143.552 121.15 140.03 122.613 135.803 123.371C141.005 124.238 145.286 126.081 148.645 128.898C152.113 131.608 154.66 135.184 156.285 139.627C158.019 144.07 158.886 149.434 158.886 155.72C158.886 162.005 158.073 167.586 156.448 172.463C154.931 177.231 152.601 181.241 149.458 184.492C146.424 187.635 142.576 190.019 137.917 191.645C133.365 193.27 128.001 194.083 121.824 194.083H83.9481ZM108.006 177.177H117.109C124.37 177.177 129.301 175.443 131.902 171.975C134.503 168.399 135.803 162.927 135.803 155.557C135.803 150.247 135.153 145.967 133.853 142.715C132.661 139.356 130.602 136.863 127.676 135.238C124.858 133.612 121.065 132.8 116.297 132.8H108.006V177.177ZM108.006 116.219H116.134C120.902 116.219 124.587 115.515 127.188 114.106C129.789 112.697 131.577 110.529 132.552 107.603C133.636 104.677 134.178 100.993 134.178 96.5497C134.178 91.8898 133.365 88.3136 131.739 85.821C130.222 83.2201 127.892 81.4862 124.75 80.6193C121.607 79.6439 117.597 79.1563 112.72 79.1563H108.006V116.219ZM181.26 194.083V62.413H205.156V117.682H211.008C220.003 117.682 227.48 118.928 233.441 121.421C239.401 123.805 243.899 127.815 246.933 133.45C249.967 138.977 251.484 146.454 251.484 155.882C251.484 163.252 250.509 169.429 248.558 174.414C246.716 179.29 244.007 183.192 240.431 186.118C236.854 189.044 232.52 191.103 227.426 192.295C222.333 193.487 216.535 194.083 210.033 194.083H181.26ZM205.156 177.827H210.195C214.747 177.827 218.431 177.177 221.249 175.877C224.067 174.576 226.126 172.301 227.426 169.049C228.727 165.69 229.323 161.138 229.214 155.395C229.214 148.567 227.86 143.366 225.15 139.789C222.441 136.213 217.348 134.425 209.87 134.425H205.156V177.827ZM263.839 194.083V62.413H287.734V194.083H263.839ZM349.871 195.871C340.226 195.871 332.64 193.975 327.113 190.182C321.695 186.389 317.902 181.241 315.734 174.739C313.567 168.128 312.483 160.542 312.483 151.981V105.003C312.483 96.0078 313.567 88.2052 315.734 81.5946C317.902 74.984 321.695 69.8906 327.113 66.3144C332.64 62.7381 340.226 60.95 349.871 60.95C358.974 60.95 366.073 62.5214 371.166 65.6642C376.368 68.6985 380.052 73.0875 382.22 78.8311C384.387 84.5748 385.471 91.2396 385.471 98.8255V109.879H362.388V98.5004C362.388 94.8158 362.171 91.4563 361.738 88.4219C361.413 85.3876 360.383 83.0034 358.649 81.2695C357.024 79.4272 354.152 78.506 350.034 78.506C345.916 78.506 342.881 79.4814 340.931 81.432C339.088 83.2743 337.896 85.821 337.354 89.0721C336.813 92.2149 336.542 95.7911 336.542 99.8008V157.02C336.542 161.789 336.921 165.744 337.679 168.887C338.438 171.921 339.793 174.251 341.743 175.877C343.802 177.394 346.566 178.153 350.034 178.153C354.043 178.153 356.861 177.231 358.487 175.389C360.221 173.438 361.304 170.892 361.738 167.749C362.171 164.606 362.388 161.084 362.388 157.183V145.316H385.471V155.882C385.471 163.685 384.441 170.621 382.382 176.69C380.323 182.65 376.693 187.364 371.491 190.832C366.398 194.191 359.191 195.871 349.871 195.871ZM421.89 194.083V80.1316H400.92V62.413H466.592V80.1316H445.948V194.083H421.89ZM478.408 194.083L504.742 62.413H530.426L556.76 194.083H534.49L529.288 163.685H506.368L501.003 194.083H478.408ZM508.806 148.405H526.687L517.747 93.136L508.806 148.405ZM576.504 194.083V62.413H608.853C614.705 62.413 619.96 62.9549 624.62 64.0386C629.389 65.1223 633.453 66.9646 636.812 69.5655C640.28 72.058 642.935 75.4717 644.777 79.8065C646.62 84.1413 647.541 89.614 647.541 96.2246C647.541 101.535 646.782 106.086 645.265 109.879C643.856 113.672 641.743 116.707 638.925 118.982C636.108 121.15 632.586 122.613 628.359 123.371C633.561 124.238 637.842 126.081 641.201 128.898C644.669 131.608 647.216 135.184 648.841 139.627C650.575 144.07 651.442 149.434 651.442 155.72C651.442 162.005 650.629 167.586 649.004 172.463C647.487 177.231 645.157 181.241 642.014 184.492C638.979 187.635 635.132 190.019 630.472 191.645C625.921 193.27 620.557 194.083 614.379 194.083H576.504ZM600.562 177.177H609.665C616.926 177.177 621.857 175.443 624.458 171.975C627.059 168.399 628.359 162.927 628.359 155.557C628.359 150.247 627.709 145.967 626.409 142.715C625.216 139.356 623.157 136.863 620.231 135.238C617.414 133.612 613.621 132.8 608.853 132.8H600.562V177.177ZM600.562 116.219H608.69C613.458 116.219 617.143 115.515 619.744 114.106C622.345 112.697 624.133 110.529 625.108 107.603C626.192 104.677 626.734 100.993 626.734 96.5497C626.734 91.8898 625.921 88.3136 624.295 85.821C622.778 83.2201 620.448 81.4862 617.305 80.6193C614.163 79.6439 610.153 79.1563 605.276 79.1563H600.562V116.219ZM673.816 194.083V62.413H697.712V117.682H702.589L723.883 62.413H747.779L722.746 124.509L749.73 194.083H725.346L702.589 133.45H697.712V194.083H673.816ZM761.274 194.083L787.608 62.413H813.292L839.626 194.083H817.355L812.154 163.685H789.233L783.869 194.083H761.274ZM791.672 148.405H809.553L800.612 93.136L791.672 148.405Z" fill="#D75F4B"/>
<path d="M921.971 194.083V62.413H954.319C960.171 62.413 965.427 62.9549 970.087 64.0386C974.855 65.1223 978.919 66.9646 982.279 69.5655C985.747 72.058 988.402 75.4717 990.244 79.8065C992.086 84.1413 993.007 89.614 993.007 96.2246C993.007 101.535 992.249 106.086 990.732 109.879C989.323 113.672 987.21 116.707 984.392 118.982C981.574 121.15 978.052 122.613 973.826 123.371C979.028 124.238 983.308 126.081 986.668 128.898C990.136 131.608 992.682 135.184 994.308 139.627C996.042 144.07 996.909 149.434 996.909 155.72C996.909 162.005 996.096 167.586 994.47 172.463C992.953 177.231 990.623 181.241 987.48 184.492C984.446 187.635 980.599 190.019 975.939 191.645C971.387 193.27 966.023 194.083 959.846 194.083H921.971ZM946.029 177.177H955.132C962.393 177.177 967.324 175.443 969.924 171.975C972.525 168.399 973.826 162.927 973.826 155.557C973.826 150.247 973.176 145.967 971.875 142.715C970.683 139.356 968.624 136.863 965.698 135.238C962.88 133.612 959.087 132.8 954.319 132.8H946.029V177.177ZM946.029 116.219H954.157C958.925 116.219 962.609 115.515 965.21 114.106C967.811 112.697 969.599 110.529 970.575 107.603C971.658 104.677 972.2 100.993 972.2 96.5497C972.2 91.8898 971.387 88.3136 969.762 85.821C968.245 83.2201 965.915 81.4862 962.772 80.6193C959.629 79.6439 955.62 79.1563 950.743 79.1563H946.029V116.219ZM1019.28 194.083V62.413H1043.18V117.682H1049.03C1058.03 117.682 1065.5 118.928 1071.46 121.421C1077.42 123.805 1081.92 127.815 1084.96 133.45C1087.99 138.977 1089.51 146.454 1089.51 155.882C1089.51 163.252 1088.53 169.429 1086.58 174.414C1084.74 179.29 1082.03 183.192 1078.45 186.118C1074.88 189.044 1070.54 191.103 1065.45 192.295C1060.36 193.487 1054.56 194.083 1048.06 194.083H1019.28ZM1043.18 177.827H1048.22C1052.77 177.827 1056.45 177.177 1059.27 175.877C1062.09 174.576 1064.15 172.301 1065.45 169.049C1066.75 165.69 1067.35 161.138 1067.24 155.395C1067.24 148.567 1065.88 143.366 1063.17 139.789C1060.46 136.213 1055.37 134.425 1047.89 134.425H1043.18V177.827ZM1101.86 194.083V62.413H1125.76V194.083H1101.86ZM1187.89 195.871C1178.25 195.871 1170.66 193.975 1165.14 190.182C1159.72 186.389 1155.92 181.241 1153.76 174.739C1151.59 168.128 1150.51 160.542 1150.51 151.981V105.003C1150.51 96.0078 1151.59 88.2052 1153.76 81.5946C1155.92 74.984 1159.72 69.8906 1165.14 66.3144C1170.66 62.7381 1178.25 60.95 1187.89 60.95C1197 60.95 1204.09 62.5214 1209.19 65.6642C1214.39 68.6985 1218.07 73.0875 1220.24 78.8311C1222.41 84.5748 1223.49 91.2396 1223.49 98.8255V109.879H1200.41V98.5004C1200.41 94.8158 1200.19 91.4563 1199.76 88.4219C1199.44 85.3876 1198.41 83.0034 1196.67 81.2695C1195.05 79.4272 1192.17 78.506 1188.06 78.506C1183.94 78.506 1180.9 79.4814 1178.95 81.432C1177.11 83.2743 1175.92 85.821 1175.38 89.0721C1174.83 92.2149 1174.56 95.7911 1174.56 99.8008V157.02C1174.56 161.789 1174.94 165.744 1175.7 168.887C1176.46 171.921 1177.82 174.251 1179.77 175.877C1181.82 177.394 1184.59 178.153 1188.06 178.153C1192.07 178.153 1194.88 177.231 1196.51 175.389C1198.24 173.438 1199.33 170.892 1199.76 167.749C1200.19 164.606 1200.41 161.084 1200.41 157.183V145.316H1223.49V155.882C1223.49 163.685 1222.46 170.621 1220.4 176.69C1218.35 182.65 1214.72 187.364 1209.51 190.832C1204.42 194.191 1197.21 195.871 1187.89 195.871ZM1259.91 194.083V80.1316H1238.94V62.413H1304.61V80.1316H1283.97V194.083H1259.91ZM1316.43 194.083L1342.76 62.413H1368.45L1394.78 194.083H1372.51L1367.31 163.685H1344.39L1339.03 194.083H1316.43ZM1346.83 148.405H1364.71L1355.77 93.136L1346.83 148.405ZM1414.53 194.083V62.413H1446.88C1452.73 62.413 1457.98 62.9549 1462.64 64.0386C1467.41 65.1223 1471.48 66.9646 1474.83 69.5655C1478.3 72.058 1480.96 75.4717 1482.8 79.8065C1484.64 84.1413 1485.56 89.614 1485.56 96.2246C1485.56 101.535 1484.8 106.086 1483.29 109.879C1481.88 113.672 1479.77 116.707 1476.95 118.982C1474.13 121.15 1470.61 122.613 1466.38 123.371C1471.58 124.238 1475.86 126.081 1479.22 128.898C1482.69 131.608 1485.24 135.184 1486.86 139.627C1488.6 144.07 1489.46 149.434 1489.46 155.72C1489.46 162.005 1488.65 167.586 1487.03 172.463C1485.51 177.231 1483.18 181.241 1480.04 184.492C1477 187.635 1473.15 190.019 1468.49 191.645C1463.94 193.27 1458.58 194.083 1452.4 194.083H1414.53ZM1438.58 177.177H1447.69C1454.95 177.177 1459.88 175.443 1462.48 171.975C1465.08 168.399 1466.38 162.927 1466.38 155.557C1466.38 150.247 1465.73 145.967 1464.43 142.715C1463.24 139.356 1461.18 136.863 1458.25 135.238C1455.44 133.612 1451.64 132.8 1446.88 132.8H1438.58V177.177ZM1438.58 116.219H1446.71C1451.48 116.219 1455.17 115.515 1457.77 114.106C1460.37 112.697 1462.16 110.529 1463.13 107.603C1464.21 104.677 1464.76 100.993 1464.76 96.5497C1464.76 91.8898 1463.94 88.3136 1462.32 85.821C1460.8 83.2201 1458.47 81.4862 1455.33 80.6193C1452.19 79.6439 1448.18 79.1563 1443.3 79.1563H1438.58V116.219ZM1511.84 194.083V62.413H1535.73V117.682H1540.61L1561.91 62.413H1585.8L1560.77 124.509L1587.75 194.083H1563.37L1540.61 133.45H1535.73V194.083H1511.84ZM1599.3 194.083L1625.63 62.413H1651.31L1677.65 194.083H1655.38L1650.18 163.685H1627.26L1621.89 194.083H1599.3ZM1629.69 148.405H1647.58L1638.63 93.136L1629.69 148.405Z" fill="#D75F4B"/>
<path d="M1759.99 194.083V62.413H1792.34C1798.19 62.413 1803.45 62.9549 1808.11 64.0386C1812.88 65.1223 1816.94 66.9646 1820.3 69.5655C1823.77 72.058 1826.42 75.4717 1828.26 79.8065C1830.11 84.1413 1831.03 89.614 1831.03 96.2246C1831.03 101.535 1830.27 106.086 1828.75 109.879C1827.34 113.672 1825.23 116.707 1822.41 118.982C1819.6 121.15 1816.07 122.613 1811.85 123.371C1817.05 124.238 1821.33 126.081 1824.69 128.898C1828.16 131.608 1830.7 135.184 1832.33 139.627C1834.06 144.07 1834.93 149.434 1834.93 155.72C1834.93 162.005 1834.12 167.586 1832.49 172.463C1830.97 177.231 1828.64 181.241 1825.5 184.492C1822.47 187.635 1818.62 190.019 1813.96 191.645C1809.41 193.27 1804.04 194.083 1797.87 194.083H1759.99ZM1784.05 177.177H1793.15C1800.41 177.177 1805.34 175.443 1807.95 171.975C1810.55 168.399 1811.85 162.927 1811.85 155.557C1811.85 150.247 1811.2 145.967 1809.9 142.715C1808.7 139.356 1806.65 136.863 1803.72 135.238C1800.9 133.612 1797.11 132.8 1792.34 132.8H1784.05V177.177ZM1784.05 116.219H1792.18C1796.95 116.219 1800.63 115.515 1803.23 114.106C1805.83 112.697 1807.62 110.529 1808.6 107.603C1809.68 104.677 1810.22 100.993 1810.22 96.5497C1810.22 91.8898 1809.41 88.3136 1807.78 85.821C1806.27 83.2201 1803.94 81.4862 1800.79 80.6193C1797.65 79.6439 1793.64 79.1563 1788.76 79.1563H1784.05V116.219ZM1857.3 194.083V62.413H1881.2V117.682H1887.05C1896.05 117.682 1903.52 118.928 1909.48 121.421C1915.44 123.805 1919.94 127.815 1922.98 133.45C1926.01 138.977 1927.53 146.454 1927.53 155.882C1927.53 163.252 1926.55 169.429 1924.6 174.414C1922.76 179.29 1920.05 183.192 1916.47 186.118C1912.9 189.044 1908.56 191.103 1903.47 192.295C1898.38 193.487 1892.58 194.083 1886.08 194.083H1857.3ZM1881.2 177.827H1886.24C1890.79 177.827 1894.47 177.177 1897.29 175.877C1900.11 174.576 1902.17 172.301 1903.47 169.049C1904.77 165.69 1905.37 161.138 1905.26 155.395C1905.26 148.567 1903.9 143.366 1901.19 139.789C1898.48 136.213 1893.39 134.425 1885.91 134.425H1881.2V177.827ZM1939.88 194.083V62.413H1963.78V194.083H1939.88ZM2025.91 195.871C2016.27 195.871 2008.68 193.975 2003.16 190.182C1997.74 186.389 1993.95 181.241 1991.78 174.739C1989.61 168.128 1988.53 160.542 1988.53 151.981V105.003C1988.53 96.0078 1989.61 88.2052 1991.78 81.5946C1993.95 74.984 1997.74 69.8906 2003.16 66.3144C2008.68 62.7381 2016.27 60.95 2025.91 60.95C2035.02 60.95 2042.12 62.5214 2047.21 65.6642C2052.41 68.6985 2056.1 73.0875 2058.26 78.8311C2060.43 84.5748 2061.51 91.2396 2061.51 98.8255V109.879H2038.43V98.5004C2038.43 94.8158 2038.21 91.4563 2037.78 88.4219C2037.46 85.3876 2036.43 83.0034 2034.69 81.2695C2033.07 79.4272 2030.2 78.506 2026.08 78.506C2021.96 78.506 2018.92 79.4814 2016.97 81.432C2015.13 83.2743 2013.94 85.821 2013.4 89.0721C2012.86 92.2149 2012.59 95.7911 2012.59 99.8008V157.02C2012.59 161.789 2012.96 165.744 2013.72 168.887C2014.48 171.921 2015.84 174.251 2017.79 175.877C2019.85 177.394 2022.61 178.153 2026.08 178.153C2030.09 178.153 2032.9 177.231 2034.53 175.389C2036.26 173.438 2037.35 170.892 2037.78 167.749C2038.21 164.606 2038.43 161.084 2038.43 157.183V145.316H2061.51V155.882C2061.51 163.685 2060.48 170.621 2058.43 176.69C2056.37 182.65 2052.74 187.364 2047.53 190.832C2042.44 194.191 2035.23 195.871 2025.91 195.871ZM2097.93 194.083V80.1316H2076.96V62.413H2142.64V80.1316H2121.99V194.083H2097.93ZM2154.45 194.083L2180.79 62.413H2206.47L2232.8 194.083H2210.53L2205.33 163.685H2182.41L2177.05 194.083H2154.45ZM2184.85 148.405H2202.73L2193.79 93.136L2184.85 148.405ZM2252.55 194.083V62.413H2284.9C2290.75 62.413 2296 62.9549 2300.66 64.0386C2305.43 65.1223 2309.5 66.9646 2312.86 69.5655C2316.32 72.058 2318.98 75.4717 2320.82 79.8065C2322.66 84.1413 2323.58 89.614 2323.58 96.2246C2323.58 101.535 2322.83 106.086 2321.31 109.879C2319.9 113.672 2317.79 116.707 2314.97 118.982C2312.15 121.15 2308.63 122.613 2304.4 123.371C2309.6 124.238 2313.89 126.081 2317.24 128.898C2320.71 131.608 2323.26 135.184 2324.88 139.627C2326.62 144.07 2327.49 149.434 2327.49 155.72C2327.49 162.005 2326.67 167.586 2325.05 172.463C2323.53 177.231 2321.2 181.241 2318.06 184.492C2315.02 187.635 2311.18 190.019 2306.52 191.645C2301.96 193.27 2296.6 194.083 2290.42 194.083H2252.55ZM2276.61 177.177H2285.71C2292.97 177.177 2297.9 175.443 2300.5 171.975C2303.1 168.399 2304.4 162.927 2304.4 155.557C2304.4 150.247 2303.75 145.967 2302.45 142.715C2301.26 139.356 2299.2 136.863 2296.27 135.238C2293.46 133.612 2289.66 132.8 2284.9 132.8H2276.61V177.177ZM2276.61 116.219H2284.73C2289.5 116.219 2293.19 115.515 2295.79 114.106C2298.39 112.697 2300.18 110.529 2301.15 107.603C2302.24 104.677 2302.78 100.993 2302.78 96.5497C2302.78 91.8898 2301.96 88.3136 2300.34 85.821C2298.82 83.2201 2296.49 81.4862 2293.35 80.6193C2290.21 79.6439 2286.2 79.1563 2281.32 79.1563H2276.61V116.219ZM2349.86 194.083V62.413H2373.76V117.682H2378.63L2399.93 62.413H2423.82L2398.79 124.509L2425.77 194.083H2401.39L2378.63 133.45H2373.76V194.083H2349.86ZM2437.32 194.083L2463.65 62.413H2489.33L2515.67 194.083H2493.4L2488.2 163.685H2465.28L2459.91 194.083H2437.32ZM2467.72 148.405H2485.6L2476.66 93.136L2467.72 148.405Z" fill="#D75F4B"/>
<path d="M-218.951 434.72V303.05H-186.603C-180.751 303.05 -175.495 303.592 -170.835 304.675C-166.067 305.759 -162.003 307.601 -158.643 310.202C-155.175 312.695 -152.52 316.108 -150.678 320.443C-148.836 324.778 -147.915 330.251 -147.915 336.861C-147.915 342.171 -148.673 346.723 -150.19 350.516C-151.599 354.309 -153.712 357.343 -156.53 359.619C-159.348 361.786 -162.87 363.249 -167.096 364.008C-161.894 364.875 -157.614 366.717 -154.254 369.535C-150.786 372.244 -148.24 375.82 -146.614 380.264C-144.88 384.707 -144.013 390.071 -144.013 396.357C-144.013 402.642 -144.826 408.223 -146.452 413.1C-147.969 417.868 -150.299 421.878 -153.441 425.129C-156.476 428.272 -160.323 430.656 -164.983 432.281C-169.534 433.907 -174.899 434.72 -181.076 434.72H-218.951ZM-194.893 417.814H-185.79C-178.529 417.814 -173.598 416.08 -170.997 412.612C-168.397 409.036 -167.096 403.563 -167.096 396.194C-167.096 390.884 -167.746 386.603 -169.047 383.352C-170.239 379.993 -172.298 377.5 -175.224 375.875C-178.041 374.249 -181.834 373.436 -186.603 373.436H-194.893V417.814ZM-194.893 356.856H-186.765C-181.997 356.856 -178.312 356.151 -175.712 354.742C-173.111 353.334 -171.323 351.166 -170.347 348.24C-169.263 345.314 -168.722 341.63 -168.722 337.186C-168.722 332.526 -169.534 328.95 -171.16 326.458C-172.677 323.857 -175.007 322.123 -178.15 321.256C-181.293 320.281 -185.302 319.793 -190.179 319.793H-194.893V356.856ZM-121.639 434.72V303.05H-97.7433V358.319H-91.8913C-82.8966 358.319 -75.419 359.565 -69.4586 362.057C-63.4983 364.442 -59.0009 368.451 -55.9665 374.087C-52.9322 379.613 -51.415 387.091 -51.415 396.519C-51.415 403.888 -52.3903 410.065 -54.341 415.051C-56.1833 419.927 -58.8925 423.829 -62.4688 426.755C-66.045 429.681 -70.3798 431.74 -75.4732 432.932C-80.5666 434.124 -86.3644 434.72 -92.8666 434.72H-121.639ZM-97.7433 418.464H-92.7041C-88.1525 418.464 -84.4679 417.814 -81.6503 416.514C-78.8327 415.213 -76.7736 412.937 -75.4732 409.686C-74.1728 406.327 -73.5767 401.775 -73.6851 396.032C-73.6851 389.204 -75.0397 384.002 -77.749 380.426C-80.4582 376.85 -85.5516 375.062 -93.0292 375.062H-97.7433V418.464ZM-39.0608 434.72V303.05H-15.1651V434.72H-39.0608ZM46.9717 436.508C37.3268 436.508 29.7408 434.611 24.214 430.818C18.7954 427.025 15.0025 421.878 12.8351 415.376C10.6677 408.765 9.58396 401.179 9.58396 392.618V345.639C9.58396 336.645 10.6677 328.842 12.8351 322.231C15.0025 315.621 18.7954 310.527 24.214 306.951C29.7408 303.375 37.3268 301.587 46.9717 301.587C56.0748 301.587 63.1731 303.158 68.2665 306.301C73.4683 309.335 77.1529 313.724 79.3203 319.468C81.4877 325.211 82.5714 331.876 82.5714 339.462V350.516H59.4885V339.137C59.4885 335.452 59.2718 332.093 58.8383 329.059C58.5132 326.024 57.4837 323.64 55.7497 321.906C54.1242 320.064 51.2524 319.143 47.1343 319.143C43.0162 319.143 39.9818 320.118 38.0312 322.069C36.1889 323.911 34.9968 326.458 34.455 329.709C33.9131 332.852 33.6422 336.428 33.6422 340.438V397.657C33.6422 402.425 34.0215 406.381 34.7801 409.524C35.5387 412.558 36.8933 414.888 38.844 416.514C40.903 418.031 43.6664 418.789 47.1343 418.789C51.144 418.789 53.9616 417.868 55.5872 416.026C57.3211 414.075 58.4048 411.528 58.8383 408.386C59.2718 405.243 59.4885 401.721 59.4885 397.82V385.953H82.5714V396.519C82.5714 404.322 81.5419 411.258 79.4828 417.326C77.4238 423.287 73.7934 428.001 68.5916 431.469C63.4982 434.828 56.2916 436.508 46.9717 436.508ZM118.99 434.72V320.768H98.0205V303.05H163.693V320.768H143.048V434.72H118.99ZM175.509 434.72L201.843 303.05H227.526L253.86 434.72H231.59L226.389 404.322H203.468L198.104 434.72H175.509ZM205.907 389.042H223.788L214.847 333.773L205.907 389.042ZM273.605 434.72V303.05H305.953C311.805 303.05 317.061 303.592 321.721 304.675C326.489 305.759 330.553 307.601 333.913 310.202C337.381 312.695 340.036 316.108 341.878 320.443C343.72 324.778 344.641 330.251 344.641 336.861C344.641 342.171 343.883 346.723 342.366 350.516C340.957 354.309 338.844 357.343 336.026 359.619C333.208 361.786 329.686 363.249 325.46 364.008C330.662 364.875 334.942 366.717 338.302 369.535C341.77 372.244 344.316 375.82 345.942 380.264C347.676 384.707 348.543 390.071 348.543 396.357C348.543 402.642 347.73 408.223 346.104 413.1C344.587 417.868 342.257 421.878 339.114 425.129C336.08 428.272 332.233 430.656 327.573 432.281C323.021 433.907 317.657 434.72 311.48 434.72H273.605ZM297.663 417.814H306.766C314.027 417.814 318.958 416.08 321.558 412.612C324.159 409.036 325.46 403.563 325.46 396.194C325.46 390.884 324.81 386.603 323.509 383.352C322.317 379.993 320.258 377.5 317.332 375.875C314.514 374.249 310.721 373.436 305.953 373.436H297.663V417.814ZM297.663 356.856H305.791C310.559 356.856 314.243 356.151 316.844 354.742C319.445 353.334 321.233 351.166 322.209 348.24C323.292 345.314 323.834 341.63 323.834 337.186C323.834 332.526 323.021 328.95 321.396 326.458C319.879 323.857 317.549 322.123 314.406 321.256C311.263 320.281 307.254 319.793 302.377 319.793H297.663V356.856ZM370.917 434.72V303.05H394.813V358.319H399.689L420.984 303.05H444.88L419.846 365.146L446.83 434.72H422.447L399.689 374.087H394.813V434.72H370.917ZM458.374 434.72L484.708 303.05H510.392L536.726 434.72H514.456L509.254 404.322H486.334L480.97 434.72H458.374ZM488.772 389.042H506.653L497.713 333.773L488.772 389.042Z" fill="#D75F4B"/>
<path d="M619.07 434.72V303.05H651.419C657.271 303.05 662.527 303.592 667.187 304.675C671.955 305.759 676.019 307.601 679.378 310.202C682.846 312.695 685.501 316.108 687.344 320.443C689.186 324.778 690.107 330.251 690.107 336.861C690.107 342.171 689.348 346.723 687.831 350.516C686.422 354.309 684.309 357.343 681.492 359.619C678.674 361.786 675.152 363.249 670.925 364.008C676.127 364.875 680.408 366.717 683.767 369.535C687.235 372.244 689.782 375.82 691.407 380.264C693.141 384.707 694.008 390.071 694.008 396.357C694.008 402.642 693.195 408.223 691.57 413.1C690.053 417.868 687.723 421.878 684.58 425.129C681.546 428.272 677.699 430.656 673.039 432.281C668.487 433.907 663.123 434.72 656.946 434.72H619.07ZM643.128 417.814H652.232C659.492 417.814 664.423 416.08 667.024 412.612C669.625 409.036 670.925 403.563 670.925 396.194C670.925 390.884 670.275 386.603 668.975 383.352C667.783 379.993 665.724 377.5 662.798 375.875C659.98 374.249 656.187 373.436 651.419 373.436H643.128V417.814ZM643.128 356.856H651.256C656.024 356.856 659.709 356.151 662.31 354.742C664.911 353.334 666.699 351.166 667.674 348.24C668.758 345.314 669.3 341.63 669.3 337.186C669.3 332.526 668.487 328.95 666.862 326.458C665.344 323.857 663.014 322.123 659.872 321.256C656.729 320.281 652.719 319.793 647.843 319.793H643.128V356.856ZM716.383 434.72V303.05H740.278V358.319H746.13C755.125 358.319 762.602 359.565 768.563 362.057C774.523 364.442 779.021 368.451 782.055 374.087C785.089 379.613 786.607 387.091 786.607 396.519C786.607 403.888 785.631 410.065 783.681 415.051C781.838 419.927 779.129 423.829 775.553 426.755C771.977 429.681 767.642 431.74 762.548 432.932C757.455 434.124 751.657 434.72 745.155 434.72H716.383ZM740.278 418.464H745.317C749.869 418.464 753.554 417.814 756.371 416.514C759.189 415.213 761.248 412.937 762.548 409.686C763.849 406.327 764.445 401.775 764.336 396.032C764.336 389.204 762.982 384.002 760.273 380.426C757.563 376.85 752.47 375.062 744.992 375.062H740.278V418.464ZM798.961 434.72V303.05H822.856V434.72H798.961ZM884.993 436.508C875.348 436.508 867.762 434.611 862.235 430.818C856.817 427.025 853.024 421.878 850.857 415.376C848.689 408.765 847.605 401.179 847.605 392.618V345.639C847.605 336.645 848.689 328.842 850.857 322.231C853.024 315.621 856.817 310.527 862.235 306.951C867.762 303.375 875.348 301.587 884.993 301.587C894.096 301.587 901.195 303.158 906.288 306.301C911.49 309.335 915.174 313.724 917.342 319.468C919.509 325.211 920.593 331.876 920.593 339.462V350.516H897.51V339.137C897.51 335.452 897.293 332.093 896.86 329.059C896.535 326.024 895.505 323.64 893.771 321.906C892.146 320.064 889.274 319.143 885.156 319.143C881.038 319.143 878.003 320.118 876.053 322.069C874.21 323.911 873.018 326.458 872.476 329.709C871.935 332.852 871.664 336.428 871.664 340.438V397.657C871.664 402.425 872.043 406.381 872.802 409.524C873.56 412.558 874.915 414.888 876.865 416.514C878.924 418.031 881.688 418.789 885.156 418.789C889.165 418.789 891.983 417.868 893.609 416.026C895.343 414.075 896.426 411.528 896.86 408.386C897.293 405.243 897.51 401.721 897.51 397.82V385.953H920.593V396.519C920.593 404.322 919.563 411.258 917.504 417.326C915.445 423.287 911.815 428.001 906.613 431.469C901.52 434.828 894.313 436.508 884.993 436.508ZM957.012 434.72V320.768H936.042V303.05H1001.71V320.768H981.07V434.72H957.012ZM1013.53 434.72L1039.86 303.05H1065.55L1091.88 434.72H1069.61L1064.41 404.322H1041.49L1036.13 434.72H1013.53ZM1043.93 389.042H1061.81L1052.87 333.773L1043.93 389.042ZM1111.63 434.72V303.05H1143.97C1149.83 303.05 1155.08 303.592 1159.74 304.675C1164.51 305.759 1168.57 307.601 1171.93 310.202C1175.4 312.695 1178.06 316.108 1179.9 320.443C1181.74 324.778 1182.66 330.251 1182.66 336.861C1182.66 342.171 1181.9 346.723 1180.39 350.516C1178.98 354.309 1176.87 357.343 1174.05 359.619C1171.23 361.786 1167.71 363.249 1163.48 364.008C1168.68 364.875 1172.96 366.717 1176.32 369.535C1179.79 372.244 1182.34 375.82 1183.96 380.264C1185.7 384.707 1186.56 390.071 1186.56 396.357C1186.56 402.642 1185.75 408.223 1184.13 413.1C1182.61 417.868 1180.28 421.878 1177.14 425.129C1174.1 428.272 1170.25 430.656 1165.59 432.281C1161.04 433.907 1155.68 434.72 1149.5 434.72H1111.63ZM1135.68 417.814H1144.79C1152.05 417.814 1156.98 416.08 1159.58 412.612C1162.18 409.036 1163.48 403.563 1163.48 396.194C1163.48 390.884 1162.83 386.603 1161.53 383.352C1160.34 379.993 1158.28 377.5 1155.35 375.875C1152.54 374.249 1148.74 373.436 1143.97 373.436H1135.68V417.814ZM1135.68 356.856H1143.81C1148.58 356.856 1152.26 356.151 1154.87 354.742C1157.47 353.334 1159.25 351.166 1160.23 348.24C1161.31 345.314 1161.86 341.63 1161.86 337.186C1161.86 332.526 1161.04 328.95 1159.42 326.458C1157.9 323.857 1155.57 322.123 1152.43 321.256C1149.28 320.281 1145.28 319.793 1140.4 319.793H1135.68V356.856ZM1208.94 434.72V303.05H1232.83V358.319H1237.71L1259.01 303.05H1282.9L1257.87 365.146L1284.85 434.72H1260.47L1237.71 374.087H1232.83V434.72H1208.94ZM1296.4 434.72L1322.73 303.05H1348.41L1374.75 434.72H1352.48L1347.28 404.322H1324.36L1318.99 434.72H1296.4ZM1326.79 389.042H1344.67L1335.73 333.773L1326.79 389.042Z" fill="#D75F4B"/>
<path d="M728.451 675.356V543.686H760.8C766.652 543.686 771.908 544.228 776.567 545.312C781.336 546.396 785.4 548.238 788.759 550.839C792.227 553.331 794.882 556.745 796.724 561.08C798.567 565.415 799.488 570.887 799.488 577.498C799.488 582.808 798.729 587.36 797.212 591.153C795.803 594.946 793.69 597.98 790.872 600.256C788.055 602.423 784.533 603.886 780.306 604.645C785.508 605.512 789.789 607.354 793.148 610.172C796.616 612.881 799.163 616.457 800.788 620.9C802.522 625.344 803.389 630.708 803.389 636.993C803.389 643.279 802.576 648.86 800.951 653.737C799.434 658.505 797.104 662.515 793.961 665.766C790.927 668.908 787.079 671.293 782.419 672.918C777.868 674.544 772.504 675.356 766.326 675.356H728.451ZM752.509 658.451H761.612C768.873 658.451 773.804 656.717 776.405 653.249C779.006 649.673 780.306 644.2 780.306 636.831C780.306 631.521 779.656 627.24 778.356 623.989C777.164 620.629 775.104 618.137 772.178 616.511C769.361 614.886 765.568 614.073 760.8 614.073H752.509V658.451ZM752.509 597.492H760.637C765.405 597.492 769.09 596.788 771.691 595.379C774.292 593.97 776.08 591.803 777.055 588.877C778.139 585.951 778.681 582.266 778.681 577.823C778.681 573.163 777.868 569.587 776.242 567.094C774.725 564.494 772.395 562.76 769.252 561.893C766.11 560.917 762.1 560.43 757.223 560.43H752.509V597.492ZM825.763 675.356V543.686H849.659V598.955H855.511C864.506 598.955 871.983 600.202 877.944 602.694C883.904 605.078 888.401 609.088 891.436 614.723C894.47 620.25 895.987 627.728 895.987 637.156C895.987 644.525 895.012 650.702 893.061 655.687C891.219 660.564 888.51 664.465 884.934 667.391C881.357 670.317 877.023 672.376 871.929 673.568C866.836 674.76 861.038 675.356 854.536 675.356H825.763ZM849.659 659.101H854.698C859.25 659.101 862.934 658.451 865.752 657.15C868.57 655.85 870.629 653.574 871.929 650.323C873.23 646.963 873.826 642.412 873.717 636.668C873.717 629.841 872.363 624.639 869.653 621.063C866.944 617.487 861.851 615.699 854.373 615.699H849.659V659.101ZM908.342 675.356V543.686H932.237V675.356H908.342ZM994.374 677.145C984.729 677.145 977.143 675.248 971.616 671.455C966.198 667.662 962.405 662.515 960.237 656.012C958.07 649.402 956.986 641.816 956.986 633.255V586.276C956.986 577.281 958.07 569.479 960.237 562.868C962.405 556.257 966.198 551.164 971.616 547.588C977.143 544.012 984.729 542.223 994.374 542.223C1003.48 542.223 1010.58 543.795 1015.67 546.938C1020.87 549.972 1024.56 554.361 1026.72 560.105C1028.89 565.848 1029.97 572.513 1029.97 580.099V591.153H1006.89V579.774C1006.89 576.089 1006.67 572.73 1006.24 569.695C1005.92 566.661 1004.89 564.277 1003.15 562.543C1001.53 560.701 998.655 559.779 994.537 559.779C990.419 559.779 987.384 560.755 985.434 562.705C983.591 564.548 982.399 567.094 981.857 570.346C981.315 573.488 981.045 577.065 981.045 581.074V638.294C981.045 643.062 981.424 647.018 982.182 650.16C982.941 653.195 984.296 655.525 986.246 657.15C988.305 658.667 991.069 659.426 994.537 659.426C998.546 659.426 1001.36 658.505 1002.99 656.663C1004.72 654.712 1005.81 652.165 1006.24 649.022C1006.67 645.88 1006.89 642.358 1006.89 638.456V626.59H1029.97V637.156C1029.97 644.959 1028.94 651.894 1026.89 657.963C1024.83 663.923 1021.2 668.637 1015.99 672.105C1010.9 675.465 1003.69 677.145 994.374 677.145ZM1066.39 675.356V561.405H1045.42V543.686H1111.1V561.405H1090.45V675.356H1066.39ZM1122.91 675.356L1149.25 543.686H1174.93L1201.26 675.356H1178.99L1173.79 644.959H1150.87L1145.51 675.356H1122.91ZM1153.31 629.678H1171.19L1162.25 574.409L1153.31 629.678ZM1221.01 675.356V543.686H1253.36C1259.21 543.686 1264.46 544.228 1269.12 545.312C1273.89 546.396 1277.96 548.238 1281.32 550.839C1284.78 553.331 1287.44 556.745 1289.28 561.08C1291.12 565.415 1292.04 570.887 1292.04 577.498C1292.04 582.808 1291.29 587.36 1289.77 591.153C1288.36 594.946 1286.25 597.98 1283.43 600.256C1280.61 602.423 1277.09 603.886 1272.86 604.645C1278.06 605.512 1282.34 607.354 1285.7 610.172C1289.17 612.881 1291.72 616.457 1293.34 620.9C1295.08 625.344 1295.95 630.708 1295.95 636.993C1295.95 643.279 1295.13 648.86 1293.51 653.737C1291.99 658.505 1289.66 662.515 1286.52 665.766C1283.48 668.908 1279.64 671.293 1274.98 672.918C1270.42 674.544 1265.06 675.356 1258.88 675.356H1221.01ZM1245.07 658.451H1254.17C1261.43 658.451 1266.36 656.717 1268.96 653.249C1271.56 649.673 1272.86 644.2 1272.86 636.831C1272.86 631.521 1272.21 627.24 1270.91 623.989C1269.72 620.629 1267.66 618.137 1264.73 616.511C1261.92 614.886 1258.12 614.073 1253.36 614.073H1245.07V658.451ZM1245.07 597.492H1253.19C1257.96 597.492 1261.65 596.788 1264.25 595.379C1266.85 593.97 1268.64 591.803 1269.61 588.877C1270.69 585.951 1271.24 582.266 1271.24 577.823C1271.24 573.163 1270.42 569.587 1268.8 567.094C1267.28 564.494 1264.95 562.76 1261.81 561.893C1258.67 560.917 1254.66 560.43 1249.78 560.43H1245.07V597.492ZM1318.32 675.356V543.686H1342.21V598.955H1347.09L1368.39 543.686H1392.28L1367.25 605.783L1394.23 675.356H1369.85L1347.09 614.723H1342.21V675.356H1318.32ZM1405.78 675.356L1432.11 543.686H1457.79L1484.13 675.356H1461.86L1456.66 644.959H1433.74L1428.37 675.356H1405.78ZM1436.17 629.678H1454.06L1445.12 574.409L1436.17 629.678Z" fill="#D75F4B"/>
<path d="M465.938 915.993V784.323H498.287C504.139 784.323 509.395 784.865 514.055 785.949C518.823 787.032 522.887 788.875 526.246 791.476C529.714 793.968 532.369 797.382 534.212 801.717C536.054 806.051 536.975 811.524 536.975 818.135C536.975 823.445 536.217 827.996 534.699 831.789C533.291 835.582 531.177 838.617 528.36 840.893C525.542 843.06 522.02 844.523 517.794 845.282C522.995 846.148 527.276 847.991 530.635 850.808C534.103 853.518 536.65 857.094 538.276 861.537C540.009 865.98 540.876 871.345 540.876 877.63C540.876 883.916 540.064 889.497 538.438 894.373C536.921 899.142 534.591 903.151 531.448 906.402C528.414 909.545 524.567 911.929 519.907 913.555C515.355 915.18 509.991 915.993 503.814 915.993H465.938ZM489.997 899.087H499.1C506.36 899.087 511.291 897.353 513.892 893.886C516.493 890.309 517.794 884.837 517.794 877.468C517.794 872.157 517.143 867.877 515.843 864.626C514.651 861.266 512.592 858.774 509.666 857.148C506.848 855.523 503.055 854.71 498.287 854.71H489.997V899.087ZM489.997 838.129H498.124C502.893 838.129 506.577 837.425 509.178 836.016C511.779 834.607 513.567 832.44 514.542 829.514C515.626 826.588 516.168 822.903 516.168 818.46C516.168 813.8 515.355 810.224 513.73 807.731C512.212 805.13 509.883 803.396 506.74 802.529C503.597 801.554 499.587 801.066 494.711 801.066H489.997V838.129ZM563.251 915.993V784.323H587.146V839.592H592.998C601.993 839.592 609.471 840.838 615.431 843.331C621.391 845.715 625.889 849.725 628.923 855.36C631.957 860.887 633.475 868.364 633.475 877.793C633.475 885.162 632.499 891.339 630.549 896.324C628.706 901.201 625.997 905.102 622.421 908.028C618.845 910.954 614.51 913.013 609.416 914.205C604.323 915.397 598.525 915.993 592.023 915.993H563.251ZM587.146 899.738H592.186C596.737 899.738 600.422 899.087 603.239 897.787C606.057 896.487 608.116 894.211 609.416 890.96C610.717 887.6 611.313 883.049 611.205 877.305C611.205 870.478 609.85 865.276 607.141 861.7C604.431 858.123 599.338 856.335 591.86 856.335H587.146V899.738ZM645.829 915.993V784.323H669.725V915.993H645.829ZM731.861 917.781C722.216 917.781 714.63 915.885 709.104 912.092C703.685 908.299 699.892 903.151 697.725 896.649C695.557 890.038 694.474 882.453 694.474 873.891V826.913C694.474 817.918 695.557 810.115 697.725 803.505C699.892 796.894 703.685 791.801 709.104 788.225C714.63 784.648 722.216 782.86 731.861 782.86C740.964 782.86 748.063 784.432 753.156 787.574C758.358 790.609 762.043 794.998 764.21 800.741C766.377 806.485 767.461 813.15 767.461 820.736V831.789H744.378V820.411C744.378 816.726 744.161 813.366 743.728 810.332C743.403 807.298 742.373 804.914 740.639 803.18C739.014 801.337 736.142 800.416 732.024 800.416C727.906 800.416 724.871 801.392 722.921 803.342C721.079 805.184 719.886 807.731 719.345 810.982C718.803 814.125 718.532 817.701 718.532 821.711V878.931C718.532 883.699 718.911 887.654 719.67 890.797C720.428 893.831 721.783 896.161 723.734 897.787C725.793 899.304 728.556 900.063 732.024 900.063C736.034 900.063 738.851 899.142 740.477 897.299C742.211 895.349 743.294 892.802 743.728 889.659C744.161 886.516 744.378 882.994 744.378 879.093V867.227H767.461V877.793C767.461 885.595 766.432 892.531 764.372 898.6C762.313 904.56 758.683 909.274 753.481 912.742C748.388 916.102 741.181 917.781 731.861 917.781ZM803.88 915.993V802.042H782.91V784.323H848.583V802.042H827.938V915.993H803.88ZM860.398 915.993L886.732 784.323H912.416L938.75 915.993H916.48L911.278 885.595H888.358L882.994 915.993H860.398ZM890.796 870.315H908.677L899.737 815.046L890.796 870.315ZM958.494 915.993V784.323H990.843C996.695 784.323 1001.95 784.865 1006.61 785.949C1011.38 787.032 1015.44 788.875 1018.8 791.476C1022.27 793.968 1024.93 797.382 1026.77 801.717C1028.61 806.051 1029.53 811.524 1029.53 818.135C1029.53 823.445 1028.77 827.996 1027.26 831.789C1025.85 835.582 1023.73 838.617 1020.92 840.893C1018.1 843.06 1014.58 844.523 1010.35 845.282C1015.55 846.148 1019.83 847.991 1023.19 850.808C1026.66 853.518 1029.21 857.094 1030.83 861.537C1032.57 865.98 1033.43 871.345 1033.43 877.63C1033.43 883.916 1032.62 889.497 1030.99 894.373C1029.48 899.142 1027.15 903.151 1024 906.402C1020.97 909.545 1017.12 911.929 1012.46 913.555C1007.91 915.18 1002.55 915.993 996.37 915.993H958.494ZM982.552 899.087H991.656C998.916 899.087 1003.85 897.353 1006.45 893.886C1009.05 890.309 1010.35 884.837 1010.35 877.468C1010.35 872.157 1009.7 867.877 1008.4 864.626C1007.21 861.266 1005.15 858.774 1002.22 857.148C999.404 855.523 995.611 854.71 990.843 854.71H982.552V899.087ZM982.552 838.129H990.68C995.449 838.129 999.133 837.425 1001.73 836.016C1004.33 834.607 1006.12 832.44 1007.1 829.514C1008.18 826.588 1008.72 822.903 1008.72 818.46C1008.72 813.8 1007.91 810.224 1006.29 807.731C1004.77 805.13 1002.44 803.396 999.296 802.529C996.153 801.554 992.143 801.066 987.267 801.066H982.552V838.129ZM1055.81 915.993V784.323H1079.7V839.592H1084.58L1105.87 784.323H1129.77L1104.74 846.419L1131.72 915.993H1107.34L1084.58 855.36H1079.7V915.993H1055.81ZM1143.26 915.993L1169.6 784.323H1195.28L1221.62 915.993H1199.35L1194.14 885.595H1171.22L1165.86 915.993H1143.26ZM1173.66 870.315H1191.54L1182.6 815.046L1173.66 870.315Z" fill="#D75F4B"/>
<path d="M1303.96 915.993V784.323H1336.31C1342.16 784.323 1347.42 784.865 1352.08 785.948C1356.85 787.032 1360.91 788.874 1364.27 791.475C1367.74 793.968 1370.39 797.381 1372.23 801.716C1374.08 806.051 1375 811.524 1375 818.134C1375 823.444 1374.24 827.996 1372.72 831.789C1371.31 835.582 1369.2 838.616 1366.38 840.892C1363.56 843.059 1360.04 844.522 1355.82 845.281C1361.02 846.148 1365.3 847.99 1368.66 850.808C1372.13 853.517 1374.67 857.093 1376.3 861.537C1378.03 865.98 1378.9 871.344 1378.9 877.63C1378.9 883.915 1378.09 889.496 1376.46 894.373C1374.94 899.141 1372.61 903.151 1369.47 906.402C1366.44 909.545 1362.59 911.929 1357.93 913.554C1353.38 915.18 1348.01 915.993 1341.84 915.993H1303.96ZM1328.02 899.087H1337.12C1344.38 899.087 1349.31 897.353 1351.91 893.885C1354.52 890.309 1355.82 884.836 1355.82 877.467C1355.82 872.157 1355.17 867.876 1353.86 864.625C1352.67 861.266 1350.61 858.773 1347.69 857.148C1344.87 855.522 1341.08 854.709 1336.31 854.709H1328.02V899.087ZM1328.02 838.129H1336.15C1340.91 838.129 1344.6 837.424 1347.2 836.015C1349.8 834.607 1351.59 832.439 1352.56 829.513C1353.65 826.587 1354.19 822.903 1354.19 818.459C1354.19 813.799 1353.38 810.223 1351.75 807.731C1350.23 805.13 1347.9 803.396 1344.76 802.529C1341.62 801.554 1337.61 801.066 1332.73 801.066H1328.02V838.129ZM1401.27 915.993V784.323H1425.17V839.592H1431.02C1440.02 839.592 1447.49 840.838 1453.45 843.33C1459.41 845.715 1463.91 849.724 1466.95 855.359C1469.98 860.886 1471.5 868.364 1471.5 877.792C1471.5 885.161 1470.52 891.338 1468.57 896.323C1466.73 901.2 1464.02 905.101 1460.44 908.027C1456.87 910.953 1452.53 913.012 1447.44 914.205C1442.35 915.397 1436.55 915.993 1430.04 915.993H1401.27ZM1425.17 899.737H1430.21C1434.76 899.737 1438.44 899.087 1441.26 897.786C1444.08 896.486 1446.14 894.21 1447.44 890.959C1448.74 887.6 1449.33 883.048 1449.23 877.304C1449.23 870.477 1447.87 865.275 1445.16 861.699C1442.45 858.123 1437.36 856.335 1429.88 856.335H1425.17V899.737ZM1483.85 915.993V784.323H1507.75V915.993H1483.85ZM1569.88 917.781C1560.24 917.781 1552.65 915.884 1547.13 912.091C1541.71 908.298 1537.91 903.151 1535.75 896.649C1533.58 890.038 1532.5 882.452 1532.5 873.891V826.912C1532.5 817.918 1533.58 810.115 1535.75 803.504C1537.91 796.894 1541.71 791.8 1547.13 788.224C1552.65 784.648 1560.24 782.86 1569.88 782.86C1578.99 782.86 1586.08 784.431 1591.18 787.574C1596.38 790.608 1600.06 794.997 1602.23 800.741C1604.4 806.484 1605.48 813.149 1605.48 820.735V831.789H1582.4V820.41C1582.4 816.725 1582.18 813.366 1581.75 810.332C1581.42 807.297 1580.4 804.913 1578.66 803.179C1577.04 801.337 1574.16 800.416 1570.05 800.416C1565.93 800.416 1562.89 801.391 1560.94 803.342C1559.1 805.184 1557.91 807.731 1557.37 810.982C1556.82 814.125 1556.55 817.701 1556.55 821.71V878.93C1556.55 883.698 1556.93 887.654 1557.69 890.797C1558.45 893.831 1559.8 896.161 1561.76 897.786C1563.81 899.304 1566.58 900.062 1570.05 900.062C1574.06 900.062 1576.87 899.141 1578.5 897.299C1580.23 895.348 1581.32 892.801 1581.75 889.659C1582.18 886.516 1582.4 882.994 1582.4 879.093V867.226H1605.48V877.792C1605.48 885.595 1604.45 892.53 1602.39 898.599C1600.34 904.56 1596.71 909.274 1591.5 912.742C1586.41 916.101 1579.2 917.781 1569.88 917.781ZM1641.9 915.993V802.041H1620.93V784.323H1686.6V802.041H1665.96V915.993H1641.9ZM1698.42 915.993L1724.75 784.323H1750.44L1776.77 915.993H1754.5L1749.3 885.595H1726.38L1721.02 915.993H1698.42ZM1728.82 870.315H1746.7L1737.76 815.046L1728.82 870.315ZM1796.52 915.993V784.323H1828.86C1834.72 784.323 1839.97 784.865 1844.63 785.948C1849.4 787.032 1853.46 788.874 1856.82 791.475C1860.29 793.968 1862.95 797.381 1864.79 801.716C1866.63 806.051 1867.55 811.524 1867.55 818.134C1867.55 823.444 1866.79 827.996 1865.28 831.789C1863.87 835.582 1861.76 838.616 1858.94 840.892C1856.12 843.059 1852.6 844.522 1848.37 845.281C1853.57 846.148 1857.85 847.99 1861.21 850.808C1864.68 853.517 1867.23 857.093 1868.85 861.537C1870.59 865.98 1871.45 871.344 1871.45 877.63C1871.45 883.915 1870.64 889.496 1869.02 894.373C1867.5 899.141 1865.17 903.151 1862.03 906.402C1858.99 909.545 1855.14 911.929 1850.48 913.554C1845.93 915.18 1840.57 915.993 1834.39 915.993H1796.52ZM1820.57 899.087H1829.68C1836.94 899.087 1841.87 897.353 1844.47 893.885C1847.07 890.309 1848.37 884.836 1848.37 877.467C1848.37 872.157 1847.72 867.876 1846.42 864.625C1845.23 861.266 1843.17 858.773 1840.24 857.148C1837.43 855.522 1833.63 854.709 1828.86 854.709H1820.57V899.087ZM1820.57 838.129H1828.7C1833.47 838.129 1837.16 837.424 1839.76 836.015C1842.36 834.607 1844.14 832.439 1845.12 829.513C1846.2 826.587 1846.75 822.903 1846.75 818.459C1846.75 813.799 1845.93 810.223 1844.31 807.731C1842.79 805.13 1840.46 803.396 1837.32 802.529C1834.17 801.554 1830.17 801.066 1825.29 801.066H1820.57V838.129ZM1893.83 915.993V784.323H1917.72V839.592H1922.6L1943.9 784.323H1967.79L1942.76 846.419L1969.74 915.993H1945.36L1922.6 855.359H1917.72V915.993H1893.83ZM1981.29 915.993L2007.62 784.323H2033.3L2059.64 915.993H2037.37L2032.17 885.595H2009.25L2003.88 915.993H1981.29ZM2011.68 870.315H2029.56L2020.62 815.046L2011.68 870.315Z" fill="#D75F4B"/>
<path d="M2141.98 915.993V784.323H2174.33C2180.18 784.323 2185.44 784.865 2190.1 785.948C2194.87 787.032 2198.93 788.874 2202.29 791.475C2205.76 793.968 2208.41 797.381 2210.25 801.716C2212.1 806.051 2213.02 811.524 2213.02 818.134C2213.02 823.444 2212.26 827.996 2210.74 831.789C2209.33 835.582 2207.22 838.616 2204.4 840.892C2201.59 843.059 2198.06 844.522 2193.84 845.281C2199.04 846.148 2203.32 847.99 2206.68 850.808C2210.15 853.517 2212.69 857.093 2214.32 861.537C2216.05 865.98 2216.92 871.344 2216.92 877.63C2216.92 883.915 2216.11 889.496 2214.48 894.373C2212.96 899.141 2210.63 903.151 2207.49 906.402C2204.46 909.545 2200.61 911.929 2195.95 913.554C2191.4 915.18 2186.03 915.993 2179.86 915.993H2141.98ZM2166.04 899.087H2175.14C2182.4 899.087 2187.33 897.353 2189.94 893.885C2192.54 890.309 2193.84 884.836 2193.84 877.467C2193.84 872.157 2193.19 867.876 2191.89 864.625C2190.69 861.266 2188.63 858.773 2185.71 857.148C2182.89 855.522 2179.1 854.709 2174.33 854.709H2166.04V899.087ZM2166.04 838.129H2174.17C2178.94 838.129 2182.62 837.424 2185.22 836.015C2187.82 834.607 2189.61 832.439 2190.59 829.513C2191.67 826.587 2192.21 822.903 2192.21 818.459C2192.21 813.799 2191.4 810.223 2189.77 807.731C2188.26 805.13 2185.93 803.396 2182.78 802.529C2179.64 801.554 2175.63 801.066 2170.75 801.066H2166.04V838.129ZM2239.29 915.993V784.323H2263.19V839.592H2269.04C2278.04 839.592 2285.51 840.838 2291.47 843.33C2297.43 845.715 2301.93 849.724 2304.97 855.359C2308 860.886 2309.52 868.364 2309.52 877.792C2309.52 885.161 2308.54 891.338 2306.59 896.323C2304.75 901.2 2302.04 905.101 2298.46 908.027C2294.89 910.953 2290.55 913.012 2285.46 914.205C2280.37 915.397 2274.57 915.993 2268.07 915.993H2239.29ZM2263.19 899.737H2268.23C2272.78 899.737 2276.46 899.087 2279.28 897.786C2282.1 896.486 2284.16 894.21 2285.46 890.959C2286.76 887.6 2287.36 883.048 2287.25 877.304C2287.25 870.477 2285.89 865.275 2283.18 861.699C2280.47 858.123 2275.38 856.335 2267.9 856.335H2263.19V899.737ZM2321.87 915.993V784.323H2345.77V915.993H2321.87ZM2407.9 917.781C2398.26 917.781 2390.67 915.884 2385.15 912.091C2379.73 908.298 2375.94 903.151 2373.77 896.649C2371.6 890.038 2370.52 882.452 2370.52 873.891V826.912C2370.52 817.918 2371.6 810.115 2373.77 803.504C2375.94 796.894 2379.73 791.8 2385.15 788.224C2390.67 784.648 2398.26 782.86 2407.9 782.86C2417.01 782.86 2424.11 784.431 2429.2 787.574C2434.4 790.608 2438.09 794.997 2440.25 800.741C2442.42 806.484 2443.5 813.149 2443.5 820.735V831.789H2420.42V820.41C2420.42 816.725 2420.2 813.366 2419.77 810.332C2419.45 807.297 2418.42 804.913 2416.68 803.179C2415.06 801.337 2412.19 800.416 2408.07 800.416C2403.95 800.416 2400.91 801.391 2398.96 803.342C2397.12 805.184 2395.93 807.731 2395.39 810.982C2394.85 814.125 2394.58 817.701 2394.58 821.71V878.93C2394.58 883.698 2394.95 887.654 2395.71 890.797C2396.47 893.831 2397.83 896.161 2399.78 897.786C2401.84 899.304 2404.6 900.062 2408.07 900.062C2412.08 900.062 2414.89 899.141 2416.52 897.299C2418.25 895.348 2419.34 892.801 2419.77 889.659C2420.2 886.516 2420.42 882.994 2420.42 879.093V867.226H2443.5V877.792C2443.5 885.595 2442.47 892.53 2440.42 898.599C2438.36 904.56 2434.73 909.274 2429.52 912.742C2424.43 916.101 2417.22 917.781 2407.9 917.781ZM2479.92 915.993V802.041H2458.95V784.323H2524.63V802.041H2503.98V915.993H2479.92ZM2536.44 915.993L2562.78 784.323H2588.46L2614.79 915.993H2592.52L2587.32 885.595H2564.4L2559.04 915.993H2536.44ZM2566.84 870.315H2584.72L2575.78 815.046L2566.84 870.315ZM2634.54 915.993V784.323H2666.89C2672.74 784.323 2677.99 784.865 2682.65 785.948C2687.42 787.032 2691.49 788.874 2694.85 791.475C2698.31 793.968 2700.97 797.381 2702.81 801.716C2704.65 806.051 2705.57 811.524 2705.57 818.134C2705.57 823.444 2704.82 827.996 2703.3 831.789C2701.89 835.582 2699.78 838.616 2696.96 840.892C2694.14 843.059 2690.62 844.522 2686.39 845.281C2691.59 846.148 2695.88 847.99 2699.23 850.808C2702.7 853.517 2705.25 857.093 2706.87 861.537C2708.61 865.98 2709.48 871.344 2709.48 877.63C2709.48 883.915 2708.66 889.496 2707.04 894.373C2705.52 899.141 2703.19 903.151 2700.05 906.402C2697.01 909.545 2693.17 911.929 2688.51 913.554C2683.95 915.18 2678.59 915.993 2672.41 915.993H2634.54ZM2658.6 899.087H2667.7C2674.96 899.087 2679.89 897.353 2682.49 893.885C2685.09 890.309 2686.39 884.836 2686.39 877.467C2686.39 872.157 2685.74 867.876 2684.44 864.625C2683.25 861.266 2681.19 858.773 2678.26 857.148C2675.45 855.522 2671.65 854.709 2666.89 854.709H2658.6V899.087ZM2658.6 838.129H2666.72C2671.49 838.129 2675.18 837.424 2677.78 836.015C2680.38 834.607 2682.17 832.439 2683.14 829.513C2684.23 826.587 2684.77 822.903 2684.77 818.459C2684.77 813.799 2683.95 810.223 2682.33 807.731C2680.81 805.13 2678.48 803.396 2675.34 802.529C2672.2 801.554 2668.19 801.066 2663.31 801.066H2658.6V838.129ZM2731.85 915.993V784.323H2755.75V839.592H2760.62L2781.92 784.323H2805.81L2780.78 846.419L2807.76 915.993H2783.38L2760.62 855.359H2755.75V915.993H2731.85ZM2819.31 915.993L2845.64 784.323H2871.32L2897.66 915.993H2875.39L2870.19 885.595H2847.27L2841.9 915.993H2819.31ZM2849.71 870.315H2867.59L2858.65 815.046L2849.71 870.315Z" fill="#D75F4B"/>
<path d="M1566.47 675.356V543.686H1598.82C1604.67 543.686 1609.93 544.228 1614.59 545.312C1619.36 546.396 1623.42 548.238 1626.78 550.839C1630.25 553.331 1632.9 556.745 1634.75 561.08C1636.59 565.415 1637.51 570.887 1637.51 577.498C1637.51 582.808 1636.75 587.36 1635.23 591.153C1633.82 594.946 1631.71 597.98 1628.89 600.256C1626.08 602.423 1622.55 603.886 1618.33 604.645C1623.53 605.512 1627.81 607.354 1631.17 610.172C1634.64 612.881 1637.18 616.457 1638.81 620.9C1640.54 625.344 1641.41 630.708 1641.41 636.993C1641.41 643.279 1640.6 648.86 1638.97 653.737C1637.46 658.505 1635.13 662.515 1631.98 665.766C1628.95 668.908 1625.1 671.293 1620.44 672.918C1615.89 674.544 1610.53 675.356 1604.35 675.356H1566.47ZM1590.53 658.451H1599.63C1606.89 658.451 1611.83 656.717 1614.43 653.249C1617.03 649.673 1618.33 644.2 1618.33 636.831C1618.33 631.521 1617.68 627.24 1616.38 623.989C1615.18 620.629 1613.13 618.137 1610.2 616.511C1607.38 614.886 1603.59 614.073 1598.82 614.073H1590.53V658.451ZM1590.53 597.492H1598.66C1603.43 597.492 1607.11 596.788 1609.71 595.379C1612.31 593.97 1614.1 591.803 1615.08 588.877C1616.16 585.951 1616.7 582.266 1616.7 577.823C1616.7 573.163 1615.89 569.587 1614.26 567.094C1612.75 564.494 1610.42 562.76 1607.27 561.893C1604.13 560.917 1600.12 560.43 1595.24 560.43H1590.53V597.492ZM1663.78 675.356V543.686H1687.68V598.955H1693.53C1702.53 598.955 1710 600.202 1715.97 602.694C1721.93 605.078 1726.42 609.088 1729.46 614.723C1732.49 620.25 1734.01 627.728 1734.01 637.156C1734.01 644.525 1733.03 650.702 1731.08 655.687C1729.24 660.564 1726.53 664.465 1722.96 667.391C1719.38 670.317 1715.04 672.376 1709.95 673.568C1704.86 674.76 1699.06 675.356 1692.56 675.356H1663.78ZM1687.68 659.101H1692.72C1697.27 659.101 1700.96 658.451 1703.77 657.15C1706.59 655.85 1708.65 653.574 1709.95 650.323C1711.25 646.963 1711.85 642.412 1711.74 636.668C1711.74 629.841 1710.38 624.639 1707.67 621.063C1704.97 617.487 1699.87 615.699 1692.39 615.699H1687.68V659.101ZM1746.36 675.356V543.686H1770.26V675.356H1746.36ZM1832.4 677.145C1822.75 677.145 1815.16 675.248 1809.64 671.455C1804.22 667.662 1800.43 662.515 1798.26 656.012C1796.09 649.402 1795.01 641.816 1795.01 633.255V586.276C1795.01 577.281 1796.09 569.479 1798.26 562.868C1800.43 556.257 1804.22 551.164 1809.64 547.588C1815.16 544.012 1822.75 542.223 1832.4 542.223C1841.5 542.223 1848.6 543.795 1853.69 546.938C1858.89 549.972 1862.58 554.361 1864.74 560.105C1866.91 565.848 1868 572.513 1868 580.099V591.153H1844.91V579.774C1844.91 576.089 1844.7 572.73 1844.26 569.695C1843.94 566.661 1842.91 564.277 1841.17 562.543C1839.55 560.701 1836.68 559.779 1832.56 559.779C1828.44 559.779 1825.41 560.755 1823.46 562.705C1821.61 564.548 1820.42 567.094 1819.88 570.346C1819.34 573.488 1819.07 577.065 1819.07 581.074V638.294C1819.07 643.062 1819.45 647.018 1820.2 650.16C1820.96 653.195 1822.32 655.525 1824.27 657.15C1826.33 658.667 1829.09 659.426 1832.56 659.426C1836.57 659.426 1839.39 658.505 1841.01 656.663C1842.74 654.712 1843.83 652.165 1844.26 649.022C1844.7 645.88 1844.91 642.358 1844.91 638.456V626.59H1868V637.156C1868 644.959 1866.97 651.894 1864.91 657.963C1862.85 663.923 1859.22 668.637 1854.02 672.105C1848.92 675.465 1841.72 677.145 1832.4 677.145ZM1904.41 675.356V561.405H1883.44V543.686H1949.12V561.405H1928.47V675.356H1904.41ZM1960.93 675.356L1987.27 543.686H2012.95L2039.28 675.356H2017.01L2011.81 644.959H1988.89L1983.53 675.356H1960.93ZM1991.33 629.678H2009.21L2000.27 574.409L1991.33 629.678ZM2059.03 675.356V543.686H2091.38C2097.23 543.686 2102.48 544.228 2107.14 545.312C2111.91 546.396 2115.98 548.238 2119.34 550.839C2122.8 553.331 2125.46 556.745 2127.3 561.08C2129.14 565.415 2130.07 570.887 2130.07 577.498C2130.07 582.808 2129.31 587.36 2127.79 591.153C2126.38 594.946 2124.27 597.98 2121.45 600.256C2118.63 602.423 2115.11 603.886 2110.88 604.645C2116.09 605.512 2120.37 607.354 2123.73 610.172C2127.19 612.881 2129.74 616.457 2131.37 620.9C2133.1 625.344 2133.97 630.708 2133.97 636.993C2133.97 643.279 2133.15 648.86 2131.53 653.737C2130.01 658.505 2127.68 662.515 2124.54 665.766C2121.5 668.908 2117.66 671.293 2113 672.918C2108.45 674.544 2103.08 675.356 2096.9 675.356H2059.03ZM2083.09 658.451H2092.19C2099.45 658.451 2104.38 656.717 2106.98 653.249C2109.58 649.673 2110.88 644.2 2110.88 636.831C2110.88 631.521 2110.23 627.24 2108.93 623.989C2107.74 620.629 2105.68 618.137 2102.76 616.511C2099.94 614.886 2096.15 614.073 2091.38 614.073H2083.09V658.451ZM2083.09 597.492H2091.21C2095.98 597.492 2099.67 596.788 2102.27 595.379C2104.87 593.97 2106.66 591.803 2107.63 588.877C2108.72 585.951 2109.26 582.266 2109.26 577.823C2109.26 573.163 2108.45 569.587 2106.82 567.094C2105.3 564.494 2102.97 562.76 2099.83 561.893C2096.69 560.917 2092.68 560.43 2087.8 560.43H2083.09V597.492ZM2156.34 675.356V543.686H2180.24V598.955H2185.11L2206.41 543.686H2230.3L2205.27 605.783L2232.25 675.356H2207.87L2185.11 614.723H2180.24V675.356H2156.34ZM2243.8 675.356L2270.13 543.686H2295.82L2322.15 675.356H2299.88L2294.68 644.959H2271.76L2266.39 675.356H2243.8ZM2274.2 629.678H2292.08L2283.14 574.409L2274.2 629.678Z" fill="#D75F4B"/>
<path d="M2404.49 675.356V543.686H2436.84C2442.7 543.686 2447.95 544.228 2452.61 545.312C2457.38 546.396 2461.44 548.238 2464.8 550.839C2468.27 553.331 2470.93 556.745 2472.77 561.08C2474.61 565.415 2475.53 570.887 2475.53 577.498C2475.53 582.808 2474.77 587.36 2473.26 591.153C2471.85 594.946 2469.73 597.98 2466.92 600.256C2464.1 602.423 2460.58 603.886 2456.35 604.645C2461.55 605.512 2465.83 607.354 2469.19 610.172C2472.66 612.881 2475.21 616.457 2476.83 620.9C2478.57 625.344 2479.43 630.708 2479.43 636.993C2479.43 643.279 2478.62 648.86 2476.99 653.737C2475.48 658.505 2473.15 662.515 2470 665.766C2466.97 668.908 2463.12 671.293 2458.46 672.918C2453.91 674.544 2448.55 675.356 2442.37 675.356H2404.49ZM2428.55 658.451H2437.66C2444.92 658.451 2449.85 656.717 2452.45 653.249C2455.05 649.673 2456.35 644.2 2456.35 636.831C2456.35 631.521 2455.7 627.24 2454.4 623.989C2453.21 620.629 2451.15 618.137 2448.22 616.511C2445.4 614.886 2441.61 614.073 2436.84 614.073H2428.55V658.451ZM2428.55 597.492H2436.68C2441.45 597.492 2445.13 596.788 2447.73 595.379C2450.34 593.97 2452.12 591.803 2453.1 588.877C2454.18 585.951 2454.72 582.266 2454.72 577.823C2454.72 573.163 2453.91 569.587 2452.29 567.094C2450.77 564.494 2448.44 562.76 2445.3 561.893C2442.15 560.917 2438.14 560.43 2433.27 560.43H2428.55V597.492ZM2501.81 675.356V543.686H2525.7V598.955H2531.55C2540.55 598.955 2548.03 600.202 2553.99 602.694C2559.95 605.078 2564.44 609.088 2567.48 614.723C2570.51 620.25 2572.03 627.728 2572.03 637.156C2572.03 644.525 2571.06 650.702 2569.1 655.687C2567.26 660.564 2564.55 664.465 2560.98 667.391C2557.4 670.317 2553.07 672.376 2547.97 673.568C2542.88 674.76 2537.08 675.356 2530.58 675.356H2501.81ZM2525.7 659.101H2530.74C2535.29 659.101 2538.98 658.451 2541.8 657.15C2544.61 655.85 2546.67 653.574 2547.97 650.323C2549.27 646.963 2549.87 642.412 2549.76 636.668C2549.76 629.841 2548.41 624.639 2545.7 621.063C2542.99 617.487 2537.89 615.699 2530.42 615.699H2525.7V659.101ZM2584.39 675.356V543.686H2608.28V675.356H2584.39ZM2670.42 677.145C2660.77 677.145 2653.19 675.248 2647.66 671.455C2642.24 667.662 2638.45 662.515 2636.28 656.012C2634.11 649.402 2633.03 641.816 2633.03 633.255V586.276C2633.03 577.281 2634.11 569.479 2636.28 562.868C2638.45 556.257 2642.24 551.164 2647.66 547.588C2653.19 544.012 2660.77 542.223 2670.42 542.223C2679.52 542.223 2686.62 543.795 2691.71 546.938C2696.91 549.972 2700.6 554.361 2702.77 560.105C2704.93 565.848 2706.02 572.513 2706.02 580.099V591.153H2682.93V579.774C2682.93 576.089 2682.72 572.73 2682.28 569.695C2681.96 566.661 2680.93 564.277 2679.2 562.543C2677.57 560.701 2674.7 559.779 2670.58 559.779C2666.46 559.779 2663.43 560.755 2661.48 562.705C2659.63 564.548 2658.44 567.094 2657.9 570.346C2657.36 573.488 2657.09 577.065 2657.09 581.074V638.294C2657.09 643.062 2657.47 647.018 2658.23 650.16C2658.98 653.195 2660.34 655.525 2662.29 657.15C2664.35 658.667 2667.11 659.426 2670.58 659.426C2674.59 659.426 2677.41 658.505 2679.03 656.663C2680.77 654.712 2681.85 652.165 2682.28 649.022C2682.72 645.88 2682.93 642.358 2682.93 638.456V626.59H2706.02V637.156C2706.02 644.959 2704.99 651.894 2702.93 657.963C2700.87 663.923 2697.24 668.637 2692.04 672.105C2686.94 675.465 2679.74 677.145 2670.42 677.145ZM2742.44 675.356V561.405H2721.47V543.686H2787.14V561.405H2766.49V675.356H2742.44ZM2798.95 675.356L2825.29 543.686H2850.97L2877.31 675.356H2855.04L2849.83 644.959H2826.91L2821.55 675.356H2798.95ZM2829.35 629.678H2847.23L2838.29 574.409L2829.35 629.678ZM2897.05 675.356V543.686H2929.4C2935.25 543.686 2940.51 544.228 2945.17 545.312C2949.94 546.396 2954 548.238 2957.36 550.839C2960.83 553.331 2963.48 556.745 2965.32 561.08C2967.17 565.415 2968.09 570.887 2968.09 577.498C2968.09 582.808 2967.33 587.36 2965.81 591.153C2964.4 594.946 2962.29 597.98 2959.47 600.256C2956.65 602.423 2953.13 603.886 2948.91 604.645C2954.11 605.512 2958.39 607.354 2961.75 610.172C2965.22 612.881 2967.76 616.457 2969.39 620.9C2971.12 625.344 2971.99 630.708 2971.99 636.993C2971.99 643.279 2971.18 648.86 2969.55 653.737C2968.03 658.505 2965.7 662.515 2962.56 665.766C2959.53 668.908 2955.68 671.293 2951.02 672.918C2946.47 674.544 2941.1 675.356 2934.93 675.356H2897.05ZM2921.11 658.451H2930.21C2937.47 658.451 2942.4 656.717 2945 653.249C2947.61 649.673 2948.91 644.2 2948.91 636.831C2948.91 631.521 2948.26 627.24 2946.95 623.989C2945.76 620.629 2943.7 618.137 2940.78 616.511C2937.96 614.886 2934.17 614.073 2929.4 614.073H2921.11V658.451ZM2921.11 597.492H2929.24C2934 597.492 2937.69 596.788 2940.29 595.379C2942.89 593.97 2944.68 591.803 2945.65 588.877C2946.74 585.951 2947.28 582.266 2947.28 577.823C2947.28 573.163 2946.47 569.587 2944.84 567.094C2943.32 564.494 2940.99 562.76 2937.85 561.893C2934.71 560.917 2930.7 560.43 2925.82 560.43H2921.11V597.492ZM2994.36 675.356V543.686H3018.26V598.955H3023.14L3044.43 543.686H3068.33L3043.29 605.783L3070.28 675.356H3045.89L3023.14 614.723H3018.26V675.356H2994.36ZM3081.82 675.356L3108.15 543.686H3133.84L3160.17 675.356H3137.9L3132.7 644.959H3109.78L3104.42 675.356H3081.82ZM3112.22 629.678H3130.1L3121.16 574.409L3112.22 629.678Z" fill="#D75F4B"/>
<path d="M1457.09 434.72V303.05H1489.44C1495.29 303.05 1500.55 303.592 1505.21 304.675C1509.98 305.759 1514.04 307.601 1517.4 310.202C1520.87 312.695 1523.52 316.108 1525.37 320.443C1527.21 324.778 1528.13 330.251 1528.13 336.861C1528.13 342.171 1527.37 346.723 1525.85 350.516C1524.44 354.309 1522.33 357.343 1519.51 359.619C1516.7 361.786 1513.17 363.249 1508.95 364.008C1514.15 364.875 1518.43 366.717 1521.79 369.535C1525.26 372.244 1527.8 375.82 1529.43 380.264C1531.16 384.707 1532.03 390.071 1532.03 396.357C1532.03 402.642 1531.22 408.223 1529.59 413.1C1528.08 417.868 1525.75 421.878 1522.6 425.129C1519.57 428.272 1515.72 430.656 1511.06 432.281C1506.51 433.907 1501.15 434.72 1494.97 434.72H1457.09ZM1481.15 417.814H1490.25C1497.51 417.814 1502.45 416.08 1505.05 412.612C1507.65 409.036 1508.95 403.563 1508.95 396.194C1508.95 390.884 1508.3 386.603 1507 383.352C1505.81 379.993 1503.75 377.5 1500.82 375.875C1498 374.249 1494.21 373.436 1489.44 373.436H1481.15V417.814ZM1481.15 356.856H1489.28C1494.05 356.856 1497.73 356.151 1500.33 354.742C1502.93 353.334 1504.72 351.166 1505.7 348.24C1506.78 345.314 1507.32 341.63 1507.32 337.186C1507.32 332.526 1506.51 328.95 1504.88 326.458C1503.37 323.857 1501.04 322.123 1497.89 321.256C1494.75 320.281 1490.74 319.793 1485.86 319.793H1481.15V356.856ZM1554.4 434.72V303.05H1578.3V358.319H1584.15C1593.15 358.319 1600.62 359.565 1606.59 362.057C1612.55 364.442 1617.04 368.451 1620.08 374.087C1623.11 379.613 1624.63 387.091 1624.63 396.519C1624.63 403.888 1623.65 410.065 1621.7 415.051C1619.86 419.927 1617.15 423.829 1613.58 426.755C1610 429.681 1605.66 431.74 1600.57 432.932C1595.48 434.124 1589.68 434.72 1583.18 434.72H1554.4ZM1578.3 418.464H1583.34C1587.89 418.464 1591.58 417.814 1594.39 416.514C1597.21 415.213 1599.27 412.937 1600.57 409.686C1601.87 406.327 1602.47 401.775 1602.36 396.032C1602.36 389.204 1601 384.002 1598.29 380.426C1595.59 376.85 1590.49 375.062 1583.01 375.062H1578.3V418.464ZM1636.98 434.72V303.05H1660.88V434.72H1636.98ZM1723.02 436.508C1713.37 436.508 1705.78 434.611 1700.26 430.818C1694.84 427.025 1691.05 421.878 1688.88 415.376C1686.71 408.765 1685.63 401.179 1685.63 392.618V345.639C1685.63 336.645 1686.71 328.842 1688.88 322.231C1691.05 315.621 1694.84 310.527 1700.26 306.951C1705.78 303.375 1713.37 301.587 1723.02 301.587C1732.12 301.587 1739.22 303.158 1744.31 306.301C1749.51 309.335 1753.2 313.724 1755.36 319.468C1757.53 325.211 1758.62 331.876 1758.62 339.462V350.516H1735.53V339.137C1735.53 335.452 1735.32 332.093 1734.88 329.059C1734.56 326.024 1733.53 323.64 1731.79 321.906C1730.17 320.064 1727.3 319.143 1723.18 319.143C1719.06 319.143 1716.03 320.118 1714.08 322.069C1712.23 323.911 1711.04 326.458 1710.5 329.709C1709.96 332.852 1709.69 336.428 1709.69 340.438V397.657C1709.69 402.425 1710.07 406.381 1710.82 409.524C1711.58 412.558 1712.94 414.888 1714.89 416.514C1716.95 418.031 1719.71 418.789 1723.18 418.789C1727.19 418.789 1730.01 417.868 1731.63 416.026C1733.37 414.075 1734.45 411.528 1734.88 408.386C1735.32 405.243 1735.53 401.721 1735.53 397.82V385.953H1758.62V396.519C1758.62 404.322 1757.59 411.258 1755.53 417.326C1753.47 423.287 1749.84 428.001 1744.64 431.469C1739.54 434.828 1732.34 436.508 1723.02 436.508ZM1795.03 434.72V320.768H1774.06V303.05H1839.74V320.768H1819.09V434.72H1795.03ZM1851.55 434.72L1877.89 303.05H1903.57L1929.9 434.72H1907.63L1902.43 404.322H1879.51L1874.15 434.72H1851.55ZM1881.95 389.042H1899.83L1890.89 333.773L1881.95 389.042ZM1949.65 434.72V303.05H1982C1987.85 303.05 1993.11 303.592 1997.76 304.675C2002.53 305.759 2006.6 307.601 2009.96 310.202C2013.42 312.695 2016.08 316.108 2017.92 320.443C2019.76 324.778 2020.69 330.251 2020.69 336.861C2020.69 342.171 2019.93 346.723 2018.41 350.516C2017 354.309 2014.89 357.343 2012.07 359.619C2009.25 361.786 2005.73 363.249 2001.5 364.008C2006.71 364.875 2010.99 366.717 2014.35 369.535C2017.81 372.244 2020.36 375.82 2021.99 380.264C2023.72 384.707 2024.59 390.071 2024.59 396.357C2024.59 402.642 2023.77 408.223 2022.15 413.1C2020.63 417.868 2018.3 421.878 2015.16 425.129C2012.12 428.272 2008.28 430.656 2003.62 432.281C1999.07 433.907 1993.7 434.72 1987.52 434.72H1949.65ZM1973.71 417.814H1982.81C1990.07 417.814 1995 416.08 1997.6 412.612C2000.2 409.036 2001.5 403.563 2001.5 396.194C2001.5 390.884 2000.85 386.603 1999.55 383.352C1998.36 379.993 1996.3 377.5 1993.38 375.875C1990.56 374.249 1986.77 373.436 1982 373.436H1973.71V417.814ZM1973.71 356.856H1981.83C1986.6 356.856 1990.29 356.151 1992.89 354.742C1995.49 353.334 1997.28 351.166 1998.25 348.24C1999.34 345.314 1999.88 341.63 1999.88 337.186C1999.88 332.526 1999.07 328.95 1997.44 326.458C1995.92 323.857 1993.59 322.123 1990.45 321.256C1987.31 320.281 1983.3 319.793 1978.42 319.793H1973.71V356.856ZM2046.96 434.72V303.05H2070.86V358.319H2075.73L2097.03 303.05H2120.92L2095.89 365.146L2122.87 434.72H2098.49L2075.73 374.087H2070.86V434.72H2046.96ZM2134.42 434.72L2160.75 303.05H2186.44L2212.77 434.72H2190.5L2185.3 404.322H2162.38L2157.01 434.72H2134.42ZM2164.82 389.042H2182.7L2173.76 333.773L2164.82 389.042Z" fill="#D75F4B"/>
<path d="M2295.11 434.72V303.05H2327.46C2333.31 303.05 2338.57 303.592 2343.23 304.675C2348 305.759 2352.06 307.601 2355.42 310.202C2358.89 312.695 2361.55 316.108 2363.39 320.443C2365.23 324.778 2366.15 330.251 2366.15 336.861C2366.15 342.171 2365.39 346.723 2363.88 350.516C2362.47 354.309 2360.35 357.343 2357.54 359.619C2354.72 361.786 2351.2 363.249 2346.97 364.008C2352.17 364.875 2356.45 366.717 2359.81 369.535C2363.28 372.244 2365.83 375.82 2367.45 380.264C2369.19 384.707 2370.05 390.071 2370.05 396.357C2370.05 402.642 2369.24 408.223 2367.61 413.1C2366.1 417.868 2363.77 421.878 2360.62 425.129C2357.59 428.272 2353.74 430.656 2349.08 432.281C2344.53 433.907 2339.17 434.72 2332.99 434.72H2295.11ZM2319.17 417.814H2328.28C2335.54 417.814 2340.47 416.08 2343.07 412.612C2345.67 409.036 2346.97 403.563 2346.97 396.194C2346.97 390.884 2346.32 386.603 2345.02 383.352C2343.83 379.993 2341.77 377.5 2338.84 375.875C2336.02 374.249 2332.23 373.436 2327.46 373.436H2319.17V417.814ZM2319.17 356.856H2327.3C2332.07 356.856 2335.75 356.151 2338.35 354.742C2340.96 353.334 2342.74 351.166 2343.72 348.24C2344.8 345.314 2345.34 341.63 2345.34 337.186C2345.34 332.526 2344.53 328.95 2342.91 326.458C2341.39 323.857 2339.06 322.123 2335.92 321.256C2332.77 320.281 2328.76 319.793 2323.89 319.793H2319.17V356.856ZM2392.43 434.72V303.05H2416.32V358.319H2422.17C2431.17 358.319 2438.65 359.565 2444.61 362.057C2450.57 364.442 2455.06 368.451 2458.1 374.087C2461.13 379.613 2462.65 387.091 2462.65 396.519C2462.65 403.888 2461.68 410.065 2459.72 415.051C2457.88 419.927 2455.17 423.829 2451.6 426.755C2448.02 429.681 2443.69 431.74 2438.59 432.932C2433.5 434.124 2427.7 434.72 2421.2 434.72H2392.43ZM2416.32 418.464H2421.36C2425.91 418.464 2429.6 417.814 2432.42 416.514C2435.23 415.213 2437.29 412.937 2438.59 409.686C2439.89 406.327 2440.49 401.775 2440.38 396.032C2440.38 389.204 2439.03 384.002 2436.32 380.426C2433.61 376.85 2428.51 375.062 2421.04 375.062H2416.32V418.464ZM2475 434.72V303.05H2498.9V434.72H2475ZM2561.04 436.508C2551.39 436.508 2543.81 434.611 2538.28 430.818C2532.86 427.025 2529.07 421.878 2526.9 415.376C2524.73 408.765 2523.65 401.179 2523.65 392.618V345.639C2523.65 336.645 2524.73 328.842 2526.9 322.231C2529.07 315.621 2532.86 310.527 2538.28 306.951C2543.81 303.375 2551.39 301.587 2561.04 301.587C2570.14 301.587 2577.24 303.158 2582.33 306.301C2587.53 309.335 2591.22 313.724 2593.39 319.468C2595.55 325.211 2596.64 331.876 2596.64 339.462V350.516H2573.55V339.137C2573.55 335.452 2573.34 332.093 2572.9 329.059C2572.58 326.024 2571.55 323.64 2569.82 321.906C2568.19 320.064 2565.32 319.143 2561.2 319.143C2557.08 319.143 2554.05 320.118 2552.1 322.069C2550.25 323.911 2549.06 326.458 2548.52 329.709C2547.98 332.852 2547.71 336.428 2547.71 340.438V397.657C2547.71 402.425 2548.09 406.381 2548.85 409.524C2549.6 412.558 2550.96 414.888 2552.91 416.514C2554.97 418.031 2557.73 418.789 2561.2 418.789C2565.21 418.789 2568.03 417.868 2569.65 416.026C2571.39 414.075 2572.47 411.528 2572.9 408.386C2573.34 405.243 2573.55 401.721 2573.55 397.82V385.953H2596.64V396.519C2596.64 404.322 2595.61 411.258 2593.55 417.326C2591.49 423.287 2587.86 428.001 2582.66 431.469C2577.56 434.828 2570.36 436.508 2561.04 436.508ZM2633.06 434.72V320.768H2612.09V303.05H2677.76V320.768H2657.11V434.72H2633.06ZM2689.57 434.72L2715.91 303.05H2741.59L2767.93 434.72H2745.66L2740.45 404.322H2717.53L2712.17 434.72H2689.57ZM2719.97 389.042H2737.85L2728.91 333.773L2719.97 389.042ZM2787.67 434.72V303.05H2820.02C2825.87 303.05 2831.13 303.592 2835.79 304.675C2840.55 305.759 2844.62 307.601 2847.98 310.202C2851.45 312.695 2854.1 316.108 2855.94 320.443C2857.79 324.778 2858.71 330.251 2858.71 336.861C2858.71 342.171 2857.95 346.723 2856.43 350.516C2855.02 354.309 2852.91 357.343 2850.09 359.619C2847.27 361.786 2843.75 363.249 2839.53 364.008C2844.73 364.875 2849.01 366.717 2852.37 369.535C2855.84 372.244 2858.38 375.82 2860.01 380.264C2861.74 384.707 2862.61 390.071 2862.61 396.357C2862.61 402.642 2861.8 408.223 2860.17 413.1C2858.65 417.868 2856.32 421.878 2853.18 425.129C2850.15 428.272 2846.3 430.656 2841.64 432.281C2837.09 433.907 2831.72 434.72 2825.55 434.72H2787.67ZM2811.73 417.814H2820.83C2828.09 417.814 2833.02 416.08 2835.62 412.612C2838.23 409.036 2839.53 403.563 2839.53 396.194C2839.53 390.884 2838.88 386.603 2837.57 383.352C2836.38 379.993 2834.32 377.5 2831.4 375.875C2828.58 374.249 2824.79 373.436 2820.02 373.436H2811.73V417.814ZM2811.73 356.856H2819.86C2824.62 356.856 2828.31 356.151 2830.91 354.742C2833.51 353.334 2835.3 351.166 2836.27 348.24C2837.36 345.314 2837.9 341.63 2837.9 337.186C2837.9 332.526 2837.09 328.95 2835.46 326.458C2833.94 323.857 2831.61 322.123 2828.47 321.256C2825.33 320.281 2821.32 319.793 2816.44 319.793H2811.73V356.856ZM2884.98 434.72V303.05H2908.88V358.319H2913.75L2935.05 303.05H2958.95L2933.91 365.146L2960.9 434.72H2936.51L2913.75 374.087H2908.88V434.72H2884.98ZM2972.44 434.72L2998.77 303.05H3024.46L3050.79 434.72H3028.52L3023.32 404.322H3000.4L2995.04 434.72H2972.44ZM3002.84 389.042H3020.72L3011.78 333.773L3002.84 389.042Z" fill="#D75F4B"/>
<path d="M-109.57 675.356V543.686H-77.2219C-71.3699 543.686 -66.1139 544.228 -61.454 545.312C-56.6857 546.396 -52.6218 548.238 -49.2623 550.839C-45.7945 553.331 -43.1394 556.745 -41.2971 561.08C-39.4548 565.415 -38.5337 570.887 -38.5337 577.498C-38.5337 582.808 -39.2923 587.36 -40.8095 591.153C-42.2183 594.946 -44.3315 597.98 -47.1491 600.256C-49.9667 602.423 -53.4888 603.886 -57.7152 604.645C-52.5135 605.512 -48.2328 607.354 -44.8733 610.172C-41.4055 612.881 -38.8588 616.457 -37.2332 620.9C-35.4993 625.344 -34.6323 630.708 -34.6323 636.993C-34.6323 643.279 -35.4451 648.86 -37.0707 653.737C-38.5879 658.505 -40.9178 662.515 -44.0606 665.766C-47.0949 668.908 -50.9421 671.293 -55.602 672.918C-60.1536 674.544 -65.5179 675.356 -71.695 675.356H-109.57ZM-85.5122 658.451H-76.4091C-69.1483 658.451 -64.2175 656.717 -61.6166 653.249C-59.0157 649.673 -57.7152 644.2 -57.7152 636.831C-57.7152 631.521 -58.3655 627.24 -59.6659 623.989C-60.858 620.629 -62.917 618.137 -65.843 616.511C-68.6606 614.886 -72.4536 614.073 -77.2219 614.073H-85.5122V658.451ZM-85.5122 597.492H-77.3845C-72.6162 597.492 -68.9316 596.788 -66.3307 595.379C-63.7298 593.97 -61.9417 591.803 -60.9663 588.877C-59.8826 585.951 -59.3408 582.266 -59.3408 577.823C-59.3408 573.163 -60.1536 569.587 -61.7791 567.094C-63.2963 564.494 -65.6263 562.76 -68.769 561.893C-71.9117 560.917 -75.9214 560.43 -80.7981 560.43H-85.5122V597.492ZM-12.2581 675.356V543.686H11.6376V598.955H17.4895C26.4843 598.955 33.9618 600.202 39.9222 602.694C45.8826 605.078 50.3799 609.088 53.4143 614.723C56.4487 620.25 57.9659 627.728 57.9659 637.156C57.9659 644.525 56.9905 650.702 55.0399 655.687C53.1976 660.564 50.4883 664.465 46.9121 667.391C43.3359 670.317 39.0011 672.376 33.9077 673.568C28.8143 674.76 23.0164 675.356 16.5142 675.356H-12.2581ZM11.6376 659.101H16.6768C21.2283 659.101 24.9129 658.451 27.7305 657.15C30.5482 655.85 32.6072 653.574 33.9077 650.323C35.2081 646.963 35.8041 642.412 35.6958 636.668C35.6958 629.841 34.3411 624.639 31.6319 621.063C28.9226 617.487 23.8292 615.699 16.3517 615.699H11.6376V659.101ZM70.3201 675.356V543.686H94.2158V675.356H70.3201ZM156.353 677.145C146.708 677.145 139.122 675.248 133.595 671.455C128.176 667.662 124.383 662.515 122.216 656.012C120.049 649.402 118.965 641.816 118.965 633.255V586.276C118.965 577.281 120.049 569.479 122.216 562.868C124.383 556.257 128.176 551.164 133.595 547.588C139.122 544.012 146.708 542.223 156.353 542.223C165.456 542.223 172.554 543.795 177.647 546.938C182.849 549.972 186.534 554.361 188.701 560.105C190.869 565.848 191.952 572.513 191.952 580.099V591.153H168.869V579.774C168.869 576.089 168.653 572.73 168.219 569.695C167.894 566.661 166.865 564.277 165.131 562.543C163.505 560.701 160.633 559.779 156.515 559.779C152.397 559.779 149.363 560.755 147.412 562.705C145.57 564.548 144.378 567.094 143.836 570.346C143.294 573.488 143.023 577.065 143.023 581.074V638.294C143.023 643.062 143.402 647.018 144.161 650.16C144.92 653.195 146.274 655.525 148.225 657.15C150.284 658.667 153.047 659.426 156.515 659.426C160.525 659.426 163.342 658.505 164.968 656.663C166.702 654.712 167.786 652.165 168.219 649.022C168.653 645.88 168.869 642.358 168.869 638.456V626.59H191.952V637.156C191.952 644.959 190.923 651.894 188.864 657.963C186.805 663.923 183.174 668.637 177.972 672.105C172.879 675.465 165.672 677.145 156.353 677.145ZM228.371 675.356V561.405H207.401V543.686H273.074V561.405H252.429V675.356H228.371ZM284.89 675.356L311.224 543.686H336.907L363.241 675.356H340.971L335.769 644.959H312.849L307.485 675.356H284.89ZM315.287 629.678H333.169L324.228 574.409L315.287 629.678ZM382.985 675.356V543.686H415.334C421.186 543.686 426.442 544.228 431.102 545.312C435.87 546.396 439.934 548.238 443.294 550.839C446.761 553.331 449.416 556.745 451.259 561.08C453.101 565.415 454.022 570.887 454.022 577.498C454.022 582.808 453.264 587.36 451.746 591.153C450.338 594.946 448.224 597.98 445.407 600.256C442.589 602.423 439.067 603.886 434.841 604.645C440.042 605.512 444.323 607.354 447.683 610.172C451.15 612.881 453.697 616.457 455.323 620.9C457.057 625.344 457.924 630.708 457.924 636.993C457.924 643.279 457.111 648.86 455.485 653.737C453.968 658.505 451.638 662.515 448.495 665.766C445.461 668.908 441.614 671.293 436.954 672.918C432.402 674.544 427.038 675.356 420.861 675.356H382.985ZM407.044 658.451H416.147C423.408 658.451 428.338 656.717 430.939 653.249C433.54 649.673 434.841 644.2 434.841 636.831C434.841 631.521 434.19 627.24 432.89 623.989C431.698 620.629 429.639 618.137 426.713 616.511C423.895 614.886 420.102 614.073 415.334 614.073H407.044V658.451ZM407.044 597.492H415.171C419.94 597.492 423.624 596.788 426.225 595.379C428.826 593.97 430.614 591.803 431.59 588.877C432.673 585.951 433.215 582.266 433.215 577.823C433.215 573.163 432.402 569.587 430.777 567.094C429.26 564.494 426.93 562.76 423.787 561.893C420.644 560.917 416.634 560.43 411.758 560.43H407.044V597.492ZM480.298 675.356V543.686H504.193V598.955H509.07L530.365 543.686H554.261L529.227 605.783L556.211 675.356H531.828L509.07 614.723H504.193V675.356H480.298ZM567.755 675.356L594.089 543.686H619.773L646.107 675.356H623.837L618.635 644.959H595.715L590.35 675.356H567.755ZM598.153 629.678H616.034L607.094 574.409L598.153 629.678Z" fill="#D75F4B"/>
<path d="M-372.084 915.993V784.323H-339.736C-333.884 784.323 -328.628 784.865 -323.968 785.948C-319.199 787.032 -315.135 788.874 -311.776 791.475C-308.308 793.968 -305.653 797.381 -303.811 801.716C-301.968 806.051 -301.047 811.524 -301.047 818.134C-301.047 823.444 -301.806 827.996 -303.323 831.789C-304.732 835.582 -306.845 838.616 -309.663 840.892C-312.48 843.059 -316.002 844.522 -320.229 845.281C-315.027 846.148 -310.746 847.99 -307.387 850.808C-303.919 853.517 -301.372 857.093 -299.747 861.537C-298.013 865.98 -297.146 871.344 -297.146 877.63C-297.146 883.915 -297.959 889.496 -299.584 894.373C-301.102 899.141 -303.431 903.151 -306.574 906.402C-309.609 909.545 -313.456 911.929 -318.116 913.554C-322.667 915.18 -328.032 915.993 -334.209 915.993H-372.084ZM-348.026 899.087H-338.923C-331.662 899.087 -326.731 897.353 -324.13 893.885C-321.529 890.309 -320.229 884.836 -320.229 877.467C-320.229 872.157 -320.879 867.876 -322.18 864.625C-323.372 861.266 -325.431 858.773 -328.357 857.148C-331.174 855.522 -334.967 854.709 -339.736 854.709H-348.026V899.087ZM-348.026 838.129H-339.898C-335.13 838.129 -331.445 837.424 -328.844 836.015C-326.243 834.607 -324.455 832.439 -323.48 829.513C-322.396 826.587 -321.854 822.903 -321.854 818.459C-321.854 813.799 -322.667 810.223 -324.293 807.731C-325.81 805.13 -328.14 803.396 -331.283 802.529C-334.425 801.554 -338.435 801.066 -343.312 801.066H-348.026V838.129ZM-274.772 915.993V784.323H-250.876V839.592H-245.024C-236.029 839.592 -228.552 840.838 -222.591 843.33C-216.631 845.715 -212.134 849.724 -209.099 855.359C-206.065 860.886 -204.548 868.364 -204.548 877.792C-204.548 885.161 -205.523 891.338 -207.474 896.323C-209.316 901.2 -212.025 905.101 -215.602 908.027C-219.178 910.953 -223.513 913.012 -228.606 914.205C-233.699 915.397 -239.497 915.993 -245.999 915.993H-274.772ZM-250.876 899.737H-245.837C-241.285 899.737 -237.601 899.087 -234.783 897.786C-231.965 896.486 -229.906 894.21 -228.606 890.959C-227.306 887.6 -226.71 883.048 -226.818 877.304C-226.818 870.477 -228.173 865.275 -230.882 861.699C-233.591 858.123 -238.684 856.335 -246.162 856.335H-250.876V899.737ZM-192.194 915.993V784.323H-168.298V915.993H-192.194ZM-106.161 917.781C-115.806 917.781 -123.392 915.884 -128.919 912.091C-134.337 908.298 -138.13 903.151 -140.298 896.649C-142.465 890.038 -143.549 882.452 -143.549 873.891V826.912C-143.549 817.918 -142.465 810.115 -140.298 803.504C-138.13 796.894 -134.337 791.8 -128.919 788.224C-123.392 784.648 -115.806 782.86 -106.161 782.86C-97.058 782.86 -89.9597 784.431 -84.8663 787.574C-79.6645 790.608 -75.9799 794.997 -73.8125 800.741C-71.6451 806.484 -70.5614 813.149 -70.5614 820.735V831.789H-93.6443V820.41C-93.6443 816.725 -93.861 813.366 -94.2945 810.332C-94.6196 807.297 -95.6492 804.913 -97.3831 803.179C-99.0086 801.337 -101.88 800.416 -105.999 800.416C-110.117 800.416 -113.151 801.391 -115.102 803.342C-116.944 805.184 -118.136 807.731 -118.678 810.982C-119.22 814.125 -119.491 817.701 -119.491 821.71V878.93C-119.491 883.698 -119.111 887.654 -118.353 890.797C-117.594 893.831 -116.24 896.161 -114.289 897.786C-112.23 899.304 -109.466 900.062 -105.999 900.062C-101.989 900.062 -99.1712 899.141 -97.5456 897.299C-95.8117 895.348 -94.728 892.801 -94.2945 889.659C-93.861 886.516 -93.6443 882.994 -93.6443 879.093V867.226H-70.5614V877.792C-70.5614 885.595 -71.5909 892.53 -73.65 898.599C-75.709 904.56 -79.3394 909.274 -84.5412 912.742C-89.6346 916.101 -96.8412 917.781 -106.161 917.781ZM-34.1426 915.993V802.041H-55.1123V784.323H10.5601V802.041H-10.0844V915.993H-34.1426ZM22.3759 915.993L48.7099 784.323H74.3936L100.728 915.993H78.4575L73.2557 885.595H50.3354L44.9711 915.993H22.3759ZM52.7737 870.315H70.6549L61.7143 815.046L52.7737 870.315ZM120.472 915.993V784.323H152.82C158.672 784.323 163.928 784.865 168.588 785.948C173.356 787.032 177.42 788.874 180.78 791.475C184.248 793.968 186.903 797.381 188.745 801.716C190.587 806.051 191.509 811.524 191.509 818.134C191.509 823.444 190.75 827.996 189.233 831.789C187.824 835.582 185.711 838.616 182.893 840.892C180.075 843.059 176.553 844.522 172.327 845.281C177.529 846.148 181.809 847.99 185.169 850.808C188.637 853.517 191.183 857.093 192.809 861.537C194.543 865.98 195.41 871.344 195.41 877.63C195.41 883.915 194.597 889.496 192.972 894.373C191.454 899.141 189.124 903.151 185.982 906.402C182.947 909.545 179.1 911.929 174.44 913.554C169.889 915.18 164.524 915.993 158.347 915.993H120.472ZM144.53 899.087H153.633C160.894 899.087 165.825 897.353 168.426 893.885C171.027 890.309 172.327 884.836 172.327 877.467C172.327 872.157 171.677 867.876 170.376 864.625C169.184 861.266 167.125 858.773 164.199 857.148C161.382 855.522 157.589 854.709 152.82 854.709H144.53V899.087ZM144.53 838.129H152.658C157.426 838.129 161.111 837.424 163.712 836.015C166.312 834.607 168.101 832.439 169.076 829.513C170.16 826.587 170.701 822.903 170.701 818.459C170.701 813.799 169.889 810.223 168.263 807.731C166.746 805.13 164.416 803.396 161.273 802.529C158.13 801.554 154.121 801.066 149.244 801.066H144.53V838.129ZM217.784 915.993V784.323H241.68V839.592H246.556L267.851 784.323H291.747L266.713 846.419L293.698 915.993H269.314L246.556 855.359H241.68V915.993H217.784ZM305.242 915.993L331.576 784.323H357.259L383.593 915.993H361.323L356.121 885.595H333.201L327.837 915.993H305.242ZM335.639 870.315H353.521L344.58 815.046L335.639 870.315Z" fill="#D75F4B"/>
<path d="M469.304 1154.95V1023.28H501.652C507.504 1023.28 512.76 1023.82 517.42 1024.9C522.188 1025.99 526.252 1027.83 529.612 1030.43C533.08 1032.92 535.735 1036.34 537.577 1040.67C539.419 1045.01 540.34 1050.48 540.34 1057.09C540.34 1062.4 539.582 1066.95 538.065 1070.74C536.656 1074.54 534.543 1077.57 531.725 1079.85C528.907 1082.01 525.385 1083.48 521.159 1084.24C526.361 1085.1 530.641 1086.94 534.001 1089.76C537.469 1092.47 540.015 1096.05 541.641 1100.49C543.375 1104.93 544.242 1110.3 544.242 1116.58C544.242 1122.87 543.429 1128.45 541.803 1133.33C540.286 1138.1 537.956 1142.11 534.813 1145.36C531.779 1148.5 527.932 1150.88 523.272 1152.51C518.72 1154.13 513.356 1154.95 507.179 1154.95H469.304ZM493.362 1138.04H502.465C509.726 1138.04 514.657 1136.31 517.257 1132.84C519.858 1129.26 521.159 1123.79 521.159 1116.42C521.159 1111.11 520.509 1106.83 519.208 1103.58C518.016 1100.22 515.957 1097.73 513.031 1096.1C510.213 1094.48 506.42 1093.66 501.652 1093.66H493.362V1138.04ZM493.362 1077.08H501.49C506.258 1077.08 509.942 1076.38 512.543 1074.97C515.144 1073.56 516.932 1071.39 517.908 1068.47C518.991 1065.54 519.533 1061.86 519.533 1057.41C519.533 1052.75 518.72 1049.18 517.095 1046.69C515.578 1044.08 513.248 1042.35 510.105 1041.48C506.962 1040.51 502.953 1040.02 498.076 1040.02H493.362V1077.08ZM566.616 1154.95V1023.28H590.512V1078.55H596.364C605.358 1078.55 612.836 1079.79 618.796 1082.28C624.757 1084.67 629.254 1088.68 632.288 1094.31C635.323 1099.84 636.84 1107.32 636.84 1116.75C636.84 1124.12 635.865 1130.29 633.914 1135.28C632.072 1140.15 629.362 1144.06 625.786 1146.98C622.21 1149.91 617.875 1151.97 612.782 1153.16C607.688 1154.35 601.89 1154.95 595.388 1154.95H566.616ZM590.512 1138.69H595.551C600.102 1138.69 603.787 1138.04 606.605 1136.74C609.422 1135.44 611.481 1133.16 612.782 1129.91C614.082 1126.55 614.678 1122 614.57 1116.26C614.57 1109.43 613.215 1104.23 610.506 1100.65C607.797 1097.08 602.703 1095.29 595.226 1095.29H590.512V1138.69ZM649.194 1154.95V1023.28H673.09V1154.95H649.194ZM735.227 1156.74C725.582 1156.74 717.996 1154.84 712.469 1151.05C707.05 1147.25 703.257 1142.11 701.09 1135.6C698.923 1128.99 697.839 1121.41 697.839 1112.85V1065.87C697.839 1056.87 698.923 1049.07 701.09 1042.46C703.257 1035.85 707.05 1030.75 712.469 1027.18C717.996 1023.6 725.582 1021.81 735.227 1021.81C744.33 1021.81 751.428 1023.39 756.521 1026.53C761.723 1029.56 765.408 1033.95 767.575 1039.7C769.743 1045.44 770.826 1052.1 770.826 1059.69V1070.74H747.743V1059.36C747.743 1055.68 747.527 1052.32 747.093 1049.29C746.768 1046.25 745.739 1043.87 744.005 1042.13C742.379 1040.29 739.507 1039.37 735.389 1039.37C731.271 1039.37 728.237 1040.35 726.286 1042.3C724.444 1044.14 723.252 1046.69 722.71 1049.94C722.168 1053.08 721.897 1056.66 721.897 1060.67V1117.88C721.897 1122.65 722.276 1126.61 723.035 1129.75C723.794 1132.79 725.148 1135.12 727.099 1136.74C729.158 1138.26 731.921 1139.02 735.389 1139.02C739.399 1139.02 742.217 1138.1 743.842 1136.25C745.576 1134.3 746.66 1131.76 747.093 1128.61C747.527 1125.47 747.743 1121.95 747.743 1118.05V1106.18H770.826V1116.75C770.826 1124.55 769.797 1131.49 767.738 1137.55C765.679 1143.51 762.048 1148.23 756.847 1151.7C751.753 1155.06 744.546 1156.74 735.227 1156.74ZM807.245 1154.95V1041H786.275V1023.28H851.948V1041H831.303V1154.95H807.245ZM863.764 1154.95L890.098 1023.28H915.781L942.115 1154.95H919.845L914.643 1124.55H891.723L886.359 1154.95H863.764ZM894.161 1109.27H912.043L903.102 1054L894.161 1109.27ZM961.859 1154.95V1023.28H994.208C1000.06 1023.28 1005.32 1023.82 1009.98 1024.9C1014.74 1025.99 1018.81 1027.83 1022.17 1030.43C1025.64 1032.92 1028.29 1036.34 1030.13 1040.67C1031.98 1045.01 1032.9 1050.48 1032.9 1057.09C1032.9 1062.4 1032.14 1066.95 1030.62 1070.74C1029.21 1074.54 1027.1 1077.57 1024.28 1079.85C1021.46 1082.01 1017.94 1083.48 1013.71 1084.24C1018.92 1085.1 1023.2 1086.94 1026.56 1089.76C1030.02 1092.47 1032.57 1096.05 1034.2 1100.49C1035.93 1104.93 1036.8 1110.3 1036.8 1116.58C1036.8 1122.87 1035.98 1128.45 1034.36 1133.33C1032.84 1138.1 1030.51 1142.11 1027.37 1145.36C1024.33 1148.5 1020.49 1150.88 1015.83 1152.51C1011.28 1154.13 1005.91 1154.95 999.735 1154.95H961.859ZM985.918 1138.04H995.021C1002.28 1138.04 1007.21 1136.31 1009.81 1132.84C1012.41 1129.26 1013.71 1123.79 1013.71 1116.42C1013.71 1111.11 1013.06 1106.83 1011.76 1103.58C1010.57 1100.22 1008.51 1097.73 1005.59 1096.1C1002.77 1094.48 998.976 1093.66 994.208 1093.66H985.918V1138.04ZM985.918 1077.08H994.045C998.814 1077.08 1002.5 1076.38 1005.1 1074.97C1007.7 1073.56 1009.49 1071.39 1010.46 1068.47C1011.55 1065.54 1012.09 1061.86 1012.09 1057.41C1012.09 1052.75 1011.28 1049.18 1009.65 1046.69C1008.13 1044.08 1005.8 1042.35 1002.66 1041.48C999.518 1040.51 995.508 1040.02 990.632 1040.02H985.918V1077.08ZM1059.17 1154.95V1023.28H1083.07V1078.55H1087.94L1109.24 1023.28H1133.13L1108.1 1085.37L1135.09 1154.95H1110.7L1087.94 1094.31H1083.07V1154.95H1059.17ZM1146.63 1154.95L1172.96 1023.28H1198.65L1224.98 1154.95H1202.71L1197.51 1124.55H1174.59L1169.22 1154.95H1146.63ZM1177.03 1109.27H1194.91L1185.97 1054L1177.03 1109.27Z" fill="#D75F4B"/>
<path d="M1307.33 1154.95V1023.28H1339.67C1345.53 1023.28 1350.78 1023.82 1355.44 1024.9C1360.21 1025.99 1364.27 1027.83 1367.63 1030.43C1371.1 1032.92 1373.76 1036.34 1375.6 1040.67C1377.44 1045.01 1378.36 1050.48 1378.36 1057.09C1378.36 1062.4 1377.6 1066.95 1376.09 1070.74C1374.68 1074.54 1372.56 1077.57 1369.75 1079.85C1366.93 1082.01 1363.41 1083.48 1359.18 1084.24C1364.38 1085.1 1368.66 1086.94 1372.02 1089.76C1375.49 1092.47 1378.04 1096.05 1379.66 1100.49C1381.4 1104.93 1382.26 1110.3 1382.26 1116.58C1382.26 1122.87 1381.45 1128.45 1379.83 1133.33C1378.31 1138.1 1375.98 1142.11 1372.84 1145.36C1369.8 1148.5 1365.95 1150.88 1361.29 1152.51C1356.74 1154.13 1351.38 1154.95 1345.2 1154.95H1307.33ZM1331.38 1138.04H1340.49C1347.75 1138.04 1352.68 1136.31 1355.28 1132.84C1357.88 1129.26 1359.18 1123.79 1359.18 1116.42C1359.18 1111.11 1358.53 1106.83 1357.23 1103.58C1356.04 1100.22 1353.98 1097.73 1351.05 1096.1C1348.24 1094.48 1344.44 1093.66 1339.67 1093.66H1331.38V1138.04ZM1331.38 1077.08H1339.51C1344.28 1077.08 1347.96 1076.38 1350.57 1074.97C1353.17 1073.56 1354.95 1071.39 1355.93 1068.47C1357.01 1065.54 1357.56 1061.86 1357.56 1057.41C1357.56 1052.75 1356.74 1049.18 1355.12 1046.69C1353.6 1044.08 1351.27 1042.35 1348.13 1041.48C1344.98 1040.51 1340.98 1040.02 1336.1 1040.02H1331.38V1077.08ZM1404.64 1154.95V1023.28H1428.53V1078.55H1434.39C1443.38 1078.55 1450.86 1079.79 1456.82 1082.28C1462.78 1084.67 1467.28 1088.68 1470.31 1094.31C1473.35 1099.84 1474.86 1107.32 1474.86 1116.75C1474.86 1124.12 1473.89 1130.29 1471.94 1135.28C1470.09 1140.15 1467.38 1144.06 1463.81 1146.98C1460.23 1149.91 1455.9 1151.97 1450.8 1153.16C1445.71 1154.35 1439.91 1154.95 1433.41 1154.95H1404.64ZM1428.53 1138.69H1433.57C1438.12 1138.69 1441.81 1138.04 1444.63 1136.74C1447.44 1135.44 1449.5 1133.16 1450.8 1129.91C1452.1 1126.55 1452.7 1122 1452.59 1116.26C1452.59 1109.43 1451.24 1104.23 1448.53 1100.65C1445.82 1097.08 1440.73 1095.29 1433.25 1095.29H1428.53V1138.69ZM1487.22 1154.95V1023.28H1511.11V1154.95H1487.22ZM1573.25 1156.74C1563.6 1156.74 1556.02 1154.84 1550.49 1151.05C1545.07 1147.25 1541.28 1142.11 1539.11 1135.6C1536.95 1128.99 1535.86 1121.41 1535.86 1112.85V1065.87C1535.86 1056.87 1536.95 1049.07 1539.11 1042.46C1541.28 1035.85 1545.07 1030.75 1550.49 1027.18C1556.02 1023.6 1563.6 1021.81 1573.25 1021.81C1582.35 1021.81 1589.45 1023.39 1594.54 1026.53C1599.75 1029.56 1603.43 1033.95 1605.6 1039.7C1607.77 1045.44 1608.85 1052.1 1608.85 1059.69V1070.74H1585.77V1059.36C1585.77 1055.68 1585.55 1052.32 1585.12 1049.29C1584.79 1046.25 1583.76 1043.87 1582.03 1042.13C1580.4 1040.29 1577.53 1039.37 1573.41 1039.37C1569.29 1039.37 1566.26 1040.35 1564.31 1042.3C1562.47 1044.14 1561.27 1046.69 1560.73 1049.94C1560.19 1053.08 1559.92 1056.66 1559.92 1060.67V1117.88C1559.92 1122.65 1560.3 1126.61 1561.06 1129.75C1561.82 1132.79 1563.17 1135.12 1565.12 1136.74C1567.18 1138.26 1569.94 1139.02 1573.41 1139.02C1577.42 1139.02 1580.24 1138.1 1581.86 1136.25C1583.6 1134.3 1584.68 1131.76 1585.12 1128.61C1585.55 1125.47 1585.77 1121.95 1585.77 1118.05V1106.18H1608.85V1116.75C1608.85 1124.55 1607.82 1131.49 1605.76 1137.55C1603.7 1143.51 1600.07 1148.23 1594.87 1151.7C1589.78 1155.06 1582.57 1156.74 1573.25 1156.74ZM1645.27 1154.95V1041H1624.3V1023.28H1689.97V1041H1669.33V1154.95H1645.27ZM1701.79 1154.95L1728.12 1023.28H1753.8L1780.14 1154.95H1757.87L1752.67 1124.55H1729.75L1724.38 1154.95H1701.79ZM1732.18 1109.27H1750.07L1741.12 1054L1732.18 1109.27ZM1799.88 1154.95V1023.28H1832.23C1838.08 1023.28 1843.34 1023.82 1848 1024.9C1852.77 1025.99 1856.83 1027.83 1860.19 1030.43C1863.66 1032.92 1866.31 1036.34 1868.16 1040.67C1870 1045.01 1870.92 1050.48 1870.92 1057.09C1870.92 1062.4 1870.16 1066.95 1868.64 1070.74C1867.23 1074.54 1865.12 1077.57 1862.3 1079.85C1859.49 1082.01 1855.96 1083.48 1851.74 1084.24C1856.94 1085.1 1861.22 1086.94 1864.58 1089.76C1868.05 1092.47 1870.59 1096.05 1872.22 1100.49C1873.95 1104.93 1874.82 1110.3 1874.82 1116.58C1874.82 1122.87 1874.01 1128.45 1872.38 1133.33C1870.86 1138.1 1868.53 1142.11 1865.39 1145.36C1862.36 1148.5 1858.51 1150.88 1853.85 1152.51C1849.3 1154.13 1843.93 1154.95 1837.76 1154.95H1799.88ZM1823.94 1138.04H1833.04C1840.3 1138.04 1845.23 1136.31 1847.84 1132.84C1850.44 1129.26 1851.74 1123.79 1851.74 1116.42C1851.74 1111.11 1851.09 1106.83 1849.79 1103.58C1848.59 1100.22 1846.54 1097.73 1843.61 1096.1C1840.79 1094.48 1837 1093.66 1832.23 1093.66H1823.94V1138.04ZM1823.94 1077.08H1832.07C1836.84 1077.08 1840.52 1076.38 1843.12 1074.97C1845.72 1073.56 1847.51 1071.39 1848.49 1068.47C1849.57 1065.54 1850.11 1061.86 1850.11 1057.41C1850.11 1052.75 1849.3 1049.18 1847.67 1046.69C1846.16 1044.08 1843.83 1042.35 1840.68 1041.48C1837.54 1040.51 1833.53 1040.02 1828.65 1040.02H1823.94V1077.08ZM1897.19 1154.95V1023.28H1921.09V1078.55H1925.97L1947.26 1023.28H1971.16L1946.12 1085.37L1973.11 1154.95H1948.72L1925.97 1094.31H1921.09V1154.95H1897.19ZM1984.65 1154.95L2010.99 1023.28H2036.67L2063 1154.95H2040.73L2035.53 1124.55H2012.61L2007.25 1154.95H1984.65ZM2015.05 1109.27H2032.93L2023.99 1054L2015.05 1109.27Z" fill="#D75F4B"/>
<path d="M2145.35 1154.95V1023.28H2177.7C2183.55 1023.28 2188.8 1023.82 2193.46 1024.9C2198.23 1025.99 2202.3 1027.83 2205.66 1030.43C2209.12 1032.92 2211.78 1036.34 2213.62 1040.67C2215.46 1045.01 2216.38 1050.48 2216.38 1057.09C2216.38 1062.4 2215.63 1066.95 2214.11 1070.74C2212.7 1074.54 2210.59 1077.57 2207.77 1079.85C2204.95 1082.01 2201.43 1083.48 2197.2 1084.24C2202.4 1085.1 2206.69 1086.94 2210.04 1089.76C2213.51 1092.47 2216.06 1096.05 2217.68 1100.49C2219.42 1104.93 2220.29 1110.3 2220.29 1116.58C2220.29 1122.87 2219.47 1128.45 2217.85 1133.33C2216.33 1138.1 2214 1142.11 2210.86 1145.36C2207.82 1148.5 2203.98 1150.88 2199.32 1152.51C2194.76 1154.13 2189.4 1154.95 2183.22 1154.95H2145.35ZM2169.41 1138.04H2178.51C2185.77 1138.04 2190.7 1136.31 2193.3 1132.84C2195.9 1129.26 2197.2 1123.79 2197.2 1116.42C2197.2 1111.11 2196.55 1106.83 2195.25 1103.58C2194.06 1100.22 2192 1097.73 2189.07 1096.1C2186.26 1094.48 2182.46 1093.66 2177.7 1093.66H2169.41V1138.04ZM2169.41 1077.08H2177.53C2182.3 1077.08 2185.99 1076.38 2188.59 1074.97C2191.19 1073.56 2192.98 1071.39 2193.95 1068.47C2195.04 1065.54 2195.58 1061.86 2195.58 1057.41C2195.58 1052.75 2194.76 1049.18 2193.14 1046.69C2191.62 1044.08 2189.29 1042.35 2186.15 1041.48C2183.01 1040.51 2179 1040.02 2174.12 1040.02H2169.41V1077.08ZM2242.66 1154.95V1023.28H2266.56V1078.55H2272.41C2281.4 1078.55 2288.88 1079.79 2294.84 1082.28C2300.8 1084.67 2305.3 1088.68 2308.33 1094.31C2311.37 1099.84 2312.88 1107.32 2312.88 1116.75C2312.88 1124.12 2311.91 1130.29 2309.96 1135.28C2308.12 1140.15 2305.41 1144.06 2301.83 1146.98C2298.25 1149.91 2293.92 1151.97 2288.83 1153.16C2283.73 1154.35 2277.93 1154.95 2271.43 1154.95H2242.66ZM2266.56 1138.69H2271.59C2276.15 1138.69 2279.83 1138.04 2282.65 1136.74C2285.47 1135.44 2287.53 1133.16 2288.83 1129.91C2290.13 1126.55 2290.72 1122 2290.61 1116.26C2290.61 1109.43 2289.26 1104.23 2286.55 1100.65C2283.84 1097.08 2278.75 1095.29 2271.27 1095.29H2266.56V1138.69ZM2325.24 1154.95V1023.28H2349.13V1154.95H2325.24ZM2411.27 1156.74C2401.63 1156.74 2394.04 1154.84 2388.51 1151.05C2383.09 1147.25 2379.3 1142.11 2377.13 1135.6C2374.97 1128.99 2373.88 1121.41 2373.88 1112.85V1065.87C2373.88 1056.87 2374.97 1049.07 2377.13 1042.46C2379.3 1035.85 2383.09 1030.75 2388.51 1027.18C2394.04 1023.6 2401.63 1021.81 2411.27 1021.81C2420.37 1021.81 2427.47 1023.39 2432.57 1026.53C2437.77 1029.56 2441.45 1033.95 2443.62 1039.7C2445.79 1045.44 2446.87 1052.1 2446.87 1059.69V1070.74H2423.79V1059.36C2423.79 1055.68 2423.57 1052.32 2423.14 1049.29C2422.81 1046.25 2421.78 1043.87 2420.05 1042.13C2418.42 1040.29 2415.55 1039.37 2411.43 1039.37C2407.32 1039.37 2404.28 1040.35 2402.33 1042.3C2400.49 1044.14 2399.3 1046.69 2398.75 1049.94C2398.21 1053.08 2397.94 1056.66 2397.94 1060.67V1117.88C2397.94 1122.65 2398.32 1126.61 2399.08 1129.75C2399.84 1132.79 2401.19 1135.12 2403.14 1136.74C2405.2 1138.26 2407.97 1139.02 2411.43 1139.02C2415.44 1139.02 2418.26 1138.1 2419.89 1136.25C2421.62 1134.3 2422.7 1131.76 2423.14 1128.61C2423.57 1125.47 2423.79 1121.95 2423.79 1118.05V1106.18H2446.87V1116.75C2446.87 1124.55 2445.84 1131.49 2443.78 1137.55C2441.72 1143.51 2438.09 1148.23 2432.89 1151.7C2427.8 1155.06 2420.59 1156.74 2411.27 1156.74ZM2483.29 1154.95V1041H2462.32V1023.28H2527.99V1041H2507.35V1154.95H2483.29ZM2539.81 1154.95L2566.14 1023.28H2591.83L2618.16 1154.95H2595.89L2590.69 1124.55H2567.77L2562.4 1154.95H2539.81ZM2570.21 1109.27H2588.09L2579.15 1054L2570.21 1109.27ZM2637.9 1154.95V1023.28H2670.25C2676.1 1023.28 2681.36 1023.82 2686.02 1024.9C2690.79 1025.99 2694.85 1027.83 2698.21 1030.43C2701.68 1032.92 2704.33 1036.34 2706.18 1040.67C2708.02 1045.01 2708.94 1050.48 2708.94 1057.09C2708.94 1062.4 2708.18 1066.95 2706.66 1070.74C2705.26 1074.54 2703.14 1077.57 2700.32 1079.85C2697.51 1082.01 2693.99 1083.48 2689.76 1084.24C2694.96 1085.1 2699.24 1086.94 2702.6 1089.76C2706.07 1092.47 2708.62 1096.05 2710.24 1100.49C2711.97 1104.93 2712.84 1110.3 2712.84 1116.58C2712.84 1122.87 2712.03 1128.45 2710.4 1133.33C2708.89 1138.1 2706.56 1142.11 2703.41 1145.36C2700.38 1148.5 2696.53 1150.88 2691.87 1152.51C2687.32 1154.13 2681.96 1154.95 2675.78 1154.95H2637.9ZM2661.96 1138.04H2671.06C2678.33 1138.04 2683.26 1136.31 2685.86 1132.84C2688.46 1129.26 2689.76 1123.79 2689.76 1116.42C2689.76 1111.11 2689.11 1106.83 2687.81 1103.58C2686.62 1100.22 2684.56 1097.73 2681.63 1096.1C2678.81 1094.48 2675.02 1093.66 2670.25 1093.66H2661.96V1138.04ZM2661.96 1077.08H2670.09C2674.86 1077.08 2678.54 1076.38 2681.14 1074.97C2683.74 1073.56 2685.53 1071.39 2686.51 1068.47C2687.59 1065.54 2688.13 1061.86 2688.13 1057.41C2688.13 1052.75 2687.32 1049.18 2685.69 1046.69C2684.18 1044.08 2681.85 1042.35 2678.7 1041.48C2675.56 1040.51 2671.55 1040.02 2666.68 1040.02H2661.96V1077.08ZM2735.22 1154.95V1023.28H2759.11V1078.55H2763.99L2785.28 1023.28H2809.18L2784.14 1085.37L2811.13 1154.95H2786.75L2763.99 1094.31H2759.11V1154.95H2735.22ZM2822.67 1154.95L2849.01 1023.28H2874.69L2901.02 1154.95H2878.75L2873.55 1124.55H2850.63L2845.27 1154.95H2822.67ZM2853.07 1109.27H2870.95L2862.01 1054L2853.07 1109.27Z" fill="#D75F4B"/>
<path d="M-368.719 1154.95V1023.28H-336.37C-330.518 1023.28 -325.262 1023.82 -320.602 1024.9C-315.834 1025.99 -311.77 1027.83 -308.411 1030.43C-304.943 1032.92 -302.288 1036.34 -300.446 1040.67C-298.603 1045.01 -297.682 1050.48 -297.682 1057.09C-297.682 1062.4 -298.441 1066.95 -299.958 1070.74C-301.367 1074.54 -303.48 1077.57 -306.298 1079.85C-309.115 1082.01 -312.637 1083.48 -316.864 1084.24C-311.662 1085.1 -307.381 1086.94 -304.022 1089.76C-300.554 1092.47 -298.007 1096.05 -296.382 1100.49C-294.648 1104.93 -293.781 1110.3 -293.781 1116.58C-293.781 1122.87 -294.594 1128.45 -296.219 1133.33C-297.736 1138.1 -300.066 1142.11 -303.209 1145.36C-306.243 1148.5 -310.091 1150.88 -314.75 1152.51C-319.302 1154.13 -324.666 1154.95 -330.843 1154.95H-368.719ZM-344.661 1138.04H-335.558C-328.297 1138.04 -323.366 1136.31 -320.765 1132.84C-318.164 1129.26 -316.864 1123.79 -316.864 1116.42C-316.864 1111.11 -317.514 1106.83 -318.814 1103.58C-320.006 1100.22 -322.065 1097.73 -324.991 1096.1C-327.809 1094.48 -331.602 1093.66 -336.37 1093.66H-344.661V1138.04ZM-344.661 1077.08H-336.533C-331.765 1077.08 -328.08 1076.38 -325.479 1074.97C-322.878 1073.56 -321.09 1071.39 -320.115 1068.47C-319.031 1065.54 -318.489 1061.86 -318.489 1057.41C-318.489 1052.75 -319.302 1049.18 -320.928 1046.69C-322.445 1044.08 -324.775 1042.35 -327.917 1041.48C-331.06 1040.51 -335.07 1040.02 -339.947 1040.02H-344.661V1077.08ZM-271.407 1154.95V1023.28H-247.511V1078.55H-241.659C-232.664 1078.55 -225.187 1079.79 -219.226 1082.28C-213.266 1084.67 -208.768 1088.68 -205.734 1094.31C-202.7 1099.84 -201.183 1107.32 -201.183 1116.75C-201.183 1124.12 -202.158 1130.29 -204.109 1135.28C-205.951 1140.15 -208.66 1144.06 -212.236 1146.98C-215.813 1149.91 -220.147 1151.97 -225.241 1153.16C-230.334 1154.35 -236.132 1154.95 -242.634 1154.95H-271.407ZM-247.511 1138.69H-242.472C-237.92 1138.69 -234.236 1138.04 -231.418 1136.74C-228.6 1135.44 -226.541 1133.16 -225.241 1129.91C-223.94 1126.55 -223.344 1122 -223.453 1116.26C-223.453 1109.43 -224.807 1104.23 -227.517 1100.65C-230.226 1097.08 -235.319 1095.29 -242.797 1095.29H-247.511V1138.69ZM-188.828 1154.95V1023.28H-164.933V1154.95H-188.828ZM-102.796 1156.74C-112.441 1156.74 -120.027 1154.84 -125.554 1151.05C-130.972 1147.25 -134.765 1142.11 -136.933 1135.6C-139.1 1128.99 -140.184 1121.41 -140.184 1112.85V1065.87C-140.184 1056.87 -139.1 1049.07 -136.933 1042.46C-134.765 1035.85 -130.972 1030.75 -125.554 1027.18C-120.027 1023.6 -112.441 1021.81 -102.796 1021.81C-93.6927 1021.81 -86.5945 1023.39 -81.5011 1026.53C-76.2993 1029.56 -72.6147 1033.95 -70.4473 1039.7C-68.2799 1045.44 -67.1962 1052.1 -67.1962 1059.69V1070.74H-90.2791V1059.36C-90.2791 1055.68 -90.4958 1052.32 -90.9293 1049.29C-91.2544 1046.25 -92.2839 1043.87 -94.0178 1042.13C-95.6434 1040.29 -98.5152 1039.37 -102.633 1039.37C-106.751 1039.37 -109.786 1040.35 -111.736 1042.3C-113.579 1044.14 -114.771 1046.69 -115.313 1049.94C-115.854 1053.08 -116.125 1056.66 -116.125 1060.67V1117.88C-116.125 1122.65 -115.746 1126.61 -114.988 1129.75C-114.229 1132.79 -112.874 1135.12 -110.924 1136.74C-108.865 1138.26 -106.101 1139.02 -102.633 1139.02C-98.6236 1139.02 -95.806 1138.1 -94.1804 1136.25C-92.4465 1134.3 -91.3628 1131.76 -90.9293 1128.61C-90.4958 1125.47 -90.2791 1121.95 -90.2791 1118.05V1106.18H-67.1962V1116.75C-67.1962 1124.55 -68.2257 1131.49 -70.2847 1137.55C-72.3438 1143.51 -75.9742 1148.23 -81.176 1151.7C-86.2694 1155.06 -93.476 1156.74 -102.796 1156.74ZM-30.7774 1154.95V1041H-51.7471V1023.28H13.9254V1041H-6.71919V1154.95H-30.7774ZM25.7411 1154.95L52.0751 1023.28H77.7589L104.093 1154.95H81.8228L76.621 1124.55H53.7006L48.3363 1154.95H25.7411ZM56.139 1109.27H74.0201L65.0795 1054L56.139 1109.27ZM123.837 1154.95V1023.28H156.186C162.038 1023.28 167.294 1023.82 171.953 1024.9C176.722 1025.99 180.786 1027.83 184.145 1030.43C187.613 1032.92 190.268 1036.34 192.11 1040.67C193.953 1045.01 194.874 1050.48 194.874 1057.09C194.874 1062.4 194.115 1066.95 192.598 1070.74C191.189 1074.54 189.076 1077.57 186.258 1079.85C183.441 1082.01 179.919 1083.48 175.692 1084.24C180.894 1085.1 185.175 1086.94 188.534 1089.76C192.002 1092.47 194.549 1096.05 196.174 1100.49C197.908 1104.93 198.775 1110.3 198.775 1116.58C198.775 1122.87 197.962 1128.45 196.337 1133.33C194.82 1138.1 192.49 1142.11 189.347 1145.36C186.313 1148.5 182.465 1150.88 177.805 1152.51C173.254 1154.13 167.89 1154.95 161.712 1154.95H123.837ZM147.895 1138.04H156.998C164.259 1138.04 169.19 1136.31 171.791 1132.84C174.392 1129.26 175.692 1123.79 175.692 1116.42C175.692 1111.11 175.042 1106.83 173.742 1103.58C172.549 1100.22 170.49 1097.73 167.564 1096.1C164.747 1094.48 160.954 1093.66 156.186 1093.66H147.895V1138.04ZM147.895 1077.08H156.023C160.791 1077.08 164.476 1076.38 167.077 1074.97C169.678 1073.56 171.466 1071.39 172.441 1068.47C173.525 1065.54 174.067 1061.86 174.067 1057.41C174.067 1052.75 173.254 1049.18 171.628 1046.69C170.111 1044.08 167.781 1042.35 164.638 1041.48C161.496 1040.51 157.486 1040.02 152.609 1040.02H147.895V1077.08ZM221.149 1154.95V1023.28H245.045V1078.55H249.922L271.216 1023.28H295.112L270.079 1085.37L297.063 1154.95H272.679L249.922 1094.31H245.045V1154.95H221.149ZM308.607 1154.95L334.941 1023.28H360.625L386.959 1154.95H364.688L359.487 1124.55H336.566L331.202 1154.95H308.607ZM339.005 1109.27H356.886L347.945 1054L339.005 1109.27Z" fill="#D75F4B"/>
</svg>
