<svg width="290" height="80" viewBox="0 0 290 80" fill="none" xmlns="http://www.w3.org/2000/svg">
<path fill-rule="evenodd" clip-rule="evenodd" d="M123.251 16.4525C117.575 17.513 111.75 20.6218 108.647 24.2459C98.6536 35.9212 102.134 54.7591 115.543 61.5709C120.987 64.336 128.67 65.2687 134.755 63.9026C138.577 63.0447 145.924 58.9722 145.924 57.7113C145.924 57.5026 144.509 56.339 142.779 55.126L139.634 52.92L137.755 53.8305C132.892 56.1875 127.452 56.7322 122.742 55.3332C118.869 54.183 114.398 49.7122 113.248 45.8392C112.189 42.2733 112.207 37.9241 113.293 34.7298C114.57 30.9748 118.983 26.756 122.919 25.529C126.792 24.3217 131.956 24.6164 135.301 26.236C136.605 26.8668 137.865 27.3053 138.101 27.2105C138.849 26.9085 144.863 22.4109 144.877 22.1419C144.911 21.5287 139.751 18.4606 137.148 17.5459C133.864 16.3912 126.625 15.8217 123.251 16.4525ZM155.199 40.2152V63.9562L168.984 63.7584C184.547 63.5352 186.375 63.2055 190.204 59.9281C196.562 54.4855 196.5 43.2256 190.086 38.5796C186.626 36.0727 183.676 35.4502 173.879 35.159L164.99 34.8947V29.8066V24.7185H174.828H184.666L190.029 20.7831C192.979 18.6183 195.393 16.7632 195.393 16.6607C195.393 16.5576 186.35 16.4736 175.296 16.4736H155.199V40.2152ZM205.012 16.8173C204.823 17.0059 204.669 27.6727 204.669 40.5213V63.8815H222.704H240.74V60.0168V56.152H227.857H214.975V49.9683V43.7847H226.076H237.178L237.027 40.0487L236.875 36.3128L225.925 36.1737L214.975 36.0345V30.3765V24.7185H222.357H229.74L234.596 21.0835C237.267 19.0841 239.672 17.229 239.941 16.9611C240.249 16.6545 233.917 16.4736 222.893 16.4736C213.247 16.4736 205.201 16.6282 205.012 16.8173ZM250.531 40.1054V63.8815H255.426H260.321V57.2377V50.5939L268.18 50.3739C276.897 50.1306 280.554 49.2217 284.008 46.4406C288.542 42.7901 290.728 36.8822 289.709 31.0299C288.931 26.5669 287.715 24.3206 284.516 21.4453C280.181 17.547 277.459 16.9415 262.769 16.6076L250.531 16.3288V40.1054ZM274.287 25.3038C279.243 26.9605 281.336 32.7696 278.836 37.9345C277.007 41.7111 275.148 42.4655 267.149 42.6758L260.321 42.8551V33.7868V24.7185H266.428C269.787 24.7185 273.323 24.9818 274.287 25.3038ZM181.739 43.8955C184.127 45.1528 185.188 46.6317 185.434 49.0454C185.715 51.8059 184.412 54.0753 181.849 55.2914C180.413 55.9732 178.473 56.152 172.513 56.152H164.99V49.3891V42.6263L172.591 42.8535C178.168 43.0205 180.603 43.2977 181.739 43.8955Z" fill="white"/>
<path fill-rule="evenodd" clip-rule="evenodd" d="M39.5134 8.48639C22.1532 8.48639 8.07989 22.5596 8.07989 39.9199C8.07989 57.2801 22.1532 71.3534 39.5134 71.3534C56.8736 71.3534 70.9469 57.2801 70.9469 39.9199C70.9469 38.5144 70.9347 39.6622 70.9347 38.374L77.9035 33.4786C78.6765 34.2516 78.6765 38.1767 78.6765 39.9199C78.6765 61.5491 61.1426 79.083 39.5134 79.083C17.8842 79.083 0.350342 61.5491 0.350342 39.9199C0.350342 18.2907 17.8842 0.756836 39.5134 0.756836C48.0723 0.756836 57.9161 3.84866 64.248 9.77465L57.9161 14.4333C52.7436 10.6911 46.3917 8.48639 39.5134 8.48639Z" fill="white"/>
<path d="M24.3125 40.9501V30.1287L38.741 39.6618L70.6898 16.4731L75.3275 24.2027L38.741 50.4832L24.3125 40.9501Z" fill="white"/>
</svg>
