<svg width="333" height="108" viewBox="0 0 333 108" fill="none" xmlns="http://www.w3.org/2000/svg">
<path fill-rule="evenodd" clip-rule="evenodd" d="M17.2168 1.75645C10.3343 5.13315 10.2606 15.9284 17.0973 19.4451C22.7161 22.3362 30.2876 18.8212 31.8588 12.5922C32.6631 9.40355 30.4223 4.48647 27.1714 2.30701C23.8441 0.0761176 20.9661 -0.083232 17.2168 1.75645ZM44.4881 1.20084C41.6702 2.36013 38.9405 5.88184 38.4294 9.0174C37.4404 15.0794 42.3296 20.6314 48.6569 20.6314C55.1851 20.6314 60.4608 12.0307 57.4335 6.32363C55.0385 1.80957 48.9061 -0.616927 44.4881 1.20084ZM111.864 22.3176C111.864 25.61 111.934 25.6901 114.83 25.6901C117.726 25.6901 117.796 25.61 117.796 22.3176C117.796 19.0252 117.726 18.9451 114.83 18.9451C111.934 18.9451 111.864 19.0252 111.864 22.3176ZM122.033 22.3176C122.033 25.61 122.104 25.6901 125 25.6901C127.896 25.6901 127.966 25.61 127.966 22.3176C127.966 19.0252 127.896 18.9451 125 18.9451C122.104 18.9451 122.033 19.0252 122.033 22.3176ZM15.9303 27.7127C10.5792 29.146 5.71802 32.4772 3.27725 36.3834C1.52295 39.1909 1.26616 40.6403 1.26616 47.752C1.26616 52.2349 1.48905 56.1242 1.76194 56.3956C2.03483 56.6671 3.77897 55.4497 5.63667 53.6909C11.0496 48.569 15.5625 47.526 35.5895 46.7731C50.1604 46.2243 53.7224 45.8314 57.6674 44.3374C64.4728 41.7616 69.2035 36.3041 70.7256 29.2733L71.3188 26.5332L45.6144 26.5897C27.7248 26.6293 18.7007 26.9708 15.9303 27.7127ZM148.498 29.4293C136.721 33.7815 133.103 38.2989 133.069 48.6921C133.048 55.1554 134.338 58.8854 137.644 61.9189C140.827 64.8395 149.974 65.3732 153.98 62.8725C157.915 60.4156 159.649 57.3087 159.649 52.7154C159.649 44.3685 153.415 39.3857 145.576 41.4674C143.589 41.9952 141.771 42.2329 141.533 41.996C140.487 40.9514 146.128 37.5477 151.693 35.8665C156.411 34.4408 157.662 33.7385 157.274 32.7318C156.998 32.0185 156.543 30.522 156.261 29.4057C155.64 26.943 155.22 26.9446 148.498 29.4293ZM292.501 29.6511C281.234 33.521 276.395 40.362 277.36 51.0579C278.202 60.3785 282.359 64.4651 291.008 64.4702C296.993 64.4744 300.873 62.4324 302.883 58.2202C307.835 47.8371 297.944 37.0874 288.099 42.1528C285.329 43.5777 284.951 43.0035 286.869 40.2803C287.641 39.185 290.805 37.5932 294.92 36.2291C298.65 34.9939 301.701 33.6913 301.701 33.3346C301.701 31.9814 299.816 27.3788 299.288 27.4429C298.983 27.4792 295.93 28.4732 292.501 29.6511ZM108.474 46.7681V64.4736H119.915H131.356V60.6795V56.8855H124.152H116.948V53.513V50.1405H122.457H127.966V46.3465V42.5525H122.406H116.846L117.11 39.3908L117.372 36.2291L123.94 35.9829L130.508 35.7367V32.3996V29.0626H119.491H108.474V46.7681ZM255.089 32.435V35.8075H258.479H261.869V32.435V29.0626H258.479H255.089V32.435ZM266.107 32.435C266.107 35.7274 266.177 35.8075 269.073 35.8075C271.969 35.8075 272.039 35.7274 272.039 32.435C272.039 29.1427 271.969 29.0626 269.073 29.0626C266.177 29.0626 266.107 29.1427 266.107 32.435ZM228.351 39.5231C218.346 43.8585 217.781 58.5422 227.445 63.1052C231.586 65.0595 239.546 64.8993 243.02 62.7915C248.994 59.1687 251.094 50.5073 247.43 44.6088C244.125 39.2896 234.693 36.7746 228.351 39.5231ZM256.989 39.9692C248.708 45.14 248.708 57.7691 256.989 62.7915C261.423 65.4819 271.39 64.7881 275.254 61.5201C275.39 61.4046 274.853 59.9561 274.06 58.3019C272.65 55.3603 272.566 55.3207 270.252 56.5112C266.769 58.3028 263.023 58.033 260.81 55.8316L258.903 53.9346L267.269 53.6918L275.633 53.4498L275.245 48.7865C274.927 44.9731 274.375 43.6443 272.217 41.4977C269.99 39.2812 268.812 38.8234 264.664 38.5578C260.801 38.3107 259.16 38.6126 256.989 39.9692ZM162.713 51.8268V64.4736L166.739 64.4702L170.764 64.4668L175.191 57.5145L179.617 50.5621L179.64 57.5178L179.663 64.4736H183.476H187.29V51.8268V39.18H183.141H178.991L174.878 45.7142L170.764 52.2483L170.517 45.7142L170.269 39.18H166.491H162.713V51.8268ZM194.918 45.5304C194.918 53.0333 193.303 57.7286 190.723 57.7286C189.125 57.7286 188.985 58.2379 188.985 64.052V70.3754H193.223H197.46V67.4245V64.4736H205.087H212.715V67.4245C212.715 70.3594 212.735 70.3754 216.529 70.3754H220.342V64.052C220.342 57.8694 220.295 57.7286 218.224 57.7286H216.105V48.4543V39.18H205.511H194.918V45.5304ZM306.786 51.8268V64.4736H310.98H315.174L319.455 57.5532L323.736 50.6329V57.5532V64.4736H327.973H332.211V51.8268V39.18L327.762 39.1825L323.312 39.1851L319.289 45.7167L315.266 52.2483L315.264 45.7142L315.261 39.18H311.024H306.786V51.8268ZM265.937 45.2505C268.03 47.333 267.052 48.4543 263.14 48.4543C258.963 48.4543 258.632 48.0867 260.729 45.7808C262.344 44.006 264.468 43.7893 265.937 45.2505ZM207.63 51.4052V57.7286H204.149C201.158 57.7286 200.758 57.5212 201.303 56.2532C201.653 55.4412 202.319 52.5965 202.782 49.9298C203.531 45.6332 203.853 45.0818 205.628 45.0818C207.554 45.0818 207.63 45.3204 207.63 51.4052ZM238.449 46.8296C242.83 50.2577 240.431 57.7463 234.961 57.716C232.157 57.7 231.078 57.055 229.792 54.6226C228.279 51.7644 228.628 49.4087 230.898 47.1517C233.438 44.6232 235.517 44.5346 238.449 46.8296ZM150.848 50.4398C151.98 52.4262 151.978 52.9228 150.822 54.9885C149.847 56.7295 148.773 57.3703 146.511 57.5608C142.713 57.8804 141.332 56.3231 141.682 52.116C142.147 46.5472 148.017 45.4739 150.848 50.4398ZM292.647 47.7377C295.081 49.0116 295.74 50.0908 295.756 52.8208C295.772 55.6782 293.744 57.7286 290.902 57.7286C285.731 57.7286 283.731 51.7248 287.832 48.5159C290.449 46.4679 290.275 46.4957 292.647 47.7377ZM22.4254 55.2119C11.3445 56.3763 2.9747 61.8405 0.903436 69.2616C0.409349 71.0339 0.00255428 75.7891 1.18104e-05 79.8285C-0.00846309 92.4263 4.54425 101.218 13.281 105.48C18.1651 107.861 18.3744 107.886 33.4708 107.847C50.2663 107.804 56.0581 106.748 62.1269 102.621C65.6855 100.202 69.073 95.0611 70.7425 89.5479L71.8239 85.9731L46.0653 86.2395C18.5889 86.5237 13.8327 86.0085 9.20629 82.2423L7.19859 80.6083L11.436 78.708C15.2108 77.0141 17.6151 76.7393 33.4708 76.1879C43.2593 75.8472 52.7935 75.1171 54.658 74.564C62.6795 72.1856 66.5373 69.1074 69.4179 62.7873C70.8156 59.7202 71.1163 55.2964 71.1163 55.2964C71.1163 55.2964 66.3779 55.2831 56.5649 54.9126C39.4786 54.2685 30.6673 54.3452 22.4254 55.2119ZM139.25 78.8125C139.25 78.8125 136.979 80.3352 136.466 81.2887C135.158 83.7211 136.504 85.8391 140.884 88.2377C145.039 90.5141 146.045 93.3217 143.241 94.8149C141.87 95.545 140.89 95.4776 138.96 94.519C136.203 93.1506 134.537 94.2045 137.209 95.6268C141.41 97.8636 146.611 95.6681 146.611 91.6591C146.611 89.8624 142.82 87.3752 141.119 86.3947C139.715 85.5135 137.204 83.3788 137.785 81.8722C138.498 80.0241 141.777 79.2728 143.989 80.4507C145.206 81.099 145.763 81.1151 145.763 80.5013C145.763 79.8108 143.252 77.844 141.267 78.0665C140.433 78.1601 139.25 78.8125 139.25 78.8125ZM218.933 78.96C216.575 80.094 216.002 82.3587 217.397 85.033C218.32 86.8027 218.305 87.3145 217.303 88.1408C215.616 89.5344 215.813 93.4592 217.655 95.1167C219.502 96.7802 223.667 96.9404 225.745 95.4287C226.565 94.8326 227.448 92.7644 227.708 90.8329C228.011 88.5834 228.676 87.1897 229.559 86.9554C230.741 86.6417 230.726 86.5768 229.453 86.4925C228.637 86.4385 227.97 85.8256 227.97 85.13C227.97 84.4344 227.588 83.8653 227.122 83.8653C226.656 83.8653 226.275 84.4344 226.275 85.13C226.275 85.9655 225.435 86.3947 223.802 86.3947C219.841 86.3947 218.647 85.5878 218.647 82.9109C218.647 80.8545 219.063 80.368 221.176 79.9473C222.567 79.6708 223.497 79.111 223.245 78.7037C222.658 77.7603 221.252 77.8438 218.933 78.96ZM183.9 87.6593C183.9 92.9988 184.237 96.5121 184.748 96.5121C185.214 96.5121 185.595 94.6151 185.595 92.2965C185.595 87.4874 187.802 84.4226 190.944 84.8678C192.613 85.1039 192.824 85.6999 193.05 90.821C193.187 93.9515 193.664 96.5121 194.109 96.5121C195.293 96.5121 195.107 86.0768 193.901 84.8771C192.651 83.6343 189.434 83.5668 187.234 84.7379C185.739 85.5338 185.595 85.3113 185.595 82.2086C185.595 80.3377 185.214 78.8066 184.748 78.8066C184.237 78.8066 183.9 82.3199 183.9 87.6593ZM201.697 79.6497C201.697 80.1134 202.079 80.4928 202.545 80.4928C203.011 80.4928 203.392 80.1134 203.392 79.6497C203.392 79.186 203.011 78.8066 202.545 78.8066C202.079 78.8066 201.697 79.186 201.697 79.6497ZM243.377 87.8701C243.461 92.8547 243.589 98.7885 243.763 96.5863C244.065 92.7821 244.291 88.924 246.672 88.924C248.803 88.924 249.456 89.4914 251.032 92.7181C252.051 94.8048 253.417 96.5121 254.067 96.5121C254.925 96.5121 254.639 95.4742 253.028 92.7408L250.807 88.9687L252.524 87.2606C254.583 85.2126 254.704 83.2094 252.922 80.6808C251.862 79.1742 250.782 78.8066 247.414 78.8066H243.224L243.377 87.8701ZM278.819 87.2639C278.819 94.1092 279.068 95.8174 280.127 96.2212C280.846 96.4961 281.704 96.432 282.034 96.0796C282.363 95.7263 282.156 95.2685 281.573 95.0619C280.828 94.7972 280.514 92.3344 280.514 86.7463C280.514 82.0155 280.172 78.8066 279.667 78.8066C279.158 78.8066 278.819 82.1875 278.819 87.2639ZM287.294 86.7134C287.294 92.7678 287.596 94.8689 288.585 95.6858C289.296 96.2727 290.154 96.4565 290.492 96.0956C290.83 95.7339 290.631 95.2685 290.048 95.0619C289.302 94.7972 288.989 92.3344 288.989 86.7463C288.989 82.0155 288.647 78.8066 288.141 78.8066C287.636 78.8066 287.294 82.0045 287.294 86.7134ZM250.908 80.5224C252.74 81.4978 253.087 84.6772 251.53 86.2261C250.97 86.7825 249.064 87.2378 247.292 87.2378C244.124 87.2378 244.072 87.1864 244.072 84.0061C244.072 82.228 244.326 80.5207 244.637 80.2121C245.491 79.3614 249.059 79.5384 250.908 80.5224ZM171.07 84.6553C168.697 86.5928 169.42 88.4671 173.382 90.6516C174.739 91.3994 175.966 92.6118 176.109 93.3462C176.456 95.1285 173.412 96.0096 171.122 94.7905C169.658 94.0114 169.371 94.0434 169.672 94.9549C170.168 96.4573 175.198 96.9058 176.793 95.5897C178.911 93.8403 177.815 91.165 174.31 89.5269C169.909 87.4696 170.285 85.0836 174.986 85.2413C178.006 85.3416 178.16 85.2472 176.702 84.1874C174.555 82.6251 173.444 82.7178 171.07 84.6553ZM297.676 83.8906C294.409 85.1983 295.154 88.5784 299.159 90.6103C302.857 92.4871 303.22 93.2223 301.252 94.8469C300.268 95.6589 299.459 95.6917 297.893 94.9818C296.758 94.4675 295.627 94.3714 295.38 94.7694C294.798 95.7069 296.954 96.5121 300.046 96.5121C302.649 96.5121 304.598 94.1961 303.779 92.0748C303.528 91.4213 301.977 90.2494 300.333 89.4695C296.448 87.6265 296.654 85.071 300.672 85.2539C302.171 85.3231 303.396 85.0381 303.396 84.6216C303.396 84.2059 303.046 83.8653 302.618 83.8653C302.19 83.8653 301.332 83.6992 300.711 83.4969C300.09 83.2937 298.725 83.4707 297.676 83.8906ZM152.543 89.177C152.543 92.1844 152.985 94.9279 153.56 95.5004C155.014 96.9472 158.503 96.749 160.315 95.1167C161.758 93.8183 161.865 93.8183 161.865 95.1167C161.865 95.884 162.247 96.5121 162.713 96.5121C163.203 96.5121 163.56 93.8419 163.56 90.1887C163.56 86.5355 163.203 83.8653 162.713 83.8653C162.247 83.8653 161.865 85.5516 161.865 87.6121C161.865 92.3597 158.976 96.2086 156.095 95.2989C154.437 94.7753 154.238 94.1294 154.238 89.2891C154.238 86.2353 153.868 83.8653 153.391 83.8653C152.915 83.8653 152.543 86.1982 152.543 89.177ZM201.697 90.1887C201.697 93.8419 202.055 96.5121 202.545 96.5121C203.035 96.5121 203.392 93.8419 203.392 90.1887C203.392 86.5355 203.035 83.8653 202.545 83.8653C202.055 83.8653 201.697 86.5355 201.697 90.1887ZM261.169 85.8163C260.156 86.8896 259.327 88.8043 259.327 90.0707C259.327 93.2248 262.787 96.5121 266.107 96.5121C269.295 96.5121 272.887 93.2425 272.887 90.3405C272.887 89.2225 272.096 87.3086 271.13 86.0869C268.784 83.1192 263.843 82.9851 261.169 85.8163ZM269.497 86.3947C271.205 88.0944 271.694 91.0883 270.543 92.8024C269.802 93.9077 266.589 95.669 265.315 95.669C263.601 95.669 261.022 92.2898 261.022 90.0445C261.022 85.2548 266.137 83.0525 269.497 86.3947ZM225.969 88.5042C227.498 92.4693 223.186 96.7903 219.602 94.8832C217.048 93.5232 217.116 89.1432 219.707 88.107C222.651 86.9301 225.43 87.1063 225.969 88.5042Z" fill="white"/>
</svg>
