<svg width="256" height="98" viewBox="0 0 256 98" fill="none" xmlns="http://www.w3.org/2000/svg">
<path fill-rule="evenodd" clip-rule="evenodd" d="M224.658 0.738648C224.208 0.776957 223.54 0.858312 223.175 0.919276L222.509 1.03029V11.4219V21.8137H223.592C225.947 21.8137 228.228 22.7481 229.713 24.3213C231.183 25.8792 231.601 27.1553 231.591 30.0521C231.584 32.073 231.499 32.6777 231.012 34.1714C229.945 37.4482 228.063 40.6892 225.331 43.9546C221.035 49.0908 209.626 60.4189 196.519 72.5608L194.987 73.9801L197.852 73.847C199.427 73.7739 206.564 73.5269 213.71 73.2981L226.704 72.8825L230.902 68.6135C246.177 53.0797 252.423 42.5752 254.116 29.57C254.51 26.5485 254.514 24.5285 254.131 22.0196C253.717 19.309 253.124 17.2953 252.094 15.1022C248.267 6.95128 240.847 1.86217 231.265 0.816501C229.403 0.613217 226.528 0.57944 224.658 0.738648ZM216.473 2.029C213.94 2.74266 212.799 3.14304 210.946 3.96957C200.788 8.50093 194.674 16.8751 192.654 29.0223C192.124 32.2121 191.742 38.0649 191.925 40.1958C192.056 41.7205 192.085 41.792 192.57 41.792C193.056 41.792 197.255 41.4237 206.742 40.549C209.156 40.3263 211.31 40.1443 211.528 40.1443C211.9 40.1443 211.918 40.0219 211.82 38.1361C211.762 37.0316 211.793 35.1548 211.888 33.9654C212.329 28.4724 214.062 25.1348 217.389 23.3753L218.826 22.6151V12.0192C218.826 6.19148 218.757 1.43006 218.673 1.43809C218.588 1.44592 217.598 1.71202 216.473 2.029ZM174.626 9.98406C169.618 10.7037 163.724 11.5533 161.53 11.8719L157.539 12.4513L157.486 21.7665L157.433 31.0819H158.029C158.491 31.0819 178.393 28.9313 183.988 28.2768L185.062 28.1511V18.3916V8.63213L184.397 8.65375C184.031 8.6657 179.634 9.26423 174.626 9.98406ZM152.117 13.1783C151.498 13.2722 147.676 13.816 143.625 14.3867C139.573 14.9576 136.005 15.4793 135.695 15.5461L135.132 15.6676V56.4315V97.1956H144.545H153.958V55.0765C153.958 15.0907 153.94 12.9586 153.6 12.9825C153.403 12.9963 152.736 13.0844 152.117 13.1783ZM94.9226 21.3091C90.7584 21.9175 87.2363 22.419 87.0955 22.4235C86.8919 22.4299 86.8397 30.0497 86.8397 59.8136V97.1956H95.0249H103.21V58.6808C103.21 22.1302 103.192 20.167 102.852 20.1843C102.655 20.1944 99.0868 20.7007 94.9226 21.3091ZM72.3109 24.4936C67.7528 25.1494 63.2178 25.8013 62.2329 25.9424L60.4424 26.1986V34.1075V42.0167L61.1074 41.9052C61.4733 41.8439 65.2256 41.4216 69.4461 40.9669C79.5295 39.8802 80.9785 39.7109 81.1612 39.5974C81.2457 39.5449 81.3147 35.8467 81.3147 31.3787C81.3147 23.7707 81.292 23.2568 80.9566 23.2783C80.7597 23.2908 76.8691 23.8377 72.3109 24.4936ZM56.9637 26.6919C56.2094 26.8173 43.5029 28.6104 43.3683 28.6104C43.3052 28.6104 43.2535 44.0421 43.2535 62.903V97.1956H50.5178H57.7822V61.8732C57.7822 42.4459 57.7132 26.5634 57.6287 26.5788C57.5442 26.5943 57.245 26.6451 56.9637 26.6919ZM33.022 30.0637C30.8273 30.3864 25.026 31.2146 20.1303 31.9037C15.2345 32.5929 8.98835 33.4777 6.25019 33.8701C3.51183 34.2622 1.18662 34.5833 1.08328 34.5833C0.97237 34.5833 0.89502 37.4705 0.89502 41.6041V48.6249L1.66238 48.5036C2.54598 48.364 37.7154 44.4695 38.0925 44.4695C38.2846 44.4695 38.3423 42.733 38.3423 36.9519V29.4343L37.6773 29.4555C37.3116 29.467 35.2166 29.7407 33.022 30.0637ZM171.864 44.075C167.703 44.4522 157.911 45.2933 157.683 45.2933C157.495 45.2933 157.437 47.5626 157.437 54.8989V64.5046L158.921 64.3777C159.737 64.3079 163.213 64.1079 166.645 63.9332C170.078 63.7586 173.462 63.5637 174.166 63.5003L175.445 63.3852V53.6183V43.8516L174.575 43.88C174.097 43.8954 172.876 43.9834 171.864 44.075ZM19.721 48.7014C16.1758 49.0787 13.1601 49.3932 13.0194 49.4C12.8164 49.4099 12.7636 54.3348 12.7636 73.3041V97.1956H19.6187H26.4738V72.5832C26.4738 59.0464 26.4046 47.9807 26.3203 47.993C26.236 48.0052 23.2662 48.324 19.721 48.7014ZM68.423 53.0138C65.553 53.2657 62.5832 53.539 61.8236 53.6212L60.4424 53.7705V61.8133V69.8559L61.8236 69.7337C62.5832 69.6664 65.2768 69.5107 67.8091 69.3877C70.3414 69.2648 72.8057 69.1167 73.2852 69.0586L74.1573 68.9529L74.1037 60.796C74.0695 55.5667 73.9768 52.6243 73.8457 52.5975C73.7331 52.5747 71.2929 52.7619 68.423 53.0138ZM252.999 75.5085C252.043 75.5419 238.783 75.9379 223.533 76.3886C208.283 76.8392 194.769 77.2654 193.503 77.3358L191.201 77.4639V87.3299V97.1956H223.328H255.455V86.2797C255.455 76.0049 255.434 75.3662 255.097 75.4057C254.9 75.4286 253.956 75.4749 252.999 75.5085ZM169.408 78.0527C163.443 78.2533 158.309 78.4253 158 78.4352L157.437 78.4531V87.8244V97.1956H171.25H185.062V87.4125V77.6293L182.658 77.6587C181.335 77.675 175.373 77.8521 169.408 78.0527ZM118.864 79.5964C114.813 79.7373 110.324 79.8621 108.889 79.8736L106.28 79.8949V88.5452V97.1956H118.148H130.017V88.2363V79.277L128.124 79.3087C127.083 79.3262 122.916 79.4557 118.864 79.5964ZM71.1855 81.0351C67.0213 81.1799 62.9004 81.3067 62.0283 81.3174L60.4424 81.3366V89.2661V97.1956H70.8808H81.3194L81.2658 89.0087L81.2124 80.8217L79.9846 80.7968C79.3093 80.7832 75.3497 80.8905 71.1855 81.0351Z" fill="white"/>
</svg>
