<svg width="270" height="68" viewBox="0 0 270 68" fill="none" xmlns="http://www.w3.org/2000/svg">
<path fill-rule="evenodd" clip-rule="evenodd" d="M0.346069 34.1494V67.9107H122.224C189.257 67.9107 244.102 67.7966 244.102 67.6575C244.102 67.5184 248.082 57.1112 252.947 44.531C264.604 14.3843 269.761 0.918913 269.761 0.627216C269.761 0.495547 209.143 0.388184 135.054 0.388184H0.346069V34.1494ZM55.5944 10.6368L57.7301 11.5294L56.042 14.3431C54.3722 17.1263 54.3263 17.1493 51.8313 16.4606C47.9312 15.3836 39.6624 16.1176 36.32 17.8367C29.9554 21.1102 26.0046 26.9799 26.0046 33.1616C26.0046 36.4283 26.2707 37.2204 27.9236 38.8733C31.4733 42.423 35.9899 42.845 44.8407 40.454L46.4592 40.0172L44.5031 43.6587C42.763 46.8984 42.2499 47.3521 39.8467 47.7755C31.7481 49.2022 22.4732 47.319 18.3759 43.4156C17.12 42.2184 15.5326 39.7599 14.8486 37.9517C13.7682 35.0941 13.7088 34.1704 14.3955 30.8982C16.3658 21.5045 26.3125 13.0109 38.1587 10.6077C40.2012 10.1938 42.4801 9.71574 43.2229 9.54626C45.5517 9.01485 53.3621 9.7036 55.5944 10.6368ZM109.733 10.6111C109.733 11.2316 100.745 34.9854 96.4192 45.7971L95.4063 48.3292H90.7527C87.0862 48.3292 86.0997 48.1165 86.0997 47.3258C86.0997 46.7735 87.8742 41.8362 90.043 36.3534C92.2118 30.8706 95.4252 22.6625 97.1842 18.1128L100.382 9.84134H105.057C108.106 9.84134 109.733 10.1094 109.733 10.6111ZM203.328 15.518C203.103 16.412 202.733 17.6274 202.506 18.2189C202.165 19.1095 202.643 19.2945 205.278 19.2945C208.413 19.2945 208.455 19.3228 207.997 21.1473C207.268 24.0541 206.357 24.6963 202.966 24.6963H199.806L196.903 32.0313C193.284 41.1779 193.367 41.9436 197.954 41.8281L201.39 41.7417L200.384 44.3021C199.223 47.2583 198.29 47.6317 192.032 47.6445C183.147 47.6634 182.007 44.1536 186.993 32.1238L189.93 25.0339L187.982 24.8226C185.899 24.5964 185.633 23.8124 186.691 21.0264C187.213 19.6544 187.81 19.2945 189.561 19.2931C191.265 19.2925 192.009 18.8705 192.801 17.4552C193.818 15.6388 194.34 15.4639 203.155 13.9899C203.475 13.9366 203.552 14.624 203.328 15.518ZM245.821 16.2256C246.732 17.1371 247.479 18.3525 247.479 18.9265C247.479 20.4511 245.009 22.6706 243.312 22.6706C239.68 22.6706 237.952 17.6672 240.877 15.6192C242.936 14.177 243.89 14.2938 245.821 16.2256ZM242.626 16.3796C243.113 16.5747 243.695 16.5504 243.919 16.3262C244.144 16.102 243.745 15.9427 243.033 15.9717C242.247 16.0041 242.087 16.1642 242.626 16.3796ZM244.824 18.4505C244.779 20.5909 243.809 21.4545 243.27 19.8353C243.101 19.3283 242.835 19.4552 242.559 20.173C242.243 20.9974 242.47 21.3202 243.366 21.3202C245.343 21.3202 246.456 19.543 245.595 17.759C244.915 16.3505 244.866 16.3944 244.824 18.4505ZM240.858 18.9569C240.871 20.071 241.023 20.4451 241.194 19.7881C241.366 19.1311 241.354 18.2195 241.169 17.7624C240.984 17.3053 240.844 17.8428 240.858 18.9569ZM174.003 20.0595C178.271 20.9745 181.982 24.2196 181.982 27.0353C181.982 28.0251 180.756 32.0812 179.258 36.0495C177.76 40.0178 176.497 44.209 176.452 45.3629L176.369 47.4608L167.189 48.0051C149.75 49.0395 147.127 48.5061 144.621 43.4189C142.47 39.0489 144.91 34.1866 150.594 31.5147C153.832 29.9921 164.719 28.6437 169.064 29.2264C171.587 29.5647 171.853 29.4614 171.853 28.1447C171.853 25.8962 169.042 25.1723 162.063 25.6227C158.72 25.8388 154.968 26.3135 153.725 26.6781C151.551 27.3155 151.48 27.2784 151.873 25.7105C152.937 21.4748 153.527 20.7233 156.124 20.2986C157.533 20.0683 159.142 19.7834 159.699 19.6652C162.225 19.1311 170.772 19.3661 174.003 20.0595ZM233.753 20.6031C238.328 22.6807 240.2 27.2284 238.73 32.6916L237.973 35.4999H226.93C214.77 35.4999 214.47 35.6093 215.845 39.5526C217.19 43.4122 222.438 44.5905 229.686 42.6607L233.162 41.7356L231.967 44.4054C231.309 45.8741 230.495 47.3515 230.158 47.6884C229.821 48.0253 227.272 48.6175 224.495 49.0037C212.47 50.6763 204.783 46.2252 204.783 37.589C204.783 29.8982 210.674 23.2405 220.132 20.2412C224.218 18.9454 230.468 19.1115 233.753 20.6031ZM81.4001 21.7192C85.0639 23.859 86.9511 27.1379 86.6115 30.7733C85.3704 44.0435 67.3777 53.0436 54.4667 46.8518C43.5875 41.6343 49.5349 25.6524 64.1333 20.8752C68.3021 19.5106 78.4696 20.0075 81.4001 21.7192ZM142.611 20.7489L146.118 20.6875L144.526 24.886C143.649 27.196 141.382 33.1791 139.487 38.1826C135.765 48.0091 133.816 51.3616 130.238 54.0902C125.054 58.0443 115.695 60.3286 107.934 59.5332C101.55 58.8796 101.541 58.8721 102.785 55.5149L103.836 52.6776L110.427 52.9423C114.535 53.1071 117.999 52.893 119.621 52.3724C122.633 51.4075 126.292 48.8403 127.275 47.0037C127.937 45.7667 127.859 45.7674 124.262 47.0314C119.788 48.604 113.12 48.7282 110.172 47.2941C103.516 44.0564 103.815 35.1569 110.84 27.3817C116.259 21.3843 120.839 19.8218 131.34 20.3897C135.611 20.6213 140.683 20.7827 142.611 20.7489ZM67.8686 25.4532C63.5917 27.1534 59.7328 32.9698 59.5424 38.003C59.4499 40.4405 59.7348 41.269 61.0225 42.3116C64.2035 44.8882 69.7106 43.5223 72.8281 39.3831C74.6681 36.9415 76.6465 31.6059 76.6465 29.088C76.6465 25.5694 72.2035 23.7294 67.8686 25.4532ZM220.993 25.749C219.374 26.6274 217.769 28.6025 217.769 29.7159C217.769 29.9259 220.503 30.0981 223.846 30.0981H229.923V28.2075C229.923 27.1676 229.558 25.9522 229.112 25.5066C227.999 24.3931 223.228 24.5356 220.993 25.749ZM123.216 26.8908C119.37 28.8334 116.377 33.2116 115.965 37.4979C115.604 41.2528 116.841 42.9274 119.976 42.9274C125.036 42.9274 129.553 38.5729 132.453 30.8989L133.904 27.0596L132.453 26.2392C130.199 24.965 126.515 25.225 123.216 26.8908ZM158.137 35.5114C157.092 35.8247 155.8 36.4439 155.267 36.8861C153.955 37.9746 154.022 41.3264 155.366 41.8423C156.998 42.4689 162.454 42.3237 165.121 41.5823C167.109 41.03 167.691 40.4155 168.633 37.8726L169.763 34.8247L164.9 34.8827C162.225 34.9145 159.182 35.1974 158.137 35.5114Z" fill="white"/>
</svg>
