<svg width="292" height="46" viewBox="0 0 292 46" fill="none" xmlns="http://www.w3.org/2000/svg">
<path fill-rule="evenodd" clip-rule="evenodd" d="M9.51575 1.44601C3.69838 2.67136 0.284034 6.97356 0.336054 13.0114C0.384719 18.7156 1.94534 20.5244 11.8444 26.3529C14.8168 28.1032 17.7747 30.2073 18.4169 31.0281C20.8384 34.1247 19.2509 38.0522 15.5356 38.1585C12.5184 38.2446 11.1938 36.7948 11.1938 33.4074V30.6816H5.60021H0.0065918L0.0188995 33.6352C0.0323242 36.806 1.40555 40.4821 3.16419 42.0529C5.81724 44.4225 9.61252 45.5359 15.1099 45.5573C19.7851 45.5759 20.7947 45.3947 23.5004 44.0524C27.1317 42.2509 28.8613 39.9414 29.6293 35.8682C31.0943 28.0998 28.2079 24.017 17.0453 18.0692C12.9206 15.8711 11.2386 14.3071 10.8571 12.3149C10.4107 9.98461 12.1078 8.17753 14.743 8.17753C17.1399 8.17753 18.4655 9.64592 18.4655 12.3008V14.3661H23.7795H29.0934L29.0688 12.2564C29.0386 9.6718 27.874 6.25175 26.4896 4.68322C23.8886 1.73519 15.624 0.159346 9.51575 1.44601ZM146.268 1.40044C138.381 2.62016 134.221 8.31875 135.944 15.5437C136.809 19.1696 139.287 21.7846 144.962 25.0618C151.341 28.7462 153.281 30.1932 154.179 31.9384C155.635 34.7706 153.798 37.9954 150.73 37.9954C147.974 37.9954 146.652 36.5214 146.441 33.2133L146.262 30.4003L140.74 30.2382L135.219 30.0762L135.5 34.0319C135.847 38.9029 137.277 41.2523 141.246 43.4672C143.828 44.9081 144.515 45.0279 150.195 45.0279C155.539 45.0279 156.702 44.8524 159.042 43.694C162.722 41.8717 164.504 39.0559 164.864 34.496C165.445 27.1428 163.383 24.2938 153.407 18.6622C150.274 16.8933 147.325 14.8933 146.855 14.2182C144.962 11.4997 146.509 8.17753 149.668 8.17753C152.206 8.17753 153.831 9.82427 153.831 12.397V14.3661H158.865H163.9V11.5306C163.9 7.26219 162.329 4.64215 158.738 2.92115C155.428 1.33462 150.544 0.739383 146.268 1.40044ZM271.702 1.4477C267.821 2.10425 264.261 4.40304 262.766 7.21717C261.563 9.48221 261.508 10.1641 261.508 23.0865C261.508 37.9734 261.63 38.5923 265.151 41.5713C270.492 46.0918 282.775 45.712 287.582 40.8776C290.275 38.1687 290.868 35.7467 290.872 27.4466L290.875 20.5548H283.603H276.331V23.6491V26.7434H278.289H280.247V30.9629C280.247 34.4324 280.048 35.3827 279.128 36.3076C277.694 37.7507 274.637 37.7748 272.898 36.3565C271.584 35.2853 271.577 35.2167 271.577 23.1939C271.577 12.0977 271.664 11.0102 272.642 9.92385C273.374 9.11145 274.383 8.74013 275.859 8.74013C278.75 8.74013 280.247 10.2755 280.247 13.2409V15.4913H285.638H291.029L290.654 12.2885C290.09 7.45178 288.4 4.81374 284.722 3.02355C281.281 1.34868 276.037 0.714065 271.702 1.4477ZM44.9603 2.41144C44.6112 2.64323 43.4265 7.76965 42.3274 13.8035C41.2282 19.8374 39.563 28.9516 38.6272 34.0572C37.6908 39.1628 36.925 43.5303 36.925 43.762C36.9245 43.9938 39.4416 44.184 42.5181 44.184C45.5946 44.184 48.1056 43.9938 48.0983 43.762C48.0536 42.3606 53.4067 7.25093 53.7221 6.87848C53.9336 6.62813 54.3833 8.52691 54.7206 11.098C55.0579 13.6691 56.2258 21.8313 57.316 29.2363C58.4068 36.6406 59.299 43.0335 59.299 43.4419C59.299 44.0068 60.6347 44.184 64.8993 44.184H70.4996L70.1534 42.0742C69.9626 40.9142 68.26 31.4833 66.3688 21.1174L62.9304 2.27022L54.2625 2.13014C49.495 2.05363 45.3093 2.18021 44.9603 2.41144ZM79.789 9.44339C79.6128 13.5431 79.3465 23.0465 79.1983 30.5617L78.9281 44.2256L84.0765 44.0642L89.2248 43.9027L89.5157 25.0556C89.6757 14.6896 89.8659 6.4616 89.9375 6.77103C90.0091 7.08046 91.4505 14.9287 93.1404 24.2117C94.8308 33.4946 96.3601 41.7862 96.5391 42.6368L96.8652 44.184H102.031H107.197L110.416 26.6027C112.187 16.9333 113.85 8.38851 114.111 7.61493C114.393 6.78285 114.605 13.9751 114.632 25.2176L114.676 44.2262L119.85 44.0647L125.024 43.9027L124.886 36.5889C124.811 32.5663 124.59 23.136 124.396 15.632L124.043 1.98892H115.761C108.346 1.98892 107.452 2.09188 107.22 2.97347C107.076 3.51526 105.877 10.7227 104.554 18.9902C103.231 27.2581 102.076 33.9497 101.987 33.8603C101.898 33.7708 100.683 26.7822 99.2872 18.3297C97.891 9.87771 96.6146 2.74337 96.4501 2.47558C96.2857 2.20778 92.5419 1.98892 88.1302 1.98892H80.11L79.789 9.44339ZM174.745 2.79288C174.576 3.23508 174.526 11.0204 174.633 20.0929C174.843 37.8497 175.028 39.0519 177.959 41.7659C182.358 45.838 193.968 46.44 199.236 42.8686C200.25 42.1817 201.646 40.6137 202.338 39.385C203.567 37.2021 203.596 36.7537 203.605 19.5702L203.614 1.98892H198.58H193.546V18.5232C193.546 36.8938 193.515 37.0553 189.807 37.7754C188.371 38.0545 187.749 37.8418 186.591 36.6772L185.155 35.2336V18.611V1.98892H180.104C176.24 1.98892 174.98 2.17796 174.745 2.79288ZM215.734 2.36418C215.529 2.57009 215.361 11.9374 215.361 23.1804V43.6214H220.455H225.549L225.35 26.5088C225.24 17.097 225.212 9.45914 225.288 9.53565C225.41 9.6583 227.185 15.4992 233.338 36.0263C234.266 39.1206 235.148 42.0951 235.299 42.6368C235.543 43.5123 236.409 43.6214 243.094 43.6214H250.615L250.468 22.9458L250.321 2.27022H245.287H240.253L240.382 18.5857C240.453 27.5591 240.394 34.6479 240.251 34.3385C240.107 34.0291 238.096 27.1934 235.781 19.1483C233.466 11.1031 231.329 3.95127 231.03 3.25477C230.508 2.03618 230.22 1.98892 223.297 1.98892C219.343 1.98892 215.939 2.15771 215.734 2.36418Z" fill="white"/>
</svg>
