<svg width="338" height="98" viewBox="0 0 338 98" fill="none" xmlns="http://www.w3.org/2000/svg">
<path fill-rule="evenodd" clip-rule="evenodd" d="M245.431 7.25766C245.395 10.8978 245.148 20.2571 244.88 28.0559C244.612 35.8548 244.485 42.3592 244.599 42.5098C244.711 42.6604 247.86 39.7738 251.595 36.0952C255.331 32.4166 258.6 29.349 258.862 29.2788C259.123 29.2086 261.159 31.5529 263.388 34.4888C265.616 37.424 267.591 39.8251 267.776 39.8238C267.962 39.8224 269.248 38.8454 270.634 37.6523L273.154 35.4834L268.777 29.821C266.37 26.7068 264.4 23.9816 264.4 23.7635C264.4 23.5461 266.14 21.6103 268.267 19.4617L272.133 15.5542L269.742 13.1632L267.351 10.7722L259.747 18.0079L252.142 25.243L252.313 13.145L252.484 1.04694L248.989 0.843022L245.494 0.638428L245.431 7.25766ZM28.0715 7.93559C28.0715 10.5339 28.2647 14.9437 28.5003 17.7351L28.9298 22.8115L33.3957 23.197C45.8428 24.2727 52.4715 29.9837 50.3621 37.8163C48.9893 42.9136 44.3911 46.5396 36.6253 48.6469L33.3626 49.5322L33.5962 54.624L33.8299 59.7152L38.2344 60.5282C43.8144 61.5586 47.4714 63.0839 49.9077 65.3979C54.9374 70.1751 55.0232 75.8626 50.144 80.9369C47.04 84.1645 44.5977 85.5061 37.8083 87.7161L31.7853 89.6763L31.5827 93.463L31.3808 97.2497L34.6212 96.8432C36.4038 96.6197 40.597 95.6933 43.9393 94.7837C61.7335 89.9424 71.1665 80.5041 70.4892 68.219C70.0132 59.5809 65.2555 53.3634 57.5289 51.283L54.8922 50.5734L56.8436 49.3519C60.1967 47.2526 65.0806 41.7056 66.6755 38.1843C67.8916 35.4996 68.2029 33.607 68.1954 28.9405C68.1873 23.592 67.9801 22.669 65.8538 18.5002C61.2481 9.47106 51.2466 4.7546 34.3174 3.62765L28.0715 3.21171V7.93559ZM80.4677 36.6894C80.2307 54.9664 79.9667 75.9213 79.8816 83.2563L79.7263 96.5927L85.5366 96.592L91.3469 96.5913L91.7797 92.0335C92.0181 89.5264 92.509 84.5892 92.8716 81.0611C93.2335 77.5331 93.9837 70.0887 94.5387 64.5181C95.9371 50.4741 97.7244 33.2761 98.9945 21.6413C99.3395 18.4846 99.8237 13.2435 100.071 9.99368L100.521 4.08545L95.8628 4.02604C93.301 3.99295 88.8864 3.85183 86.0518 3.71273L80.8985 3.45952L80.4677 36.6894ZM154.823 5.92139C153.129 6.1773 152.979 6.41566 153.294 8.35288C153.486 9.53385 154.413 17.4887 155.354 26.0303C156.295 34.5719 157.225 42.6239 157.42 43.9237L157.776 46.287L161.167 46.05L164.559 45.813L164.377 43.3491C164.239 41.4679 164.427 40.9487 165.175 41.1533C167.968 41.917 174.073 41.9521 176.3 41.2174C179.475 40.1695 183.973 36.158 185.165 33.3106C186.5 30.1221 186.304 24.7399 184.743 21.6798C181.162 14.6602 172.98 11.8485 164.981 14.8884C163.027 15.6311 161.384 16.2388 161.33 16.2388C161.276 16.2395 161.016 13.8087 160.753 10.8377C160.225 4.87209 160.464 5.0706 154.823 5.92139ZM278.715 6.9214C278.27 7.36705 277.905 8.52168 277.905 9.48726C277.905 11.8094 279.064 12.8634 281.619 12.8634C284.173 12.8634 285.332 11.8094 285.332 9.48726C285.332 7.16516 284.173 6.11113 281.619 6.11113C280.467 6.11113 279.161 6.47575 278.715 6.9214ZM103.793 15.3955C102.783 26.5306 102.799 27.0093 104.203 27.4908C112.347 30.2815 117.421 34.3936 118.263 38.8845C119.432 45.1115 114.903 50.9508 105.352 55.5336L99.7568 58.2183L99.2923 63.7963L98.8277 69.3743L107.171 82.001L115.513 94.6278L118.889 94.2213C125.896 93.3779 125.656 94.228 121.625 84.548C119.667 79.845 117.111 73.9037 115.945 71.346C114.779 68.7876 113.825 66.3223 113.825 65.8679C113.825 65.4135 115.807 64.0657 118.23 62.8726C123.595 60.2311 129.613 54.7733 132.559 49.8745C135.452 45.0662 137.749 36.0128 137.216 31.5178C136.29 23.6926 131.056 17.33 121.428 12.3205C116.874 9.95114 107.668 6.78636 105.331 6.78636C104.853 6.78636 104.287 9.95721 103.793 15.3955ZM10.6014 10.207C5.26446 11.2638 0.733699 12.2921 0.533833 12.492C0.333291 12.6919 1.01392 16.5798 2.04634 21.1308C3.07808 25.6825 4.45621 31.8372 5.10848 34.8082C6.18344 39.7049 14.9188 78.398 17.6474 90.3455L18.7649 95.2409H22.4057H26.0459L26.0614 92.7088C26.0817 89.467 24.1053 28.8926 23.5941 17.0835C23.139 6.57096 24.7245 7.41026 10.6014 10.207ZM232.665 12.5602C227.909 15.4941 225.913 17.8067 225.913 20.3847C225.913 21.5319 227.407 25.276 229.318 28.9189C231.191 32.4881 232.635 36.0304 232.526 36.79C232.414 37.5699 230.909 39.0986 229.071 40.2985C227.281 41.4686 225.817 42.6246 225.817 42.867C225.817 43.1101 226.377 44.1918 227.061 45.2722L228.304 47.2357L233.354 44.0885C241.534 38.9905 241.577 38.7596 236.335 28.3071C234.268 24.1869 232.736 20.4023 232.93 19.8972C233.124 19.3928 234.793 17.8938 236.639 16.5677L239.996 14.1558L238.863 12.1639C238.239 11.068 237.425 10.1935 237.054 10.2205C236.682 10.2476 234.707 11.3002 232.665 12.5602ZM294.029 17.2523C293.971 20.5947 293.875 24.5448 293.817 26.0303C293.758 27.5158 293.588 31.9216 293.438 35.821L293.165 42.9109L296.676 43.1148L300.187 43.3194L300.192 40.4139C300.195 38.8163 300.395 35.4186 300.636 32.8635L301.074 28.218L310.344 37.9277C315.442 43.2681 319.768 47.4856 319.957 47.2999C320.145 47.1142 320.521 40.0324 320.793 31.5624L321.287 16.1632L317.658 16.3698L314.029 16.5771L313.837 23.4982C313.731 27.3044 313.517 30.4192 313.36 30.4192C313.204 30.4192 308.815 26.0897 303.607 20.7973L294.137 11.1753L294.029 17.2523ZM278.58 29.4064V43.2485H282.394H286.207L285.774 37.6779C285.536 34.6144 285.338 28.3855 285.336 23.8358L285.332 15.5643H281.956H278.58V29.4064ZM213.083 18.6204C213.083 20.3212 213.077 20.3226 210.925 19.2091C207.5 17.4387 201.065 17.6656 197.119 19.696C188.849 23.9519 186.892 34.3166 193.074 41.1195C196.554 44.9494 204.336 46.7617 209.876 45.0325C211.498 44.526 211.733 44.6327 211.733 45.8765C211.733 47.1452 212.122 47.2999 215.307 47.2999H218.881L219.658 32.6306C220.26 21.2848 220.253 17.8445 219.629 17.4482C219.185 17.1659 217.531 16.9309 215.953 16.9249C213.332 16.9154 213.083 17.0626 213.083 18.6204ZM176.634 22.823C177.924 23.9857 178.838 25.5873 179.079 27.1073C179.404 29.1559 179.138 29.9061 177.373 31.9169C174.961 34.6637 172.179 35.4564 168.463 34.4557C165.258 33.5928 163.117 30.9749 163.117 27.9202C163.117 23.3685 165.894 21.0397 171.377 20.9931C173.938 20.9715 174.984 21.3354 176.634 22.823ZM210.53 27.6623C212.53 29.9013 212.972 32.8311 211.675 35.2539C210.61 37.2444 205.374 39.3909 202.906 38.8487C200.124 38.2377 197.062 35.4936 196.547 33.1512C195.056 26.3618 205.651 22.2031 210.53 27.6623ZM236.041 69.9199V88.4886H239.755C243.441 88.4886 243.468 88.4731 243.468 86.4393C243.468 84.546 243.58 84.4494 244.932 85.1732C245.737 85.604 248.329 85.9565 250.692 85.9565C254.26 85.9565 255.529 85.6223 258.175 83.9876C263.793 80.5169 266.259 73.0698 263.523 67.8422C262.376 65.6505 258.719 62.0042 256.635 60.9745C253.261 59.3067 248.25 59.3709 243.975 61.1359C242.91 61.5755 242.793 61.115 242.793 56.4877V51.3512H239.417H236.041V69.9199ZM268.752 53.676C267.694 55.2912 267.694 55.514 268.752 57.1291C269.675 58.537 270.329 58.8172 272.298 58.6484C277.409 58.2095 277.463 52.5842 272.359 52.1568C270.325 51.9866 269.681 52.258 268.752 53.676ZM281.281 69.2447V85.1125H284.633H287.986L288.178 78.234L288.371 71.3554L296.07 80.0908C300.305 84.8951 304.484 89.5791 305.355 90.4987L306.94 92.172V76.1502V60.1291H303.563H300.187V66.5438C300.187 70.0718 299.96 72.9551 299.681 72.9517C299.402 72.9476 295.376 68.5634 290.734 63.2082C286.092 57.853 282.066 53.4505 281.787 53.4242C281.509 53.3985 281.281 60.5174 281.281 69.2447ZM329.248 57.5559C327.246 59.7051 327.432 63.0616 329.651 64.8064C331.681 66.4033 332.541 66.5107 334.855 65.4567C336.504 64.7051 338 62.3013 338 60.404C338 59.8476 337.254 58.647 336.342 57.7355C334.234 55.6267 331.119 55.5477 329.248 57.5559ZM335.299 58.1035C338.776 61.5802 334.281 67.0374 330.432 64.0117C328.591 62.564 328.402 60.4951 329.934 58.5471C331.616 56.4093 333.453 56.2574 335.299 58.1035ZM206.106 57.8786C205.858 58.1258 205.656 66.4817 205.656 76.4473V94.5656H209.032C212.333 94.5656 212.408 94.5204 212.408 92.54C212.408 90.4319 212.985 90.0106 214.203 91.2287C215.36 92.386 222.079 92.7959 224.861 91.8776C227.84 90.8944 231.665 87.6979 233.037 85.0456C233.575 84.0051 234.011 81.5432 234.004 79.5756C233.982 72.4176 228.631 66.8753 221.225 66.3399C219.015 66.1798 216.278 66.3723 215.145 66.768L213.083 67.4864V62.4573V57.4282H209.82C208.024 57.4282 206.353 57.6308 206.106 57.8786ZM316.999 60.7436C309.619 65.4763 309.413 66.7018 314.367 76.3987C316.224 80.0334 317.743 83.6162 317.743 84.3596C317.743 85.2772 316.565 86.417 314.079 87.9039C310.444 90.0781 310.422 90.1112 311.373 91.9505C311.9 92.9701 312.627 93.9876 312.988 94.2105C313.749 94.6804 322.24 89.6115 323.989 87.6432C325.82 85.5831 325.454 83.8653 321.457 75.7194C319.414 71.558 317.743 67.8699 317.743 67.5242C317.743 67.1778 319.395 65.7983 321.414 64.458L325.085 62.0204L323.99 59.7247C323.387 58.4613 322.723 57.4337 322.514 57.4404C322.304 57.4472 319.822 58.9333 316.999 60.7436ZM160.833 58.5957L158.887 58.8854L159.301 71.1549C159.528 77.9031 159.72 85.3238 159.728 87.6446L159.74 91.8647H163.471H167.202L166.751 82.8849C166.207 72.0415 166.899 69.8112 171.495 67.5863C173.063 66.8274 174.706 66.2062 175.146 66.2062C175.658 66.2062 175.946 64.9611 175.946 62.7436V59.2811L173.174 59.7247C171.649 59.9684 169.561 60.6025 168.533 61.1346C166.404 62.2352 165.818 61.9212 165.818 59.6788C165.818 58.0326 165.328 57.9259 160.833 58.5957ZM331.248 58.6686C331.248 59.0312 331.896 59.1582 332.689 58.9509C333.726 58.6794 334.041 58.8388 333.814 59.5201C333.641 60.0407 333.068 60.4668 332.542 60.4668C332.016 60.4668 331.362 60.7706 331.089 61.142C330.37 62.1217 330.462 63.5053 331.248 63.5053C331.619 63.5053 331.923 63.0022 331.923 62.3878C331.923 61.3581 332.018 61.356 333.127 62.3601C334.262 63.3871 334.329 63.3054 334.308 60.9455C334.29 58.8705 334.026 58.4039 332.767 58.225C331.932 58.1068 331.248 58.306 331.248 58.6686ZM268.133 72.9699C267.862 79.3251 267.807 84.6932 268.012 84.8978C268.693 85.5791 274.346 85.9538 274.724 85.3427C274.928 85.0126 275.176 79.5844 275.274 73.2798L275.452 61.8172L272.039 61.616L268.627 61.4148L268.133 72.9699ZM182.361 65.9759C171.663 71.6053 172.037 84.8755 183.036 89.9208C187.855 92.1321 195.069 90.9437 199.132 87.2698C205.378 81.6222 203.505 70.6053 195.59 66.427C192.001 64.5323 185.523 64.3115 182.361 65.9759ZM254.174 67.8436C256.105 68.8423 257.648 71.4108 257.648 73.6276C257.648 74.3325 256.915 75.7613 256.019 76.8032C254.589 78.4649 253.918 78.6978 250.558 78.6978C247.198 78.6978 246.527 78.4649 245.098 76.8032C242.844 74.1833 242.968 71.3291 245.442 68.8551C247.687 66.6106 251.039 66.2224 254.174 67.8436ZM194.413 74.3528C196.735 76.9517 196.511 79.8599 193.802 82.2428C189.764 85.7965 181.798 82.8484 181.798 77.7991C181.798 71.876 190.159 69.5918 194.413 74.3528ZM223.554 74.0185C227.473 75.8788 228.295 80.7688 225.175 83.6749C221.2 87.3785 213.083 84.5129 213.083 79.4055C213.083 74.2076 218.298 71.5249 223.554 74.0185Z" fill="white"/>
</svg>
