<svg width="35" height="33" viewBox="0 0 35 33" fill="none" xmlns="http://www.w3.org/2000/svg">
<path fill-rule="evenodd" clip-rule="evenodd" d="M5.37181 1.11298C3.50744 1.96977 1.97223 3.50766 1.11693 5.37529C0.519028 6.68102 0.445068 7.91155 0.445068 16.562C0.445068 25.1948 0.51976 26.4455 1.114 27.7487C2.63383 31.0816 5.94261 33.0101 9.31034 32.5256C10.3663 32.3734 11.6419 32.2945 12.1453 32.3499C14.8357 32.6459 17.5455 32.4233 18.7358 31.8085C20.3984 30.9495 32.37 18.9603 33.1949 17.3278C33.5431 16.6394 33.9078 15.1539 34.0059 14.0268C34.5046 8.29043 28.2777 3.89205 22.9812 6.23905C22.0351 6.65828 20.1985 8.02342 18.8998 9.27229L16.539 11.5434L16.5309 9.19307C16.5137 4.20637 13.0512 0.439941 8.48397 0.439941C7.57778 0.439941 6.17731 0.742899 5.37181 1.11298ZM10.9539 2.45501C13.9379 3.70426 15.0543 5.78718 15.0664 10.128C15.0744 13.0035 15.0543 13.0673 13.7186 14.4376L12.3628 15.8284H7.12817H1.89351V11.5988C1.89351 5.8389 2.68363 3.98594 5.73794 2.58082C7.53641 1.75337 9.18293 1.71376 10.9539 2.45501ZM20.565 19.3113L25.1293 23.8946L22.2071 26.8703C18.094 31.0592 15.7514 31.9861 12.6045 30.669C10.7892 29.909 9.97268 29.127 9.17267 27.3819C7.68835 24.144 8.48214 21.9213 12.61 17.754C14.2587 16.0896 15.6961 14.7281 15.8041 14.7281C15.9122 14.7281 18.0548 16.7905 20.565 19.3113Z" fill="#545753"/>
</svg>
