<svg width="33" height="41" viewBox="0 0 33 41" fill="none" xmlns="http://www.w3.org/2000/svg">
<path fill-rule="evenodd" clip-rule="evenodd" d="M25.5663 4.55438C26.8914 4.27953 27.96 4.37158 29.1514 4.8634C29.7848 5.12481 31.0222 6.06772 31.4359 6.60415C32.1563 7.53817 32.632 8.817 32.6722 9.92727C32.756 12.2434 31.6888 14.2431 29.7833 15.3402L29.1853 15.6844L29.2636 16.1528C29.3724 16.8035 29.3317 17.6097 29.1586 18.2326C28.945 19.0007 28.1657 20.1063 27.5035 20.5807C25.7429 21.8416 23.703 21.9096 22.0646 20.762C21.7186 20.5196 21.3358 20.2129 21.2139 20.0805L20.9925 19.8395L14.3741 29.1589C7.99401 38.1427 7.43835 38.9501 6.67342 39.4078C6.5667 39.4716 6.4559 39.5287 6.32465 39.6002C4.70404 40.483 2.51657 40.0429 1.22663 38.5744C0.140541 37.3382 -0.12973 35.7214 0.493871 34.191C0.67259 33.7522 1.80324 32.1287 8.52811 22.6551L16.3543 11.6299L16.1789 11.4364C15.6615 10.8654 16.3004 9.89614 17.0567 10.1045C17.3346 10.1811 17.3725 10.1638 17.6716 9.82413C18.3987 8.99813 19.3076 8.53308 20.5224 8.36564L21.2796 8.26121L21.4287 7.87907C21.6381 7.3418 22.4527 6.22922 22.935 5.82129C23.644 5.22178 24.6242 4.74979 25.5663 4.55438ZM30.522 12.1812C31.2896 10.6104 31.0374 8.69034 29.9029 7.4664C28.5572 6.0145 26.4606 5.6964 24.7121 6.67877C24.1303 7.00562 24.0136 7.10923 23.5491 7.711C23.0932 8.30165 23.0072 8.46333 22.8139 9.09265C22.6019 9.78257 22.5857 9.81047 22.3038 9.96896C22.0944 10.0867 21.8687 10.1113 21.4995 10.0566C20.5852 9.92115 19.6124 10.2513 18.9996 10.9052L18.7279 11.1951L21.62 13.2484L24.5122 15.3018L24.5968 15.6311C24.7634 16.2795 24.2284 16.8432 23.6085 16.6724L23.3012 16.5877L22.6672 17.4807L22.0333 18.3736L22.3472 18.7706C23.2504 19.9124 25.0242 20.1946 26.2436 19.3904C26.8442 18.9942 27.446 18.16 27.5635 17.5605C27.6721 17.0071 27.5856 16.277 27.3384 15.6596C27.0366 14.9059 27.2803 14.4514 28.1155 14.2103C29.1246 13.9189 30.0572 13.1326 30.522 12.1812ZM17.0087 0.877557C17.8033 0.422108 18.5677 0.347738 19.5029 0.63475C19.6947 0.693637 20.0729 0.91171 20.3585 1.12817C20.7792 1.44691 20.9237 1.61491 21.1693 2.07106C21.5172 2.71696 21.6161 3.35739 21.4817 4.09327C21.4006 4.53701 21.3183 4.71186 20.9393 5.24571C20.5588 5.78158 20.4229 5.91458 20.0239 6.14135C19.4261 6.48118 18.5961 6.62397 17.9213 6.50307C17.4692 6.42206 17.3017 6.3436 16.7672 5.96205C16.2414 5.58658 16.1006 5.44268 15.8806 5.05546C15.5138 4.40945 15.3984 3.771 15.5172 3.04338C15.6095 2.4776 15.6609 2.36054 16.068 1.7894C16.4535 1.24829 16.5863 1.11963 17.0087 0.877557ZM19.0814 4.69288C19.7472 4.37664 20.0359 3.52227 19.6879 2.89787C19.2173 2.0537 18.1389 1.93522 17.5133 2.65897C16.8188 3.46248 17.3089 4.71338 18.3609 4.82247C18.563 4.84344 18.8872 4.78509 19.0814 4.69288ZM25.7674 8.84348C25.9784 8.55185 26.1931 8.46568 26.5816 8.51695C27.2864 8.60996 27.8608 9.93113 27.7049 11.1009C27.6473 11.5322 27.5876 11.6561 27.1195 12.3154C26.6694 12.9494 26.5468 13.0753 26.2209 13.2389C25.3733 13.6644 24.3271 13.7008 23.9991 13.3162C23.7413 13.0142 23.7245 12.6007 23.9568 12.2736C24.1376 12.0189 24.2307 11.9739 24.7377 11.8963C25.3877 11.7967 25.7469 11.5594 25.9379 11.1033C26.092 10.7354 26.0418 10.3157 25.7983 9.93504C25.5514 9.5489 25.5404 9.15741 25.7674 8.84348ZM15.3368 16.019C15.7853 16.6221 16.4893 17.4387 17.2162 17.7674C18.1184 18.1755 19.3982 17.9872 20.4016 17.7202L21.9315 15.5729L19.8417 14.0892L17.7519 12.6055L15.3368 16.019Z" fill="#545753"/>
</svg>
