<svg width="38" height="38" viewBox="0 0 38 38" fill="none" xmlns="http://www.w3.org/2000/svg">
<path fill-rule="evenodd" clip-rule="evenodd" d="M17.5175 0.660789C17.2232 0.95507 16.9824 1.73313 16.9824 2.38991C16.9824 4.87793 14.5292 5.44643 12.7773 3.36461C11.606 1.97257 11.5186 1.94493 10.288 2.5812C8.53658 3.48678 8.36803 3.90323 9.0208 5.7086C9.53668 7.13542 9.50057 7.36015 8.6097 8.25057C7.71928 9.14144 7.49455 9.17755 6.06773 8.66167C4.26236 8.0089 3.84591 8.17744 2.94033 9.92886C2.30406 11.1595 2.3317 11.2469 3.72374 12.4182C5.80556 14.1701 5.23706 16.6233 2.74905 16.6233C1.24241 16.6233 0.484863 17.3693 0.484863 18.8527C0.484863 20.3362 1.24241 21.0821 2.74905 21.0821C5.23706 21.0821 5.80556 23.5354 3.72374 25.2872C2.3317 26.4585 2.30406 26.5459 2.94033 27.7766C3.84591 29.528 4.26236 29.6965 6.06773 29.0438C7.49455 28.5279 7.71928 28.564 8.6097 29.4549C9.50057 30.3453 9.53668 30.57 9.0208 31.9968C8.36803 33.8022 8.53658 34.2187 10.288 35.1242C11.5186 35.7605 11.606 35.7329 12.7773 34.3408C14.5292 32.259 16.9824 32.8275 16.9824 35.3155C16.9824 36.8222 17.7284 37.5797 19.2118 37.5797C20.6953 37.5797 21.4413 36.8222 21.4413 35.3155C21.4413 32.8275 23.8945 32.259 25.6464 34.3408C26.8177 35.7329 26.9051 35.7605 28.1357 35.1242C29.8871 34.2187 30.0557 33.8022 29.4029 31.9968C28.887 30.57 28.9231 30.3453 29.814 29.4549C30.7044 28.564 30.9291 28.5279 32.356 29.0438C34.1613 29.6965 34.5778 29.528 35.4834 27.7766C36.1196 26.5459 36.092 26.4585 34.7 25.2872C32.6181 23.5354 33.1866 21.0821 35.6747 21.0821C37.1813 21.0821 37.9388 20.3362 37.9388 18.8527C37.9388 17.3693 37.1813 16.6233 35.6747 16.6233C33.1866 16.6233 32.6181 14.1701 34.7 12.4182C36.092 11.2469 36.1196 11.1595 35.4834 9.92886C34.5778 8.17744 34.1613 8.0089 32.356 8.66167C30.9291 9.17755 30.7044 9.14144 29.814 8.25057C28.9231 7.36015 28.887 7.13542 29.4029 5.7086C30.0557 3.90323 29.8871 3.48678 28.1357 2.5812C26.9051 1.94493 26.8177 1.97257 25.6464 3.36461C23.8945 5.44643 21.4413 4.87793 21.4413 2.38991C21.4413 0.883284 20.6953 0.125732 19.2118 0.125732C18.5742 0.125732 17.8118 0.366508 17.5175 0.660789ZM17.4283 10.6218C17.4283 12.9238 17.3066 13.2074 15.6448 14.7885C14.2207 16.1431 13.8613 16.8026 13.8613 18.0604C13.8613 18.9267 13.6107 19.8301 13.3039 20.0677C11.9725 21.1013 8.94144 22.5535 8.67435 22.286C8.10318 21.7148 7.97967 17.7032 8.47638 15.8586C9.1666 13.2957 11.4584 10.4354 13.8198 9.1887C16.966 7.52824 17.4283 7.71195 17.4283 10.6218ZM25.6664 9.84147C29.0159 12.1761 30.9225 16.8244 30.1716 20.8253C29.818 22.7096 29.4457 22.7435 26.7918 21.1298C25.0194 20.0526 24.7546 19.6825 24.521 17.9569C24.3154 16.4383 23.8936 15.6901 22.626 14.5941C21.1006 13.2756 20.9954 13.0188 20.9954 10.6124V8.04011L22.4445 8.3228C23.2417 8.47841 24.6913 9.16195 25.6664 9.84147ZM20.5317 17.7166C21.7164 19.1439 19.9765 21.3363 18.4316 20.3634C17.4408 19.7396 17.1987 18.5517 17.892 17.7166C18.5805 16.8868 19.8432 16.8868 20.5317 17.7166ZM18.832 24.0775C20.0113 24.1948 21.3405 24.0499 21.9161 23.7418C22.7847 23.2772 23.2645 23.382 25.3039 24.482C26.6108 25.1869 27.6185 25.9645 27.5431 26.2097C27.4678 26.455 26.4596 27.2964 25.303 28.0793C21.6036 30.5838 16.8201 30.5838 13.1207 28.0793C11.9641 27.2964 10.9586 26.455 10.8859 26.2097C10.6737 25.4919 14.8565 23.3071 15.8677 23.6071C16.3582 23.7529 17.6923 23.9647 18.832 24.0775Z" fill="#545753"/>
</svg>
