<svg width="33" height="41" viewBox="0 0 33 41" fill="none" xmlns="http://www.w3.org/2000/svg">
<path fill-rule="evenodd" clip-rule="evenodd" d="M29.1511 4.86385C27.9596 4.37203 26.891 4.27998 25.5659 4.55483C24.6239 4.75024 23.6436 5.22223 22.9346 5.82174C22.4523 6.22967 21.6378 7.34225 21.4283 7.87952L21.2792 8.26166L20.522 8.36609C19.3072 8.53353 18.3983 8.99858 17.6712 9.82458C17.3722 10.1643 17.3342 10.1816 17.0563 10.105C16.3 9.89659 15.6612 10.8658 16.1785 11.4368L16.3539 11.6303L8.52773 22.6555C1.80285 32.1292 0.672206 33.7526 0.493488 34.1914C-0.130113 35.7218 0.140159 37.3386 1.22624 38.5749C2.51619 40.0434 4.70366 40.4834 6.32426 39.6007C7.39629 39.0167 7.10346 39.3966 14.3737 29.1593L20.9921 19.84L21.2136 20.0809C21.3354 20.2134 21.7182 20.5201 22.0642 20.7625C23.7027 21.9101 25.7425 21.842 27.5031 20.5811C28.1653 20.1068 28.9447 19.0011 29.1582 18.2331C29.3313 17.6102 29.372 16.8039 29.2633 16.1532L29.185 15.6849L29.7829 15.3406C31.6884 14.2435 32.7556 12.2439 32.6718 9.92772C32.6317 8.81745 32.1559 7.53862 31.4355 6.6046C31.0218 6.06817 29.7844 5.12526 29.1511 4.86385ZM29.9025 7.46685C31.037 8.69079 31.2892 10.6108 30.5216 12.1817C30.0568 13.133 29.1242 13.9193 28.1152 14.2107C27.2799 14.4519 27.0362 14.9064 27.338 15.66C27.5852 16.2775 27.6717 17.0075 27.5631 17.561C27.4456 18.1605 26.8438 18.9947 26.2432 19.3908C25.0238 20.195 23.25 19.9129 22.3468 18.771L22.0329 18.3741L22.6669 17.4811L23.3008 16.5881L23.6081 16.6728C24.228 16.8436 24.763 16.2799 24.5964 15.6316L24.5118 15.3023L21.6196 13.2489L18.7275 11.1955L18.9992 10.9056C19.612 10.2518 20.5848 9.9216 21.4991 10.057C21.8683 10.1118 22.094 10.0871 22.3034 9.96941C22.5853 9.81092 22.6015 9.78302 22.8135 9.0931C23.0068 8.46378 23.0928 8.3021 23.5487 7.71145C24.0132 7.10968 24.1299 7.00607 24.7117 6.67923C26.4602 5.69685 28.5568 6.01495 29.9025 7.46685ZM19.5025 0.635201C18.5673 0.348188 17.8029 0.422559 17.0083 0.878008C16.586 1.12008 16.4532 1.24875 16.0676 1.78985C15.6606 2.36099 15.6092 2.47805 15.5169 3.04384C15.398 3.77145 15.5134 4.4099 15.8803 5.05592C16.1002 5.44313 16.241 5.58704 16.7669 5.9625C17.3013 6.34405 17.4688 6.42252 17.921 6.50352C18.5958 6.62442 19.4257 6.48163 20.0235 6.1418C20.4225 5.91504 20.5584 5.78203 20.9389 5.24616C21.3179 4.71231 21.4002 4.53746 21.4813 4.09372C21.6157 3.35784 21.5168 2.71741 21.1689 2.07151C20.9233 1.61536 20.7788 1.44736 20.3582 1.12862C20.0725 0.912161 19.6943 0.694088 19.5025 0.635201ZM19.6875 2.89832C20.0355 3.52272 19.7468 4.37709 19.081 4.69333C18.8868 4.78554 18.5626 4.84389 18.3605 4.82292C17.3085 4.71383 16.8184 3.46293 17.513 2.65942C18.1385 1.93567 19.2169 2.05415 19.6875 2.89832ZM26.5812 8.5174C26.1927 8.46613 25.978 8.5523 25.7671 8.84393C25.54 9.15786 25.551 9.54935 25.7979 9.93549C26.0414 10.3162 26.0916 10.7359 25.9375 11.1038C25.7465 11.5599 25.3873 11.7972 24.7374 11.8968C24.2303 11.9744 24.1372 12.0193 23.9564 12.2741C23.7242 12.6011 23.741 13.0146 23.9987 13.3166C24.3268 13.7012 25.3729 13.6649 26.2205 13.2394C26.5464 13.0758 26.669 12.9499 27.1192 12.3158C27.5872 11.6565 27.6469 11.5326 27.7045 11.1013C27.8604 9.93158 27.286 8.61042 26.5812 8.5174ZM14.0318 26.6602L6.1326 37.7471L5.76012 37.9613C4.60559 38.6251 3.21723 38.3576 2.39004 37.3119C2.01178 36.8336 1.80344 35.9909 1.90536 35.3517L1.97713 34.9019L9.86431 23.7539L17.7515 12.6059L19.8413 14.0896L21.9311 15.5734L14.0318 26.6602ZM10.7584 27.221C10.4118 27.0921 10.1082 27.2087 9.85219 27.5694C9.50206 28.0625 9.6899 28.6216 10.2793 28.8409C10.6259 28.9698 10.9295 28.8531 11.1855 28.4925C11.5357 27.9993 11.3478 27.4402 10.7584 27.221ZM5.31299 32.4772C4.84202 32.5582 4.59595 32.899 4.65036 33.3947C4.6833 33.6942 4.74072 33.7903 4.99382 33.97C5.24692 34.1497 5.35666 34.1722 5.65023 34.1046C6.13613 33.9925 6.37676 33.6478 6.29797 33.1765C6.25218 32.9029 6.17731 32.7834 5.95059 32.6225C5.72386 32.4615 5.58634 32.4302 5.31299 32.4772Z" fill="#545753"/>
</svg>
