<svg width="38" height="38" viewBox="0 0 38 38" fill="none" xmlns="http://www.w3.org/2000/svg">
<path fill-rule="evenodd" clip-rule="evenodd" d="M19.1503 0.817321C18.2278 0.817321 14.5993 4.44583 14.5993 5.36828C14.5993 6.43484 18.0303 9.70248 19.1503 9.70277C20.2702 9.70248 23.7012 6.43484 23.7012 5.36828C23.7012 4.44583 20.0727 0.817321 19.1503 0.817321ZM33.1532 14.8203C32.75 14.8203 31.6362 15.6371 30.5277 16.7457C29.4191 17.8542 28.6023 18.9681 28.6023 19.3712C28.6023 20.4378 32.0333 23.7054 33.1532 23.7057C34.2732 23.7054 37.7042 20.4378 37.7042 19.3712C37.7042 18.4488 34.0757 14.8203 33.1532 14.8203ZM24.0977 9.39967C23.0501 9.86614 22.8316 10.8986 23.6505 11.5138C24.201 11.9272 24.596 11.8834 25.1307 11.3487C25.6654 10.814 25.7092 10.419 25.2958 9.86847C24.9571 9.41775 24.4778 9.23017 24.0977 9.39967ZM27.5984 12.9004C26.5508 13.3669 26.3323 14.3993 27.1512 15.0146C27.7017 15.4279 28.0967 15.3842 28.6314 14.8494C29.1662 14.3147 29.2099 13.9197 28.7965 13.3692C28.4578 12.9185 27.9785 12.7309 27.5984 12.9004ZM13.5955 9.39967C12.5479 9.86614 12.3294 10.8986 13.1483 11.5138C14.2157 12.3158 15.5956 10.9359 14.7936 9.86847C14.4549 9.41775 13.9756 9.23017 13.5955 9.39967ZM27.5984 23.4026C26.5508 23.8691 26.3323 24.9015 27.1512 25.5168C27.7017 25.9301 28.0967 25.8864 28.6314 25.3516C29.1662 24.8169 29.2099 24.4219 28.7965 23.8714C28.4579 23.4207 27.9785 23.2331 27.5984 23.4026ZM10.0947 12.9004C9.04714 13.3669 8.82864 14.3993 9.64752 15.0146C10.715 15.8165 12.0948 14.4366 11.2929 13.3692C10.9542 12.9185 10.4749 12.7309 10.0947 12.9004ZM24.0977 26.9033C23.0501 27.3698 22.8316 28.4022 23.6505 29.0175C24.201 29.4309 24.596 29.3871 25.1307 28.8524C25.6654 28.3176 25.7092 27.9226 25.2958 27.3722C24.9571 26.9214 24.4778 26.7339 24.0977 26.9033ZM5.14733 14.8203C4.22488 14.8203 0.596367 18.4488 0.596366 19.3712C0.596367 20.4378 4.02738 23.7054 5.14732 23.7057C6.26727 23.7054 9.69828 20.4378 9.69828 19.3712C9.69828 18.9681 8.88144 17.8542 7.77288 16.7457C6.66431 15.6371 5.55049 14.8203 5.14733 14.8203ZM19.1503 28.8232C18.2278 28.8232 14.5993 32.4517 14.5993 33.3742C14.5993 34.4407 18.0303 37.7084 19.1503 37.7087C20.2702 37.7084 23.7012 34.4407 23.7012 33.3742C23.7012 32.971 22.8844 31.8572 21.7758 30.7486C20.6673 29.64 19.5534 28.8232 19.1503 28.8232ZM10.0947 23.4026C9.04715 23.8691 8.82864 24.9015 9.64752 25.5168C10.198 25.9301 10.593 25.8864 11.1277 25.3516C11.6625 24.8169 11.7062 24.4219 11.2929 23.8714C10.9542 23.4207 10.4749 23.2331 10.0947 23.4026ZM13.5955 26.9033C12.5479 27.3698 12.3294 28.4022 13.1483 29.0175C13.6987 29.4309 14.0937 29.3871 14.6285 28.8524C15.1632 28.3176 15.207 27.9226 14.7936 27.3722C14.4549 26.9214 13.9756 26.7339 13.5955 26.9033Z" fill="#545753"/>
</svg>
