<svg width="33" height="31" viewBox="0 0 33 31" fill="none" xmlns="http://www.w3.org/2000/svg">
<path fill-rule="evenodd" clip-rule="evenodd" d="M2.40379 7.59272C4.13231 10.5866 4.82113 11.5456 5.12031 11.375C5.3408 11.249 6.14732 10.9849 6.91265 10.7882L8.30429 10.4301L11.0658 15.2133L13.8274 19.9965L12.8215 21.0226C12.2685 21.5871 11.6365 22.1535 11.4171 22.2814C11.1198 22.4552 11.6059 23.5313 13.3344 26.5251L15.6502 30.5363L18.2811 29.0024C19.8449 28.0905 21.1215 27.1177 21.4291 26.6043C21.7135 26.129 22.3428 23.51 22.8275 20.7846L23.7088 15.8291L21.2847 17.1038C19.1282 18.2375 18.8205 18.3091 18.4977 17.7501C18.1507 17.1491 18.3901 16.9746 23.9863 13.7436C29.6436 10.4774 29.8767 10.306 31.0211 8.57178C31.6802 7.57387 32.355 5.85536 32.5428 4.69826L32.8807 2.61847L30.9106 1.87123C29.8146 1.45534 27.9889 1.18049 26.7952 1.25231C24.7211 1.3763 24.4562 1.49247 18.7989 4.7587C13.2027 7.98967 12.9318 8.10968 12.5848 7.50866C12.2621 6.94967 12.478 6.71893 14.538 5.4183L16.854 3.95625L12.1218 2.24172C9.51913 1.29878 6.93637 0.534305 6.38259 0.542981C5.78417 0.552611 4.30334 1.17183 2.73177 2.07019L0.0879746 3.58161L2.40379 7.59272ZM2.91235 15.8561L3.93131 17.621L6.4887 16.1445L9.04609 14.668L8.33894 13.4432L7.63178 12.2183L4.99993 13.0122C3.55222 13.4488 2.26115 13.8704 2.13074 13.9486C2.00033 14.0269 2.35193 14.8854 2.91235 15.8561ZM26.9478 4.33242C27.5033 4.48238 28.1244 4.89387 28.3282 5.24685C28.8055 6.07345 28.3453 7.80412 27.5218 8.27956C26.9534 8.60771 26.7589 8.43465 25.7708 6.72336C24.7828 5.01206 24.7302 4.75705 25.2986 4.4289C25.6502 4.22588 26.3924 4.18246 26.9478 4.33242ZM6.43239 21.953C6.99282 22.9237 7.56051 23.6574 7.69351 23.5836C7.82651 23.5099 8.8371 22.6025 9.9391 21.5671L11.9425 19.6848L11.2354 18.4599L10.5282 17.2351L7.97082 18.7116L5.41343 20.1881L6.43239 21.953ZM17.532 23.4599C18.52 25.1712 18.5726 25.4262 18.0042 25.7544C17.4358 26.0825 17.2413 25.9095 16.2533 24.1982C15.2653 22.4869 15.2127 22.2319 15.781 21.9037C16.3494 21.5756 16.544 21.7486 17.532 23.4599Z" fill="#545753"/>
</svg>
