<svg width="47" height="52" viewBox="0 0 47 52" fill="none" xmlns="http://www.w3.org/2000/svg">
<path fill-rule="evenodd" clip-rule="evenodd" d="M24.5883 0.12237C25.3115 0.375875 26.1984 1.01158 26.8213 1.72283C27.5723 2.58047 28.5891 4.26621 29.1971 5.66186C29.7031 6.8231 30.4043 8.82605 30.7188 10.0086C31.0068 11.0911 31.1732 11.7493 31.3254 12.4081C31.4178 12.8081 31.5013 13.059 31.548 13.0768C31.589 13.0925 31.8003 13.0441 32.0175 12.9694C34.6036 12.0791 37.6797 11.3745 39.6914 11.2115C41.9 11.0326 43.638 11.2363 44.8774 11.8194C45.8813 12.2918 46.4714 12.9275 46.8467 13.9413C46.9902 14.3286 47 14.4035 47 15.1056C47 15.7589 46.9803 15.9361 46.8476 16.4768C46.4599 18.0569 45.4124 19.9533 43.8893 21.8326C42.8441 23.1222 42.586 23.4026 40.9205 25.0568C40.181 25.7914 39.576 26.405 39.576 26.4205C39.576 26.4359 40.194 27.0574 40.9494 27.8016C41.7048 28.5458 42.5108 29.3643 42.7406 29.6204C43.1186 30.0417 44.0749 31.2142 44.2662 31.4908C45.2908 32.9724 45.8889 34.0427 46.2196 34.9864C46.4688 35.6973 46.5595 36.1412 46.5932 36.8131C46.6322 37.5903 46.5305 38.1048 46.21 38.7516C46.0059 39.1637 45.8917 39.3179 45.5189 39.685C44.8801 40.3143 44.1923 40.6829 43.1636 40.9472C42.1953 41.196 41.6332 41.2545 40.2272 41.2528C38.8835 41.2511 38.165 41.2009 36.9971 41.0268C36.3238 40.9265 36.1114 40.8876 34.9106 40.6447C34.24 40.5091 32.3524 40.0392 32.1092 39.9473C32.0287 39.9169 31.9067 39.892 31.8381 39.892C31.6926 39.892 31.685 39.9136 31.4471 41.0046C30.6217 44.7882 29.2675 48.1112 27.7757 50.0137C27.4763 50.3955 26.6795 51.1564 26.3828 51.3439C25.5481 51.8713 25.1239 52.001 24.2351 52C23.6821 51.9994 23.5577 51.9819 23.1843 51.8529C21.4336 51.2476 19.9323 49.4348 18.4638 46.1533C17.9288 44.958 17.2957 43.0608 16.806 41.1857C16.6685 40.6592 16.5241 40.2084 16.4852 40.1838C16.4397 40.1553 16.1341 40.2326 15.6348 40.3988C13.1676 41.2203 10.5791 41.8358 8.73371 42.0396C6.26706 42.3121 4.23527 42.1273 2.9685 41.5152C2.46252 41.2707 1.91074 40.886 1.68693 40.6219C1.44373 40.3348 1.03705 39.6134 0.95458 39.3228C0.690025 38.3905 0.757128 37.309 1.14995 36.1727C1.65692 34.7062 2.79308 32.8307 4.18145 31.1683C5.08651 30.0846 5.37935 29.7668 6.62284 28.5196C7.36837 27.7719 7.98506 27.1298 7.99334 27.0927C8.00167 27.0557 7.65017 26.7128 7.21223 26.3307C5.45505 24.7974 3.39857 22.6342 2.44402 21.3151C1.16266 19.5444 0.482621 18.2418 0.149191 16.9198C-0.0306006 16.207 -0.0512836 15.0749 0.105637 14.5363C0.240311 14.0743 0.598279 13.431 0.918424 13.0759C1.59966 12.32 2.86555 11.7355 4.31462 11.5078C5.04925 11.3923 6.7932 11.3529 7.87534 11.4273C9.77042 11.5575 12.523 12.1037 14.9595 12.833C15.691 13.052 15.8091 13.0703 15.8471 12.971C15.8839 12.8745 16.0234 12.2252 16.0832 11.8714C16.1423 11.5226 16.1823 11.3486 16.5231 9.9568C17.6577 5.32339 19.4002 1.95631 21.3497 0.629743C22.1235 0.103224 22.4574 0.00319837 23.4515 0.000197084C24.1475 -0.00192451 24.2719 0.0114261 24.5883 0.12237ZM23.1165 1.55067C22.3399 1.70839 21.8384 1.99119 21.1249 2.67362C19.7116 4.02528 18.4397 6.65694 17.5046 10.1638C17.1862 11.3581 16.7844 13.2598 16.8271 13.3704C16.8406 13.4051 17.0705 13.5105 17.3382 13.6046C18.2686 13.9316 19.7038 14.4756 20.26 14.7123C20.5678 14.8432 20.8344 14.9503 20.8526 14.9503C20.888 14.9503 21.4886 15.2135 22.123 15.5071C22.3379 15.6065 22.7004 15.7676 22.9284 15.8651C23.1565 15.9626 23.3675 16.0605 23.3973 16.0826C23.4271 16.1047 23.5725 16.1731 23.7204 16.2346L23.9894 16.3464L24.7624 15.9791C25.9109 15.4334 27.0682 14.8986 27.1004 14.8986C27.116 14.8986 27.2861 14.8253 27.4783 14.7358C27.8977 14.5404 28.9352 14.11 29.8466 13.7533C30.6132 13.4532 30.5778 13.5147 30.4033 12.7861C29.6706 9.72607 29.07 7.94341 28.0905 5.92059C27.087 3.84857 25.9046 2.41758 24.7265 1.84987C24.1593 1.57649 23.5484 1.46296 23.1165 1.55067ZM23.8317 7.28302C24.0641 7.39702 24.8618 7.81756 25.2229 8.01632C25.4835 8.15976 25.7058 8.27816 26.6816 8.79303C27.3468 9.14397 27.4851 9.24095 27.5454 9.39846C27.6391 9.64338 27.5112 9.77766 26.89 10.0862L26.3169 10.3708L26.2903 11.2246C26.2607 12.1735 26.2475 12.2149 25.9062 12.4267C25.3542 12.7693 24.5141 12.9018 23.1389 12.8634C22.0332 12.8325 21.4665 12.7164 21.1127 12.4484C20.869 12.2638 20.8213 12.0684 20.8203 11.2505C20.8189 10.1974 20.8338 10.236 20.288 9.87148C20.032 9.70051 19.7774 9.51582 19.7224 9.46113C19.6044 9.34397 19.5922 9.11686 19.6961 8.96964C19.785 8.84348 19.8886 8.79163 22.0449 7.79355C22.3027 7.67417 22.6896 7.49089 22.9045 7.38626C23.3477 7.17037 23.5551 7.14729 23.8317 7.28302ZM23.0087 8.0216C22.8224 8.10982 22.5294 8.24716 22.3574 8.32675C20.8974 9.00286 20.6122 9.15256 20.6137 9.24224C20.6153 9.33838 20.7566 9.44891 21.6263 10.0344C21.9011 10.2194 22.3538 10.529 22.6324 10.7223C23.0484 11.011 23.1671 11.0698 23.2965 11.0509C23.3832 11.0382 23.7817 10.8716 24.1821 10.6806C24.5826 10.4896 25.2385 10.1824 25.6396 9.99794C26.0408 9.81347 26.3993 9.63774 26.4364 9.60746C26.6056 9.46904 26.5275 9.41968 24.1198 8.14227C23.8284 7.9876 23.5353 7.86108 23.4686 7.86113C23.4019 7.86113 23.1949 7.93337 23.0087 8.0216ZM25.3792 10.8115C25.3218 10.833 24.8464 11.0511 24.3225 11.2963C23.7311 11.5731 23.3054 11.7421 23.1994 11.7421C23.0696 11.7421 22.8644 11.6301 22.3456 11.2763C21.97 11.0202 21.6138 10.8106 21.5542 10.8106C21.4515 10.8106 21.4457 10.8383 21.4457 11.3281C21.4457 11.9155 21.4905 12.0019 21.8461 12.1015C22.728 12.3484 24.8812 12.2708 25.4649 11.971C25.6544 11.8736 25.6834 11.7546 25.6409 11.2478C25.6039 10.806 25.5653 10.7417 25.3792 10.8115ZM38.4433 12.5462C37.3853 12.6853 36.2712 12.8981 35.1737 13.1706C33.6627 13.5458 31.8323 14.1158 31.7513 14.2365C31.7265 14.2733 31.7195 14.3733 31.7356 14.4587C31.8476 15.0512 32.0798 16.4768 32.1485 16.9943C32.1939 17.3358 32.2643 17.8598 32.305 18.1586C32.3457 18.4574 32.428 19.2259 32.4879 19.8662C32.5478 20.5066 32.6077 21.0793 32.6208 21.139C32.635 21.2027 32.7793 21.3299 32.9715 21.4476C33.2522 21.6197 33.4687 21.7676 34.3141 22.3643C35.3262 23.0786 36.6377 24.0344 36.7106 24.1109C36.7249 24.1259 36.9359 24.2936 37.1794 24.4836C37.423 24.6737 37.7747 24.9579 37.9609 25.1154C38.1472 25.2728 38.3871 25.4631 38.4942 25.5381C38.6823 25.67 38.6935 25.6716 38.824 25.5867C38.9614 25.4972 40.5849 23.8982 41.0615 23.3828C43.4233 20.8291 44.9177 18.4494 45.3496 16.5545C45.5282 15.7707 45.4508 14.8878 45.1487 14.2625C44.8383 13.6198 44.0992 13.063 43.1433 12.7517C42.4625 12.53 41.8493 12.4552 40.5658 12.4375C39.5605 12.4235 39.2583 12.4391 38.4433 12.5462ZM5.8683 12.6188C5.02993 12.6893 3.94091 12.957 3.36299 13.2346C2.95261 13.4318 2.40635 13.8367 2.19041 14.104C1.68875 14.7247 1.44623 15.5874 1.54631 16.3951C1.65207 17.2489 1.88495 17.9676 2.35077 18.8775C3.11375 20.3678 4.13644 21.7433 5.78812 23.5005C6.77559 24.5511 8.71547 26.3345 8.87083 26.3345C8.91032 26.3345 9.19457 26.1183 9.50242 25.854C10.2962 25.1727 11.7989 23.979 12.7453 23.2781C13.5566 22.6771 13.6413 22.6161 14.4755 22.0322C15.0081 21.6594 14.9533 21.8441 15.0337 20.1508C15.1007 18.7386 15.2484 17.2204 15.5091 15.2626C15.5677 14.8225 15.6087 14.38 15.6002 14.2794L15.5846 14.0965L15.0897 13.9542C13.043 13.3655 11.3695 12.9836 10.1664 12.8307C9.96584 12.8052 9.5204 12.7477 9.17655 12.703C8.44014 12.607 6.57298 12.5595 5.8683 12.6188ZM16.6041 14.601C16.5576 14.7178 16.4971 15.0829 16.3961 15.8559C16.3664 16.0836 16.3186 16.4445 16.2898 16.6579C16.1008 18.0614 15.8896 20.8367 15.966 20.9125C16.0026 20.9489 16.1695 20.8698 16.4947 20.6618C17.0558 20.3029 17.5665 19.9838 17.8077 19.8416C17.9031 19.7854 18.0803 19.6806 18.2014 19.6088C18.6096 19.3666 19.8003 18.6613 20.4038 18.3041C20.7333 18.1091 21.038 17.9276 21.081 17.9007C21.124 17.8739 21.4901 17.6768 21.8946 17.4627C22.7244 17.0234 22.8146 16.9506 22.6647 16.8412C22.5139 16.7311 20.6615 15.937 19.3357 15.414C18.3816 15.0376 16.8289 14.4846 16.7263 14.4846C16.6846 14.4846 16.6296 14.537 16.6041 14.601ZM30.3285 14.6886C29.7189 14.9152 27.9233 15.6399 27.5152 15.8241C27.4006 15.8758 26.907 16.0985 26.4183 16.319C25.9296 16.5394 25.4725 16.763 25.4024 16.8158C25.2893 16.9009 25.2838 16.9204 25.3531 16.9882C25.3961 17.0303 25.6305 17.1628 25.8741 17.2827C26.1177 17.4026 26.7389 17.7338 27.2547 18.0185C27.7705 18.3033 28.3449 18.6178 28.5311 18.7173C29.0754 19.0083 30.2834 19.7284 31.3245 20.3824C31.3852 20.4206 31.4748 20.4365 31.5236 20.4179C31.6215 20.3806 31.6224 20.4014 31.47 19.1418C31.2176 17.0565 30.8557 14.768 30.7601 14.6528C30.6902 14.5685 30.6406 14.5727 30.3285 14.6886ZM41.6984 14.6528C41.7795 14.7553 42.8061 17.8768 42.8061 18.0212C42.8061 18.132 42.7619 18.1675 42.5065 18.2625C41.7991 18.5255 41.3249 18.5166 40.8485 18.2317C40.6861 18.1346 40.524 18.0551 40.4882 18.0551C40.377 18.0551 38.8274 18.5785 38.6987 18.6594C38.5422 18.7581 38.5559 18.8104 38.9578 19.6452C39.9915 21.7921 40.3062 22.4802 40.2825 22.5415C40.25 22.6255 40.0032 22.7248 39.9334 22.6819C39.9055 22.6649 39.7116 22.2979 39.5025 21.8666C39.2933 21.4352 39.0117 20.8552 38.8766 20.5777C38.6528 20.1178 38.505 19.9584 38.4689 20.1379C38.4617 20.1735 38.4559 20.7847 38.4559 21.4962V22.7899H38.2475H38.0391L38.0066 22.2207C37.9888 21.9076 37.9708 21.3371 37.9668 20.9529C37.9563 19.9731 37.8885 19.9162 37.5679 20.6186C37.2486 21.318 37.2011 21.425 36.9175 22.0831C36.7661 22.4343 36.6093 22.7343 36.5689 22.7496C36.4482 22.7957 36.2417 22.673 36.2417 22.5553C36.2417 22.4962 36.3095 22.292 36.3924 22.1014C36.4753 21.9109 36.7825 21.2077 37.075 20.5389C37.3676 19.8701 37.6257 19.2749 37.6486 19.2163C37.7041 19.0746 37.5163 18.6427 37.3843 18.6084C37.2921 18.5845 35.2933 19.2159 35.0472 19.3467C34.9578 19.3942 34.9378 19.4473 34.9475 19.6105C34.9542 19.7229 34.9374 19.8352 34.9104 19.86C34.8467 19.9183 33.8981 20.2284 33.7836 20.2284C33.687 20.2284 33.6255 20.0821 33.2748 19.0186C33.0845 18.4416 33.0649 18.3421 33.1292 18.2783C33.2152 18.1929 34.0697 17.8997 34.2312 17.9002C34.2974 17.9004 34.3748 17.9612 34.4288 18.0554C34.5451 18.2585 34.6515 18.255 35.316 18.0262C35.6102 17.925 36.1019 17.7603 36.4087 17.6603C36.9965 17.4686 37.067 17.4076 37.0012 17.1474C36.9557 16.9671 37.0628 16.9145 38.3032 16.5077C39.8906 15.987 39.8278 16.0175 39.9703 15.6975C40.2001 15.1814 40.5165 14.9187 41.1564 14.7128C41.5954 14.5716 41.6309 14.5677 41.6984 14.6528ZM40.9566 15.2951C40.599 15.4823 40.4095 15.7518 40.4095 16.0732C40.4095 16.2803 40.7899 17.483 40.9169 17.6774C41.0181 17.8324 41.39 18.0034 41.6259 18.0034C41.8611 18.0034 42.1711 17.8819 42.213 17.7734C42.2582 17.6565 41.4624 15.276 41.3659 15.2392C41.2402 15.1913 41.1246 15.2071 40.9566 15.2951ZM8.21273 15.6064C9.04838 15.8333 9.77177 16.5945 10.0154 17.5034C10.1144 17.8726 10.1061 18.5149 9.99715 18.9211L9.90603 19.2608L11.0868 20.4044C12.3938 21.6702 12.4477 21.7461 12.3315 22.1584C12.2614 22.407 11.9294 22.7907 11.713 22.8732C11.5119 22.9499 11.1155 22.9261 10.9676 22.8283C10.8925 22.7788 10.3448 22.2724 9.75057 21.7032C9.15638 21.134 8.62581 20.6608 8.57153 20.6517C8.51729 20.6426 8.34058 20.6734 8.17886 20.72C7.48199 20.9213 6.94215 20.8773 6.24877 20.5629C5.19649 20.0858 4.55536 18.8826 4.7525 17.7549C4.90255 16.8967 5.46344 16.1373 6.2309 15.7534C6.79794 15.4698 7.51382 15.4167 8.21273 15.6064ZM7.03337 16.1924C6.66051 16.2688 6.21418 16.5296 5.93248 16.8357C5.04202 17.8035 5.34267 19.3467 6.53516 19.9293C6.86098 20.0885 6.91667 20.0991 7.43042 20.0991C7.92071 20.0991 8.0084 20.0844 8.26482 19.9589C8.66343 19.7641 9.02963 19.3911 9.21974 18.9865C9.35952 18.689 9.37817 18.5934 9.38134 18.1586C9.38463 17.7105 9.37056 17.6372 9.22224 17.3306C8.98738 16.8452 8.59138 16.4725 8.12463 16.2978C7.81448 16.1817 7.31919 16.1339 7.03337 16.1924ZM39.3415 16.6576C38.2054 17.0184 37.6776 17.2141 37.6273 17.2932C37.5871 17.3565 37.6129 17.4946 37.728 17.8331C37.8737 18.2611 37.892 18.2888 38.0391 18.3023C38.2171 18.3186 40.1318 17.6805 40.2464 17.5666C40.31 17.5035 40.3 17.4319 40.174 17.0471C40.0511 16.672 39.9322 16.4866 39.8269 16.5057C39.8178 16.5074 39.5994 16.5757 39.3415 16.6576ZM23.3994 17.799C23.1415 17.9388 22.7547 18.1441 22.5398 18.2553C21.6617 18.7093 18.6581 20.4508 18.2938 20.7172C18.2078 20.7801 17.8966 20.981 17.6023 21.1639C17.0835 21.4861 16.8346 21.6456 16.2158 22.0528C16.0534 22.1596 15.8981 22.3056 15.8707 22.3772C15.8023 22.5559 15.8358 27.1924 15.9163 28.689C16.0178 30.576 16.1118 31.5634 16.1981 31.6491C16.3043 31.7546 16.9692 32.1553 17.8509 32.6452C18.8645 33.2084 19.0525 33.3165 19.2055 33.424C19.2771 33.4743 19.4248 33.5523 19.5337 33.5974C19.6425 33.6424 20.0187 33.8408 20.3697 34.0382C21.2454 34.5306 23.7315 35.7523 23.858 35.7523C23.956 35.7523 25.0959 35.1812 25.822 34.7683C26.0082 34.6625 26.322 34.4854 26.5192 34.375C26.7164 34.2645 26.9499 34.131 27.0382 34.0784C27.1265 34.0258 27.774 33.6443 28.4771 33.2306C29.1802 32.8169 29.8023 32.4387 29.8596 32.3901C29.9169 32.3415 30.1631 32.18 30.4067 32.0312C30.6502 31.8823 31.0605 31.6154 31.3184 31.438L31.7873 31.1155L31.8216 30.7819C31.9901 29.1457 31.8657 22.0987 31.6628 21.7935C31.6194 21.728 30.1251 20.789 29.8336 20.6439C29.7046 20.5797 29.5522 20.487 29.4949 20.4378C29.4376 20.3885 29.0156 20.1434 28.5572 19.8929C28.0987 19.6424 27.6181 19.3793 27.4891 19.3082C27.3602 19.2371 27.1609 19.1281 27.0463 19.066C26.9317 19.0038 26.5125 18.773 26.1148 18.553C25.0242 17.9498 24.1652 17.5372 24.0085 17.5413C23.9314 17.5432 23.6573 17.6592 23.3994 17.799ZM33.78 18.525C33.6603 18.5942 33.665 18.7398 33.8001 19.1447C33.9688 19.65 34.1012 19.7607 34.2896 19.554C34.3829 19.4516 34.3823 19.4386 34.2665 19.0753C34.0822 18.4975 33.996 18.4 33.78 18.525ZM9.37051 19.9985C9.30679 20.0428 9.25469 20.1215 9.25469 20.1734C9.25469 20.2546 11.1163 22.0942 11.3125 22.207C11.3815 22.2466 11.6512 22.0692 11.6512 21.9842C11.6512 21.9579 11.5644 21.8409 11.4582 21.7242C11.1704 21.4077 9.57963 19.918 9.52962 19.918C9.50576 19.918 9.43417 19.9542 9.37051 19.9985ZM25.9139 22.1108C26.6684 22.3172 27.4159 23.0126 27.5097 23.5955C27.5645 23.9361 27.617 23.9898 28.0175 24.1153C28.3154 24.2087 28.4438 24.2845 28.6593 24.4941C29.2689 25.0874 29.5033 26.0872 29.228 26.92C29.1506 27.1543 28.9551 27.3928 28.6193 27.6628C28.4837 27.7718 28.4806 27.7865 28.5129 28.1659C28.5411 28.497 28.528 28.6062 28.4274 28.8816C28.145 29.6538 27.5813 30.1056 26.7984 30.1871C26.298 30.2393 26.2698 30.2789 26.3135 30.8702C26.3513 31.3816 26.3192 31.5122 26.1155 31.6762C26.0432 31.7343 25.9113 31.766 25.7385 31.7667C25.2024 31.7691 24.8952 31.3888 24.8374 30.6514C24.794 30.0972 24.7462 30.0446 24.261 30.0174L23.8986 29.9971L23.5448 30.2608C23.08 30.6071 22.701 30.7331 22.1259 30.7323C21.2581 30.7311 20.6095 30.4294 20.2128 29.8422C20.0534 29.6064 19.9667 29.5306 19.7843 29.4677C19.2322 29.2774 18.8762 28.964 18.6379 28.4585C18.518 28.2042 18.5026 28.1066 18.5024 27.6023C18.5022 27.0958 18.5171 27.0017 18.638 26.7485C18.7128 26.5919 18.8504 26.3855 18.9438 26.2897C19.0373 26.1939 19.1699 25.9734 19.2384 25.7998C19.3069 25.6261 19.4213 25.3965 19.4926 25.2894C19.6013 25.1263 19.6223 25.0331 19.6223 24.7142C19.6223 23.6292 20.3356 22.7614 21.4377 22.5055C21.782 22.4255 22.0771 22.4628 22.5293 22.6434C22.7213 22.7201 22.9136 22.7805 22.9567 22.7776C22.9998 22.7747 23.1391 22.674 23.2664 22.5538C23.5167 22.3172 23.9102 22.1153 24.2682 22.0396C24.5737 21.9751 25.5763 22.0184 25.9139 22.1108ZM24.4935 22.4354C23.8935 22.56 23.6158 22.7289 23.3948 23.1035C23.3218 23.2272 23.2206 23.3415 23.1699 23.3575C23.1161 23.3745 22.8857 23.2893 22.6167 23.1529C22.2071 22.9453 22.117 22.9192 21.8099 22.9192C21.6198 22.9192 21.3529 22.9569 21.2169 23.003C20.8749 23.1187 20.3938 23.571 20.2162 23.9439C20.0843 24.2209 20.0784 24.2664 20.1062 24.7891C20.1561 25.7293 20.424 26.0112 21.2927 26.0376C21.6571 26.0487 21.7101 26.0376 21.831 25.9252C21.9065 25.855 21.9778 25.7193 21.9941 25.6147C22.0542 25.2288 22.1314 25.0396 22.3308 24.789C22.7353 24.2807 23.4288 23.9617 23.9874 24.0269C24.2934 24.0626 24.6878 24.2125 24.8432 24.3523C24.9581 24.4555 24.965 24.671 24.8547 24.713C24.8098 24.7301 24.6127 24.6799 24.4166 24.6015C23.8105 24.3592 23.224 24.4648 22.7917 24.8941C22.5235 25.1605 22.4232 25.376 22.4238 25.684C22.4246 26.0619 22.3991 26.1175 22.1724 26.2324C21.8966 26.3721 21.8028 26.5687 21.8215 26.9678C21.8344 27.2433 21.8231 27.2909 21.7414 27.3075C21.5882 27.3385 21.455 27.1714 21.3917 26.869C21.3263 26.5555 21.336 26.5626 20.7354 26.3901C20.4483 26.3077 20.3017 26.2282 20.0919 26.0408C19.7739 25.7568 19.7118 25.7694 19.5674 26.1473C19.5147 26.2851 19.3886 26.4803 19.2872 26.581C19.0102 26.8562 18.8777 27.2549 18.9045 27.7326C18.9235 28.0706 18.9508 28.1596 19.1126 28.4109C19.3332 28.7533 19.5274 28.9012 19.9565 29.0536C20.1932 29.1377 20.2999 29.2087 20.3777 29.3337C20.6915 29.8379 21.0661 30.1161 21.6466 30.276C22.0589 30.3896 22.2763 30.3941 22.6021 30.2958C22.9306 30.1968 23.0556 30.1289 23.2561 29.9404C23.4762 29.7336 23.4697 29.6621 23.225 29.5966C23.0787 29.5575 22.9496 29.4574 22.7472 29.2263L22.4698 28.9096L21.8666 28.9438C20.9646 28.9949 20.4454 28.825 19.8471 28.2828C19.5606 28.0231 19.499 27.8548 19.646 27.7335C19.7356 27.6597 19.7614 27.6734 20.1693 28.0091C20.6052 28.368 20.9282 28.5034 21.4424 28.5428C22.25 28.6046 23.025 28.3591 23.4016 27.9221C23.4988 27.8093 23.6329 27.5749 23.6998 27.401C23.8106 27.1126 23.8349 27.0848 23.975 27.0848C24.1103 27.0848 24.1308 27.105 24.145 27.2523C24.1821 27.6331 23.76 28.2456 23.1979 28.6267C23.0126 28.7523 23.0254 28.8963 23.2431 29.1356C23.3542 29.2578 23.4255 29.3893 23.4255 29.4723C23.4255 29.6036 23.4338 29.6075 23.6551 29.5773C23.7814 29.5601 24.1577 29.5606 24.4912 29.5783C25.0252 29.6068 25.1043 29.6229 25.1533 29.714C25.1839 29.7708 25.2253 30.0817 25.2452 30.4049C25.2743 30.878 25.3021 31.0203 25.3875 31.1344C25.4978 31.2818 25.7424 31.3502 25.834 31.2592C25.8623 31.2311 25.8891 30.9385 25.8937 30.6089C25.9045 29.8271 25.9372 29.7863 26.5622 29.7756C26.8964 29.7699 27.0448 29.7422 27.218 29.6533C27.7568 29.3764 28.0766 28.8959 28.0769 28.3626C28.077 28.2115 28.0491 28.0602 28.015 28.0262C27.9797 27.9911 27.7237 27.9516 27.4215 27.9346C26.7884 27.8989 26.5149 27.7953 26.1439 27.4507C26.0039 27.3206 25.8411 27.2142 25.7821 27.2142C25.6416 27.2142 25.4179 27.4823 25.3768 27.7001C25.3589 27.7949 25.3695 27.9631 25.4005 28.0738C25.4989 28.4258 25.4779 28.5046 25.2619 28.5942C25.1545 28.6387 24.988 28.7437 24.8921 28.8273C24.6748 29.0167 24.5005 29.008 24.4771 28.8067C24.4646 28.6985 24.516 28.607 24.6985 28.4133C24.9195 28.1786 24.9364 28.141 24.9375 27.8815C24.9387 27.5824 25.0755 27.2166 25.2588 27.0228C25.3938 26.8799 25.3538 26.7682 25.1518 26.7242C24.9575 26.6818 24.8711 26.5828 24.8932 26.4279C24.9092 26.3161 24.9398 26.3067 25.3792 26.2782C26.0101 26.2373 26.2105 26.1419 26.4819 25.7529C26.6556 25.5038 26.7901 25.4242 26.8933 25.5093C26.9345 25.5432 26.9682 25.6163 26.9682 25.6717C26.9682 25.8146 26.7051 26.1754 26.4569 26.3729C26.3409 26.4651 26.2315 26.5861 26.2137 26.6419C26.1411 26.8691 26.5865 27.3685 26.9514 27.4692C27.242 27.5494 27.7416 27.5368 28.0654 27.4413C28.4298 27.3338 28.7555 27.0221 28.8439 26.6962C28.9188 26.4197 28.9189 25.9393 28.8441 25.6635C28.7909 25.4672 28.5167 25.0248 28.3042 24.7924C28.1564 24.6308 27.7787 24.4716 27.5427 24.4716C27.2736 24.4716 27.1715 24.3415 27.1278 23.9429C27.0466 23.2024 26.5128 22.6994 25.5706 22.4757C25.2911 22.4093 24.7217 22.388 24.4935 22.4354ZM32.7347 22.5958C32.7223 22.6172 32.7364 23.0421 32.7661 23.5402C32.7957 24.0383 32.8221 25.7595 32.8246 27.3651C32.8278 29.3771 32.8464 30.2901 32.8846 30.3028C32.929 30.3175 33.54 29.9263 33.767 29.7377C33.7957 29.7139 34.1356 29.459 34.5224 29.1713C35.7102 28.2878 37.7732 26.5939 37.8252 26.4595C37.8737 26.3338 36.8594 25.4841 35.0434 24.1294C34.0557 23.3926 33.9238 23.2977 33.2358 22.8287C32.831 22.5528 32.7748 22.5267 32.7347 22.5958ZM14.5427 23.2184C14.4281 23.2965 14.009 23.6046 13.6114 23.903C13.2139 24.2015 12.827 24.4917 12.7518 24.5478C12.6766 24.6038 12.4829 24.7552 12.3213 24.8841C12.1598 25.013 11.8801 25.2349 11.6999 25.3772C11.2168 25.7586 9.97323 26.819 9.86055 26.9456C9.80694 27.0058 9.77599 27.0886 9.79183 27.1296C9.83523 27.2419 11.0904 28.2037 12.9537 29.5522C13.5191 29.9615 14.9469 30.8882 15.012 30.8882C15.1334 30.8882 15.142 30.8155 15.0895 30.2345C15.0614 29.9252 15.0276 29.5324 15.0143 29.3617C15.0009 29.1909 14.9745 27.8054 14.9555 26.2828C14.9211 23.536 14.9014 23.1233 14.8024 23.0925C14.7742 23.0837 14.6573 23.1404 14.5427 23.2184ZM28.1375 24.8477C28.3895 24.9894 28.5253 25.21 28.5648 25.5412C28.6026 25.8582 28.4831 26.1793 28.3272 26.1793C28.1842 26.1793 28.1143 26.0289 28.1143 25.7209C28.1143 25.5016 28.0902 25.4388 27.954 25.3036C27.8659 25.216 27.7729 25.1443 27.7474 25.1443C27.722 25.1443 27.6751 25.0959 27.6431 25.0366C27.5968 24.9505 27.6033 24.9087 27.6754 24.8296C27.7917 24.7019 27.8848 24.7055 28.1375 24.8477ZM37.877 27.8239C36.5299 28.9501 34.6917 30.3517 33.1651 31.4168C32.9774 31.5478 32.7964 31.6878 32.763 31.7278C32.7283 31.7693 32.6787 32.154 32.6474 32.625C32.5972 33.3797 32.5271 34.1233 32.3815 35.4419C32.3169 36.0264 32.046 37.9123 31.9597 38.3774C31.8813 38.8 31.908 38.8268 32.5746 38.9952C34.6966 39.5311 35.663 39.7249 37.2315 39.9297C38.1223 40.0459 40.7343 40.0605 41.3473 39.9527C42.3966 39.7682 43.3018 39.4365 43.8531 39.0345C44.3865 38.6456 44.813 38.0255 44.9727 37.4065C45.0828 36.9799 45.0513 35.9221 44.9157 35.4936C44.8662 35.3371 44.7679 35.0287 44.6974 34.8083C44.4651 34.0828 43.6895 32.6834 43.0145 31.7718C42.4581 31.0204 42.3546 30.8906 41.7736 30.2155C40.8694 29.1646 38.8504 27.1578 38.7038 27.1642C38.682 27.1651 38.31 27.462 37.877 27.8239ZM8.01329 28.6502C5.18956 31.4182 3.32495 34.0106 2.64434 36.1146C2.42037 36.807 2.35983 37.2303 2.38968 37.8956C2.41193 38.3926 2.43813 38.5232 2.5862 38.8759C2.93609 39.7094 3.77868 40.3483 4.9175 40.6438C6.12108 40.956 8.20345 40.9883 9.77568 40.7191C9.93327 40.6921 10.2883 40.634 10.5646 40.59C11.4494 40.4492 13.238 40.0264 14.178 39.7359C14.3499 39.6828 14.8071 39.5425 15.1939 39.4242C15.5807 39.306 15.9734 39.1739 16.0666 39.1307C16.2718 39.0356 16.2781 38.9578 16.1352 38.2764C15.9649 37.4646 15.7158 35.9696 15.5638 34.8468C15.344 33.2221 15.2981 32.8388 15.2981 32.6241C15.2981 32.4848 15.2615 32.357 15.1994 32.2794C15.1451 32.2115 14.6234 31.8449 14.0402 31.4647C13.4569 31.0845 12.8508 30.6819 12.6932 30.5699C12.5356 30.4581 12.2074 30.2291 11.9638 30.0611C11.3433 29.6331 10.3168 28.872 9.60323 28.3109C9.27053 28.0492 8.96378 27.8351 8.92153 27.8351C8.87927 27.8351 8.47056 28.2019 8.01329 28.6502ZM39.0066 30.7104C39.0985 30.793 39.1071 30.8777 39.1071 31.6985V32.5963L39.3182 33.1782C39.4343 33.4983 39.5626 33.8416 39.6033 33.9412C39.6441 34.0408 39.8929 34.6812 40.1564 35.3642C40.8065 37.0497 40.8221 37.3122 40.2968 37.7255L40.0766 37.8986L38.4327 37.9411C36.6627 37.9868 36.5258 37.9741 36.2429 37.7376C36.0378 37.5662 35.9839 37.4622 35.9294 37.1331C35.8808 36.8397 35.8663 36.8887 36.8922 33.8936L37.2896 32.7335L37.2789 31.7564C37.2711 31.0545 37.2857 30.7619 37.3305 30.7174C37.486 30.5626 38.836 30.557 39.0066 30.7104ZM11.0521 31.3536C12.3351 31.972 12.8905 33.7795 12.1628 34.9684C12.0993 35.0723 11.9028 35.3552 11.7262 35.5971C11.5497 35.839 11.3797 36.0856 11.3485 36.1452C11.2954 36.2464 11.1834 37.0516 11.1027 37.9129C11.0594 38.3747 10.9392 38.5693 10.5855 38.7501C10.3967 38.8466 10.225 38.8872 9.94651 38.9011C9.61641 38.9177 9.52785 38.9019 9.28121 38.782C8.896 38.5948 8.80576 38.4504 8.71042 37.869C8.66656 37.6013 8.60836 37.2659 8.58111 37.1236C8.55381 36.9813 8.53011 36.7452 8.52844 36.5989C8.52511 36.3133 8.46723 36.2116 7.93999 35.5651C7.49309 35.017 7.1854 34.3245 7.16487 33.8209C7.14908 33.4323 7.43557 32.5687 7.71581 32.1602C7.9874 31.7642 8.47676 31.3902 8.90386 31.2521C9.17978 31.1628 9.33842 31.1494 9.95802 31.1624C10.6665 31.1773 10.6978 31.1828 11.0521 31.3536ZM37.8915 31.1814C37.8724 31.2004 37.8567 31.5632 37.8567 31.9875V32.7592L37.4875 33.8289C36.3913 37.0039 36.3688 37.0917 36.5935 37.315C36.7107 37.4314 36.714 37.4316 38.204 37.4155C39.0251 37.4066 39.7557 37.3771 39.8276 37.35C40.2281 37.1987 40.1961 36.9667 39.5502 35.3384C39.4542 35.0964 39.1959 34.4213 38.976 33.838L38.5763 32.7776L38.552 32.0787C38.518 31.0998 38.5356 31.1469 38.2031 31.1469C38.0508 31.1469 37.9105 31.1624 37.8915 31.1814ZM9.43417 31.7139C8.43055 31.867 7.73092 32.8255 7.80459 33.9465C7.83345 34.386 8.00194 34.7124 8.54605 35.3829C9.01911 35.9658 9.07261 36.088 9.127 36.7096C9.14695 36.9373 9.18572 37.1664 9.21317 37.2186C9.32789 37.4367 9.9177 37.5331 10.2593 37.3895C10.5353 37.2735 10.5937 37.1632 10.6609 36.632C10.7368 36.0322 10.8261 35.8202 11.2211 35.3014C11.888 34.4255 12.0229 33.987 11.8417 33.2843C11.628 32.4556 11.2046 31.9779 10.5051 31.7759C10.2335 31.6975 9.73228 31.6685 9.43417 31.7139ZM31.3444 32.6297C31.2155 32.7047 31.0631 32.8051 31.0058 32.8527C30.9485 32.9004 30.7258 33.0413 30.5108 33.1657C30.2959 33.2902 29.9326 33.524 29.7033 33.6853C29.0939 34.1143 27.8455 34.8604 27.5412 34.9776C27.4409 35.0162 27.1049 35.1967 26.7946 35.3787C26.4842 35.5606 26.1442 35.7482 26.0391 35.7956C25.7439 35.9286 25.1968 36.2719 25.1968 36.324C25.1968 36.3496 25.2613 36.4034 25.3401 36.4433C25.5949 36.5726 27.2955 37.2541 28.3748 37.6593C29.2771 37.9981 30.6699 38.4431 30.8279 38.4431C30.9586 38.4431 30.968 38.4245 31.0296 38.0421C31.0651 37.8215 31.1253 37.4781 31.1635 37.2788C31.2016 37.0796 31.3037 36.3578 31.3903 35.6747C31.6357 33.739 31.7266 32.5435 31.631 32.511C31.6023 32.5013 31.4734 32.5547 31.3444 32.6297ZM16.288 33.0854C16.288 33.2275 16.4971 34.7941 16.5784 35.2607C16.623 35.5169 16.7052 36.0175 16.761 36.3733C16.8169 36.729 16.9384 37.381 17.0311 37.8222C17.23 38.7682 17.202 38.746 17.8595 38.4816C18.0983 38.3855 18.4696 38.241 18.6845 38.1604C19.4164 37.8859 21.9062 36.7881 22.3835 36.5294C22.4838 36.475 22.5658 36.3971 22.5658 36.3562C22.5658 36.3116 22.1579 36.0744 21.5499 35.7655C20.9912 35.4816 19.622 34.7454 18.5074 34.1295C17.3927 33.5137 16.4374 33.0098 16.3844 33.0098C16.3314 33.0098 16.288 33.0438 16.288 33.0854ZM22.8784 37.4085C21.981 37.8511 20.3844 38.5723 19.3878 38.9854C19.1299 39.0923 18.7973 39.2352 18.6487 39.303C18.5001 39.3708 18.3587 39.4263 18.3346 39.4263C18.2612 39.4263 17.5877 39.7188 17.5306 39.7755C17.4223 39.8831 18.1576 42.4536 18.726 43.9541C20.0923 47.5612 21.7135 49.7341 23.4776 50.3226C23.9331 50.4746 24.7055 50.4534 25.1635 50.2763C27.373 49.4222 29.2606 45.9918 30.5578 40.4732C30.6466 40.0956 30.7192 39.7317 30.7192 39.6647C30.7192 39.5572 30.6622 39.5235 30.2373 39.3796C29.3122 39.0664 27.9823 38.5942 27.7496 38.4964C27.6207 38.4422 27.058 38.2177 26.4993 37.9975C25.9405 37.7774 25.4365 37.5688 25.3792 37.534C25.3218 37.4992 25.2163 37.4535 25.1447 37.4324C25.0731 37.4113 24.8156 37.3017 24.5724 37.1889C24.3293 37.0761 24.0597 36.9753 23.9733 36.9649C23.8563 36.9508 23.577 37.0639 22.8784 37.4085ZM27.114 40.3164C27.1484 40.3505 27.1765 40.4856 27.1765 40.6165C27.1765 40.8769 27.2426 40.9787 27.4115 40.9787C27.4719 40.9787 27.5635 41.0094 27.6152 41.0469C27.7204 41.1233 27.722 41.152 27.7745 43.9403C27.8021 45.4029 27.7987 45.4837 27.7047 45.577C27.6108 45.6702 27.4566 45.6768 24.591 45.7086C22.9327 45.727 21.4199 45.7553 21.2291 45.7713C20.6638 45.8191 20.6879 45.8892 20.6469 44.0791C20.5952 41.7994 20.6009 41.2507 20.6773 41.2017C20.7131 41.1787 20.8127 41.1365 20.8987 41.1081C21.0388 41.0617 21.0577 41.0296 21.081 40.7976C21.1265 40.3459 21.1492 40.3308 21.7677 40.3392C22.3842 40.3477 22.8523 40.4582 23.6439 40.7823L24.1488 40.989L24.6077 40.7796C25.003 40.5993 25.6556 40.3706 26.0043 40.2903C26.2378 40.2365 27.0529 40.2557 27.114 40.3164ZM26.369 40.7042C25.8577 40.7712 24.8701 41.114 24.5166 41.3472L24.3893 41.4312L24.4046 43.029C24.413 43.9078 24.4336 44.728 24.4503 44.8516C24.4798 45.0699 24.4855 45.0757 24.6434 45.0499C24.7329 45.0353 25.0035 44.9629 25.2448 44.8889C25.4861 44.815 25.9316 44.7258 26.2347 44.6906L26.7858 44.6268L26.7769 42.7145C26.7687 40.9508 26.7608 40.797 26.6758 40.7352C26.625 40.6983 26.5704 40.6717 26.5544 40.676C26.5384 40.6802 26.455 40.693 26.369 40.7042ZM21.6079 40.8424C21.551 40.9104 21.5452 41.2611 21.5762 42.7504C21.5971 43.754 21.6358 44.6158 21.662 44.6656C21.7005 44.7384 21.7798 44.7562 22.067 44.7562C22.4579 44.7562 23.0681 44.8587 23.5558 45.0064C23.7277 45.0585 23.8977 45.0914 23.9335 45.0796C23.9835 45.063 23.9972 44.7445 23.993 43.704C23.99 42.9593 23.9724 42.1404 23.9539 41.8843L23.9204 41.4185L23.6339 41.2789C22.8737 40.9084 21.7542 40.6672 21.6079 40.8424Z" fill="white"/>
</svg>
