<svg width="131" height="146" viewBox="0 0 131 146" fill="none" xmlns="http://www.w3.org/2000/svg">
<path fill-rule="evenodd" clip-rule="evenodd" d="M68.3977 1.33138C70.3919 2.0347 72.8376 3.79839 74.5552 5.77167C76.6262 8.1511 79.4301 12.828 81.1068 16.7C82.5019 19.9218 84.4355 25.4787 85.303 28.7594C86.097 31.7628 86.5559 33.589 86.9756 35.4168C87.2304 36.5264 87.4607 37.2226 87.5894 37.2719C87.7027 37.3154 88.2854 37.1813 88.8843 36.9738C96.0157 34.504 104.498 32.5491 110.046 32.0968C116.136 31.6004 120.929 32.1656 124.346 33.7834C127.115 35.0939 128.742 36.8577 129.777 39.6703C130.173 40.745 130.2 40.9526 130.2 42.9005C130.2 44.7131 130.145 45.2048 129.779 46.7049C128.71 51.0886 125.822 56.3498 121.622 61.5638C118.739 65.1417 118.028 65.9195 113.435 70.5091C111.396 72.5471 109.727 74.2495 109.727 74.2923C109.727 74.3351 111.432 76.0594 113.515 78.124C115.598 80.1887 117.82 82.4595 118.454 83.1701C119.496 84.3389 122.134 87.5919 122.661 88.3593C125.486 92.4699 127.136 95.4394 128.048 98.0576C128.735 100.03 128.985 101.261 129.078 103.126C129.185 105.282 128.905 106.709 128.021 108.504C127.458 109.647 127.143 110.075 126.115 111.093C124.354 112.839 122.457 113.862 119.621 114.595C116.95 115.285 115.4 115.448 111.523 115.443C107.818 115.438 105.837 115.299 102.616 114.816C100.759 114.538 100.174 114.43 96.8622 113.756C95.0129 113.379 89.8076 112.076 89.137 111.821C88.915 111.737 88.5786 111.668 88.3894 111.668C87.9883 111.668 87.9673 111.727 87.3112 114.754C85.0352 125.251 81.3009 134.471 77.187 139.749C76.3614 140.808 74.1643 142.919 73.3461 143.439C71.0442 144.903 69.8744 145.262 67.4235 145.26C65.8986 145.258 65.5556 145.21 64.5259 144.852C59.6982 143.172 55.5581 138.143 51.5086 129.039C50.0335 125.722 48.2877 120.459 46.9373 115.257C46.5581 113.796 46.16 112.545 46.0525 112.477C45.9272 112.398 45.0845 112.612 43.7074 113.074C36.9042 115.353 29.766 117.06 24.6772 117.626C17.8752 118.382 12.2724 117.869 8.77914 116.171C7.38386 115.492 5.86229 114.425 5.24511 113.692C4.57447 112.896 3.45302 110.895 3.2256 110.088C2.49606 107.502 2.6811 104.501 3.76434 101.349C5.16236 97.2802 8.29542 92.0769 12.124 87.4646C14.6197 84.4579 15.4273 83.5764 18.8563 80.1161C20.9122 78.0416 22.6127 76.2603 22.6356 76.1575C22.6586 76.0548 21.6892 75.1033 20.4816 74.0432C15.636 69.7893 9.9651 63.7879 7.33286 60.1281C3.7994 55.2154 1.92413 51.6017 1.00467 47.9338C0.508878 45.9564 0.451843 42.8153 0.884564 41.3213C1.25594 40.0392 2.24307 38.2547 3.12589 37.2693C5.00447 35.1723 8.49525 33.5507 12.4912 32.9189C14.517 32.5986 19.3261 32.4892 22.3102 32.6955C27.536 33.0569 35.1264 34.5722 41.8452 36.5954C43.8626 37.203 44.1883 37.2539 44.2929 36.9784C44.3945 36.7106 44.779 34.9093 44.9441 33.9277C45.1069 32.96 45.2172 32.4773 46.1571 28.6159C49.286 15.761 54.0909 6.41943 59.4669 2.73903C61.6007 1.27827 62.5215 1.00076 65.2628 0.992429C67.1821 0.986543 67.5249 1.02358 68.3977 1.33138ZM64.3389 5.29404C62.1975 5.73162 60.8144 6.5162 58.8469 8.40952C54.9497 12.1595 51.4423 19.4608 48.8638 29.1901C47.9857 32.5037 46.8777 37.7795 46.9955 38.0863C47.0326 38.1828 47.6667 38.4752 48.4049 38.7362C50.9703 39.6434 54.928 41.1528 56.462 41.8094C57.3106 42.1726 58.046 42.4698 58.096 42.4698C58.1937 42.4698 59.8499 43.1999 61.5993 44.0144C62.1919 44.2901 63.1914 44.7372 63.8204 45.0077C64.4493 45.2782 65.0312 45.5498 65.1134 45.6111C65.1955 45.6725 65.5965 45.8623 66.0044 46.0329L66.746 46.3431L68.8777 45.3241C72.0448 43.8101 75.2361 42.3262 75.325 42.3262C75.3679 42.3262 75.8369 42.1229 76.367 41.8745C77.5235 41.3325 80.3846 40.1383 82.8978 39.1487C85.0117 38.3163 84.9141 38.4867 84.433 36.4655C82.4123 27.9757 80.7563 23.0299 78.0551 17.4179C75.2881 11.6693 72.0273 7.69916 68.7787 6.12412C67.2146 5.36567 65.5298 5.05069 64.3389 5.29404ZM66.3112 21.1978C66.952 21.514 69.1518 22.6808 70.1474 23.2322C70.866 23.6302 71.479 23.9586 74.1701 25.3871C76.0042 26.3607 76.3858 26.6298 76.552 27.0668C76.8105 27.7463 76.4576 28.1188 74.7447 28.9748L73.1644 29.7644L73.091 32.1332C73.0094 34.7658 72.9729 34.8807 72.0317 35.4683C70.5096 36.4187 68.193 36.7864 64.4008 36.6798C61.3516 36.5941 59.789 36.2721 58.8133 35.5285C58.1413 35.0162 58.0098 34.4743 58.0069 32.205C58.0032 29.2834 58.0441 29.3904 56.5392 28.3791C55.8331 27.9048 55.1312 27.3924 54.9793 27.2407C54.6541 26.9156 54.6204 26.2855 54.9069 25.8771C55.1521 25.5271 55.4376 25.3832 61.3838 22.6142C62.0949 22.283 63.1617 21.7745 63.7543 21.4842C64.9766 20.8852 65.5485 20.8212 66.3112 21.1978ZM64.0416 23.2468C63.528 23.4916 62.7199 23.8726 62.2458 24.0934C58.2196 25.9692 57.4331 26.3846 57.4372 26.6334C57.4416 26.9001 57.8312 27.2068 60.2296 28.8312C60.9873 29.3444 62.2359 30.2032 63.0041 30.7396C64.1511 31.5407 64.4785 31.7036 64.8352 31.6512C65.0743 31.6162 66.1733 31.1539 67.2775 30.624C68.3819 30.0941 70.1905 29.2418 71.2967 28.73C72.403 28.2182 73.3917 27.7306 73.4938 27.6467C73.9603 27.2626 73.7449 27.1257 67.1057 23.5816C66.302 23.1525 65.4939 22.8015 65.3099 22.8017C65.126 22.8017 64.5552 23.0021 64.0416 23.2468ZM70.5784 30.9871C70.4204 31.0467 69.1093 31.6519 67.6647 32.3321C66.0338 33.1001 64.8599 33.5688 64.5674 33.5688C64.2097 33.5688 63.6438 33.2583 62.2132 32.2767C61.1773 31.5661 60.1952 30.9847 60.0307 30.9847C59.7476 30.9847 59.7316 31.0615 59.7316 32.4203C59.7316 34.0499 59.855 34.2896 60.8357 34.566C63.2675 35.2511 69.2054 35.0357 70.8149 34.2041C71.3375 33.9339 71.4174 33.6035 71.3002 32.1975C71.198 30.9719 71.0917 30.7936 70.5784 30.9871ZM106.604 35.7998C103.686 36.1857 100.614 36.776 97.5876 37.532C93.421 38.573 88.3736 40.1545 88.15 40.4893C88.0818 40.5915 88.0624 40.869 88.1069 41.1059C88.4158 42.7496 89.056 46.7048 89.2455 48.1405C89.3706 49.0881 89.5647 50.5416 89.677 51.3707C89.7893 52.1998 90.0162 54.3317 90.1815 56.1083C90.3467 57.8849 90.5116 59.4739 90.548 59.6394C90.5869 59.8163 90.985 60.169 91.5148 60.4958C92.2889 60.9731 92.8861 61.3834 95.2174 63.0389C98.0082 65.0206 101.625 67.6726 101.826 67.8846C101.865 67.9262 102.447 68.3917 103.119 68.9188C103.79 69.446 104.76 70.2347 105.274 70.6716C105.787 71.1083 106.449 71.6362 106.744 71.8444C107.263 72.2102 107.294 72.2148 107.654 71.979C108.033 71.731 112.509 67.2947 113.824 65.8648C120.337 58.7798 124.458 52.1776 125.649 46.9202C126.141 44.7457 125.928 42.2963 125.095 40.5615C124.239 38.7783 122.2 37.2336 119.565 36.3699C117.687 35.7548 115.996 35.5474 112.457 35.4982C109.685 35.4595 108.851 35.5026 106.604 35.7998ZM16.7756 36.0014C14.4637 36.1969 11.4607 36.9395 9.86698 37.7098C8.73532 38.2567 7.22899 39.3803 6.63349 40.1216C5.25013 41.8438 4.58137 44.2372 4.85735 46.4782C5.149 48.847 5.79118 50.8408 7.0757 53.3653C9.17968 57.4999 11.9998 61.316 16.5545 66.1913C19.2775 69.106 24.6269 74.0538 25.0553 74.0538C25.1642 74.0538 25.9481 73.454 26.797 72.7208C28.986 70.8305 33.1298 67.5188 35.7395 65.5741C37.9766 63.9069 38.2102 63.7376 40.5106 62.1176C41.9793 61.0834 41.8282 61.5958 42.0498 56.8979C42.2347 52.9799 42.6419 48.7679 43.3608 43.3362C43.5225 42.115 43.6355 40.8875 43.6121 40.6085L43.5692 40.101L42.2044 39.706C36.5605 38.0728 31.9455 37.0133 28.628 36.5892C28.0749 36.5185 26.8466 36.359 25.8984 36.2348C23.8676 35.9686 18.7188 35.8368 16.7756 36.0014ZM46.3805 41.5007C46.2523 41.8246 46.0854 42.8377 45.807 44.9821C45.7249 45.6138 45.5931 46.6152 45.5138 47.2074C44.9925 51.1011 44.4103 58.8007 44.6209 59.0112C44.7219 59.1121 45.182 58.8926 46.0787 58.3155C47.6259 57.3197 49.0343 56.4347 49.6996 56.0401C49.9627 55.8841 50.4511 55.5934 50.7851 55.3941C51.9109 54.7221 55.1942 52.7653 56.8583 51.7744C57.767 51.2333 58.6075 50.7299 58.726 50.6553C58.8445 50.5808 59.854 50.034 60.9695 49.4399C63.2578 48.2212 63.5063 48.0194 63.0931 47.7159C62.6772 47.4104 57.5692 45.2071 53.9132 43.7561C51.2821 42.712 47.0003 41.1777 46.7174 41.1777C46.6023 41.1777 46.4507 41.323 46.3805 41.5007ZM84.2267 41.7438C82.5456 42.3724 77.594 44.383 76.4687 44.8938C76.1526 45.0374 74.7915 45.6552 73.444 46.2669C72.0964 46.8786 70.8357 47.4988 70.6425 47.6452C70.3306 47.8815 70.3154 47.9354 70.5066 48.1237C70.6251 48.2405 71.2716 48.6081 71.9432 48.9408C72.6149 49.2734 74.3281 50.1921 75.7504 50.9821C77.1727 51.7723 78.7566 52.6447 79.2702 52.9209C80.7712 53.7282 84.1022 55.7259 86.9733 57.5405C87.1405 57.6463 87.3876 57.6906 87.5223 57.6389C87.7923 57.5354 87.7947 57.5931 87.3744 54.0984C86.6785 48.3132 85.6805 41.9638 85.4169 41.6443C85.2241 41.4105 85.0872 41.422 84.2267 41.7438ZM115.58 41.6443C115.804 41.9288 118.635 50.589 118.635 50.9894C118.635 51.2969 118.513 51.3956 117.809 51.659C115.858 52.3886 114.55 52.364 113.236 51.5734C112.789 51.3041 112.341 51.0836 112.243 51.0836C111.936 51.0836 107.663 52.5357 107.308 52.7603C106.877 53.0339 106.915 53.1792 108.023 55.495C110.873 61.4514 111.741 63.3606 111.676 63.5307C111.586 63.7637 110.906 64.0391 110.713 63.9202C110.636 63.8728 110.101 62.8548 109.525 61.6581C108.948 60.4613 108.171 58.8523 107.799 58.0823C107.182 56.8062 106.774 56.364 106.674 56.862C106.655 56.9608 106.639 58.6566 106.639 60.6306V64.2197H106.064H105.489L105.4 62.6405C105.351 61.7719 105.301 60.1891 105.29 59.1232C105.261 56.4048 105.074 56.2469 104.19 58.1956C103.309 60.1362 103.178 60.4329 102.396 62.2588C101.979 63.2331 101.546 64.0654 101.435 64.108C101.102 64.2358 100.533 63.8955 100.533 63.5689C100.533 63.405 100.72 62.8383 100.948 62.3096C101.177 61.781 102.024 59.8302 102.831 57.9747C103.637 56.1191 104.349 54.4678 104.412 54.3052C104.565 53.9119 104.048 52.7138 103.684 52.6187C103.429 52.5523 97.9174 54.3042 97.2389 54.6671C96.9924 54.7989 96.937 54.946 96.9639 55.399C96.9823 55.7108 96.9362 56.0223 96.8615 56.0911C96.6859 56.2528 94.0702 57.1133 93.7544 57.1133C93.4881 57.1133 93.3184 56.7073 92.3512 53.7566C91.8264 52.1559 91.7726 51.8799 91.9498 51.7028C92.1869 51.4659 94.5434 50.6525 94.9887 50.6538C95.1712 50.6543 95.3848 50.823 95.5336 51.0845C95.8544 51.6478 96.1476 51.6382 97.9802 51.0035C98.7915 50.7225 100.147 50.2657 100.993 49.9882C102.614 49.4564 102.809 49.2873 102.627 48.5652C102.502 48.0652 102.797 47.919 106.217 46.7905C110.595 45.3459 110.422 45.4305 110.815 44.5428C111.448 43.1108 112.321 42.382 114.086 41.8108C115.296 41.419 115.394 41.4081 115.58 41.6443ZM113.534 43.4262C112.549 43.9456 112.026 44.6933 112.026 45.585C112.026 46.1596 113.075 49.4963 113.425 50.0357C113.704 50.4657 114.73 50.94 115.38 50.94C116.029 50.94 116.884 50.6031 116.999 50.302C117.124 49.9777 114.929 43.3734 114.663 43.2713C114.316 43.1383 113.998 43.1821 113.534 43.4262ZM23.2405 44.29C25.5449 44.9194 27.5397 47.0314 28.2117 49.5531C28.4846 50.5774 28.4618 52.3592 28.1612 53.4863L27.91 54.4288L31.1661 57.6014C34.7703 61.1133 34.9188 61.3237 34.5983 62.4678C34.4051 63.1573 33.4895 64.2219 32.8927 64.451C32.3382 64.6637 31.2453 64.5976 30.8373 64.3264C30.6301 64.1888 29.1199 62.7841 27.4813 61.2049C25.8428 59.6256 24.3797 58.3129 24.23 58.2876C24.0804 58.2624 23.5931 58.3476 23.1472 58.4771C21.2255 59.0355 19.7368 58.9136 17.8248 58.0413C14.923 56.7176 13.1551 53.3793 13.6987 50.2508C14.1124 47.8696 15.6592 45.7628 17.7755 44.6979C19.3392 43.911 21.3133 43.7637 23.2405 44.29ZM19.9884 45.9159C18.9602 46.1278 17.7294 46.8513 16.9526 47.7007C14.497 50.3856 15.3261 54.667 18.6145 56.2833C19.513 56.7251 19.6666 56.7544 21.0833 56.7544C22.4353 56.7544 22.6771 56.7136 23.3842 56.3656C24.4834 55.8249 25.4932 54.7901 26.0175 53.6677C26.4029 52.8424 26.4543 52.5769 26.4631 51.3707C26.4722 50.1275 26.4334 49.9243 26.0244 49.0737C25.3767 47.7268 24.2847 46.693 22.9976 46.2082C22.1424 45.8862 20.7765 45.7535 19.9884 45.9159ZM109.081 47.2064C105.948 48.2073 104.492 48.7503 104.354 48.9699C104.243 49.1455 104.314 49.5285 104.632 50.4677C105.033 51.6551 105.084 51.7319 105.489 51.7694C105.98 51.8146 111.26 50.0442 111.576 49.7284C111.751 49.5532 111.724 49.3547 111.376 48.287C111.038 47.2463 110.71 46.7319 110.419 46.785C110.394 46.7896 109.792 46.9791 109.081 47.2064ZM65.1191 50.3731C64.408 50.761 63.3412 51.3305 62.7486 51.6389C60.3271 52.8987 52.0447 57.7303 51.0399 58.4694C50.8028 58.6438 49.9447 59.2013 49.1331 59.7085C47.7024 60.6025 47.0161 61.0451 45.3097 62.1746C44.8619 62.4709 44.4337 62.8761 44.3581 63.0746C44.1693 63.5706 44.2617 76.4338 44.4838 80.586C44.7638 85.8215 45.023 88.5607 45.2609 88.7984C45.5538 89.0911 47.3873 90.2029 49.8187 91.5622C52.6137 93.1247 53.1321 93.4245 53.554 93.7227C53.7515 93.8622 54.1588 94.0787 54.459 94.2037C54.7592 94.3288 55.7966 94.8792 56.7644 95.4268C59.1791 96.7929 66.035 100.182 66.3838 100.182C66.6539 100.182 69.7973 98.598 71.7996 97.4525C72.3132 97.1587 73.1783 96.6676 73.7221 96.3611C74.2659 96.0546 74.9099 95.6843 75.1534 95.5383C75.3968 95.3925 77.1823 94.334 79.1212 93.1863C81.06 92.0385 82.7756 90.9892 82.9337 90.8544C83.0917 90.7196 83.7705 90.2714 84.4422 89.8585C85.1138 89.4456 86.2452 88.7051 86.9563 88.213L88.2493 87.3181L88.344 86.3926C88.8087 81.8531 88.4655 62.3021 87.9062 61.4552C87.7864 61.2738 83.6658 58.6685 82.8618 58.266C82.5063 58.0879 82.086 57.8305 81.928 57.694C81.77 57.5575 80.6063 56.8773 79.342 56.1823C78.0778 55.4874 76.7524 54.7574 76.3969 54.5601C76.0413 54.363 75.4918 54.0605 75.1757 53.8881C74.8596 53.7157 73.7037 53.0753 72.607 52.465C69.5996 50.7916 67.2308 49.6468 66.7987 49.658C66.5861 49.6635 65.8303 49.9853 65.1191 50.3731ZM93.7445 52.3872C93.4144 52.5794 93.4273 52.9831 93.8 54.1065C94.2652 55.5085 94.6302 55.8156 95.1497 55.2421C95.407 54.958 95.4053 54.9219 95.0859 53.9141C94.5779 52.3111 94.3401 52.0404 93.7445 52.3872ZM26.4332 56.4754C26.2575 56.5983 26.1139 56.8167 26.1139 56.9607C26.1139 57.1858 31.2473 62.2895 31.7885 62.6024C31.9786 62.7124 32.7225 62.2201 32.7225 61.9844C32.7225 61.9115 32.483 61.5869 32.1902 61.263C31.3966 60.3851 27.0099 56.2519 26.872 56.2519C26.8062 56.2519 26.6088 56.3525 26.4332 56.4754ZM72.053 62.3356C74.1337 62.9084 76.1949 64.8377 76.4536 66.4547C76.6048 67.3996 76.7494 67.5487 77.8539 67.8969C78.6753 68.1559 79.0294 68.3664 79.6236 68.948C81.3046 70.5938 81.9511 73.3676 81.192 75.6783C80.9784 76.3283 80.4395 76.99 79.5133 77.739C79.1395 78.0413 79.131 78.0821 79.2199 79.1347C79.2976 80.0535 79.2617 80.3564 78.9841 81.1203C78.2055 83.2629 76.651 84.5162 74.492 84.7425C73.1121 84.8872 73.0345 84.9971 73.1551 86.6376C73.2592 88.0563 73.1707 88.4188 72.6088 88.8736C72.4096 89.0349 72.046 89.1227 71.5694 89.1249C70.091 89.1314 69.2437 88.0763 69.0846 86.0305C68.9649 84.4931 68.833 84.3471 67.4951 84.2716L66.4957 84.2151L65.5201 84.9467C64.2384 85.9078 63.1933 86.2572 61.6073 86.255C59.2142 86.2517 57.4258 85.4146 56.3316 83.7855C55.8923 83.1312 55.6531 82.9211 55.1501 82.7465C53.6276 82.2186 52.646 81.3492 51.9889 79.9466C51.6583 79.2411 51.6158 78.9703 51.6152 77.5712C51.6147 76.1659 51.6558 75.9049 51.9892 75.2023C52.1954 74.7681 52.5748 74.1952 52.8325 73.9295C53.0903 73.6636 53.4557 73.052 53.6447 72.5704C53.8336 72.0886 54.1491 71.4514 54.3458 71.1544C54.6454 70.7019 54.7033 70.4433 54.7033 69.5584C54.7033 66.5483 56.6704 64.1406 59.7095 63.4307C60.659 63.2089 61.4727 63.3124 62.7196 63.8134C63.2491 64.0262 63.7796 64.1937 63.8982 64.1857C64.017 64.1776 64.4012 63.8983 64.7522 63.5646C65.4425 62.9084 66.5277 62.3481 67.5149 62.1382C68.3573 61.9591 71.1222 62.0793 72.053 62.3356ZM68.1361 63.2363C66.4816 63.582 65.7159 64.0504 65.1065 65.0897C64.905 65.4331 64.626 65.7502 64.4863 65.7946C64.3378 65.8417 63.7026 65.6052 62.9607 65.2269C61.8313 64.651 61.5828 64.5786 60.736 64.5786C60.2118 64.5786 59.4758 64.6831 59.1007 64.8109C58.1575 65.132 56.8309 66.3869 56.3413 67.4213C55.9775 68.1898 55.9611 68.3161 56.0377 69.7663C56.1753 72.3748 56.9141 73.1568 59.3097 73.2302C60.3146 73.2609 60.4607 73.2302 60.794 72.9182C61.0024 72.7234 61.1988 72.347 61.2437 72.0569C61.4097 70.9862 61.6224 70.4613 62.1724 69.766C63.2878 68.3559 65.2003 67.4707 66.7407 67.6516C67.5843 67.7506 68.672 68.1667 69.1005 68.5543C69.4173 68.8407 69.4363 69.4385 69.1323 69.5551C69.0084 69.6025 68.4649 69.4634 67.9242 69.2459C66.2528 68.5736 64.6354 68.8664 63.4434 70.0576C62.7038 70.7966 62.4271 71.3944 62.4288 72.2491C62.431 73.2974 62.3606 73.4519 61.7355 73.7706C60.9749 74.1582 60.7163 74.7035 60.7678 75.8108C60.8034 76.5751 60.7724 76.7073 60.5471 76.7533C60.1246 76.8394 59.7572 76.3758 59.5828 75.5367C59.4022 74.667 59.4291 74.6867 57.7728 74.2082C56.9812 73.9795 56.577 73.7588 55.9985 73.239C55.1215 72.4509 54.9502 72.486 54.5519 73.5344C54.4067 73.9169 54.059 74.4584 53.7794 74.7378C53.0156 75.5011 52.6502 76.6074 52.7241 77.9328C52.7763 78.8704 52.8518 79.1175 53.298 79.8146C53.9061 80.7644 54.4416 81.1749 55.6249 81.5977C56.2776 81.831 56.572 82.0278 56.7865 82.3746C57.6518 83.7737 58.6849 84.5455 60.2856 84.9891C61.4224 85.3041 62.022 85.3166 62.9204 85.0441C63.8264 84.7694 64.1711 84.5809 64.724 84.0579C65.3307 83.4841 65.3129 83.2859 64.6381 83.1042C64.2347 82.9957 63.8787 82.7181 63.3206 82.0768L62.5557 81.198L60.8922 81.2929C58.405 81.4347 56.9731 80.9633 55.3234 79.459C54.5334 78.7386 54.3634 78.2716 54.7688 77.9352C55.0158 77.7305 55.0871 77.7684 56.2118 78.6999C57.4139 79.6955 58.3046 80.0712 59.7224 80.1804C61.9494 80.352 64.0866 79.6708 65.1251 78.4584C65.3931 78.1455 65.763 77.4951 65.9473 77.0127C66.2531 76.2126 66.3199 76.1355 66.7065 76.1355C67.0794 76.1355 67.1359 76.1915 67.1752 76.6001C67.2774 77.6567 66.1134 79.3559 64.5634 80.4133C64.0525 80.7617 64.0877 81.1611 64.6881 81.8252C64.9945 82.1642 65.1909 82.529 65.1909 82.7594C65.1909 83.1236 65.2139 83.1343 65.8242 83.0507C66.1725 83.0029 67.21 83.0042 68.1298 83.0534C69.6025 83.1324 69.8204 83.1772 69.9556 83.4297C70.0399 83.5873 70.154 84.45 70.2089 85.3467C70.2893 86.6592 70.3659 87.054 70.6015 87.3707C70.9055 87.7795 71.58 87.9692 71.8326 87.7168C71.9106 87.6388 71.9846 86.827 71.9973 85.9125C72.027 83.7435 72.1172 83.6304 73.8406 83.6007C74.7624 83.5849 75.1717 83.5081 75.6491 83.2613C77.135 82.4932 78.0168 81.1602 78.0177 79.6805C78.018 79.2615 77.9411 78.8415 77.847 78.7474C77.7496 78.6499 77.0438 78.5402 76.2103 78.493C74.4644 78.3941 73.7102 78.1066 72.6873 77.1506C72.3013 76.7897 71.8523 76.4944 71.6897 76.4944C71.3022 76.4944 70.6853 77.2384 70.5719 77.8426C70.5225 78.1056 70.5518 78.5722 70.6372 78.8792C70.9085 79.856 70.8508 80.0745 70.2552 80.323C69.9589 80.4466 69.4999 80.7377 69.2353 80.9699C68.6362 81.4953 68.1553 81.4712 68.091 80.9127C68.0564 80.6124 68.1983 80.3587 68.7016 79.8211C69.3108 79.1702 69.3575 79.0658 69.3604 78.3458C69.3637 77.5159 69.7411 76.5012 70.2464 75.9634C70.6188 75.5669 70.5086 75.2572 69.9516 75.1349C69.4157 75.0173 69.1775 74.7428 69.2384 74.313C69.2824 74.0029 69.3669 73.9767 70.5784 73.8976C72.3183 73.7842 72.8709 73.5193 73.6192 72.4403C74.0984 71.7492 74.4693 71.5284 74.7539 71.7644C74.8674 71.8586 74.9602 72.0613 74.9602 72.2151C74.9602 72.6114 74.2347 73.6125 73.5504 74.1602C73.2306 74.416 72.9289 74.752 72.8798 74.9067C72.6795 75.537 73.9077 76.9227 74.9141 77.2019C75.7153 77.4243 77.0931 77.3895 77.986 77.1245C78.9908 76.8263 79.889 75.9614 80.1326 75.0572C80.3392 74.2903 80.3396 72.9573 80.1333 72.1921C79.9866 71.6475 79.2304 70.4201 78.6445 69.7753C78.2369 69.327 77.1952 68.8855 76.5446 68.8855C75.8025 68.8855 75.5209 68.5246 75.4004 67.4186C75.1766 65.3642 73.7044 63.9686 71.1064 63.348C70.3356 63.1638 68.7655 63.1048 68.1361 63.2363ZM90.8619 63.6813C90.8277 63.7406 90.8666 64.9196 90.9485 66.3014C91.0302 67.6832 91.1029 72.4584 91.1098 76.9131C91.1186 82.4952 91.17 85.0283 91.2753 85.0633C91.3979 85.1042 93.0826 84.0188 93.7086 83.4956C93.7876 83.4296 94.725 82.7224 95.7918 81.9241C99.067 79.4731 104.756 74.7735 104.899 74.4007C105.033 74.0518 102.236 71.6944 97.2284 67.936C94.5048 65.8919 94.141 65.6285 92.2438 64.3274C91.1275 63.5619 90.9726 63.4895 90.8619 63.6813ZM40.6959 65.4085C40.3799 65.6252 39.2242 66.48 38.1279 67.308C37.0316 68.1361 35.9649 68.9411 35.7574 69.0967C35.55 69.2523 35.0158 69.6723 34.5703 70.0299C34.1249 70.3875 33.3537 71.0031 32.8567 71.3979C31.5246 72.456 28.0953 75.3979 27.7845 75.7492C27.6367 75.9163 27.5514 76.146 27.595 76.2597C27.7147 76.5714 31.1761 79.2396 36.3141 82.9811C37.8732 84.1164 41.8106 86.6875 41.9902 86.6875C42.3249 86.6875 42.3487 86.4857 42.2037 84.874C42.1264 84.0159 42.0332 82.9261 41.9964 82.4523C41.9596 81.9786 41.8866 78.1346 41.8342 73.9103C41.7395 66.2896 41.6851 65.1448 41.4122 65.0593C41.3344 65.0349 41.012 65.1921 40.6959 65.4085ZM78.1846 69.9288C78.8796 70.322 79.2542 70.9339 79.3631 71.8528C79.4674 72.7325 79.1377 73.6231 78.7079 73.6231C78.3135 73.6231 78.1209 73.2059 78.1209 72.3516C78.1209 71.7432 78.0543 71.5687 77.6788 71.1936C77.4357 70.9507 77.1794 70.7519 77.1092 70.7519C77.0391 70.7519 76.9096 70.6173 76.8214 70.4528C76.6937 70.2142 76.7116 70.0981 76.9105 69.8785C77.2313 69.5242 77.4879 69.5344 78.1846 69.9288ZM105.042 78.186C101.327 81.3106 96.2587 85.1991 92.0488 88.1541C91.5312 88.5176 91.0321 88.9058 90.9399 89.0168C90.8442 89.1321 90.7076 90.1995 90.6212 91.5062C90.4829 93.5998 90.2894 95.6629 89.8879 99.3211C89.7099 100.943 88.9627 106.175 88.7248 107.465C88.5086 108.638 88.5822 108.712 90.4204 109.179C96.2722 110.666 98.937 111.204 103.262 111.772C105.719 112.094 112.922 112.135 114.612 111.836C117.505 111.324 120.002 110.404 121.522 109.289C122.993 108.21 124.169 106.489 124.609 104.772C124.913 103.588 124.826 100.653 124.452 99.4646C124.316 99.0304 124.045 98.1747 123.85 97.5633C123.21 95.5507 121.071 91.668 119.209 89.1389C117.675 87.0543 117.39 86.6942 115.788 84.8211C113.294 81.9056 107.726 76.3379 107.322 76.3556C107.262 76.3582 106.236 77.1819 105.042 78.186ZM22.6906 80.4783C14.9039 88.158 9.7621 95.3501 7.88525 101.187C7.26763 103.108 7.10069 104.283 7.18301 106.129C7.24436 107.508 7.31662 107.87 7.72492 108.849C8.68978 111.161 11.0133 112.933 14.1537 113.753C17.4726 114.62 23.215 114.709 27.5505 113.962C27.9851 113.887 28.964 113.726 29.726 113.604C32.1661 113.213 37.0982 112.04 39.6903 111.234C40.1644 111.087 41.425 110.698 42.4917 110.37C43.5585 110.042 44.6413 109.675 44.8981 109.555C45.4642 109.292 45.4814 109.076 45.0874 107.185C44.6177 104.933 43.9308 100.785 43.5118 97.6701C42.9055 93.1628 42.7791 92.0991 42.7791 91.5036C42.7791 91.117 42.6782 90.7627 42.5068 90.5472C42.3571 90.3588 40.9186 89.3417 39.3103 88.2869C37.7019 87.2321 36.0304 86.1151 35.5958 85.8045C35.1612 85.4941 34.2561 84.8589 33.5845 84.3927C31.8733 83.2055 29.0426 81.0939 27.075 79.537C26.1575 78.8111 25.3116 78.2172 25.1951 78.2172C25.0786 78.2172 23.9515 79.2346 22.6906 80.4783ZM108.157 86.1943C108.411 86.4233 108.434 86.6583 108.434 88.9357V91.4265L109.016 93.0409C109.337 93.9288 109.69 94.8814 109.803 95.1577C109.915 95.4341 110.601 97.2107 111.328 99.1057C113.121 103.782 113.164 104.51 111.715 105.657L111.108 106.137L106.575 106.255C101.694 106.382 101.316 106.346 100.536 105.69C99.9706 105.215 99.8219 104.926 99.6716 104.013C99.5377 103.199 99.4976 103.335 102.327 95.0257L103.423 91.8069L103.393 89.0963C103.372 87.1489 103.412 86.3372 103.535 86.2135C103.964 85.7841 107.687 85.7687 108.157 86.1943ZM31.0703 87.9787C34.6084 89.6944 36.1399 94.7089 34.1333 98.0076C33.958 98.2957 33.4162 99.0806 32.9294 99.7518C32.4425 100.423 31.9737 101.107 31.8876 101.272C31.7412 101.553 31.4325 103.787 31.21 106.177C31.0906 107.458 30.7591 107.998 29.7837 108.499C29.2632 108.767 28.7895 108.88 28.0216 108.918C27.1113 108.964 26.8671 108.92 26.187 108.588C25.1247 108.069 24.8759 107.668 24.613 106.055C24.492 105.312 24.3315 104.382 24.2564 103.987C24.1811 103.592 24.1158 102.937 24.1112 102.531C24.102 101.739 23.9424 101.457 22.4885 99.6629C21.2561 98.1423 20.4076 96.2213 20.351 94.8238C20.3075 93.7459 21.0975 91.3498 21.8703 90.2164C22.6192 89.118 23.9686 88.0803 25.1464 87.6971C25.9073 87.4495 26.3447 87.4122 28.0533 87.4483C30.0071 87.4897 30.0934 87.5049 31.0703 87.9787ZM105.082 87.501C105.029 87.5536 104.986 88.5601 104.986 89.7375V91.8783L103.968 94.846C100.945 103.655 100.883 103.898 101.503 104.518C101.826 104.841 101.835 104.841 105.944 104.797C108.208 104.772 110.223 104.69 110.421 104.615C111.526 104.195 111.437 103.551 109.656 99.034C109.392 98.3628 108.679 96.4897 108.073 94.8715L106.971 91.9294L106.904 89.9903C106.81 87.2746 106.858 87.4053 105.941 87.4053C105.522 87.4053 105.135 87.4483 105.082 87.501ZM26.6088 88.9784C23.8412 89.403 21.9119 92.0623 22.1151 95.1724C22.1947 96.3918 22.6593 97.2974 24.1597 99.1576C25.4642 100.775 25.6117 101.114 25.7617 102.838C25.8168 103.47 25.9236 104.105 25.9994 104.25C26.3157 104.856 27.9421 105.123 28.884 104.725C29.6452 104.403 29.8064 104.097 29.9917 102.623C30.2009 100.959 30.4471 100.371 31.5364 98.9313C33.3754 96.5013 33.7475 95.2846 33.2479 93.3353C32.6584 91.0362 31.491 89.7106 29.5618 89.1503C28.813 88.9328 27.4308 88.8524 26.6088 88.9784ZM87.0281 91.5191C86.6726 91.7271 86.2523 92.0056 86.0943 92.1379C85.9363 92.2702 85.3221 92.661 84.7295 93.0063C84.1369 93.3515 83.1348 94.0002 82.5027 94.4478C80.8221 95.6379 77.3795 97.708 76.5405 98.033C76.264 98.1403 75.3373 98.6409 74.4815 99.1458C73.6256 99.6506 72.6881 100.171 72.3984 100.302C71.5842 100.672 70.0756 101.624 70.0756 101.768C70.0756 101.84 70.2533 101.989 70.4707 102.099C71.1735 102.458 75.863 104.349 78.8392 105.473C81.3273 106.413 85.1681 107.648 85.6038 107.648C85.9642 107.648 85.9902 107.596 86.16 106.535C86.2579 105.923 86.424 104.97 86.5292 104.418C86.6344 103.865 86.9158 101.862 87.1546 99.9671C87.8312 94.5968 88.0821 91.2801 87.8183 91.1899C87.7393 91.1629 87.3837 91.3111 87.0281 91.5191ZM45.5087 92.7835C45.5087 93.1777 46.0854 97.5239 46.3095 98.8186C46.4325 99.5293 46.6592 100.918 46.8132 101.905C46.9672 102.892 47.3024 104.701 47.558 105.925C48.1063 108.55 48.0293 108.488 49.8424 107.754C50.501 107.488 51.5247 107.087 52.1174 106.863C54.1357 106.102 61.0015 103.056 62.3176 102.338C62.5942 102.187 62.8204 101.971 62.8204 101.858C62.8204 101.734 61.6954 101.076 60.019 100.219C58.4782 99.4313 54.7026 97.3888 51.6289 95.6802C48.5552 93.9716 45.9208 92.5736 45.7745 92.5736C45.6284 92.5736 45.5087 92.668 45.5087 92.7835ZM63.6824 104.777C61.2078 106.005 56.8049 108.006 54.0568 109.152C53.3457 109.449 52.4285 109.845 52.0187 110.033C51.6088 110.222 51.219 110.376 51.1525 110.376C50.9501 110.376 49.0928 111.187 48.9354 111.344C48.6368 111.643 50.6645 118.774 52.2319 122.937C55.9995 132.945 60.4701 138.973 65.3346 140.606C66.5908 141.028 68.7207 140.969 69.9838 140.477C76.0766 138.108 81.2819 128.591 84.8591 113.28C85.1039 112.232 85.3042 111.223 85.3042 111.037C85.3042 110.739 85.147 110.645 83.9752 110.246C81.4242 109.377 77.7567 108.067 77.1152 107.796C76.7596 107.645 75.208 107.022 73.6672 106.412C72.1264 105.801 70.7364 105.222 70.5784 105.126C70.4204 105.029 70.1294 104.902 69.9319 104.844C69.7344 104.785 69.0242 104.481 68.3537 104.168C67.6834 103.855 66.9399 103.575 66.7016 103.547C66.3789 103.508 65.6089 103.821 63.6824 104.777ZM75.3625 112.845C75.4573 112.94 75.5349 113.314 75.5349 113.677C75.5349 114.4 75.7169 114.682 76.1827 114.682C76.3493 114.682 76.602 114.768 76.7444 114.871C77.0345 115.084 77.0389 115.163 77.1839 122.899C77.2599 126.957 77.2504 127.181 76.9914 127.44C76.7325 127.699 76.3072 127.717 68.4049 127.805C63.8321 127.856 59.6604 127.934 59.1343 127.979C57.5755 128.112 57.642 128.306 57.5288 123.284C57.3861 116.959 57.4021 115.437 57.6126 115.301C57.7114 115.237 57.9861 115.12 58.2231 115.041C58.6096 114.913 58.6616 114.824 58.726 114.18C58.8514 112.927 58.9139 112.885 60.6196 112.908C62.3196 112.932 63.6105 113.238 65.7932 114.137L67.1856 114.711L68.451 114.13C69.541 113.63 71.3407 112.995 72.3024 112.772C72.9463 112.623 75.194 112.676 75.3625 112.845ZM73.3081 113.921C71.898 114.107 69.1748 115.058 68.1997 115.705L67.8488 115.938L67.891 120.371C67.9143 122.809 67.971 125.084 68.0171 125.427C68.0984 126.033 68.114 126.049 68.5496 125.977C68.7962 125.937 69.5424 125.736 70.2079 125.531C70.8734 125.326 72.1017 125.078 72.9376 124.981L74.4574 124.804L74.4328 119.498C74.4101 114.605 74.3884 114.178 74.154 114.007C74.014 113.905 73.8635 113.831 73.8194 113.843C73.7751 113.854 73.5451 113.89 73.3081 113.921ZM60.1787 114.304C60.0218 114.493 60.0059 115.466 60.0915 119.598C60.1491 122.382 60.2557 124.773 60.3281 124.911C60.4343 125.113 60.653 125.163 61.4449 125.163C62.5229 125.163 64.2054 125.447 65.5502 125.857C66.0245 126.001 66.4931 126.093 66.5918 126.06C66.7297 126.014 66.7677 125.13 66.756 122.243C66.7477 120.177 66.6991 117.905 66.6483 117.195L66.5558 115.903L65.7656 115.515C63.6695 114.487 60.5823 113.818 60.1787 114.304Z" fill="white"/>
</svg>
