<svg width="19" height="13" viewBox="0 0 19 13" fill="none" xmlns="http://www.w3.org/2000/svg">
<path fill-rule="evenodd" clip-rule="evenodd" d="M3.41546 0.546273C3.07179 0.933232 0.10791 7.34354 0.10791 7.69973C0.10791 7.8328 0.263619 8.02628 0.454013 8.12935C0.694196 8.2594 0.835173 8.61691 0.914799 9.29834C1.14025 11.2252 2.47133 12.4301 4.58934 12.6245C6.27901 12.7795 7.61662 12.1558 8.24897 10.9179C8.41474 10.5934 8.60197 9.68775 8.66481 8.90553L8.77912 7.48322H9.43179H10.0845L10.1988 8.90553C10.2616 9.68775 10.4488 10.5934 10.6146 10.9179C11.247 12.1558 12.5846 12.7795 14.2742 12.6245C16.3615 12.4329 17.6926 11.2507 17.9447 9.3646C18.0228 8.77963 18.1989 8.33434 18.4127 8.18031C18.6015 8.04478 18.7557 7.82657 18.7557 7.69557C18.7557 7.34222 15.7894 0.930589 15.4481 0.546273C14.9044 -0.0660657 14.2977 0.207259 13.7275 1.32151C13.5539 1.66071 13.5516 1.81795 13.7174 1.98217C13.8815 2.14489 14.0367 2.07014 14.3477 1.67884C14.5747 1.39343 14.8258 1.15974 14.906 1.15974C15.0375 1.15974 16.0407 3.21648 17.1687 5.79816L17.5956 6.77518L14.9588 6.75158C13.5088 6.73875 11.8607 6.74649 11.2966 6.76876C9.99626 6.82029 8.86732 6.82029 7.56702 6.76876C7.00292 6.74649 5.35632 6.73554 3.90777 6.74441L1.27433 6.76083L1.69801 5.79098C2.82284 3.21629 3.82627 1.15974 3.95755 1.15974C4.03774 1.15974 4.28893 1.39343 4.51587 1.67884C4.82691 2.07014 4.98206 2.14489 5.14616 1.98217C5.51763 1.61428 4.62925 0.215942 4.02394 0.215942C3.85052 0.215942 3.57677 0.364686 3.41546 0.546273ZM7.61364 7.67481C8.32561 7.96267 7.9161 10.3775 7.00553 11.2605C6.53095 11.7207 6.25757 11.8179 5.27949 11.8753C3.25864 11.9935 1.92569 11.0108 1.62099 9.1781C1.53502 8.66127 1.43227 8.11198 1.39237 7.95776C1.3409 7.75787 1.53465 7.6397 2.06593 7.54702C2.95934 7.3911 7.15117 7.48775 7.61364 7.67481ZM16.7044 7.55268C17.3084 7.65046 17.5232 7.7656 17.4712 7.96343C17.4313 8.11462 17.3286 8.66127 17.2426 9.1781C17.0455 10.3633 16.6226 10.9538 15.5746 11.5065C14.9055 11.8594 14.5232 11.9302 13.5841 11.8753C12.606 11.8179 12.3326 11.7207 11.8581 11.2605C11.2311 10.6525 10.9262 9.77421 10.9247 8.57218C10.9236 7.72748 10.9311 7.72144 12.229 7.51455C13.0308 7.38676 15.8265 7.41055 16.7044 7.55268Z" fill="#30322F"/>
</svg>
