<svg width="13" height="11" viewBox="0 0 13 11" fill="none" xmlns="http://www.w3.org/2000/svg">
<path fill-rule="evenodd" clip-rule="evenodd" d="M11.773 0.210593C11.6732 0.247754 9.08021 1.26563 6.01082 2.47255C2.57321 3.82425 0.40491 4.69122 0.364545 4.73016C0.278399 4.81322 0.231865 4.97885 0.256626 5.11432C0.299057 5.34642 0.31441 5.35376 1.92321 5.91132C3.1537 6.33777 3.40242 6.41547 3.45122 6.38865C3.48326 6.37106 3.83937 6.14907 4.24258 5.89536C4.64578 5.64165 6.16815 4.68623 7.62562 3.77219C10.3442 2.06727 10.3633 2.05647 10.3633 2.22099C10.3633 2.25575 9.46474 3.12375 7.83041 4.66781C6.43734 5.98392 5.26756 7.09285 5.23093 7.13213C5.1657 7.2021 5.16249 7.2309 5.07129 8.57067C5.0058 9.53248 4.98629 9.96148 5.00549 10.0175C5.03773 10.1116 5.16084 10.1807 5.24643 10.1528C5.2797 10.142 5.67152 9.76728 6.11712 9.32014C6.56273 8.87301 6.9378 8.50718 6.95061 8.50718C6.96339 8.50718 7.62344 9.01274 8.41734 9.63067C9.21125 10.2486 9.90477 10.778 9.9585 10.8072C10.1694 10.9219 10.4787 10.8315 10.6249 10.6124C10.6723 10.5416 10.921 9.42664 11.7181 5.71271C12.2856 3.06828 12.75 0.866486 12.75 0.819784C12.75 0.648333 12.6839 0.50092 12.5416 0.354826C12.3219 0.129309 12.1021 0.0880791 11.773 0.210593Z" fill="#30322F"/>
</svg>
