<svg width="13" height="9" viewBox="0 0 13 9" fill="none" xmlns="http://www.w3.org/2000/svg">
<path fill-rule="evenodd" clip-rule="evenodd" d="M0.334311 1.46118C0.67605 5.22426 2.49733 7.6965 5.38958 8.3237C5.86819 8.42746 6.5054 8.51334 6.80588 8.51466L7.3521 8.5169V7.06772V5.61854L7.70553 5.70271C8.83356 5.97114 9.85493 6.82402 10.4301 7.97781L10.6989 8.5169H11.7244C12.3365 8.5169 12.75 8.53124 12.75 8.45115C12.75 8.37723 12.5644 7.85879 12.3376 7.38283C11.8949 6.4538 10.8336 5.24398 10.1485 4.88744C9.91816 4.7675 9.70622 4.64808 9.67756 4.62178C9.6489 4.59561 10.0092 4.21434 10.4783 3.77442C11.1138 3.17852 11.4451 2.73413 11.7781 2.03052C12.5051 0.494418 12.4719 0.515855 11.3712 0.494418H10.4783L10.1296 1.22275C9.63759 2.32248 8.52396 3.43695 7.64526 3.70906C7.36277 3.79665 7.38795 3.78218 7.3521 2.17874V0.494418H6.38818L5.39471 0.482178V3.28347C5.36104 6.0006 5.35243 6.08253 5.10297 6.0411C4.6633 5.96811 3.87739 5.33526 3.46535 4.72239C2.9077 3.89305 2.62225 3.04424 2.43975 1.67227L2.28128 0.482178H1.26558H0.25L0.334311 1.46118Z" fill="#30322F"/>
</svg>
