<svg width="15" height="15" viewBox="0 0 15 15" fill="none" xmlns="http://www.w3.org/2000/svg">
<path fill-rule="evenodd" clip-rule="evenodd" d="M5.83473 0.815007C3.36222 1.08035 1.37547 2.89777 0.887793 5.34036C0.775684 5.90176 0.775684 6.85423 0.887793 7.41563C1.11142 8.53566 1.63792 9.52548 2.43274 10.32C3.22424 11.1113 4.17282 11.6165 5.32848 11.8621C5.85854 11.9748 6.85471 11.9767 7.4067 11.8661C8.24163 11.6989 8.95133 11.3912 9.63806 10.8986L9.91402 10.7007L11.6276 12.4121C12.5701 13.3534 13.3855 14.1399 13.4395 14.16C13.8898 14.3272 14.3274 13.8897 14.1601 13.4396C14.1401 13.3856 13.352 12.5692 12.409 11.6255L10.6944 9.90963L10.7988 9.7756C11.3081 9.12233 11.6824 8.29367 11.8607 7.42512C11.9675 6.90473 11.9773 5.91544 11.8807 5.41813C11.6534 4.24839 11.1275 3.24413 10.3191 2.43596C9.5219 1.63902 8.55003 1.11948 7.44078 0.897346C7.09869 0.828829 6.15615 0.780522 5.83473 0.815007ZM7.24875 1.99557C9.04644 2.37836 10.3722 3.70563 10.7627 5.51349C10.8496 5.91583 10.8496 6.84016 10.7627 7.2425C10.3714 9.0542 9.05286 10.3724 7.24065 10.7636C6.83819 10.8504 5.9136 10.8504 5.51115 10.7636C3.69998 10.3726 2.38016 9.05315 1.98909 7.2425C1.90219 6.84016 1.90219 5.91583 1.98909 5.51349C2.28683 4.13498 3.12334 3.02901 4.33779 2.40814C4.72226 2.21159 5.22091 2.04262 5.59033 1.98374C5.72475 1.96231 5.87401 1.93805 5.92202 1.92985C6.10695 1.89826 6.99936 1.94245 7.24875 1.99557Z" fill="#30322F"/>
</svg>
